M48
;GenerationSoftware,Autodesk,EAGLE,9.5.0*%
;CreationDate,2021-04-04T01:35:03Z*%
FMAT,2
ICI,OFF
METRIC,TZ,000.000
T8C0.300
T7C0.600
T6C0.700
T5C0.813
T4C0.900
T3C1.000
T2C1.100
T1C2.750
%
G90
M71
T1
X252247Y81146
X252247Y23146
X301247Y23146
X301247Y81146
T2
X56926Y78105
X66248Y73025
X66248Y75565
X66248Y78105
X27386Y29083
X56926Y75565
X27386Y24003
X27386Y26543
X28961Y78105
X19639Y73025
X19639Y75565
X19639Y78105
X28961Y73025
X28961Y75565
X38283Y73025
X38283Y75565
X38283Y78105
X47604Y73025
X47604Y75565
X47604Y78105
X56926Y73025
T3
X11303Y37734
X6303Y34234
X11303Y30734
X6303Y27234
X219400Y79041
X215900Y74041
X212400Y79041
X243093Y74041
X222900Y74041
X239593Y79041
X195438Y74041
X232593Y79041
X36957Y40640
X19177Y40640
X112903Y74041
X109403Y79041
X131254Y74041
X127754Y79041
X124254Y74041
X120754Y79041
X149050Y74041
X145550Y79041
X142050Y74041
X138550Y79041
X166846Y74041
X163346Y79041
X159846Y74041
X156346Y79041
X184642Y74041
X98441Y73914
X177642Y74041
X174142Y79041
X94941Y78914
X202438Y74041
X198938Y79041
X191938Y79041
X11684Y58054
X236093Y74041
X6684Y54554
X11684Y51054
X6684Y47554
X87645Y73914
X84145Y78914
X80645Y73914
X77145Y78914
X181142Y79041
T4
X250977Y40716
X253517Y38176
X250977Y38176
X253517Y35636
X250977Y35636
X253517Y33096
X250977Y33096
X253517Y30556
X250977Y30556
X253517Y28016
X250977Y28016
X198882Y7620
X201422Y7620
X203962Y7620
X206502Y7620
X209042Y7620
X198882Y20320
X201422Y20320
X203962Y20320
X206502Y20320
X209042Y20320
X211582Y20320
X214122Y20320
X216662Y20320
X219202Y20320
X221742Y20320
X224282Y20320
X85598Y4445
X85598Y6985
X253517Y76276
X250977Y76276
X253517Y73736
X250977Y73736
X253517Y71196
X250977Y71196
X253517Y68656
X250977Y68656
X253517Y66116
X250977Y66116
X253517Y63576
X250977Y63576
X253517Y61036
X250977Y61036
X253517Y58496
X250977Y58496
X253517Y55956
X250977Y55956
X253517Y53416
X250977Y53416
X253517Y50876
X250977Y50876
X253517Y48336
X250977Y48336
X253517Y45796
X250977Y45796
X253517Y43256
X250977Y43256
X253517Y40716
T5
X47244Y4191
X20828Y4191
X44704Y4191
X35899Y4191
X18288Y4191
X38439Y4191
X27093Y4191
X29633Y4191
T6
X57150Y32893
X59690Y32893
X47879Y57658
X84709Y57785
X87249Y57785
X89789Y57785
X66040Y57324
X68580Y57324
X71120Y57324
X76581Y32592
X79121Y32592
X62230Y32893
X50419Y57658
X45339Y57658
X81661Y32592
T7
X205781Y58445
X234590Y59273
X234590Y60543
X205781Y59715
X175988Y57785
X175988Y59055
X151096Y57531
X151096Y58801
X124841Y56515
X124841Y57785
X91914Y5715
X91914Y6985
X67945Y3810
X67945Y5080
X60960Y3683
X60960Y4953
T8
X103607Y30074
X89357Y39798
X238938Y31318
X208280Y58420
X153670Y58420
X148590Y57150
X127000Y25400
X21590Y20320
X31750Y24130
X25239Y23656
X79299Y81001
X235712Y45796
X221056Y41707
X198755Y30378
X140538Y39065
X135738Y18593
X104682Y18593
X218633Y31308
X243256Y65583
X241833Y41732
X195301Y39878
X194615Y47583
X200609Y36449
X218364Y32690
X157429Y6883
X123732Y6883
X241096Y82855
X94107Y75438
X164694Y55474
X218567Y61570
X53823Y57404
X51562Y46533
X55753Y40284
X245288Y57556
X161595Y4420
X105156Y4928
X218059Y39319
X162848Y39006
X200736Y33223
X91364Y53010
X206629Y31445
X190906Y31445
X219075Y35585
X172847Y32334
X77145Y69850
X195301Y38418
X207950Y47295
X237490Y47295
X237490Y49606
X244018Y64846
X143857Y55474
X118313Y54839
X165278Y55372
X113868Y56261
X106959Y51410
X165278Y54889
X191364Y54889
X197409Y58132
X221960Y56642
X76683Y33960
X148844Y30632
X42982Y38740
X193015Y35941
X38659Y42342
X184125Y16129
X213665Y48336
X241452Y39751
X102108Y80442
X236601Y43205
X129946Y59385
X73685Y41377
X73152Y49784
X99365Y71603
X62738Y15850
X171679Y27356
X219126Y34087
X155854Y39091
X219583Y29845
X136744Y26128
X228168Y61570
X155423Y26416
X219253Y32131
X200736Y37775
X221183Y43459
X93777Y30124
X65253Y20930
X199796Y29591
X105791Y38049
X246228Y40945
X236068Y37922
X213589Y35941
X210769Y35941
X195301Y37148
X213589Y38456
X238379Y44552
X124821Y26128
M30