G04 EAGLE Gerber RS-274X export*
G75*
%MOMM*%
%FSLAX34Y34*%
%LPD*%
%INSoldermask Bottom*%
%IPPOS*%
%AMOC8*
5,1,8,0,0,1.08239X$1,22.5*%
G01*
%ADD10C,6.403200*%
%ADD11C,1.703200*%
%ADD12R,1.703200X1.703200*%
%ADD13R,1.403200X1.403200*%
%ADD14C,1.403200*%
%ADD15C,2.203200*%
%ADD16R,1.903200X1.903200*%
%ADD17C,1.903200*%
%ADD18R,1.016000X1.016000*%
%ADD19R,1.203200X1.203200*%
%ADD20C,1.203200*%
%ADD21C,1.853200*%
%ADD22C,0.803200*%


D10*
X2522474Y811462D03*
X2522474Y231462D03*
X3012474Y231462D03*
X3012474Y811462D03*
D11*
X2535174Y762762D03*
D12*
X2509774Y762762D03*
D11*
X2535174Y737362D03*
X2509774Y737362D03*
X2535174Y711962D03*
X2509774Y711962D03*
X2535174Y686562D03*
X2509774Y686562D03*
X2535174Y661162D03*
X2509774Y661162D03*
X2535174Y635762D03*
X2509774Y635762D03*
X2535174Y610362D03*
X2509774Y610362D03*
X2535174Y584962D03*
X2509774Y584962D03*
X2535174Y559562D03*
X2509774Y559562D03*
X2535174Y534162D03*
X2509774Y534162D03*
X2535174Y508762D03*
X2509774Y508762D03*
X2535174Y483362D03*
X2509774Y483362D03*
X2535174Y457962D03*
X2509774Y457962D03*
X2535174Y432562D03*
X2509774Y432562D03*
X2535174Y407162D03*
X2509774Y407162D03*
X2535174Y381762D03*
X2509774Y381762D03*
X2535174Y356362D03*
X2509774Y356362D03*
X2535174Y330962D03*
X2509774Y330962D03*
X2535174Y305562D03*
X2509774Y305562D03*
X2535174Y280162D03*
X2509774Y280162D03*
D12*
X1988820Y76200D03*
D11*
X2014220Y76200D03*
X2039620Y76200D03*
X2065020Y76200D03*
X2090420Y76200D03*
D12*
X1988820Y203200D03*
D11*
X2014220Y203200D03*
X2039620Y203200D03*
X2065020Y203200D03*
X2090420Y203200D03*
X2115820Y203200D03*
X2141220Y203200D03*
X2166620Y203200D03*
X2192020Y203200D03*
X2217420Y203200D03*
X2242820Y203200D03*
D13*
X765810Y325920D03*
D14*
X791210Y325920D03*
X816610Y325920D03*
D13*
X571500Y328930D03*
D14*
X596900Y328930D03*
X622300Y328930D03*
D13*
X847090Y577850D03*
D14*
X872490Y577850D03*
X897890Y577850D03*
D13*
X660400Y573240D03*
D14*
X685800Y573240D03*
X711200Y573240D03*
D15*
X63030Y272340D03*
X113030Y307340D03*
X63030Y342340D03*
X113030Y377340D03*
X771450Y789140D03*
X806450Y739140D03*
X841450Y789140D03*
X876450Y739140D03*
X66840Y475540D03*
X116840Y510540D03*
X66840Y545540D03*
X116840Y580540D03*
D16*
X273860Y290830D03*
D17*
X273860Y265430D03*
X273860Y240030D03*
D15*
X1919380Y790410D03*
X1954380Y740410D03*
X1989380Y790410D03*
X2024380Y740410D03*
D13*
X453390Y576580D03*
D14*
X478790Y576580D03*
X504190Y576580D03*
D15*
X949410Y789140D03*
X984410Y739140D03*
D16*
X662480Y781050D03*
D17*
X662480Y755650D03*
X662480Y730250D03*
D16*
X569262Y781050D03*
D17*
X569262Y755650D03*
X569262Y730250D03*
D16*
X476044Y781050D03*
D17*
X476044Y755650D03*
X476044Y730250D03*
D16*
X382826Y781050D03*
D17*
X382826Y755650D03*
X382826Y730250D03*
D16*
X289608Y781050D03*
D17*
X289608Y755650D03*
X289608Y730250D03*
D16*
X196390Y781050D03*
D17*
X196390Y755650D03*
X196390Y730250D03*
D15*
X1741420Y790410D03*
X1776420Y740410D03*
X1811420Y790410D03*
X1846420Y740410D03*
X1563460Y790410D03*
X1598460Y740410D03*
X1633460Y790410D03*
X1668460Y740410D03*
D12*
X855980Y44450D03*
D11*
X855980Y69850D03*
D18*
X182880Y41910D03*
X208280Y41910D03*
X447040Y41910D03*
X472440Y41910D03*
X358987Y41910D03*
X384387Y41910D03*
X270933Y41910D03*
X296333Y41910D03*
D19*
X2345900Y592729D03*
D20*
X2345900Y605429D03*
D19*
X2057810Y584449D03*
D20*
X2057810Y597149D03*
D19*
X1759880Y577850D03*
D20*
X1759880Y590550D03*
D19*
X1510960Y575310D03*
D20*
X1510960Y588010D03*
D19*
X1248410Y565150D03*
D20*
X1248410Y577850D03*
D19*
X919140Y57150D03*
D20*
X919140Y69850D03*
D19*
X679450Y38100D03*
D20*
X679450Y50800D03*
D15*
X1385500Y790410D03*
X1420500Y740410D03*
X1455500Y790410D03*
X1490500Y740410D03*
X1207540Y790410D03*
X1242540Y740410D03*
X1277540Y790410D03*
X1312540Y740410D03*
X1094030Y790410D03*
X1129030Y740410D03*
D19*
X609600Y36830D03*
D20*
X609600Y49530D03*
D21*
X191770Y406400D03*
X369570Y406400D03*
D15*
X2325930Y790410D03*
X2360930Y740410D03*
X2395930Y790410D03*
X2430930Y740410D03*
X2124000Y790410D03*
X2159000Y740410D03*
X2194000Y790410D03*
X2229000Y740410D03*
D22*
X1677416Y569890D03*
X1927606Y576580D03*
X1328334Y572430D03*
X1190672Y541100D03*
X2170430Y296418D03*
X2216912Y380492D03*
X2221992Y723900D03*
X2217166Y406842D03*
X2395930Y346265D03*
X2413254Y405892D03*
X706120Y506476D03*
X580136Y506476D03*
X754380Y125730D03*
X885952Y500126D03*
X706120Y500126D03*
X2116582Y833120D03*
X652780Y204216D03*
X573734Y264736D03*
X2157730Y560324D03*
X2245614Y599440D03*
X540182Y442506D03*
X621538Y203200D03*
X682752Y212852D03*
X2355850Y372110D03*
X1953111Y376682D03*
X2138426Y372110D03*
X2138172Y362760D03*
X1953006Y358775D03*
X1628480Y436286D03*
X1983740Y356870D03*
X1575562Y581406D03*
X985860Y358140D03*
X2205482Y310134D03*
X1584960Y161036D03*
X2184908Y340868D03*
X1511300Y351790D03*
X1580594Y558244D03*
X1036066Y326390D03*
X2439162Y804672D03*
X2426208Y817880D03*
X1057910Y226822D03*
X1351280Y183134D03*
X1517396Y551434D03*
X2216404Y340060D03*
X1015746Y553466D03*
X2006854Y288798D03*
X1393530Y416982D03*
X1222756Y244856D03*
X1996440Y277622D03*
X2358898Y620014D03*
X2166874Y574040D03*
X2298954Y601726D03*
X2442972Y542290D03*
X789940Y289814D03*
X835406Y250952D03*
X1279906Y609600D03*
X515620Y412496D03*
X455168Y438658D03*
X918210Y606806D03*
X974598Y811530D03*
X2135886Y389890D03*
X2373630Y521462D03*
X1953260Y414274D03*
X2466086Y529590D03*
X2160016Y529590D03*
X542290Y673354D03*
X1734058Y343916D03*
X2178050Y332232D03*
X488442Y717042D03*
X2423668Y417068D03*
X2401570Y325120D03*
X1926844Y383492D03*
X1957324Y334772D03*
X1987550Y304038D03*
X2197100Y340868D03*
X1730502Y200914D03*
X2210308Y486664D03*
X1984248Y379476D03*
X834390Y559308D03*
X1809394Y130150D03*
X1033780Y82550D03*
M02*
