G04 EAGLE Gerber RS-274X export*
G75*
%MOMM*%
%FSLAX34Y34*%
%LPD*%
%INSolderpaste Top*%
%IPPOS*%
%AMOC8*
5,1,8,0,0,1.08239X$1,22.5*%
G01*
%ADD10C,0.600000*%
%ADD11R,1.250000X0.700000*%
%ADD12R,0.600000X0.900000*%
%ADD13R,1.066800X2.159000*%
%ADD14R,0.700000X1.250000*%
%ADD15R,0.900000X0.600000*%
%ADD16R,1.350000X0.750000*%
%ADD17R,0.750000X1.350000*%


D10*
X2200550Y321310D02*
X2209550Y321310D01*
X2209550Y334010D02*
X2200550Y334010D01*
X2200550Y346710D02*
X2209550Y346710D01*
X2209550Y359410D02*
X2200550Y359410D01*
X2200550Y372110D02*
X2209550Y372110D01*
X2209550Y384810D02*
X2200550Y384810D01*
X2200550Y397510D02*
X2209550Y397510D01*
X2209550Y410210D02*
X2200550Y410210D01*
X2155550Y410210D02*
X2146550Y410210D01*
X2146550Y397510D02*
X2155550Y397510D01*
X2155550Y384810D02*
X2146550Y384810D01*
X2146550Y372110D02*
X2155550Y372110D01*
X2155550Y359410D02*
X2146550Y359410D01*
X2146550Y346710D02*
X2155550Y346710D01*
X2155550Y334010D02*
X2146550Y334010D01*
X2146550Y321310D02*
X2155550Y321310D01*
X2421530Y321310D02*
X2430530Y321310D01*
X2430530Y334010D02*
X2421530Y334010D01*
X2421530Y346710D02*
X2430530Y346710D01*
X2430530Y359410D02*
X2421530Y359410D01*
X2421530Y372110D02*
X2430530Y372110D01*
X2430530Y384810D02*
X2421530Y384810D01*
X2421530Y397510D02*
X2430530Y397510D01*
X2430530Y410210D02*
X2421530Y410210D01*
X2376530Y410210D02*
X2367530Y410210D01*
X2367530Y397510D02*
X2376530Y397510D01*
X2376530Y384810D02*
X2367530Y384810D01*
X2367530Y372110D02*
X2376530Y372110D01*
X2376530Y359410D02*
X2367530Y359410D01*
X2367530Y346710D02*
X2376530Y346710D01*
X2376530Y334010D02*
X2367530Y334010D01*
X2367530Y321310D02*
X2376530Y321310D01*
X2000000Y320675D02*
X1991000Y320675D01*
X1991000Y333375D02*
X2000000Y333375D01*
X2000000Y346075D02*
X1991000Y346075D01*
X1991000Y358775D02*
X2000000Y358775D01*
X2000000Y371475D02*
X1991000Y371475D01*
X1991000Y384175D02*
X2000000Y384175D01*
X2000000Y396875D02*
X1991000Y396875D01*
X1991000Y409575D02*
X2000000Y409575D01*
X1946000Y409575D02*
X1937000Y409575D01*
X1937000Y396875D02*
X1946000Y396875D01*
X1946000Y384175D02*
X1937000Y384175D01*
X1937000Y371475D02*
X1946000Y371475D01*
X1946000Y358775D02*
X1937000Y358775D01*
X1937000Y346075D02*
X1946000Y346075D01*
X1946000Y333375D02*
X1937000Y333375D01*
X1937000Y320675D02*
X1946000Y320675D01*
D11*
X384810Y122260D03*
X384810Y101260D03*
X561340Y516550D03*
X561340Y537550D03*
X887730Y241780D03*
X887730Y220780D03*
X692150Y242910D03*
X692150Y221910D03*
X976630Y490560D03*
X976630Y469560D03*
X779780Y478940D03*
X779780Y457940D03*
X561340Y463280D03*
X561340Y442281D03*
X762576Y187830D03*
X762576Y166830D03*
X563880Y195920D03*
X563880Y174920D03*
X842010Y453070D03*
X842010Y432070D03*
X646430Y433880D03*
X646430Y412880D03*
X435610Y438490D03*
X435610Y417490D03*
D12*
X294590Y515620D03*
X275590Y515620D03*
X285090Y490620D03*
D13*
X447040Y314960D03*
X421640Y314960D03*
X396240Y314960D03*
D11*
X1606550Y136230D03*
X1606550Y115230D03*
X1605280Y72730D03*
X1605280Y51730D03*
X1620520Y336890D03*
X1620520Y315890D03*
X1620520Y277200D03*
X1620520Y256200D03*
X1376680Y143850D03*
X1376680Y122850D03*
X1376680Y81620D03*
X1376680Y60620D03*
X1390650Y344510D03*
X1390650Y323510D03*
X1390650Y282280D03*
X1390650Y261280D03*
D14*
X1044280Y54610D03*
X1023280Y54610D03*
X1237320Y55880D03*
X1216320Y55880D03*
X1045550Y146050D03*
X1024550Y146050D03*
X1224620Y153670D03*
X1203620Y153670D03*
D11*
X979170Y78400D03*
X979170Y99400D03*
X979170Y160360D03*
X979170Y139360D03*
X1165860Y80940D03*
X1165860Y101940D03*
X1165860Y169590D03*
X1165860Y148590D03*
D14*
X1097620Y146050D03*
X1076620Y146050D03*
X1281430Y154940D03*
X1260430Y154940D03*
X1248750Y220980D03*
X1227750Y220980D03*
X1046820Y226060D03*
X1025820Y226060D03*
X1225890Y344170D03*
X1204890Y344170D03*
X1027770Y347980D03*
X1006770Y347980D03*
D11*
X1176020Y276520D03*
X1176020Y297520D03*
X1176020Y366100D03*
X1176020Y345100D03*
X971550Y276520D03*
X971550Y297520D03*
X970280Y371180D03*
X970280Y350180D03*
D14*
X1276690Y344170D03*
X1255690Y344170D03*
X1079840Y347980D03*
X1058840Y347980D03*
D11*
X209550Y101260D03*
X209550Y122260D03*
X472440Y122260D03*
X472440Y101260D03*
X295910Y101260D03*
X295910Y122260D03*
X2139950Y559730D03*
X2139950Y580730D03*
D14*
X2210140Y505460D03*
X2189140Y505460D03*
D11*
X2296890Y546330D03*
X2296890Y525330D03*
X2345150Y525330D03*
X2345150Y546330D03*
X1855130Y543220D03*
X1855130Y564220D03*
D14*
X1926930Y497840D03*
X1905930Y497840D03*
D11*
X1564300Y534330D03*
X1564300Y555330D03*
X2008800Y538050D03*
X2008800Y517050D03*
X2057060Y517050D03*
X2057060Y538050D03*
D14*
X1628480Y482600D03*
X1607480Y482600D03*
D11*
X1710690Y529930D03*
X1710690Y508930D03*
X1758950Y510200D03*
X1758950Y531200D03*
X1323340Y540680D03*
X1323340Y561680D03*
X1051560Y539410D03*
X1051560Y560410D03*
D14*
X1393530Y491490D03*
X1372530Y491490D03*
D11*
X1464619Y531700D03*
X1464619Y510700D03*
X1510210Y510700D03*
X1510210Y531700D03*
D14*
X1118870Y492760D03*
X1097870Y492760D03*
D11*
X1200459Y517230D03*
X1200459Y496230D03*
X1248070Y496230D03*
X1248070Y517230D03*
X620530Y789010D03*
X620530Y768010D03*
X527566Y789010D03*
X527566Y768010D03*
X434602Y789010D03*
X434602Y768010D03*
X681990Y659130D03*
X681990Y680130D03*
X589280Y659130D03*
X589280Y680130D03*
X495300Y659130D03*
X495300Y680130D03*
X341638Y789010D03*
X341638Y768010D03*
X248674Y789010D03*
X248674Y768010D03*
X157480Y789010D03*
X157480Y768010D03*
X401320Y659130D03*
X401320Y680130D03*
X304800Y659130D03*
X304800Y680130D03*
X212090Y659130D03*
X212090Y680130D03*
D14*
X2308946Y406400D03*
X2287946Y406400D03*
X2086950Y410210D03*
X2065950Y410210D03*
X1886798Y402336D03*
X1865798Y402336D03*
D15*
X1706880Y130150D03*
X1706880Y120650D03*
X1706880Y111150D03*
X1731880Y111150D03*
X1731880Y130150D03*
X1715970Y329540D03*
X1715970Y320040D03*
X1715970Y310540D03*
X1740970Y310540D03*
X1740970Y329540D03*
X1474670Y119060D03*
X1474670Y109560D03*
X1474670Y100060D03*
X1499670Y100060D03*
X1499670Y119060D03*
X1492450Y339700D03*
X1492450Y330200D03*
X1492450Y320700D03*
X1517450Y320700D03*
X1517450Y339700D03*
X1021280Y98400D03*
X1021280Y88900D03*
X1021280Y79400D03*
X1046280Y79400D03*
X1046280Y98400D03*
X1215590Y102210D03*
X1215590Y92710D03*
X1215590Y83210D03*
X1240590Y83210D03*
X1240590Y102210D03*
X1223210Y293980D03*
X1223210Y284480D03*
X1223210Y274980D03*
X1248210Y274980D03*
X1248210Y293980D03*
X1021480Y297180D03*
X1021480Y287680D03*
X1021480Y278180D03*
X1046480Y278180D03*
X1046480Y297180D03*
D10*
X806450Y187970D02*
X806450Y170970D01*
X819150Y170970D02*
X819150Y187970D01*
X831850Y187970D02*
X831850Y170970D01*
X844550Y170970D02*
X844550Y187970D01*
X844550Y220970D02*
X844550Y237970D01*
X831850Y237970D02*
X831850Y220970D01*
X819150Y220970D02*
X819150Y237970D01*
X806450Y237970D02*
X806450Y220970D01*
X614680Y196860D02*
X614680Y179860D01*
X627380Y179860D02*
X627380Y196860D01*
X640080Y196860D02*
X640080Y179860D01*
X652780Y179860D02*
X652780Y196860D01*
X652780Y229860D02*
X652780Y246860D01*
X640080Y246860D02*
X640080Y229860D01*
X627380Y229860D02*
X627380Y246860D01*
X614680Y246860D02*
X614680Y229860D01*
X900430Y431320D02*
X900430Y448320D01*
X913130Y448320D02*
X913130Y431320D01*
X925830Y431320D02*
X925830Y448320D01*
X938530Y448320D02*
X938530Y431320D01*
X938530Y481320D02*
X938530Y498320D01*
X925830Y498320D02*
X925830Y481320D01*
X913130Y481320D02*
X913130Y498320D01*
X900430Y498320D02*
X900430Y481320D01*
X706120Y439900D02*
X706120Y422900D01*
X718820Y422900D02*
X718820Y439900D01*
X731520Y439900D02*
X731520Y422900D01*
X744220Y422900D02*
X744220Y439900D01*
X744220Y472900D02*
X744220Y489900D01*
X731520Y489900D02*
X731520Y472900D01*
X718820Y472900D02*
X718820Y489900D01*
X706120Y489900D02*
X706120Y472900D01*
X490220Y440700D02*
X490220Y423700D01*
X502920Y423700D02*
X502920Y440700D01*
X515620Y440700D02*
X515620Y423700D01*
X528320Y423700D02*
X528320Y440700D01*
X528320Y473700D02*
X528320Y490700D01*
X515620Y490700D02*
X515620Y473700D01*
X502920Y473700D02*
X502920Y490700D01*
X490220Y490700D02*
X490220Y473700D01*
D15*
X2184060Y576580D03*
X2184060Y567080D03*
X2184060Y557580D03*
X2209060Y557580D03*
X2209060Y576580D03*
X1901050Y563220D03*
X1901050Y553720D03*
X1901050Y544220D03*
X1926050Y544220D03*
X1926050Y563220D03*
X1604070Y553720D03*
X1604070Y544220D03*
X1604070Y534720D03*
X1629070Y534720D03*
X1629070Y553720D03*
X1368920Y559410D03*
X1368920Y549910D03*
X1368920Y540410D03*
X1393920Y540410D03*
X1393920Y559410D03*
X1097140Y559410D03*
X1097140Y549910D03*
X1097140Y540410D03*
X1122140Y540410D03*
X1122140Y559410D03*
D16*
X621030Y717890D03*
X621030Y696890D03*
X528066Y717890D03*
X528066Y696890D03*
X435102Y717890D03*
X435102Y696890D03*
X342138Y717890D03*
X342138Y696890D03*
X249174Y717890D03*
X249174Y696890D03*
X156210Y717890D03*
X156210Y696890D03*
X1653540Y137500D03*
X1653540Y116500D03*
X1654810Y53000D03*
X1654810Y74000D03*
X1676400Y336890D03*
X1676400Y315890D03*
X1676400Y254930D03*
X1676400Y275930D03*
D17*
X1730080Y179070D03*
X1709080Y179070D03*
X1740240Y381000D03*
X1719240Y381000D03*
D16*
X1432560Y143850D03*
X1432560Y122850D03*
X1433830Y59350D03*
X1433830Y80350D03*
X1445260Y344510D03*
X1445260Y323510D03*
X1442720Y260940D03*
X1442720Y281940D03*
D17*
X1500210Y171450D03*
X1479210Y171450D03*
X1516380Y389890D03*
X1495380Y389890D03*
D16*
X1087120Y99400D03*
X1087120Y78400D03*
X1280160Y101940D03*
X1280160Y80940D03*
X1277620Y293710D03*
X1277620Y272710D03*
X1083310Y301330D03*
X1083310Y280330D03*
D17*
X295590Y561540D03*
X274590Y561540D03*
D16*
X330810Y513620D03*
X330810Y492620D03*
D17*
X446110Y353060D03*
X425110Y353060D03*
D16*
X344170Y263820D03*
X344170Y284820D03*
X212090Y277790D03*
X212090Y298790D03*
X212090Y215560D03*
X212090Y236560D03*
X753110Y238970D03*
X753110Y259970D03*
X562296Y247860D03*
X562296Y268860D03*
X843594Y496350D03*
X843594Y517350D03*
X435610Y488610D03*
X435610Y509610D03*
X650240Y484000D03*
X650240Y505000D03*
X2297511Y589600D03*
X2297511Y610600D03*
X2248630Y589600D03*
X2248630Y610600D03*
X2248630Y524830D03*
X2248630Y545830D03*
X2009421Y581320D03*
X2009421Y602320D03*
X1960540Y581320D03*
X1960540Y602320D03*
X1710971Y569890D03*
X1710971Y590890D03*
X1960540Y516550D03*
X1960540Y537550D03*
X1660820Y569890D03*
X1660820Y590890D03*
X1660820Y507660D03*
X1660820Y528660D03*
X1465240Y572430D03*
X1465240Y593430D03*
X1201080Y562610D03*
X1201080Y583610D03*
X1420790Y572430D03*
X1420790Y593430D03*
X1151550Y562610D03*
X1151550Y583610D03*
X1420790Y510200D03*
X1420790Y531200D03*
X1151550Y495730D03*
X1151550Y516730D03*
D17*
X2350856Y322834D03*
X2329856Y322834D03*
X2066798Y360172D03*
X2045798Y360172D03*
X1899244Y315722D03*
X1878244Y315722D03*
M02*
