%TF.GenerationSoftware,Altium Limited,Altium Designer,21.2.2 (38)*%
G04 Layer_Color=65535*
%FSLAX26Y26*%
%MOIN*%
%TF.SameCoordinates,72563302-9CA4-4070-8E96-6B9CF41BC73D*%
%TF.FilePolarity,Positive*%
%TF.FileFunction,Legend,Top*%
%TF.Part,Single*%
G01*
G75*
%TA.AperFunction,NonConductor*%
%ADD50C,0.009842*%
%ADD51C,0.023622*%
%ADD52C,0.003937*%
%ADD53C,0.007874*%
%ADD54C,0.010000*%
%ADD55C,0.008000*%
G36*
X8281434Y-3128004D02*
X8302784D01*
Y-3132274D01*
X8307054D01*
Y-3128004D01*
X8311324D01*
Y-3132274D01*
X8332674D01*
Y-3145085D01*
X8328404D01*
Y-3149355D01*
X8332674D01*
Y-3153625D01*
X8328404D01*
Y-3157895D01*
X8332674D01*
Y-3162165D01*
X8328404D01*
Y-3166435D01*
X8332674D01*
Y-3170705D01*
X8328404D01*
Y-3166435D01*
X8324134D01*
Y-3153625D01*
X8319864D01*
Y-3149355D01*
X8315594D01*
Y-3145085D01*
X8302784D01*
Y-3140815D01*
X8298514D01*
Y-3136544D01*
X8294244D01*
Y-3140815D01*
X8289974D01*
Y-3136544D01*
X8243003D01*
Y-3140815D01*
X8230193D01*
Y-3145085D01*
X8217383D01*
Y-3149355D01*
X8221653D01*
Y-3153625D01*
X8208843D01*
Y-3162165D01*
X8204573D01*
Y-3170705D01*
X8200303D01*
Y-3179245D01*
X8196032D01*
Y-3187785D01*
X8191763D01*
Y-3192055D01*
X8196032D01*
Y-3196325D01*
X8191763D01*
Y-3200595D01*
X8196032D01*
Y-3204865D01*
X8191763D01*
Y-3209135D01*
X8196032D01*
Y-3213405D01*
X8191763D01*
Y-3217675D01*
X8196032D01*
Y-3221945D01*
X8191763D01*
Y-3226216D01*
X8196032D01*
Y-3230486D01*
X8191763D01*
Y-3234756D01*
X8196032D01*
Y-3247566D01*
X8200303D01*
Y-3251836D01*
X8204573D01*
Y-3264646D01*
X8208843D01*
Y-3268916D01*
X8213113D01*
Y-3273186D01*
X8217383D01*
Y-3277456D01*
X8221653D01*
Y-3281726D01*
X8225923D01*
Y-3285996D01*
X8230193D01*
Y-3290266D01*
X8234463D01*
Y-3294536D01*
X8247273D01*
Y-3298806D01*
X8251543D01*
Y-3303076D01*
X8255814D01*
Y-3298806D01*
X8260084D01*
Y-3303076D01*
X8264353D01*
Y-3298806D01*
X8268624D01*
Y-3303076D01*
X8298514D01*
Y-3298806D01*
X8302784D01*
Y-3303076D01*
X8307054D01*
Y-3298806D01*
X8311324D01*
Y-3294536D01*
X8319864D01*
Y-3285996D01*
X8324134D01*
Y-3281726D01*
X8328404D01*
Y-3285996D01*
X8332674D01*
Y-3290266D01*
X8328404D01*
Y-3294536D01*
X8332674D01*
Y-3298806D01*
X8328404D01*
Y-3303076D01*
X8324134D01*
Y-3307347D01*
X8319864D01*
Y-3311616D01*
X8315594D01*
Y-3307347D01*
X8311324D01*
Y-3311616D01*
X8298514D01*
Y-3315886D01*
X8294244D01*
Y-3311616D01*
X8289974D01*
Y-3315886D01*
X8285704D01*
Y-3311616D01*
X8281434D01*
Y-3315886D01*
X8277164D01*
Y-3311616D01*
X8272894D01*
Y-3315886D01*
X8268624D01*
Y-3311616D01*
X8264353D01*
Y-3315886D01*
X8260084D01*
Y-3311616D01*
X8247273D01*
Y-3307347D01*
X8243003D01*
Y-3311616D01*
X8238733D01*
Y-3307347D01*
X8225923D01*
Y-3303076D01*
X8221653D01*
Y-3298806D01*
X8208843D01*
Y-3294536D01*
X8204573D01*
Y-3290266D01*
X8200303D01*
Y-3285996D01*
X8196032D01*
Y-3281726D01*
X8191763D01*
Y-3277456D01*
X8187493D01*
Y-3273186D01*
X8183222D01*
Y-3268916D01*
X8187493D01*
Y-3264646D01*
X8183222D01*
Y-3260376D01*
X8178952D01*
Y-3256106D01*
X8174683D01*
Y-3251836D01*
X8178952D01*
Y-3247566D01*
X8174683D01*
Y-3226216D01*
X8170412D01*
Y-3213405D01*
X8174683D01*
Y-3209135D01*
X8170412D01*
Y-3204865D01*
X8174683D01*
Y-3192055D01*
X8178952D01*
Y-3187785D01*
X8174683D01*
Y-3183515D01*
X8178952D01*
Y-3179245D01*
X8183222D01*
Y-3166435D01*
X8187493D01*
Y-3162165D01*
X8191763D01*
Y-3157895D01*
X8196032D01*
Y-3153625D01*
X8200303D01*
Y-3149355D01*
X8204573D01*
Y-3145085D01*
X8208843D01*
Y-3140815D01*
X8221653D01*
Y-3136544D01*
X8225923D01*
Y-3132274D01*
X8238733D01*
Y-3128004D01*
X8243003D01*
Y-3132274D01*
X8247273D01*
Y-3128004D01*
X8260084D01*
Y-3123734D01*
X8264353D01*
Y-3128004D01*
X8268624D01*
Y-3123734D01*
X8272894D01*
Y-3128004D01*
X8277164D01*
Y-3123734D01*
X8281434D01*
Y-3128004D01*
D02*
G37*
G36*
X8149062Y-3132274D02*
X8153333D01*
Y-3136544D01*
X8140522D01*
Y-3140815D01*
X8144792D01*
Y-3145085D01*
X8140522D01*
Y-3149355D01*
X8144792D01*
Y-3153625D01*
X8140522D01*
Y-3157895D01*
X8144792D01*
Y-3162165D01*
X8140522D01*
Y-3166435D01*
X8144792D01*
Y-3170705D01*
X8140522D01*
Y-3174975D01*
X8144792D01*
Y-3179245D01*
X8140522D01*
Y-3183515D01*
X8144792D01*
Y-3187785D01*
X8140522D01*
Y-3192055D01*
X8144792D01*
Y-3196325D01*
X8140522D01*
Y-3200595D01*
X8144792D01*
Y-3204865D01*
X8140522D01*
Y-3209135D01*
X8144792D01*
Y-3213405D01*
X8140522D01*
Y-3217675D01*
X8144792D01*
Y-3221945D01*
X8140522D01*
Y-3226216D01*
X8144792D01*
Y-3230486D01*
X8140522D01*
Y-3234756D01*
X8144792D01*
Y-3239026D01*
X8140522D01*
Y-3243296D01*
X8144792D01*
Y-3247566D01*
X8140522D01*
Y-3251836D01*
X8144792D01*
Y-3256106D01*
X8140522D01*
Y-3260376D01*
X8144792D01*
Y-3264646D01*
X8140522D01*
Y-3268916D01*
X8144792D01*
Y-3273186D01*
X8140522D01*
Y-3277456D01*
X8144792D01*
Y-3281726D01*
X8140522D01*
Y-3285996D01*
X8144792D01*
Y-3290266D01*
X8140522D01*
Y-3294536D01*
X8144792D01*
Y-3303076D01*
X8153333D01*
Y-3307347D01*
X8157602D01*
Y-3311616D01*
X8153333D01*
Y-3307347D01*
X8149062D01*
Y-3311616D01*
X8144792D01*
Y-3307347D01*
X8140522D01*
Y-3311616D01*
X8136252D01*
Y-3307347D01*
X8131982D01*
Y-3311616D01*
X8127712D01*
Y-3307347D01*
X8123442D01*
Y-3311616D01*
X8119172D01*
Y-3307347D01*
X8114901D01*
Y-3303076D01*
X8119172D01*
Y-3298806D01*
X8123442D01*
Y-3294536D01*
X8119172D01*
Y-3290266D01*
X8123442D01*
Y-3277456D01*
X8119172D01*
Y-3273186D01*
X8123442D01*
Y-3260376D01*
X8119172D01*
Y-3256106D01*
X8123442D01*
Y-3243296D01*
X8119172D01*
Y-3239026D01*
X8123442D01*
Y-3226216D01*
X8119172D01*
Y-3221945D01*
X8123442D01*
Y-3192055D01*
X8119172D01*
Y-3187785D01*
X8123442D01*
Y-3157895D01*
X8119172D01*
Y-3153625D01*
X8123442D01*
Y-3140815D01*
X8119172D01*
Y-3136544D01*
X8114901D01*
Y-3132274D01*
X8110632D01*
Y-3128004D01*
X8114901D01*
Y-3132274D01*
X8127712D01*
Y-3128004D01*
X8131982D01*
Y-3132274D01*
X8144792D01*
Y-3128004D01*
X8149062D01*
Y-3132274D01*
D02*
G37*
G36*
X8012421D02*
X8033771D01*
Y-3136544D01*
X8038041D01*
Y-3140815D01*
X8050851D01*
Y-3145085D01*
X8055121D01*
Y-3149355D01*
X8059391D01*
Y-3153625D01*
X8055121D01*
Y-3157895D01*
X8059391D01*
Y-3162165D01*
X8063661D01*
Y-3166435D01*
X8059391D01*
Y-3170705D01*
X8063661D01*
Y-3183515D01*
X8059391D01*
Y-3196325D01*
X8055121D01*
Y-3204865D01*
X8050851D01*
Y-3213405D01*
X8046581D01*
Y-3217675D01*
X8042311D01*
Y-3221945D01*
X8038041D01*
Y-3226216D01*
X8033771D01*
Y-3230486D01*
X8038041D01*
Y-3234756D01*
X8042311D01*
Y-3239026D01*
X8046581D01*
Y-3243296D01*
X8050851D01*
Y-3247566D01*
X8046581D01*
Y-3251836D01*
X8055121D01*
Y-3260376D01*
X8059391D01*
Y-3264646D01*
X8063661D01*
Y-3268916D01*
X8067931D01*
Y-3273186D01*
X8072201D01*
Y-3277456D01*
X8076471D01*
Y-3281726D01*
X8080742D01*
Y-3285996D01*
X8085011D01*
Y-3290266D01*
X8089281D01*
Y-3294536D01*
X8093551D01*
Y-3298806D01*
X8097821D01*
Y-3303076D01*
X8110632D01*
Y-3307347D01*
X8114901D01*
Y-3311616D01*
X8110632D01*
Y-3307347D01*
X8106361D01*
Y-3311616D01*
X8102092D01*
Y-3307347D01*
X8097821D01*
Y-3311616D01*
X8093551D01*
Y-3307347D01*
X8089281D01*
Y-3311616D01*
X8085011D01*
Y-3307347D01*
X8072201D01*
Y-3303076D01*
X8067931D01*
Y-3298806D01*
X8063661D01*
Y-3294536D01*
X8059391D01*
Y-3290266D01*
X8055121D01*
Y-3281726D01*
X8050851D01*
Y-3273186D01*
X8046581D01*
Y-3268916D01*
X8042311D01*
Y-3264646D01*
X8038041D01*
Y-3260376D01*
X8033771D01*
Y-3256106D01*
X8029500D01*
Y-3247566D01*
X8025231D01*
Y-3239026D01*
X8020961D01*
Y-3234756D01*
X8016690D01*
Y-3230486D01*
X8012421D01*
Y-3234756D01*
X8008150D01*
Y-3230486D01*
X8003880D01*
Y-3234756D01*
X7999610D01*
Y-3230486D01*
X7995341D01*
Y-3234756D01*
X7991070D01*
Y-3230486D01*
X7986800D01*
Y-3234756D01*
X7982530D01*
Y-3256106D01*
X7986800D01*
Y-3260376D01*
X7982530D01*
Y-3273186D01*
X7986800D01*
Y-3277456D01*
X7982530D01*
Y-3290266D01*
X7986800D01*
Y-3303076D01*
X7991070D01*
Y-3307347D01*
X7995341D01*
Y-3311616D01*
X7991070D01*
Y-3307347D01*
X7986800D01*
Y-3311616D01*
X7982530D01*
Y-3307347D01*
X7978260D01*
Y-3311616D01*
X7973990D01*
Y-3307347D01*
X7969720D01*
Y-3311616D01*
X7965450D01*
Y-3307347D01*
X7961180D01*
Y-3311616D01*
X7956910D01*
Y-3307347D01*
X7952640D01*
Y-3303076D01*
X7965450D01*
Y-3298806D01*
X7961180D01*
Y-3294536D01*
X7965450D01*
Y-3290266D01*
X7961180D01*
Y-3285996D01*
X7965450D01*
Y-3281726D01*
X7961180D01*
Y-3277456D01*
X7965450D01*
Y-3273186D01*
X7961180D01*
Y-3268916D01*
X7965450D01*
Y-3264646D01*
X7961180D01*
Y-3260376D01*
X7965450D01*
Y-3256106D01*
X7961180D01*
Y-3251836D01*
X7965450D01*
Y-3247566D01*
X7961180D01*
Y-3243296D01*
X7965450D01*
Y-3239026D01*
X7961180D01*
Y-3234756D01*
X7965450D01*
Y-3221945D01*
X7961180D01*
Y-3217675D01*
X7965450D01*
Y-3213405D01*
X7961180D01*
Y-3209135D01*
X7965450D01*
Y-3204865D01*
X7961180D01*
Y-3200595D01*
X7965450D01*
Y-3196325D01*
X7961180D01*
Y-3192055D01*
X7965450D01*
Y-3187785D01*
X7961180D01*
Y-3183515D01*
X7965450D01*
Y-3179245D01*
X7961180D01*
Y-3174975D01*
X7965450D01*
Y-3170705D01*
X7961180D01*
Y-3166435D01*
X7965450D01*
Y-3162165D01*
X7961180D01*
Y-3157895D01*
X7965450D01*
Y-3153625D01*
X7961180D01*
Y-3149355D01*
X7965450D01*
Y-3145085D01*
X7961180D01*
Y-3136544D01*
X7952640D01*
Y-3132274D01*
X7948370D01*
Y-3128004D01*
X7952640D01*
Y-3132274D01*
X7956910D01*
Y-3128004D01*
X7961180D01*
Y-3132274D01*
X7973990D01*
Y-3128004D01*
X7978260D01*
Y-3132274D01*
X7991070D01*
Y-3128004D01*
X7995341D01*
Y-3132274D01*
X7999610D01*
Y-3128004D01*
X8003880D01*
Y-3132274D01*
X8008150D01*
Y-3128004D01*
X8012421D01*
Y-3132274D01*
D02*
G37*
G36*
X8328404Y-3174975D02*
X8332674D01*
Y-3179245D01*
X8328404D01*
Y-3174975D01*
X8324134D01*
Y-3170705D01*
X8328404D01*
Y-3174975D01*
D02*
G37*
G36*
X7999610Y-3307347D02*
X8003880D01*
Y-3311616D01*
X7999610D01*
Y-3307347D01*
X7995341D01*
Y-3303076D01*
X7999610D01*
Y-3307347D01*
D02*
G37*
G36*
X8580337Y-3119464D02*
X8584607D01*
Y-3123734D01*
X8588877D01*
Y-3128004D01*
X8584607D01*
Y-3132274D01*
X8580337D01*
Y-3136544D01*
X8576067D01*
Y-3132274D01*
X8571797D01*
Y-3136544D01*
X8567527D01*
Y-3132274D01*
X8563257D01*
Y-3136544D01*
X8558987D01*
Y-3132274D01*
X8554717D01*
Y-3136544D01*
X8550446D01*
Y-3132274D01*
X8546176D01*
Y-3136544D01*
X8541907D01*
Y-3209135D01*
X8546176D01*
Y-3213405D01*
X8550446D01*
Y-3209135D01*
X8554717D01*
Y-3213405D01*
X8558987D01*
Y-3217675D01*
X8563257D01*
Y-3226216D01*
X8554717D01*
Y-3230486D01*
X8550446D01*
Y-3226216D01*
X8541907D01*
Y-3303076D01*
X8554717D01*
Y-3307347D01*
X8558987D01*
Y-3303076D01*
X8571797D01*
Y-3307347D01*
X8576067D01*
Y-3303076D01*
X8588877D01*
Y-3307347D01*
X8584607D01*
Y-3311616D01*
X8588877D01*
Y-3315886D01*
X8584607D01*
Y-3320157D01*
X8580337D01*
Y-3324427D01*
X8576067D01*
Y-3320157D01*
X8571797D01*
Y-3324427D01*
X8567527D01*
Y-3320157D01*
X8563257D01*
Y-3324427D01*
X8558987D01*
Y-3320157D01*
X8554717D01*
Y-3324427D01*
X8550446D01*
Y-3320157D01*
X8546176D01*
Y-3324427D01*
X8541907D01*
Y-3320157D01*
X8537637D01*
Y-3324427D01*
X8533367D01*
Y-3320157D01*
X8529097D01*
Y-3324427D01*
X8524827D01*
Y-3115194D01*
X8529097D01*
Y-3119464D01*
X8533367D01*
Y-3115194D01*
X8537637D01*
Y-3119464D01*
X8541907D01*
Y-3115194D01*
X8546176D01*
Y-3119464D01*
X8550446D01*
Y-3115194D01*
X8554717D01*
Y-3119464D01*
X8558987D01*
Y-3115194D01*
X8563257D01*
Y-3119464D01*
X8567527D01*
Y-3115194D01*
X8571797D01*
Y-3119464D01*
X8576067D01*
Y-3115194D01*
X8580337D01*
Y-3119464D01*
D02*
G37*
G36*
X8447966Y-3132274D02*
X8452236D01*
Y-3136544D01*
X8447966D01*
Y-3157895D01*
X8443696D01*
Y-3153625D01*
X8439425D01*
Y-3149355D01*
X8443696D01*
Y-3145085D01*
X8439425D01*
Y-3140815D01*
X8435155D01*
Y-3145085D01*
X8430885D01*
Y-3140815D01*
X8418075D01*
Y-3136544D01*
X8413805D01*
Y-3140815D01*
X8409535D01*
Y-3136544D01*
X8405265D01*
Y-3140815D01*
X8400995D01*
Y-3136544D01*
X8396725D01*
Y-3140815D01*
X8392455D01*
Y-3145085D01*
X8388185D01*
Y-3149355D01*
X8392455D01*
Y-3153625D01*
X8388185D01*
Y-3157895D01*
X8392455D01*
Y-3162165D01*
X8388185D01*
Y-3166435D01*
X8392455D01*
Y-3170705D01*
X8388185D01*
Y-3174975D01*
X8392455D01*
Y-3179245D01*
X8388185D01*
Y-3183515D01*
X8392455D01*
Y-3187785D01*
X8388185D01*
Y-3192055D01*
X8392455D01*
Y-3196325D01*
X8388185D01*
Y-3200595D01*
X8392455D01*
Y-3204865D01*
X8388185D01*
Y-3209135D01*
X8439425D01*
Y-3200595D01*
X8443696D01*
Y-3204865D01*
X8447966D01*
Y-3209135D01*
X8443696D01*
Y-3230486D01*
X8439425D01*
Y-3226216D01*
X8435155D01*
Y-3221945D01*
X8422345D01*
Y-3217675D01*
X8418075D01*
Y-3221945D01*
X8413805D01*
Y-3217675D01*
X8409535D01*
Y-3221945D01*
X8405265D01*
Y-3217675D01*
X8400995D01*
Y-3221945D01*
X8396725D01*
Y-3217675D01*
X8392455D01*
Y-3221945D01*
X8388185D01*
Y-3226216D01*
X8392455D01*
Y-3230486D01*
X8388185D01*
Y-3234756D01*
X8392455D01*
Y-3239026D01*
X8388185D01*
Y-3243296D01*
X8392455D01*
Y-3247566D01*
X8388185D01*
Y-3251836D01*
X8392455D01*
Y-3256106D01*
X8388185D01*
Y-3260376D01*
X8392455D01*
Y-3264646D01*
X8388185D01*
Y-3268916D01*
X8392455D01*
Y-3273186D01*
X8388185D01*
Y-3277456D01*
X8392455D01*
Y-3281726D01*
X8388185D01*
Y-3285996D01*
X8392455D01*
Y-3298806D01*
X8405265D01*
Y-3303076D01*
X8418075D01*
Y-3298806D01*
X8422345D01*
Y-3303076D01*
X8426615D01*
Y-3298806D01*
X8430885D01*
Y-3303076D01*
X8435155D01*
Y-3298806D01*
X8439425D01*
Y-3303076D01*
X8443696D01*
Y-3298806D01*
X8447966D01*
Y-3294536D01*
X8452236D01*
Y-3307347D01*
X8447966D01*
Y-3311616D01*
X8443696D01*
Y-3307347D01*
X8439425D01*
Y-3311616D01*
X8435155D01*
Y-3307347D01*
X8430885D01*
Y-3311616D01*
X8426615D01*
Y-3307347D01*
X8422345D01*
Y-3311616D01*
X8418075D01*
Y-3307347D01*
X8413805D01*
Y-3311616D01*
X8409535D01*
Y-3307347D01*
X8405265D01*
Y-3311616D01*
X8400995D01*
Y-3307347D01*
X8396725D01*
Y-3311616D01*
X8392455D01*
Y-3307347D01*
X8388185D01*
Y-3311616D01*
X8383915D01*
Y-3307347D01*
X8379645D01*
Y-3311616D01*
X8375375D01*
Y-3307347D01*
X8371105D01*
Y-3311616D01*
X8366835D01*
Y-3307347D01*
X8362565D01*
Y-3303076D01*
X8366835D01*
Y-3298806D01*
X8371105D01*
Y-3234756D01*
X8375375D01*
Y-3230486D01*
X8371105D01*
Y-3217675D01*
X8375375D01*
Y-3213405D01*
X8371105D01*
Y-3200595D01*
X8375375D01*
Y-3196325D01*
X8371105D01*
Y-3183515D01*
X8375375D01*
Y-3179245D01*
X8371105D01*
Y-3166435D01*
X8375375D01*
Y-3162165D01*
X8371105D01*
Y-3140815D01*
X8366835D01*
Y-3136544D01*
X8362565D01*
Y-3132274D01*
X8358294D01*
Y-3128004D01*
X8362565D01*
Y-3132274D01*
X8366835D01*
Y-3128004D01*
X8371105D01*
Y-3132274D01*
X8383915D01*
Y-3128004D01*
X8388185D01*
Y-3132274D01*
X8400995D01*
Y-3128004D01*
X8405265D01*
Y-3132274D01*
X8418075D01*
Y-3128004D01*
X8422345D01*
Y-3132274D01*
X8435155D01*
Y-3128004D01*
X8439425D01*
Y-3132274D01*
X8443696D01*
Y-3128004D01*
X8447966D01*
Y-3132274D01*
D02*
G37*
G36*
X8354024D02*
X8358294D01*
Y-3136544D01*
X8354024D01*
Y-3132274D01*
X8349755D01*
Y-3128004D01*
X8354024D01*
Y-3132274D01*
D02*
G37*
G36*
X8452236Y-3290266D02*
X8456506D01*
Y-3294536D01*
X8452236D01*
Y-3290266D01*
X8447966D01*
Y-3285996D01*
X8452236D01*
Y-3290266D01*
D02*
G37*
G36*
X8358294Y-3307347D02*
X8362565D01*
Y-3311616D01*
X8358294D01*
Y-3307347D01*
X8354024D01*
Y-3303076D01*
X8358294D01*
Y-3307347D01*
D02*
G37*
G36*
X11934000Y164000D02*
Y156000D01*
X11918000D01*
Y164000D01*
X11926000D01*
Y172000D01*
X11934000D01*
Y164000D01*
D02*
G37*
G36*
X9075663Y-3119464D02*
X9079933D01*
Y-3123734D01*
X9084203D01*
Y-3128004D01*
X9079933D01*
Y-3132274D01*
X9075663D01*
Y-3136544D01*
X9071393D01*
Y-3132274D01*
X9067123D01*
Y-3136544D01*
X9062853D01*
Y-3132274D01*
X9058583D01*
Y-3136544D01*
X9054313D01*
Y-3132274D01*
X9050043D01*
Y-3136544D01*
X9045773D01*
Y-3132274D01*
X9041502D01*
Y-3136544D01*
X9037233D01*
Y-3149355D01*
X9041502D01*
Y-3153625D01*
X9037233D01*
Y-3166435D01*
X9041502D01*
Y-3170705D01*
X9037233D01*
Y-3183515D01*
X9041502D01*
Y-3187785D01*
X9037233D01*
Y-3200595D01*
X9041502D01*
Y-3204865D01*
X9037233D01*
Y-3209135D01*
X9041502D01*
Y-3213405D01*
X9045773D01*
Y-3209135D01*
X9050043D01*
Y-3213405D01*
X9054313D01*
Y-3209135D01*
X9058583D01*
Y-3226216D01*
X9050043D01*
Y-3230486D01*
X9045773D01*
Y-3226216D01*
X9041502D01*
Y-3230486D01*
X9037233D01*
Y-3234756D01*
X9041502D01*
Y-3239026D01*
X9037233D01*
Y-3243296D01*
X9075663D01*
Y-3247566D01*
X9079933D01*
Y-3243296D01*
X9084203D01*
Y-3247566D01*
X9088473D01*
Y-3243296D01*
X9092743D01*
Y-3247566D01*
X9097013D01*
Y-3243296D01*
X9101283D01*
Y-3247566D01*
X9105553D01*
Y-3251836D01*
X9135443D01*
Y-3256106D01*
X9148254D01*
Y-3260376D01*
X9161064D01*
Y-3264646D01*
X9165334D01*
Y-3268916D01*
X9169604D01*
Y-3264646D01*
X9173874D01*
Y-3268916D01*
X9186684D01*
Y-3273186D01*
X9190954D01*
Y-3277456D01*
X9203765D01*
Y-3281726D01*
X9208034D01*
Y-3285996D01*
X9220845D01*
Y-3290266D01*
X9225115D01*
Y-3294536D01*
X9229385D01*
Y-3298806D01*
X9225115D01*
Y-3294536D01*
X9220845D01*
Y-3290266D01*
X9216575D01*
Y-3294536D01*
X9212305D01*
Y-3290266D01*
X9208034D01*
Y-3285996D01*
X9195225D01*
Y-3281726D01*
X9182414D01*
Y-3277456D01*
X9169604D01*
Y-3273186D01*
X9156794D01*
Y-3268916D01*
X9143984D01*
Y-3264646D01*
X9139713D01*
Y-3268916D01*
X9135443D01*
Y-3264646D01*
X9122633D01*
Y-3260376D01*
X9118363D01*
Y-3264646D01*
X9114094D01*
Y-3260376D01*
X9101283D01*
Y-3256106D01*
X9097013D01*
Y-3260376D01*
X9092743D01*
Y-3256106D01*
X9088473D01*
Y-3260376D01*
X9084203D01*
Y-3256106D01*
X9079933D01*
Y-3260376D01*
X9075663D01*
Y-3256106D01*
X9011612D01*
Y-3260376D01*
X9007342D01*
Y-3256106D01*
X9003072D01*
Y-3260376D01*
X8998802D01*
Y-3256106D01*
X8994532D01*
Y-3260376D01*
X8981722D01*
Y-3264646D01*
X8977452D01*
Y-3260376D01*
X8973182D01*
Y-3264646D01*
X8951832D01*
Y-3268916D01*
X8947561D01*
Y-3273186D01*
X8943291D01*
Y-3268916D01*
X8939022D01*
Y-3273186D01*
X8926211D01*
Y-3277456D01*
X8913401D01*
Y-3281726D01*
X8900591D01*
Y-3285996D01*
X8896321D01*
Y-3290266D01*
X8883511D01*
Y-3294536D01*
X8879241D01*
Y-3298806D01*
X8874971D01*
Y-3294536D01*
X8870701D01*
Y-3298806D01*
X8866431D01*
Y-3303076D01*
X8862160D01*
Y-3307347D01*
X8849350D01*
Y-3311616D01*
X8845080D01*
Y-3315886D01*
X8832270D01*
Y-3320157D01*
X8828000D01*
Y-3324427D01*
X8823730D01*
Y-3328697D01*
X8819460D01*
Y-3332966D01*
X8810919D01*
Y-3337237D01*
X8806650D01*
Y-3341507D01*
X8798110D01*
Y-3345777D01*
X8793840D01*
Y-3337237D01*
X8802380D01*
Y-3332966D01*
X8806650D01*
Y-3328697D01*
X8810919D01*
Y-3324427D01*
X8815190D01*
Y-3320157D01*
X8819460D01*
Y-3315886D01*
X8823730D01*
Y-3311616D01*
X8828000D01*
Y-3307347D01*
X8823730D01*
Y-3303076D01*
X8828000D01*
Y-3298806D01*
X8823730D01*
Y-3294536D01*
X8828000D01*
Y-3290266D01*
X8823730D01*
Y-3285996D01*
X8828000D01*
Y-3281726D01*
X8823730D01*
Y-3277456D01*
X8828000D01*
Y-3273186D01*
X8823730D01*
Y-3268916D01*
X8828000D01*
Y-3264646D01*
X8823730D01*
Y-3260376D01*
X8828000D01*
Y-3256106D01*
X8823730D01*
Y-3251836D01*
X8828000D01*
Y-3247566D01*
X8823730D01*
Y-3243296D01*
X8828000D01*
Y-3239026D01*
X8823730D01*
Y-3234756D01*
X8828000D01*
Y-3230486D01*
X8823730D01*
Y-3226216D01*
X8828000D01*
Y-3221945D01*
X8823730D01*
Y-3217675D01*
X8828000D01*
Y-3213405D01*
X8823730D01*
Y-3209135D01*
X8828000D01*
Y-3204865D01*
X8823730D01*
Y-3200595D01*
X8828000D01*
Y-3196325D01*
X8823730D01*
Y-3192055D01*
X8828000D01*
Y-3187785D01*
X8823730D01*
Y-3183515D01*
X8828000D01*
Y-3179245D01*
X8823730D01*
Y-3174975D01*
X8828000D01*
Y-3170705D01*
X8823730D01*
Y-3166435D01*
X8828000D01*
Y-3162165D01*
X8823730D01*
Y-3157895D01*
X8828000D01*
Y-3153625D01*
X8823730D01*
Y-3149355D01*
X8828000D01*
Y-3145085D01*
X8823730D01*
Y-3140815D01*
X8828000D01*
Y-3136544D01*
X8823730D01*
Y-3132274D01*
X8828000D01*
Y-3128004D01*
X8823730D01*
Y-3123734D01*
X8828000D01*
Y-3119464D01*
X8823730D01*
Y-3115194D01*
X8828000D01*
Y-3119464D01*
X8832270D01*
Y-3115194D01*
X8836540D01*
Y-3119464D01*
X8840810D01*
Y-3115194D01*
X8845080D01*
Y-3119464D01*
X8849350D01*
Y-3115194D01*
X8853620D01*
Y-3119464D01*
X8857890D01*
Y-3115194D01*
X8862160D01*
Y-3119464D01*
X8866431D01*
Y-3115194D01*
X8870701D01*
Y-3119464D01*
X8874971D01*
Y-3115194D01*
X8879241D01*
Y-3119464D01*
X8883511D01*
Y-3123734D01*
X8887781D01*
Y-3128004D01*
X8892051D01*
Y-3132274D01*
X8896321D01*
Y-3136544D01*
X8900591D01*
Y-3183515D01*
X8904861D01*
Y-3187785D01*
X8900591D01*
Y-3217675D01*
X8896321D01*
Y-3230486D01*
X8892051D01*
Y-3234756D01*
X8887781D01*
Y-3239026D01*
X8874971D01*
Y-3243296D01*
X8870701D01*
Y-3239026D01*
X8866431D01*
Y-3243296D01*
X8862160D01*
Y-3239026D01*
X8857890D01*
Y-3234756D01*
X8862160D01*
Y-3230486D01*
X8857890D01*
Y-3226216D01*
X8870701D01*
Y-3221945D01*
X8874971D01*
Y-3217675D01*
X8879241D01*
Y-3213405D01*
X8883511D01*
Y-3140815D01*
X8879241D01*
Y-3136544D01*
X8866431D01*
Y-3132274D01*
X8862160D01*
Y-3136544D01*
X8857890D01*
Y-3132274D01*
X8853620D01*
Y-3136544D01*
X8849350D01*
Y-3132274D01*
X8845080D01*
Y-3136544D01*
X8840810D01*
Y-3140815D01*
X8845080D01*
Y-3145085D01*
X8840810D01*
Y-3149355D01*
X8845080D01*
Y-3153625D01*
X8840810D01*
Y-3157895D01*
X8845080D01*
Y-3162165D01*
X8840810D01*
Y-3166435D01*
X8845080D01*
Y-3170705D01*
X8840810D01*
Y-3174975D01*
X8845080D01*
Y-3179245D01*
X8840810D01*
Y-3183515D01*
X8845080D01*
Y-3187785D01*
X8840810D01*
Y-3192055D01*
X8845080D01*
Y-3196325D01*
X8840810D01*
Y-3200595D01*
X8845080D01*
Y-3204865D01*
X8840810D01*
Y-3209135D01*
X8845080D01*
Y-3213405D01*
X8840810D01*
Y-3217675D01*
X8845080D01*
Y-3221945D01*
X8840810D01*
Y-3226216D01*
X8845080D01*
Y-3230486D01*
X8840810D01*
Y-3234756D01*
X8845080D01*
Y-3239026D01*
X8840810D01*
Y-3243296D01*
X8845080D01*
Y-3247566D01*
X8840810D01*
Y-3251836D01*
X8845080D01*
Y-3256106D01*
X8840810D01*
Y-3260376D01*
X8845080D01*
Y-3264646D01*
X8840810D01*
Y-3268916D01*
X8845080D01*
Y-3273186D01*
X8840810D01*
Y-3277456D01*
X8845080D01*
Y-3281726D01*
X8840810D01*
Y-3285996D01*
X8845080D01*
Y-3290266D01*
X8840810D01*
Y-3294536D01*
X8845080D01*
Y-3298806D01*
X8849350D01*
Y-3294536D01*
X8862160D01*
Y-3290266D01*
X8866431D01*
Y-3285996D01*
X8879241D01*
Y-3281726D01*
X8883511D01*
Y-3277456D01*
X8887781D01*
Y-3273186D01*
X8892051D01*
Y-3277456D01*
X8896321D01*
Y-3273186D01*
X8900591D01*
Y-3268916D01*
X8913401D01*
Y-3264646D01*
X8917671D01*
Y-3260376D01*
X8921941D01*
Y-3256106D01*
X8917671D01*
Y-3251836D01*
X8921941D01*
Y-3247566D01*
X8926211D01*
Y-3243296D01*
X8930481D01*
Y-3247566D01*
X8934751D01*
Y-3251836D01*
X8939022D01*
Y-3256106D01*
X8943291D01*
Y-3251836D01*
X8947561D01*
Y-3256106D01*
X8951832D01*
Y-3251836D01*
X8964642D01*
Y-3247566D01*
X8968912D01*
Y-3251836D01*
X8973182D01*
Y-3247566D01*
X8977452D01*
Y-3243296D01*
X8973182D01*
Y-3239026D01*
X8968912D01*
Y-3234756D01*
X8964642D01*
Y-3230486D01*
X8960372D01*
Y-3226216D01*
X8964642D01*
Y-3217675D01*
X8981722D01*
Y-3221945D01*
X8985992D01*
Y-3226216D01*
X8990262D01*
Y-3234756D01*
X8994532D01*
Y-3243296D01*
X9020152D01*
Y-3234756D01*
X9024423D01*
Y-3230486D01*
X9020152D01*
Y-3217675D01*
X9024423D01*
Y-3213405D01*
X9020152D01*
Y-3200595D01*
X9024423D01*
Y-3196325D01*
X9020152D01*
Y-3183515D01*
X9024423D01*
Y-3179245D01*
X9020152D01*
Y-3166435D01*
X9024423D01*
Y-3162165D01*
X9020152D01*
Y-3149355D01*
X9024423D01*
Y-3145085D01*
X9020152D01*
Y-3132274D01*
X9024423D01*
Y-3128004D01*
X9020152D01*
Y-3115194D01*
X9024423D01*
Y-3119464D01*
X9028692D01*
Y-3115194D01*
X9032963D01*
Y-3119464D01*
X9037233D01*
Y-3115194D01*
X9041502D01*
Y-3119464D01*
X9045773D01*
Y-3115194D01*
X9050043D01*
Y-3119464D01*
X9054313D01*
Y-3115194D01*
X9058583D01*
Y-3119464D01*
X9062853D01*
Y-3115194D01*
X9067123D01*
Y-3119464D01*
X9071393D01*
Y-3115194D01*
X9075663D01*
Y-3119464D01*
D02*
G37*
G36*
X8981722D02*
X8985992D01*
Y-3123734D01*
X8990262D01*
Y-3128004D01*
X8994532D01*
Y-3132274D01*
X8998802D01*
Y-3136544D01*
X8994532D01*
Y-3140815D01*
X8998802D01*
Y-3145085D01*
X8994532D01*
Y-3149355D01*
X8998802D01*
Y-3153625D01*
X8994532D01*
Y-3157895D01*
X8998802D01*
Y-3162165D01*
X8994532D01*
Y-3166435D01*
X8998802D01*
Y-3170705D01*
X8994532D01*
Y-3174975D01*
X8998802D01*
Y-3179245D01*
X8994532D01*
Y-3183515D01*
X8998802D01*
Y-3187785D01*
X8985992D01*
Y-3183515D01*
X8981722D01*
Y-3179245D01*
X8977452D01*
Y-3174975D01*
X8981722D01*
Y-3170705D01*
X8977452D01*
Y-3166435D01*
X8981722D01*
Y-3162165D01*
X8977452D01*
Y-3157895D01*
X8981722D01*
Y-3153625D01*
X8977452D01*
Y-3149355D01*
X8981722D01*
Y-3145085D01*
X8977452D01*
Y-3140815D01*
X8981722D01*
Y-3136544D01*
X8968912D01*
Y-3132274D01*
X8964642D01*
Y-3128004D01*
X8960372D01*
Y-3132274D01*
X8956102D01*
Y-3128004D01*
X8951832D01*
Y-3132274D01*
X8947561D01*
Y-3136544D01*
X8943291D01*
Y-3140815D01*
X8939022D01*
Y-3145085D01*
X8934751D01*
Y-3149355D01*
X8939022D01*
Y-3162165D01*
X8934751D01*
Y-3166435D01*
X8939022D01*
Y-3179245D01*
X8934751D01*
Y-3183515D01*
X8939022D01*
Y-3187785D01*
X8943291D01*
Y-3192055D01*
X8947561D01*
Y-3196325D01*
X8951832D01*
Y-3200595D01*
X8956102D01*
Y-3209135D01*
X8951832D01*
Y-3213405D01*
X8934751D01*
Y-3209135D01*
X8930481D01*
Y-3204865D01*
X8926211D01*
Y-3192055D01*
X8921941D01*
Y-3187785D01*
X8917671D01*
Y-3183515D01*
X8921941D01*
Y-3179245D01*
X8917671D01*
Y-3174975D01*
X8921941D01*
Y-3170705D01*
X8917671D01*
Y-3166435D01*
X8921941D01*
Y-3162165D01*
X8917671D01*
Y-3157895D01*
X8921941D01*
Y-3153625D01*
X8917671D01*
Y-3149355D01*
X8921941D01*
Y-3145085D01*
X8917671D01*
Y-3140815D01*
X8921941D01*
Y-3132274D01*
X8926211D01*
Y-3123734D01*
X8930481D01*
Y-3119464D01*
X8934751D01*
Y-3115194D01*
X8939022D01*
Y-3119464D01*
X8943291D01*
Y-3115194D01*
X8981722D01*
Y-3119464D01*
D02*
G37*
G36*
X8802380D02*
X8806650D01*
Y-3123734D01*
X8802380D01*
Y-3324427D01*
X8798110D01*
Y-3320157D01*
X8793840D01*
Y-3324427D01*
X8789570D01*
Y-3320157D01*
X8785299D01*
Y-3273186D01*
X8781030D01*
Y-3268916D01*
X8785299D01*
Y-3204865D01*
X8781030D01*
Y-3200595D01*
X8785299D01*
Y-3136544D01*
X8781030D01*
Y-3132274D01*
X8785299D01*
Y-3119464D01*
X8789570D01*
Y-3115194D01*
X8793840D01*
Y-3119464D01*
X8798110D01*
Y-3115194D01*
X8802380D01*
Y-3119464D01*
D02*
G37*
G36*
X8716979D02*
X8721249D01*
Y-3123734D01*
X8725519D01*
Y-3128004D01*
X8721249D01*
Y-3132274D01*
X8725519D01*
Y-3136544D01*
X8721249D01*
Y-3140815D01*
X8725519D01*
Y-3145085D01*
X8721249D01*
Y-3149355D01*
X8725519D01*
Y-3153625D01*
X8721249D01*
Y-3157895D01*
X8725519D01*
Y-3162165D01*
X8721249D01*
Y-3166435D01*
X8725519D01*
Y-3170705D01*
X8721249D01*
Y-3174975D01*
X8725519D01*
Y-3179245D01*
X8721249D01*
Y-3183515D01*
X8725519D01*
Y-3187785D01*
X8721249D01*
Y-3192055D01*
X8725519D01*
Y-3196325D01*
X8721249D01*
Y-3200595D01*
X8725519D01*
Y-3204865D01*
X8721249D01*
Y-3209135D01*
X8725519D01*
Y-3213405D01*
X8721249D01*
Y-3217675D01*
X8725519D01*
Y-3221945D01*
X8721249D01*
Y-3226216D01*
X8725519D01*
Y-3230486D01*
X8721249D01*
Y-3234756D01*
X8725519D01*
Y-3239026D01*
X8721249D01*
Y-3243296D01*
X8725519D01*
Y-3247566D01*
X8721249D01*
Y-3251836D01*
X8725519D01*
Y-3256106D01*
X8721249D01*
Y-3260376D01*
X8725519D01*
Y-3264646D01*
X8721249D01*
Y-3268916D01*
X8725519D01*
Y-3273186D01*
X8721249D01*
Y-3277456D01*
X8725519D01*
Y-3281726D01*
X8721249D01*
Y-3285996D01*
X8725519D01*
Y-3290266D01*
X8721249D01*
Y-3294536D01*
X8725519D01*
Y-3298806D01*
X8721249D01*
Y-3303076D01*
X8725519D01*
Y-3307347D01*
X8729789D01*
Y-3303076D01*
X8742599D01*
Y-3307347D01*
X8746869D01*
Y-3303076D01*
X8759679D01*
Y-3307347D01*
X8763950D01*
Y-3311616D01*
X8768219D01*
Y-3315886D01*
X8763950D01*
Y-3320157D01*
X8768219D01*
Y-3324427D01*
X8763950D01*
Y-3320157D01*
X8759679D01*
Y-3324427D01*
X8755409D01*
Y-3320157D01*
X8751139D01*
Y-3324427D01*
X8746869D01*
Y-3320157D01*
X8742599D01*
Y-3324427D01*
X8738329D01*
Y-3320157D01*
X8734059D01*
Y-3324427D01*
X8729789D01*
Y-3320157D01*
X8725519D01*
Y-3324427D01*
X8721249D01*
Y-3320157D01*
X8716979D01*
Y-3324427D01*
X8712709D01*
Y-3320157D01*
X8708439D01*
Y-3315886D01*
X8704169D01*
Y-3311616D01*
X8708439D01*
Y-3307347D01*
X8704169D01*
Y-3303076D01*
X8708439D01*
Y-3298806D01*
X8704169D01*
Y-3294536D01*
X8708439D01*
Y-3290266D01*
X8704169D01*
Y-3285996D01*
X8708439D01*
Y-3281726D01*
X8704169D01*
Y-3277456D01*
X8708439D01*
Y-3273186D01*
X8704169D01*
Y-3268916D01*
X8708439D01*
Y-3264646D01*
X8704169D01*
Y-3260376D01*
X8708439D01*
Y-3256106D01*
X8704169D01*
Y-3251836D01*
X8708439D01*
Y-3247566D01*
X8704169D01*
Y-3243296D01*
X8708439D01*
Y-3239026D01*
X8704169D01*
Y-3234756D01*
X8708439D01*
Y-3230486D01*
X8704169D01*
Y-3226216D01*
X8708439D01*
Y-3221945D01*
X8704169D01*
Y-3217675D01*
X8708439D01*
Y-3213405D01*
X8704169D01*
Y-3209135D01*
X8708439D01*
Y-3204865D01*
X8704169D01*
Y-3200595D01*
X8708439D01*
Y-3196325D01*
X8704169D01*
Y-3192055D01*
X8708439D01*
Y-3187785D01*
X8704169D01*
Y-3183515D01*
X8708439D01*
Y-3179245D01*
X8704169D01*
Y-3174975D01*
X8708439D01*
Y-3170705D01*
X8704169D01*
Y-3166435D01*
X8708439D01*
Y-3162165D01*
X8704169D01*
Y-3157895D01*
X8708439D01*
Y-3153625D01*
X8704169D01*
Y-3149355D01*
X8708439D01*
Y-3145085D01*
X8704169D01*
Y-3140815D01*
X8708439D01*
Y-3136544D01*
X8704169D01*
Y-3132274D01*
X8708439D01*
Y-3128004D01*
X8704169D01*
Y-3123734D01*
X8708439D01*
Y-3119464D01*
X8704169D01*
Y-3115194D01*
X8708439D01*
Y-3119464D01*
X8712709D01*
Y-3115194D01*
X8716979D01*
Y-3119464D01*
D02*
G37*
G36*
X8665738D02*
X8670008D01*
Y-3123734D01*
X8678548D01*
Y-3132274D01*
X8682818D01*
Y-3153625D01*
X8687088D01*
Y-3157895D01*
X8682818D01*
Y-3170705D01*
X8687088D01*
Y-3174975D01*
X8682818D01*
Y-3187785D01*
X8665738D01*
Y-3179245D01*
X8670008D01*
Y-3174975D01*
X8665738D01*
Y-3162165D01*
X8670008D01*
Y-3157895D01*
X8665738D01*
Y-3136544D01*
X8661468D01*
Y-3132274D01*
X8648658D01*
Y-3128004D01*
X8644388D01*
Y-3132274D01*
X8631577D01*
Y-3136544D01*
X8627308D01*
Y-3140815D01*
X8623038D01*
Y-3187785D01*
X8618768D01*
Y-3192055D01*
X8623038D01*
Y-3204865D01*
X8618768D01*
Y-3209135D01*
X8605958D01*
Y-3196325D01*
X8601688D01*
Y-3192055D01*
X8605958D01*
Y-3179245D01*
X8601688D01*
Y-3174975D01*
X8605958D01*
Y-3162165D01*
X8601688D01*
Y-3157895D01*
X8605958D01*
Y-3136544D01*
X8610228D01*
Y-3132274D01*
X8614498D01*
Y-3128004D01*
X8610228D01*
Y-3123734D01*
X8614498D01*
Y-3119464D01*
X8618768D01*
Y-3123734D01*
X8623038D01*
Y-3119464D01*
X8627308D01*
Y-3115194D01*
X8665738D01*
Y-3119464D01*
D02*
G37*
G36*
X9237925Y-3298806D02*
X9242195D01*
Y-3303076D01*
X9246465D01*
Y-3307347D01*
X9242195D01*
Y-3303076D01*
X9237925D01*
Y-3298806D01*
X9233655D01*
Y-3294536D01*
X9237925D01*
Y-3298806D01*
D02*
G37*
G36*
X8618768Y-3226216D02*
X8623038D01*
Y-3256106D01*
X8618768D01*
Y-3260376D01*
X8623038D01*
Y-3298806D01*
X8627308D01*
Y-3303076D01*
X8631577D01*
Y-3307347D01*
X8635848D01*
Y-3303076D01*
X8640118D01*
Y-3307347D01*
X8644388D01*
Y-3303076D01*
X8648658D01*
Y-3307347D01*
X8652928D01*
Y-3303076D01*
X8665738D01*
Y-3281726D01*
X8670008D01*
Y-3277456D01*
X8665738D01*
Y-3264646D01*
X8670008D01*
Y-3260376D01*
X8665738D01*
Y-3247566D01*
X8670008D01*
Y-3243296D01*
X8682818D01*
Y-3247566D01*
X8687088D01*
Y-3251836D01*
X8682818D01*
Y-3256106D01*
X8687088D01*
Y-3260376D01*
X8682818D01*
Y-3273186D01*
X8687088D01*
Y-3277456D01*
X8682818D01*
Y-3290266D01*
X8687088D01*
Y-3294536D01*
X8682818D01*
Y-3307347D01*
X8678548D01*
Y-3311616D01*
X8674278D01*
Y-3315886D01*
X8670008D01*
Y-3320157D01*
X8665738D01*
Y-3324427D01*
X8661468D01*
Y-3320157D01*
X8657198D01*
Y-3324427D01*
X8644388D01*
Y-3320157D01*
X8640118D01*
Y-3324427D01*
X8635848D01*
Y-3320157D01*
X8631577D01*
Y-3324427D01*
X8627308D01*
Y-3320157D01*
X8623038D01*
Y-3315886D01*
X8614498D01*
Y-3307347D01*
X8610228D01*
Y-3303076D01*
X8605958D01*
Y-3281726D01*
X8601688D01*
Y-3277456D01*
X8605958D01*
Y-3264646D01*
X8601688D01*
Y-3260376D01*
X8605958D01*
Y-3256106D01*
X8601688D01*
Y-3251836D01*
X8605958D01*
Y-3247566D01*
X8601688D01*
Y-3243296D01*
X8605958D01*
Y-3230486D01*
X8601688D01*
Y-3226216D01*
X8614498D01*
Y-3221945D01*
X8618768D01*
Y-3226216D01*
D02*
G37*
G36*
X8793840Y-3350047D02*
X8789570D01*
Y-3354317D01*
X8785299D01*
Y-3345777D01*
X8793840D01*
Y-3350047D01*
D02*
G37*
G36*
X8785299Y-3358587D02*
X8781030D01*
Y-3362857D01*
X8776759D01*
Y-3367127D01*
X8772490D01*
Y-3371397D01*
X8768219D01*
Y-3362857D01*
X8772490D01*
Y-3358587D01*
X8776759D01*
Y-3354317D01*
X8785299D01*
Y-3358587D01*
D02*
G37*
%LPC*%
G36*
X8016690Y-3136544D02*
X8012421D01*
Y-3140815D01*
X8008150D01*
Y-3136544D01*
X7986800D01*
Y-3140815D01*
X7982530D01*
Y-3145085D01*
Y-3149355D01*
Y-3153625D01*
Y-3157895D01*
Y-3162165D01*
Y-3166435D01*
Y-3170705D01*
Y-3174975D01*
Y-3179245D01*
Y-3183515D01*
Y-3187785D01*
Y-3192055D01*
Y-3196325D01*
Y-3200595D01*
Y-3204865D01*
Y-3209135D01*
Y-3213405D01*
Y-3217675D01*
Y-3221945D01*
X7986800D01*
Y-3226216D01*
X8025231D01*
Y-3221945D01*
X8029500D01*
Y-3217675D01*
X8033771D01*
Y-3213405D01*
X8038041D01*
Y-3209135D01*
X8042311D01*
Y-3204865D01*
X8038041D01*
Y-3200595D01*
X8042311D01*
Y-3196325D01*
Y-3192055D01*
Y-3187785D01*
Y-3183515D01*
Y-3179245D01*
Y-3174975D01*
Y-3170705D01*
X8038041D01*
Y-3166435D01*
X8042311D01*
Y-3162165D01*
X8038041D01*
Y-3157895D01*
X8033771D01*
Y-3153625D01*
X8029500D01*
Y-3149355D01*
X8033771D01*
Y-3145085D01*
X8020961D01*
Y-3140815D01*
X8016690D01*
Y-3136544D01*
D02*
G37*
%LPD*%
D50*
X1183189Y-1315000D02*
G03*
X1183189Y-1315000I-4921J0D01*
G01*
X6709921Y-2799134D02*
G03*
X6709921Y-2799134I-4921J0D01*
G01*
X6745709Y-2014134D02*
G03*
X6745709Y-2014134I-4921J0D01*
G01*
X5795709Y-2842795D02*
G03*
X5795709Y-2842795I-4921J0D01*
G01*
X5865709Y-1974134D02*
G03*
X5865709Y-1974134I-4921J0D01*
G01*
X4010709Y-2924134D02*
G03*
X4010709Y-2924134I-4921J0D01*
G01*
X4775709Y-2909134D02*
G03*
X4775709Y-2909134I-4921J0D01*
G01*
X4805709Y-2154134D02*
G03*
X4805709Y-2154134I-4921J0D01*
G01*
X4011496Y-2141535D02*
G03*
X4011496Y-2141535I-4921J0D01*
G01*
X3131457Y-2718150D02*
G03*
X3131457Y-2718150I-4921J0D01*
G01*
X2376457Y-2683150D02*
G03*
X2376457Y-2683150I-4921J0D01*
G01*
X3501457Y-1693150D02*
G03*
X3501457Y-1693150I-4921J0D01*
G01*
X2736457Y-1726299D02*
G03*
X2736457Y-1726299I-4921J0D01*
G01*
X1886457Y-1723150D02*
G03*
X1886457Y-1723150I-4921J0D01*
G01*
X8588583Y-1041535D02*
G03*
X8588583Y-1041535I-4921J0D01*
G01*
X7474370Y-1094134D02*
G03*
X7474370Y-1094134I-4921J0D01*
G01*
X6305158Y-1131535D02*
G03*
X6305158Y-1131535I-4921J0D01*
G01*
X5379370Y-1109134D02*
G03*
X5379370Y-1109134I-4921J0D01*
G01*
X4309370D02*
G03*
X4309370Y-1109134I-4921J0D01*
G01*
X8671220Y-2113465D02*
G03*
X8671220Y-2113465I-4921J0D01*
G01*
X7846221Y-2115965D02*
G03*
X7846221Y-2115965I-4921J0D01*
G01*
X9541220Y-2113465D02*
G03*
X9541220Y-2113465I-4921J0D01*
G01*
D51*
X3184811Y-2580000D02*
G03*
X3184811Y-2580000I-11811J0D01*
G01*
X2429811Y-2545000D02*
G03*
X2429811Y-2545000I-11811J0D01*
G01*
X3554811Y-1555000D02*
G03*
X3554811Y-1555000I-11811J0D01*
G01*
X2789811Y-1588150D02*
G03*
X2789811Y-1588150I-11811J0D01*
G01*
X1939811Y-1585000D02*
G03*
X1939811Y-1585000I-11811J0D01*
G01*
X8593465Y-2060512D02*
G03*
X8593465Y-2060512I-11811J0D01*
G01*
X7768465Y-2063012D02*
G03*
X7768465Y-2063012I-11811J0D01*
G01*
X9463465Y-2060512D02*
G03*
X9463465Y-2060512I-11811J0D01*
G01*
D52*
X2466895Y-495546D02*
G03*
X2466895Y-495546I-1968J0D01*
G01*
X2100895D02*
G03*
X2100895Y-495546I-1968J0D01*
G01*
X1734895D02*
G03*
X1734895Y-495546I-1968J0D01*
G01*
X1368895D02*
G03*
X1368895Y-495546I-1968J0D01*
G01*
X1002895D02*
G03*
X1002895Y-495546I-1968J0D01*
G01*
X636895D02*
G03*
X636895Y-495546I-1968J0D01*
G01*
X6531895Y-2780546D02*
G03*
X6531895Y-2780546I-1968J0D01*
G01*
X6467042Y-3159454D02*
G03*
X6467042Y-3159454I-1968J0D01*
G01*
X6621895Y-1995546D02*
G03*
X6621895Y-1995546I-1968J0D01*
G01*
X6552042Y-2364454D02*
G03*
X6552042Y-2364454I-1968J0D01*
G01*
X6821422Y-2674927D02*
G03*
X6821422Y-2674927I-1968J0D01*
G01*
X6861422Y-1879927D02*
G03*
X6861422Y-1879927I-1968J0D01*
G01*
X5661895Y-2755546D02*
G03*
X5661895Y-2755546I-1968J0D01*
G01*
X5597042Y-3134454D02*
G03*
X5597042Y-3134454I-1968J0D01*
G01*
X5711895Y-1965546D02*
G03*
X5711895Y-1965546I-1968J0D01*
G01*
X5632042Y-2340793D02*
G03*
X5632042Y-2340793I-1968J0D01*
G01*
X5916422Y-2704927D02*
G03*
X5916422Y-2704927I-1968J0D01*
G01*
X5980084Y-1844927D02*
G03*
X5980084Y-1844927I-1968J0D01*
G01*
X4301895Y-2930546D02*
G03*
X4301895Y-2930546I-1968J0D01*
G01*
X5061895Y-2920546D02*
G03*
X5061895Y-2920546I-1968J0D01*
G01*
X5051895Y-2165546D02*
G03*
X5051895Y-2165546I-1968J0D01*
G01*
X4286895Y-2135546D02*
G03*
X4286895Y-2135546I-1968J0D01*
G01*
X1173824Y-1169139D02*
G03*
X1173824Y-1169139I-1968J0D01*
G01*
X1324296Y-1299759D02*
G03*
X1324296Y-1299759I-1968J0D01*
G01*
X1766422Y-1989927D02*
G03*
X1766422Y-1989927I-1968J0D01*
G01*
X1307042Y-2329454D02*
G03*
X1307042Y-2329454I-1968J0D01*
G01*
X787042Y-2274454D02*
G03*
X787042Y-2274454I-1968J0D01*
G01*
Y-2519454D02*
G03*
X787042Y-2519454I-1968J0D01*
G01*
X2917042Y-2427288D02*
G03*
X2917042Y-2427288I-1968J0D01*
G01*
X2165805Y-2392288D02*
G03*
X2165805Y-2392288I-1968J0D01*
G01*
X3273277Y-1413982D02*
G03*
X3273277Y-1413982I-1968J0D01*
G01*
X1667042Y-1444454D02*
G03*
X1667042Y-1444454I-1968J0D01*
G01*
X2512042Y-1462604D02*
G03*
X2512042Y-1462604I-1968J0D01*
G01*
X8997362Y-1046856D02*
G03*
X8997362Y-1046856I-1968J0D01*
G01*
X8804916D02*
G03*
X8804916Y-1046856I-1968J0D01*
G01*
Y-1301856D02*
G03*
X8804916Y-1301856I-1968J0D01*
G01*
X7863150Y-1079454D02*
G03*
X7863150Y-1079454I-1968J0D01*
G01*
X7670703D02*
G03*
X7670703Y-1079454I-1968J0D01*
G01*
X6688150Y-1124454D02*
G03*
X6688150Y-1124454I-1968J0D01*
G01*
X7670703Y-1334454D02*
G03*
X7670703Y-1334454I-1968J0D01*
G01*
X6490703Y-1124454D02*
G03*
X6490703Y-1124454I-1968J0D01*
G01*
Y-1369454D02*
G03*
X6490703Y-1369454I-1968J0D01*
G01*
X5720703Y-1114454D02*
G03*
X5720703Y-1114454I-1968J0D01*
G01*
X4680703Y-1153115D02*
G03*
X4680703Y-1153115I-1968J0D01*
G01*
X5545703Y-1114454D02*
G03*
X5545703Y-1114454I-1968J0D01*
G01*
X4485703Y-1153115D02*
G03*
X4485703Y-1153115I-1968J0D01*
G01*
X5545703Y-1359454D02*
G03*
X5545703Y-1359454I-1968J0D01*
G01*
X4485703Y-1416422D02*
G03*
X4485703Y-1416422I-1968J0D01*
G01*
X9265423Y-2108927D02*
G03*
X9265423Y-2108927I-1968J0D01*
G01*
X8147084Y-1961927D02*
G03*
X8147084Y-1961927I-1968J0D01*
G01*
X7487422Y-2136927D02*
G03*
X7487422Y-2136927I-1968J0D01*
G01*
D53*
X1178268Y-1395708D02*
Y-1348464D01*
X1134960Y-1395708D02*
X1178268D01*
X1036536D02*
Y-1348464D01*
Y-1395708D02*
X1079842D01*
X2900000Y-2161850D02*
Y-1961850D01*
Y-2161850D02*
X3350000D01*
Y-2061850D01*
X3300000D02*
X3350000D01*
X3300000D02*
Y-1961850D01*
X2900000D02*
X3300000D01*
X2135000Y-2150000D02*
Y-1950000D01*
Y-2150000D02*
X2585000D01*
Y-2050000D01*
X2535000D02*
X2585000D01*
X2535000D02*
Y-1950000D01*
X2135000D02*
X2535000D01*
X3220000Y-1170000D02*
Y-970000D01*
Y-1170000D02*
X3670000D01*
Y-1070000D01*
X3620000D02*
X3670000D01*
X3620000D02*
Y-970000D01*
X3220000D02*
X3620000D01*
X2485000Y-1188150D02*
Y-988150D01*
Y-1188150D02*
X2935000D01*
Y-1088150D01*
X2885000D02*
X2935000D01*
X2885000D02*
Y-988150D01*
X2485000D02*
X2885000D01*
X1670000Y-1175000D02*
Y-975000D01*
Y-1175000D02*
X2120000D01*
Y-1075000D01*
X2070000D02*
X2120000D01*
X2070000D02*
Y-975000D01*
X1670000D02*
X2070000D01*
X2215670Y-1281810D02*
Y-1258188D01*
X2174330Y-1281810D02*
Y-1258188D01*
X3459330Y-2446262D02*
Y-2422640D01*
X3500670Y-2446262D02*
Y-2422640D01*
X2689330Y-2441810D02*
Y-2418188D01*
X2730670Y-2441810D02*
Y-2418188D01*
X3809330Y-1466810D02*
Y-1443188D01*
X3850670Y-1466810D02*
Y-1443188D01*
X3034330Y-1512560D02*
Y-1488938D01*
X3075670Y-1512560D02*
Y-1488938D01*
X2174330Y-1574210D02*
Y-1550588D01*
X2215670Y-1574210D02*
Y-1550588D01*
X2966600Y-2658662D02*
Y-2635040D01*
X3007938Y-2658662D02*
Y-2635040D01*
X2184330Y-2626810D02*
Y-2603188D01*
X2225670Y-2626810D02*
Y-2603188D01*
X3279330Y-1614410D02*
Y-1590788D01*
X3320670Y-1614410D02*
Y-1590788D01*
X2509330Y-1689960D02*
Y-1666338D01*
X2550670Y-1689960D02*
Y-1666338D01*
X1679330Y-1671810D02*
Y-1648188D01*
X1720670Y-1671810D02*
Y-1648188D01*
X6289330Y-2861810D02*
Y-2838188D01*
X6330670Y-2861810D02*
Y-2838188D01*
X6284330Y-3111810D02*
Y-3088188D01*
X6325670Y-3111810D02*
Y-3088188D01*
X6344330Y-2071810D02*
Y-2048188D01*
X6385670Y-2071810D02*
Y-2048188D01*
X6344330Y-2306810D02*
Y-2283188D01*
X6385670Y-2306810D02*
Y-2283188D01*
X5384330Y-2831810D02*
Y-2808188D01*
X5425670Y-2831810D02*
Y-2808188D01*
X5384330Y-3076810D02*
Y-3053188D01*
X5425670Y-3076810D02*
Y-3053188D01*
X5439330Y-2041810D02*
Y-2018188D01*
X5480670Y-2041810D02*
Y-2018188D01*
X5439330Y-2286810D02*
Y-2263188D01*
X5480670Y-2286810D02*
Y-2263188D01*
X4043190Y-3109330D02*
X4066812D01*
X4043190Y-3150670D02*
X4066812D01*
X4803190Y-3104330D02*
X4826812D01*
X4803190Y-3145670D02*
X4826812D01*
X4048190Y-2749330D02*
X4071812D01*
X4048190Y-2790670D02*
X4071812D01*
X4753190Y-2719330D02*
X4776812D01*
X4753190Y-2760670D02*
X4776812D01*
X3860670Y-3006810D02*
Y-2983188D01*
X3819330Y-3006810D02*
Y-2983188D01*
Y-2766810D02*
Y-2743188D01*
X3860670Y-2766810D02*
Y-2743188D01*
X4595670Y-2996810D02*
Y-2973188D01*
X4554330Y-2996810D02*
Y-2973188D01*
Y-2730472D02*
Y-2706850D01*
X4595670Y-2730472D02*
Y-2706850D01*
X4253190Y-2749330D02*
X4276812D01*
X4253190Y-2790670D02*
X4276812D01*
X4976850Y-2714330D02*
X5000472D01*
X4976850Y-2755670D02*
X5000472D01*
X4848190Y-2454330D02*
X4871812D01*
X4848190Y-2495670D02*
X4871812D01*
X4053190Y-2434330D02*
X4076812D01*
X4053190Y-2475670D02*
X4076812D01*
X4758190Y-1969330D02*
X4781812D01*
X4758190Y-2010670D02*
X4781812D01*
X3978190Y-1954330D02*
X4001812D01*
X3978190Y-1995670D02*
X4001812D01*
X4635670Y-2226810D02*
Y-2203188D01*
X4594330Y-2226810D02*
Y-2203188D01*
Y-1956810D02*
Y-1933188D01*
X4635670Y-1956810D02*
Y-1933188D01*
X3830670Y-2226810D02*
Y-2203188D01*
X3789330Y-2226810D02*
Y-2203188D01*
X3784330Y-1936810D02*
Y-1913188D01*
X3825670Y-1936810D02*
Y-1913188D01*
X4958190Y-1969330D02*
X4981812D01*
X4958190Y-2010670D02*
X4981812D01*
X4183190Y-1954330D02*
X4206812D01*
X4183190Y-1995670D02*
X4206812D01*
X830670Y-2916810D02*
Y-2893188D01*
X789330Y-2916810D02*
Y-2893188D01*
X1824330Y-2916810D02*
Y-2893188D01*
X1865670Y-2916810D02*
Y-2893188D01*
X1479330Y-2916810D02*
Y-2893188D01*
X1520670Y-2916810D02*
Y-2893188D01*
X1170670Y-2916810D02*
Y-2893188D01*
X1129330Y-2916810D02*
Y-2893188D01*
X8430670Y-1111810D02*
Y-1088188D01*
X8389330Y-1111810D02*
Y-1088188D01*
X8633190Y-1334330D02*
X8656812D01*
X8633190Y-1375670D02*
X8656812D01*
X9007204Y-1247244D02*
Y-1223622D01*
X9048544Y-1247244D02*
Y-1223622D01*
X9238544Y-1247244D02*
Y-1223622D01*
X9197204Y-1247244D02*
Y-1223622D01*
X7309330Y-1176810D02*
Y-1153188D01*
X7267992Y-1176810D02*
Y-1153188D01*
X7518190Y-1364330D02*
X7541812D01*
X7518190Y-1405670D02*
X7541812D01*
X6164330Y-1211810D02*
Y-1188188D01*
X6122992Y-1211810D02*
Y-1188188D01*
X7872992Y-1279842D02*
Y-1256220D01*
X7914330Y-1279842D02*
Y-1256220D01*
X8104330Y-1279842D02*
Y-1256220D01*
X8062992Y-1279842D02*
Y-1256220D01*
X6343190Y-1424330D02*
X6366812D01*
X6343190Y-1465670D02*
X6366812D01*
X6699330Y-1311810D02*
Y-1288188D01*
X6740670Y-1311810D02*
Y-1288188D01*
X6930670Y-1306810D02*
Y-1283188D01*
X6889330Y-1306810D02*
Y-1283188D01*
X5215670Y-1186810D02*
Y-1163188D01*
X5174330Y-1186810D02*
Y-1163188D01*
X4145670Y-1191810D02*
Y-1168188D01*
X4104330Y-1191810D02*
Y-1168188D01*
X5418190Y-1389330D02*
X5441812D01*
X5418190Y-1430670D02*
X5441812D01*
X5730546Y-1304842D02*
Y-1281220D01*
X5771884Y-1304842D02*
Y-1281220D01*
X5951378Y-1304842D02*
Y-1281220D01*
X5910040Y-1304842D02*
Y-1281220D01*
X4336850Y-1384330D02*
X4360472D01*
X4336850Y-1425670D02*
X4360472D01*
X4690546Y-1361810D02*
Y-1338188D01*
X4731884Y-1361810D02*
Y-1338188D01*
X4919330Y-1361810D02*
Y-1338188D01*
X4877992Y-1361810D02*
Y-1338188D01*
X2407362Y-291810D02*
Y-268188D01*
X2448700Y-291810D02*
Y-268188D01*
X2041362Y-291810D02*
Y-268188D01*
X2082700Y-291810D02*
Y-268188D01*
X1675362Y-291810D02*
Y-268188D01*
X1716700Y-291810D02*
Y-268188D01*
X2690670Y-720472D02*
Y-696850D01*
X2649330Y-720472D02*
Y-696850D01*
X2325670Y-720472D02*
Y-696850D01*
X2284330Y-720472D02*
Y-696850D01*
X1955670Y-720472D02*
Y-696850D01*
X1914330Y-720472D02*
Y-696850D01*
X1309362Y-291810D02*
Y-268188D01*
X1350700Y-291810D02*
Y-268188D01*
X943362Y-291810D02*
Y-268188D01*
X984700Y-291810D02*
Y-268188D01*
X584330Y-291810D02*
Y-268188D01*
X625670Y-291810D02*
Y-268188D01*
X1585670Y-720472D02*
Y-696850D01*
X1544330Y-720472D02*
Y-696850D01*
X1205670Y-720472D02*
Y-696850D01*
X1164330Y-720472D02*
Y-696850D01*
X840670Y-720472D02*
Y-696850D01*
X799330Y-720472D02*
Y-696850D01*
X9022190Y-1724330D02*
X9045812D01*
X9022190Y-1765670D02*
X9045812D01*
X8148190Y-1709330D02*
X8171812D01*
X8148190Y-1750670D02*
X8171812D01*
X7360190Y-1740330D02*
X7383812D01*
X7360190Y-1781670D02*
X7383812D01*
X7765000Y-3095000D02*
Y-2995000D01*
X8265000D01*
X7765000Y-3095000D02*
X8265000D01*
Y-2995000D01*
X3305000Y-3020000D02*
X3405000D01*
Y-3220000D02*
Y-3020000D01*
X3305000Y-3220000D02*
X3405000D01*
X3305000D02*
Y-3020000D01*
X9256260Y-1046856D02*
Y-925990D01*
X9185394Y-1046856D02*
X9256260D01*
X9185394D02*
Y-925990D01*
X9256260D01*
X8122048Y-1079454D02*
Y-958588D01*
X8051182Y-1079454D02*
X8122048D01*
X8051182D02*
Y-958588D01*
X8122048D01*
X6949094Y-1105434D02*
Y-984566D01*
X6878228Y-1105434D02*
X6949094D01*
X6878228D02*
Y-984566D01*
X6949094D01*
X5969094Y-1115434D02*
Y-994566D01*
X5898228Y-1115434D02*
X5969094D01*
X5898228D02*
Y-994566D01*
X5969094D01*
X4935434Y-1155434D02*
Y-1034566D01*
X4864566Y-1155434D02*
X4935434D01*
X4864566D02*
Y-1034566D01*
X4935434D01*
X3639094Y-3155434D02*
Y-3034566D01*
X3568228Y-3155434D02*
X3639094D01*
X3568228D02*
Y-3034566D01*
X3639094D01*
X2695434Y-3230434D02*
Y-3109566D01*
X2624566Y-3230434D02*
X2695434D01*
X2624566D02*
Y-3109566D01*
X2695434D01*
X2420434Y-3235434D02*
Y-3114566D01*
X2349566Y-3235434D02*
X2420434D01*
X2349566D02*
Y-3114566D01*
X2420434D01*
X6769960Y-2940866D02*
Y-2799134D01*
X6738464Y-2940866D02*
Y-2799134D01*
Y-2940866D02*
X6769960D01*
X6738464Y-2799134D02*
X6769960D01*
X6805748Y-2155866D02*
Y-2014134D01*
X6774252Y-2155866D02*
Y-2014134D01*
Y-2155866D02*
X6805748D01*
X6774252Y-2014134D02*
X6805748D01*
X5855748Y-2984528D02*
Y-2842796D01*
X5824252Y-2984528D02*
Y-2842796D01*
Y-2984528D02*
X5855748D01*
X5824252Y-2842796D02*
X5855748D01*
X5925748Y-2115866D02*
Y-1974134D01*
X5894252Y-2115866D02*
Y-1974134D01*
Y-2115866D02*
X5925748D01*
X5894252Y-1974134D02*
X5925748D01*
X4070748Y-3065866D02*
Y-2924134D01*
X4039252Y-3065866D02*
Y-2924134D01*
Y-3065866D02*
X4070748D01*
X4039252Y-2924134D02*
X4070748D01*
X4835748Y-3050866D02*
Y-2909134D01*
X4804252Y-3050866D02*
Y-2909134D01*
Y-3050866D02*
X4835748D01*
X4804252Y-2909134D02*
X4835748D01*
X4865748Y-2295866D02*
Y-2154134D01*
X4834252Y-2295866D02*
Y-2154134D01*
Y-2295866D02*
X4865748D01*
X4834252Y-2154134D02*
X4865748D01*
X4071536Y-2283268D02*
Y-2141536D01*
X4040040Y-2283268D02*
Y-2141536D01*
Y-2283268D02*
X4071536D01*
X4040040Y-2141536D02*
X4071536D01*
X3138544Y-2616772D02*
X3331456D01*
X3138544Y-2463228D02*
X3331456D01*
X3138544Y-2616772D02*
Y-2463228D01*
X3331456Y-2616772D02*
Y-2463228D01*
X2383544Y-2581772D02*
X2576456D01*
X2383544Y-2428228D02*
X2576456D01*
X2383544Y-2581772D02*
Y-2428228D01*
X2576456Y-2581772D02*
Y-2428228D01*
X3508544Y-1591772D02*
X3701456D01*
X3508544Y-1438228D02*
X3701456D01*
X3508544Y-1591772D02*
Y-1438228D01*
X3701456Y-1591772D02*
Y-1438228D01*
X2743544Y-1624922D02*
X2936456D01*
X2743544Y-1471378D02*
X2936456D01*
X2743544Y-1624922D02*
Y-1471378D01*
X2936456Y-1624922D02*
Y-1471378D01*
X1893544Y-1621772D02*
X2086456D01*
X1893544Y-1468228D02*
X2086456D01*
X1893544Y-1621772D02*
Y-1468228D01*
X2086456Y-1621772D02*
Y-1468228D01*
X8648622Y-1183268D02*
Y-1041536D01*
X8617126Y-1183268D02*
Y-1041536D01*
Y-1183268D02*
X8648622D01*
X8617126Y-1041536D02*
X8648622D01*
X7534410Y-1235866D02*
Y-1094134D01*
X7502914Y-1235866D02*
Y-1094134D01*
Y-1235866D02*
X7534410D01*
X7502914Y-1094134D02*
X7534410D01*
X6365196Y-1273268D02*
Y-1131536D01*
X6333700Y-1273268D02*
Y-1131536D01*
Y-1273268D02*
X6365196D01*
X6333700Y-1131536D02*
X6365196D01*
X5439410Y-1250866D02*
Y-1109134D01*
X5407914Y-1250866D02*
Y-1109134D01*
Y-1250866D02*
X5439410D01*
X5407914Y-1109134D02*
X5439410D01*
X4369410Y-1250866D02*
Y-1109134D01*
X4337914Y-1250866D02*
Y-1109134D01*
Y-1250866D02*
X4369410D01*
X4337914Y-1109134D02*
X4369410D01*
X1340000Y-1745000D02*
X1380000D01*
X800000D02*
X840000D01*
X1240000Y-1845000D02*
Y-1645000D01*
X1340000Y-1845000D02*
Y-1645000D01*
X840000Y-1845000D02*
X1340000D01*
X840000D02*
Y-1645000D01*
X1340000D01*
X2407362Y-571810D02*
Y-548188D01*
X2452638Y-571810D02*
Y-548188D01*
X2041362Y-571810D02*
Y-548188D01*
X2086638Y-571810D02*
Y-548188D01*
X1675362Y-571810D02*
Y-548188D01*
X1720638Y-571810D02*
Y-548188D01*
X1309362Y-571810D02*
Y-548188D01*
X1354638Y-571810D02*
Y-548188D01*
X943362Y-571810D02*
Y-548188D01*
X988638Y-571810D02*
Y-548188D01*
X577362Y-571810D02*
Y-548188D01*
X622638Y-571810D02*
Y-548188D01*
X6472362Y-2856810D02*
Y-2833188D01*
X6517638Y-2856810D02*
Y-2833188D01*
X6522638Y-3106810D02*
Y-3083188D01*
X6477362Y-3106810D02*
Y-3083188D01*
X6562362Y-2071810D02*
Y-2048188D01*
X6607638Y-2071810D02*
Y-2048188D01*
Y-2311810D02*
Y-2288188D01*
X6562362Y-2311810D02*
Y-2288188D01*
X6743190Y-2617362D02*
X6766812D01*
X6743190Y-2662638D02*
X6766812D01*
X6783190Y-1822362D02*
X6806812D01*
X6783190Y-1867638D02*
X6806812D01*
X5602362Y-2831810D02*
Y-2808188D01*
X5647638Y-2831810D02*
Y-2808188D01*
X5652638Y-3081810D02*
Y-3058188D01*
X5607362Y-3081810D02*
Y-3058188D01*
X5652362Y-2041810D02*
Y-2018188D01*
X5697638Y-2041810D02*
Y-2018188D01*
X5687638Y-2288150D02*
Y-2264528D01*
X5642362Y-2288150D02*
Y-2264528D01*
X5838190Y-2647362D02*
X5861812D01*
X5838190Y-2692638D02*
X5861812D01*
X5901850Y-1787362D02*
X5925472D01*
X5901850Y-1832638D02*
X5925472D01*
X4242362Y-3006810D02*
Y-2983188D01*
X4287638Y-3006810D02*
Y-2983188D01*
X5002362Y-2996810D02*
Y-2973188D01*
X5047638Y-2996810D02*
Y-2973188D01*
X4992362Y-2241810D02*
Y-2218188D01*
X5037638Y-2241810D02*
Y-2218188D01*
X4227362Y-2211810D02*
Y-2188188D01*
X4272638Y-2211810D02*
Y-2188188D01*
X1095590Y-1111574D02*
X1119212D01*
X1095590Y-1156850D02*
X1119212D01*
X1264764Y-1376024D02*
Y-1352402D01*
X1310040Y-1376024D02*
Y-1352402D01*
X1688190Y-1932362D02*
X1711812D01*
X1688190Y-1977638D02*
X1711812D01*
X1362638Y-2276810D02*
Y-2253188D01*
X1317362Y-2276810D02*
Y-2253188D01*
X842638Y-2221810D02*
Y-2198188D01*
X797362Y-2221810D02*
Y-2198188D01*
X842638Y-2466810D02*
Y-2443188D01*
X797362Y-2466810D02*
Y-2443188D01*
X2972638Y-2374646D02*
Y-2351024D01*
X2927362Y-2374646D02*
Y-2351024D01*
X2221402Y-2339646D02*
Y-2316024D01*
X2176126Y-2339646D02*
Y-2316024D01*
X3328874Y-1361338D02*
Y-1337716D01*
X3283598Y-1361338D02*
Y-1337716D01*
X1722638Y-1391810D02*
Y-1368188D01*
X1677362Y-1391810D02*
Y-1368188D01*
X2567638Y-1409960D02*
Y-1386338D01*
X2522362Y-1409960D02*
Y-1386338D01*
X9052958Y-994212D02*
Y-970590D01*
X9007682Y-994212D02*
Y-970590D01*
X8860512Y-994212D02*
Y-970590D01*
X8815236Y-994212D02*
Y-970590D01*
X8860512Y-1249212D02*
Y-1225590D01*
X8815236Y-1249212D02*
Y-1225590D01*
X7918746Y-1026810D02*
Y-1003188D01*
X7873470Y-1026810D02*
Y-1003188D01*
X7726300Y-1026810D02*
Y-1003188D01*
X7681024Y-1026810D02*
Y-1003188D01*
X6743746Y-1071810D02*
Y-1048188D01*
X6698470Y-1071810D02*
Y-1048188D01*
X7726300Y-1281810D02*
Y-1258188D01*
X7681024Y-1281810D02*
Y-1258188D01*
X6546300Y-1071810D02*
Y-1048188D01*
X6501024Y-1071810D02*
Y-1048188D01*
X6546300Y-1316810D02*
Y-1293188D01*
X6501024Y-1316810D02*
Y-1293188D01*
X5776300Y-1061810D02*
Y-1038188D01*
X5731024Y-1061810D02*
Y-1038188D01*
X4736300Y-1100472D02*
Y-1076850D01*
X4691024Y-1100472D02*
Y-1076850D01*
X5601300Y-1061810D02*
Y-1038188D01*
X5556024Y-1061810D02*
Y-1038188D01*
X4541300Y-1100472D02*
Y-1076850D01*
X4496024Y-1100472D02*
Y-1076850D01*
X5601300Y-1306810D02*
Y-1283188D01*
X5556024Y-1306810D02*
Y-1283188D01*
X4541300Y-1363780D02*
Y-1340158D01*
X4496024Y-1363780D02*
Y-1340158D01*
X9187190Y-2051362D02*
X9210812D01*
X9187190Y-2096638D02*
X9210812D01*
X8068852Y-1904362D02*
X8092474D01*
X8068852Y-1949638D02*
X8092474D01*
X7409190Y-2079362D02*
X7432812D01*
X7409190Y-2124638D02*
X7432812D01*
X7840000Y-2495000D02*
X8865000D01*
X7765000D02*
X7840000D01*
X7765000Y-2595000D02*
Y-2495000D01*
Y-2595000D02*
X8865000D01*
Y-2495000D01*
X9816000Y-2292000D02*
X10016000D01*
X9816000Y-292000D02*
X10016000D01*
Y-2292000D02*
Y-292000D01*
X9816000Y-2292000D02*
Y-292000D01*
X8498976Y-1710118D02*
X8621024D01*
X8498976Y-2099882D02*
X8621024D01*
X8498976D02*
Y-1710118D01*
X8621024Y-2099882D02*
Y-1710118D01*
X7796024Y-2102382D02*
Y-1712618D01*
X7673976Y-2102382D02*
Y-1712618D01*
Y-2102382D02*
X7796024D01*
X7673976Y-1712618D02*
X7796024D01*
X9491024Y-2099882D02*
Y-1710118D01*
X9368976Y-2099882D02*
Y-1710118D01*
Y-2099882D02*
X9491024D01*
X9368976Y-1710118D02*
X9491024D01*
D54*
X997418Y-2526378D02*
Y-2073622D01*
X1174582Y-2526378D02*
Y-2073622D01*
X997418D02*
X1174582D01*
X997418Y-2526378D02*
X1174582D01*
X2527418Y-596378D02*
Y-143622D01*
X2704582Y-596378D02*
Y-143622D01*
X2527418D02*
X2704582D01*
X2527418Y-596378D02*
X2704582D01*
X2160418D02*
Y-143622D01*
X2337582Y-596378D02*
Y-143622D01*
X2160418D02*
X2337582D01*
X2160418Y-596378D02*
X2337582D01*
X1793418D02*
Y-143622D01*
X1970582Y-596378D02*
Y-143622D01*
X1793418D02*
X1970582D01*
X1793418Y-596378D02*
X1970582D01*
X1426418D02*
Y-143622D01*
X1603582Y-596378D02*
Y-143622D01*
X1426418D02*
X1603582D01*
X1426418Y-596378D02*
X1603582D01*
X1059418D02*
Y-143622D01*
X1236582Y-596378D02*
Y-143622D01*
X1059418D02*
X1236582D01*
X1059418Y-596378D02*
X1236582D01*
X692418D02*
Y-143622D01*
X869582Y-596378D02*
Y-143622D01*
X692418D02*
X869582D01*
X692418Y-596378D02*
X869582D01*
X4499850Y-615040D02*
Y-500000D01*
Y-345000D02*
Y-142598D01*
X4223308Y-615040D02*
Y-500000D01*
Y-345000D02*
Y-143386D01*
X4164252Y-142598D02*
X4499850D01*
X4164252Y-615040D02*
X4223308D01*
X4164252D02*
X4499850D01*
X4164252D02*
Y-142598D01*
X5220590Y-615040D02*
Y-500000D01*
Y-345000D02*
Y-142598D01*
X4670196Y-615040D02*
Y-500000D01*
Y-345000D02*
Y-143386D01*
X4611142Y-142598D02*
X5214410D01*
X4611142Y-615040D02*
X4670196D01*
X4611142D02*
X5219410D01*
X4611142D02*
Y-142598D01*
X5921220Y-615040D02*
Y-500000D01*
Y-345000D02*
Y-142598D01*
X5370826Y-615040D02*
Y-500000D01*
Y-345000D02*
Y-143386D01*
X5311772Y-142598D02*
X5915040D01*
X5311772Y-615040D02*
X5370826D01*
X5311772D02*
X5920040D01*
X5311772D02*
Y-142598D01*
X6621850Y-615040D02*
Y-500000D01*
Y-345000D02*
Y-142598D01*
X6071456Y-615040D02*
Y-500000D01*
Y-345000D02*
Y-143386D01*
X6012402Y-142598D02*
X6615670D01*
X6012402Y-615040D02*
X6071456D01*
X6012402D02*
X6620670D01*
X6012402D02*
Y-142598D01*
X7322480Y-615040D02*
Y-500000D01*
Y-345000D02*
Y-142598D01*
X6772086Y-615040D02*
Y-500000D01*
Y-345000D02*
Y-143386D01*
X6713032Y-142598D02*
X7316300D01*
X6713032Y-615040D02*
X6772086D01*
X6713032D02*
X7321300D01*
X6713032D02*
Y-142598D01*
X3594882Y-620040D02*
Y-147598D01*
Y-620040D02*
X3930480D01*
X3594882D02*
X3653938D01*
X3594882Y-147598D02*
X3930480D01*
X3653938Y-350000D02*
Y-148386D01*
Y-620040D02*
Y-505000D01*
X3930480Y-350000D02*
Y-147598D01*
Y-620040D02*
Y-505000D01*
X8023110Y-615040D02*
Y-500000D01*
Y-345000D02*
Y-142598D01*
X7472716Y-615040D02*
Y-500000D01*
Y-345000D02*
Y-143386D01*
X7413662Y-142598D02*
X8016930D01*
X7413662Y-615040D02*
X7472716D01*
X7413662D02*
X8021930D01*
X7413662D02*
Y-142598D01*
X500000Y-1791300D02*
X615040D01*
X142598D02*
X345000D01*
X500000Y-2341692D02*
X615040D01*
X143386D02*
X345000D01*
X142598Y-2400748D02*
Y-1797480D01*
X615040Y-2400748D02*
Y-2341692D01*
Y-2400748D02*
Y-1792480D01*
X142598Y-2400748D02*
X615040D01*
X8828700Y-615040D02*
Y-500000D01*
Y-345000D02*
Y-142598D01*
X8278308Y-615040D02*
Y-500000D01*
Y-345000D02*
Y-143386D01*
X8219252Y-142598D02*
X8822520D01*
X8219252Y-615040D02*
X8278308D01*
X8219252D02*
X8827520D01*
X8219252D02*
Y-142598D01*
X9014252Y-615040D02*
Y-142598D01*
Y-615040D02*
X9622520D01*
X9014252D02*
X9073308D01*
X9014252Y-142598D02*
X9617520D01*
X9073308Y-345000D02*
Y-143386D01*
Y-615040D02*
Y-500000D01*
X9623700Y-345000D02*
Y-142598D01*
Y-615040D02*
Y-500000D01*
X515000Y-991300D02*
X630040D01*
X157598D02*
X360000D01*
X515000Y-1541692D02*
X630040D01*
X158386D02*
X360000D01*
X157598Y-1600748D02*
Y-997480D01*
X630040Y-1600748D02*
Y-1541692D01*
Y-1600748D02*
Y-992480D01*
X157598Y-1600748D02*
X630040D01*
X3503700Y-620040D02*
Y-505000D01*
Y-350000D02*
Y-147598D01*
X2953308Y-620040D02*
Y-505000D01*
Y-350000D02*
Y-148386D01*
X2894252Y-147598D02*
X3497520D01*
X2894252Y-620040D02*
X2953308D01*
X2894252D02*
X3502520D01*
X2894252D02*
Y-147598D01*
X9265000Y-2849100D02*
Y-2809113D01*
X9284994Y-2789119D01*
X9304987Y-2809113D01*
Y-2849100D01*
Y-2819109D01*
X9265000D01*
X9324981Y-2849100D02*
Y-2789119D01*
X9354971D01*
X9364968Y-2799116D01*
Y-2819109D01*
X9354971Y-2829106D01*
X9324981D01*
X9344974D02*
X9364968Y-2849100D01*
X9424948Y-2799116D02*
X9414951Y-2789119D01*
X9394958D01*
X9384961Y-2799116D01*
Y-2839103D01*
X9394958Y-2849100D01*
X9414951D01*
X9424948Y-2839103D01*
X9444942Y-2849100D02*
Y-2809113D01*
X9464935Y-2789119D01*
X9484929Y-2809113D01*
Y-2849100D01*
Y-2819109D01*
X9444942D01*
X9564903Y-2849100D02*
X9584897D01*
X9574900D01*
Y-2789119D01*
X9564903Y-2799116D01*
X9614887Y-2849100D02*
Y-2839103D01*
X9624884D01*
Y-2849100D01*
X9614887D01*
X9664871Y-2799116D02*
X9674867Y-2789119D01*
X9694861D01*
X9704858Y-2799116D01*
Y-2839103D01*
X9694861Y-2849100D01*
X9674867D01*
X9664871Y-2839103D01*
Y-2799116D01*
X9265000Y-2945076D02*
Y-2885096D01*
X9294990D01*
X9304987Y-2895093D01*
Y-2915086D01*
X9294990Y-2925083D01*
X9265000D01*
X9284994D02*
X9304987Y-2945076D01*
X9324981D02*
X9344974D01*
X9334977D01*
Y-2905089D01*
X9324981D01*
X9414951D02*
X9384961D01*
X9374964Y-2915086D01*
Y-2935080D01*
X9384961Y-2945076D01*
X9414951D01*
X9464935D02*
X9444942D01*
X9434945Y-2935080D01*
Y-2915086D01*
X9444942Y-2905089D01*
X9464935D01*
X9474932Y-2915086D01*
Y-2925083D01*
X9434945D01*
X9304987Y-2981073D02*
X9265000D01*
Y-3041053D01*
X9304987D01*
X9265000Y-3011063D02*
X9284994D01*
X9364968Y-3001066D02*
X9334977D01*
X9324981Y-3011063D01*
Y-3031056D01*
X9334977Y-3041053D01*
X9364968D01*
X9384961D02*
X9404955D01*
X9394958D01*
Y-2981073D01*
X9384961D01*
X9434945Y-3041053D02*
X9454939D01*
X9444942D01*
Y-3001066D01*
X9434945D01*
X9484929Y-3061047D02*
Y-3001066D01*
X9514919D01*
X9524916Y-3011063D01*
Y-3031056D01*
X9514919Y-3041053D01*
X9484929D01*
X9544909D02*
X9574900D01*
X9584897Y-3031056D01*
X9574900Y-3021060D01*
X9554906D01*
X9544909Y-3011063D01*
X9554906Y-3001066D01*
X9584897D01*
X9634880Y-3041053D02*
X9614887D01*
X9604890Y-3031056D01*
Y-3011063D01*
X9614887Y-3001066D01*
X9634880D01*
X9644877Y-3011063D01*
Y-3021060D01*
X9604890D01*
X9265000Y-3157023D02*
X9284994D01*
X9274997D01*
Y-3097043D01*
X9265000Y-3107039D01*
X9314984D02*
X9324981Y-3097043D01*
X9344974D01*
X9354971Y-3107039D01*
Y-3147026D01*
X9344974Y-3157023D01*
X9324981D01*
X9314984Y-3147026D01*
Y-3107039D01*
X9374964Y-3157023D02*
X9414951Y-3117036D01*
X9434945Y-3107039D02*
X9444942Y-3097043D01*
X9464935D01*
X9474932Y-3107039D01*
Y-3117036D01*
X9464935Y-3127033D01*
X9454939D01*
X9464935D01*
X9474932Y-3137030D01*
Y-3147026D01*
X9464935Y-3157023D01*
X9444942D01*
X9434945Y-3147026D01*
X9494926Y-3157023D02*
X9534913Y-3117036D01*
X9594893Y-3157023D02*
X9554906D01*
X9594893Y-3117036D01*
Y-3107039D01*
X9584897Y-3097043D01*
X9564903D01*
X9554906Y-3107039D01*
X9614887D02*
X9624884Y-3097043D01*
X9644877D01*
X9654874Y-3107039D01*
Y-3147026D01*
X9644877Y-3157023D01*
X9624884D01*
X9614887Y-3147026D01*
Y-3107039D01*
X9714854Y-3157023D02*
X9674867D01*
X9714854Y-3117036D01*
Y-3107039D01*
X9704858Y-3097043D01*
X9684864D01*
X9674867Y-3107039D01*
X9734848D02*
X9744845Y-3097043D01*
X9764838D01*
X9774835Y-3107039D01*
Y-3147026D01*
X9764838Y-3157023D01*
X9744845D01*
X9734848Y-3147026D01*
Y-3107039D01*
X9265000Y-3253000D02*
Y-3213013D01*
X9284994Y-3193019D01*
X9304987Y-3213013D01*
Y-3253000D01*
Y-3223010D01*
X9265000D01*
X9324981Y-3193019D02*
Y-3253000D01*
X9354971D01*
X9364968Y-3243003D01*
Y-3233006D01*
X9354971Y-3223010D01*
X9324981D01*
X9354971D01*
X9364968Y-3213013D01*
Y-3203016D01*
X9354971Y-3193019D01*
X9324981D01*
X9424948Y-3203016D02*
X9414951Y-3193019D01*
X9394958D01*
X9384961Y-3203016D01*
Y-3243003D01*
X9394958Y-3253000D01*
X9414951D01*
X9424948Y-3243003D01*
X9544909Y-3253000D02*
X9534913Y-3243003D01*
X9524916Y-3253000D01*
X9514919D01*
X9504922Y-3243003D01*
Y-3233006D01*
X9514919Y-3223010D01*
X9504922Y-3213013D01*
Y-3203016D01*
X9514919Y-3193019D01*
X9524916D01*
X9534913Y-3203016D01*
Y-3213013D01*
X9524916Y-3223010D01*
X9534913Y-3233006D01*
Y-3243003D01*
X9544909Y-3223010D02*
X9534913Y-3233006D01*
X9514919Y-3223010D02*
X9524916D01*
X9624884Y-3253000D02*
Y-3213013D01*
X9644877Y-3193019D01*
X9664871Y-3213013D01*
Y-3253000D01*
Y-3223010D01*
X9624884D01*
X9724851Y-3203016D02*
X9714854Y-3193019D01*
X9694861D01*
X9684864Y-3203016D01*
Y-3213013D01*
X9694861Y-3223010D01*
X9714854D01*
X9724851Y-3233006D01*
Y-3243003D01*
X9714854Y-3253000D01*
X9694861D01*
X9684864Y-3243003D01*
X9784832Y-3203016D02*
X9774835Y-3193019D01*
X9754842D01*
X9744845Y-3203016D01*
Y-3243003D01*
X9754842Y-3253000D01*
X9774835D01*
X9784832Y-3243003D01*
X8378000Y-1683000D02*
Y-1643013D01*
X8397994Y-1623019D01*
X8417987Y-1643013D01*
Y-1683000D01*
Y-1653010D01*
X8378000D01*
X8437981Y-1623019D02*
Y-1683000D01*
X8467971D01*
X8477968Y-1673003D01*
Y-1633016D01*
X8467971Y-1623019D01*
X8437981D01*
X8537948Y-1633016D02*
X8527951Y-1623019D01*
X8507958D01*
X8497961Y-1633016D01*
Y-1673003D01*
X8507958Y-1683000D01*
X8527951D01*
X8537948Y-1673003D01*
X8597929Y-1683000D02*
X8557942D01*
X8597929Y-1643013D01*
Y-1633016D01*
X8587932Y-1623019D01*
X8567939D01*
X8557942Y-1633016D01*
X9231000Y-1683000D02*
Y-1643013D01*
X9250994Y-1623019D01*
X9270987Y-1643013D01*
Y-1683000D01*
Y-1653010D01*
X9231000D01*
X9290981Y-1623019D02*
Y-1683000D01*
X9320971D01*
X9330968Y-1673003D01*
Y-1633016D01*
X9320971Y-1623019D01*
X9290981D01*
X9390948Y-1633016D02*
X9380951Y-1623019D01*
X9360958D01*
X9350961Y-1633016D01*
Y-1673003D01*
X9360958Y-1683000D01*
X9380951D01*
X9390948Y-1673003D01*
X9410942Y-1633016D02*
X9420939Y-1623019D01*
X9440932D01*
X9450929Y-1633016D01*
Y-1643013D01*
X9440932Y-1653010D01*
X9430935D01*
X9440932D01*
X9450929Y-1663006D01*
Y-1673003D01*
X9440932Y-1683000D01*
X9420939D01*
X9410942Y-1673003D01*
X10093000Y-299016D02*
X10132987Y-339003D01*
X10093000D02*
X10132987Y-299016D01*
X10093000Y-319010D02*
X10132987D01*
X10112994Y-339003D02*
Y-299016D01*
X7546000Y-1689000D02*
Y-1649013D01*
X7565993Y-1629019D01*
X7585987Y-1649013D01*
Y-1689000D01*
Y-1659010D01*
X7546000D01*
X7605981Y-1629019D02*
Y-1689000D01*
X7635971D01*
X7645968Y-1679003D01*
Y-1639016D01*
X7635971Y-1629019D01*
X7605981D01*
X7705948Y-1639016D02*
X7695952Y-1629019D01*
X7675958D01*
X7665961Y-1639016D01*
Y-1679003D01*
X7675958Y-1689000D01*
X7695952D01*
X7705948Y-1679003D01*
X7725942Y-1689000D02*
X7745935D01*
X7735939D01*
Y-1629019D01*
X7725942Y-1639016D01*
X7771000Y-2961000D02*
Y-2901019D01*
X7800990D01*
X7810987Y-2911016D01*
Y-2931010D01*
X7800990Y-2941006D01*
X7771000D01*
X7840977Y-2961000D02*
X7860971D01*
X7870968Y-2951003D01*
Y-2931010D01*
X7860971Y-2921013D01*
X7840977D01*
X7830981Y-2931010D01*
Y-2951003D01*
X7840977Y-2961000D01*
X7890961Y-2921013D02*
Y-2951003D01*
X7900958Y-2961000D01*
X7910955Y-2951003D01*
X7920952Y-2961000D01*
X7930948Y-2951003D01*
Y-2921013D01*
X7980932Y-2961000D02*
X7960939D01*
X7950942Y-2951003D01*
Y-2931010D01*
X7960939Y-2921013D01*
X7980932D01*
X7990929Y-2931010D01*
Y-2941006D01*
X7950942D01*
X8010922Y-2921013D02*
Y-2961000D01*
Y-2941006D01*
X8020919Y-2931010D01*
X8030916Y-2921013D01*
X8040913D01*
X8130884Y-2901019D02*
Y-2961000D01*
Y-2931010D01*
X8170871D01*
Y-2901019D01*
Y-2961000D01*
X7771000Y-2461000D02*
Y-2421013D01*
X7790993Y-2401019D01*
X7810987Y-2421013D01*
Y-2461000D01*
Y-2431010D01*
X7771000D01*
X7830981Y-2401019D02*
Y-2461000D01*
X7860971D01*
X7870968Y-2451003D01*
Y-2411016D01*
X7860971Y-2401019D01*
X7830981D01*
X7930948Y-2411016D02*
X7920952Y-2401019D01*
X7900958D01*
X7890961Y-2411016D01*
Y-2451003D01*
X7900958Y-2461000D01*
X7920952D01*
X7930948Y-2451003D01*
X8010922Y-2401019D02*
Y-2461000D01*
Y-2431010D01*
X8050909D01*
Y-2401019D01*
Y-2461000D01*
X2906000Y-1927850D02*
Y-1867870D01*
X2935990D01*
X2945987Y-1877867D01*
Y-1897860D01*
X2935990Y-1907857D01*
X2906000D01*
X2925994D02*
X2945987Y-1927850D01*
X2965981Y-1867870D02*
X3005968D01*
Y-1877867D01*
X2965981Y-1917854D01*
Y-1927850D01*
X3005968D01*
X3065948Y-1867870D02*
X3025961D01*
Y-1897860D01*
X3045955Y-1887863D01*
X3055952D01*
X3065948Y-1897860D01*
Y-1917854D01*
X3055952Y-1927850D01*
X3035958D01*
X3025961Y-1917854D01*
X2141000Y-1916000D02*
Y-1856019D01*
X2170990D01*
X2180987Y-1866016D01*
Y-1886010D01*
X2170990Y-1896006D01*
X2141000D01*
X2160994D02*
X2180987Y-1916000D01*
X2200981Y-1856019D02*
X2240968D01*
Y-1866016D01*
X2200981Y-1906003D01*
Y-1916000D01*
X2240968D01*
X2290952D02*
Y-1856019D01*
X2260961Y-1886010D01*
X2300948D01*
X3226000Y-936000D02*
Y-876019D01*
X3255990D01*
X3265987Y-886016D01*
Y-906010D01*
X3255990Y-916006D01*
X3226000D01*
X3245994D02*
X3265987Y-936000D01*
X3285981Y-876019D02*
X3325968D01*
Y-886016D01*
X3285981Y-926003D01*
Y-936000D01*
X3325968D01*
X3345961Y-886016D02*
X3355958Y-876019D01*
X3375952D01*
X3385948Y-886016D01*
Y-896013D01*
X3375952Y-906010D01*
X3365955D01*
X3375952D01*
X3385948Y-916006D01*
Y-926003D01*
X3375952Y-936000D01*
X3355958D01*
X3345961Y-926003D01*
X2491000Y-954150D02*
Y-894169D01*
X2520990D01*
X2530987Y-904166D01*
Y-924159D01*
X2520990Y-934156D01*
X2491000D01*
X2510994D02*
X2530987Y-954150D01*
X2550981Y-894169D02*
X2590968D01*
Y-904166D01*
X2550981Y-944153D01*
Y-954150D01*
X2590968D01*
X2650948D02*
X2610961D01*
X2650948Y-914163D01*
Y-904166D01*
X2640952Y-894169D01*
X2620958D01*
X2610961Y-904166D01*
X1474000Y-2809000D02*
Y-2749019D01*
X1503990D01*
X1513987Y-2759016D01*
Y-2779010D01*
X1503990Y-2789006D01*
X1474000D01*
X1493994D02*
X1513987Y-2809000D01*
X1533981Y-2759016D02*
X1543977Y-2749019D01*
X1563971D01*
X1573968Y-2759016D01*
Y-2769013D01*
X1563971Y-2779010D01*
X1553974D01*
X1563971D01*
X1573968Y-2789006D01*
Y-2799003D01*
X1563971Y-2809000D01*
X1543977D01*
X1533981Y-2799003D01*
X1593961D02*
X1603958Y-2809000D01*
X1623951D01*
X1633948Y-2799003D01*
Y-2759016D01*
X1623951Y-2749019D01*
X1603958D01*
X1593961Y-2759016D01*
Y-2769013D01*
X1603958Y-2779010D01*
X1633948D01*
X187987Y-1706016D02*
X177990Y-1696019D01*
X157997D01*
X148000Y-1706016D01*
Y-1746003D01*
X157997Y-1756000D01*
X177990D01*
X187987Y-1746003D01*
Y-1726010D01*
X167994D01*
X207981Y-1756000D02*
Y-1696019D01*
X247968Y-1756000D01*
Y-1696019D01*
X267961D02*
Y-1756000D01*
X297952D01*
X307948Y-1746003D01*
Y-1706016D01*
X297952Y-1696019D01*
X267961D01*
X2899590Y-43019D02*
Y-103000D01*
X2929581D01*
X2939578Y-93003D01*
Y-53016D01*
X2929581Y-43019D01*
X2899590D01*
X2959571Y-63013D02*
Y-103000D01*
Y-83007D01*
X2969568Y-73010D01*
X2979565Y-63013D01*
X2989561D01*
X3019552Y-103000D02*
X3039545D01*
X3029548D01*
Y-63013D01*
X3019552D01*
X3069535D02*
X3089529Y-103000D01*
X3109523Y-63013D01*
X3159506Y-103000D02*
X3139513D01*
X3129516Y-93003D01*
Y-73010D01*
X3139513Y-63013D01*
X3159506D01*
X3169503Y-73010D01*
Y-83007D01*
X3129516D01*
X3189497Y-63013D02*
Y-103000D01*
Y-83007D01*
X3199494Y-73010D01*
X3209490Y-63013D01*
X3219487D01*
X3249477Y-103000D02*
X3279468D01*
X3289464Y-93003D01*
X3279468Y-83007D01*
X3259474D01*
X3249477Y-73010D01*
X3259474Y-63013D01*
X3289464D01*
X3309458Y-112997D02*
X3349445D01*
X3369439Y-103000D02*
X3389432D01*
X3379435D01*
Y-43019D01*
X3369439Y-53016D01*
X163000Y-956000D02*
Y-896019D01*
X192990D01*
X202987Y-906016D01*
Y-926010D01*
X192990Y-936006D01*
X163000D01*
X232977Y-956000D02*
X252971D01*
X262968Y-946003D01*
Y-926010D01*
X252971Y-916013D01*
X232977D01*
X222981Y-926010D01*
Y-946003D01*
X232977Y-956000D01*
X282961Y-916013D02*
Y-946003D01*
X292958Y-956000D01*
X302955Y-946003D01*
X312952Y-956000D01*
X322948Y-946003D01*
Y-916013D01*
X372932Y-956000D02*
X352939D01*
X342942Y-946003D01*
Y-926010D01*
X352939Y-916013D01*
X372932D01*
X382929Y-926010D01*
Y-936006D01*
X342942D01*
X402922Y-916013D02*
Y-956000D01*
Y-936006D01*
X412919Y-926010D01*
X422916Y-916013D01*
X432913D01*
X1002500Y-1978519D02*
Y-2018506D01*
X1022494Y-2038500D01*
X1042487Y-2018506D01*
Y-1978519D01*
X1062481Y-2038500D02*
Y-1978519D01*
X1092471D01*
X1102468Y-1988516D01*
Y-2008510D01*
X1092471Y-2018506D01*
X1062481D01*
X1082474D02*
X1102468Y-2038500D01*
X1122461D02*
X1142455D01*
X1132458D01*
Y-1978519D01*
X1122461Y-1988516D01*
X7419000Y-48019D02*
X7458987D01*
X7438993D01*
Y-108000D01*
X7518967Y-58016D02*
X7508971Y-48019D01*
X7488977D01*
X7478980Y-58016D01*
Y-98003D01*
X7488977Y-108000D01*
X7508971D01*
X7518967Y-98003D01*
X7538961Y-108000D02*
X7558954D01*
X7548958D01*
Y-48019D01*
X7538961Y-58016D01*
X1676000Y-941000D02*
Y-881019D01*
X1705990D01*
X1715987Y-891016D01*
Y-911010D01*
X1705990Y-921006D01*
X1676000D01*
X1695994D02*
X1715987Y-941000D01*
X1735981Y-881019D02*
X1775968D01*
Y-891016D01*
X1735981Y-931003D01*
Y-941000D01*
X1775968D01*
X1795961D02*
X1815955D01*
X1805958D01*
Y-881019D01*
X1795961Y-891016D01*
X2165500Y-1161500D02*
Y-1101519D01*
X2195490D01*
X2205487Y-1111516D01*
Y-1131510D01*
X2195490Y-1141506D01*
X2165500D01*
X2185494D02*
X2205487Y-1161500D01*
X2225481D02*
Y-1101519D01*
X2255471D01*
X2265468Y-1111516D01*
Y-1131510D01*
X2255471Y-1141506D01*
X2225481D01*
X2285461Y-1101519D02*
Y-1161500D01*
X2315452D01*
X2325448Y-1151503D01*
Y-1111516D01*
X2315452Y-1101519D01*
X2285461D01*
X2345442Y-1161500D02*
X2365435D01*
X2355439D01*
Y-1101519D01*
X2345442Y-1111516D01*
X3450379Y-2325850D02*
Y-2265870D01*
X3480369D01*
X3490366Y-2275867D01*
Y-2295860D01*
X3480369Y-2305857D01*
X3450379D01*
X3470373D02*
X3490366Y-2325850D01*
X3550347Y-2275867D02*
X3540350Y-2265870D01*
X3520357D01*
X3510360Y-2275867D01*
Y-2315854D01*
X3520357Y-2325850D01*
X3540350D01*
X3550347Y-2315854D01*
Y-2295860D01*
X3530353D01*
X3610327Y-2265870D02*
X3570340D01*
Y-2295860D01*
X3590334Y-2285863D01*
X3600331D01*
X3610327Y-2295860D01*
Y-2315854D01*
X3600331Y-2325850D01*
X3580337D01*
X3570340Y-2315854D01*
X2680379Y-2321000D02*
Y-2261019D01*
X2710369D01*
X2720366Y-2271016D01*
Y-2291010D01*
X2710369Y-2301006D01*
X2680379D01*
X2700373D02*
X2720366Y-2321000D01*
X2780347Y-2271016D02*
X2770350Y-2261019D01*
X2750357D01*
X2740360Y-2271016D01*
Y-2311003D01*
X2750357Y-2321000D01*
X2770350D01*
X2780347Y-2311003D01*
Y-2291010D01*
X2760353D01*
X2830331Y-2321000D02*
Y-2261019D01*
X2800340Y-2291010D01*
X2840327D01*
X3800090Y-1346000D02*
Y-1286019D01*
X3830081D01*
X3840077Y-1296016D01*
Y-1316010D01*
X3830081Y-1326006D01*
X3800090D01*
X3820084D02*
X3840077Y-1346000D01*
X3900058Y-1296016D02*
X3890061Y-1286019D01*
X3870068D01*
X3860071Y-1296016D01*
Y-1336003D01*
X3870068Y-1346000D01*
X3890061D01*
X3900058Y-1336003D01*
Y-1316010D01*
X3880064D01*
X3920052Y-1296016D02*
X3930048Y-1286019D01*
X3950042D01*
X3960039Y-1296016D01*
Y-1306013D01*
X3950042Y-1316010D01*
X3940045D01*
X3950042D01*
X3960039Y-1326006D01*
Y-1336003D01*
X3950042Y-1346000D01*
X3930048D01*
X3920052Y-1336003D01*
X3025000Y-1392150D02*
Y-1332169D01*
X3054990D01*
X3064987Y-1342166D01*
Y-1362159D01*
X3054990Y-1372156D01*
X3025000D01*
X3044994D02*
X3064987Y-1392150D01*
X3124968Y-1342166D02*
X3114971Y-1332169D01*
X3094977D01*
X3084981Y-1342166D01*
Y-1382153D01*
X3094977Y-1392150D01*
X3114971D01*
X3124968Y-1382153D01*
Y-1362159D01*
X3104974D01*
X3184948Y-1392150D02*
X3144961D01*
X3184948Y-1352162D01*
Y-1342166D01*
X3174952Y-1332169D01*
X3154958D01*
X3144961Y-1342166D01*
X2165000Y-1453400D02*
Y-1393419D01*
X2194990D01*
X2204987Y-1403416D01*
Y-1423410D01*
X2194990Y-1433407D01*
X2165000D01*
X2184994D02*
X2204987Y-1453400D01*
X2264968Y-1403416D02*
X2254971Y-1393419D01*
X2234977D01*
X2224981Y-1403416D01*
Y-1443403D01*
X2234977Y-1453400D01*
X2254971D01*
X2264968Y-1443403D01*
Y-1423410D01*
X2244974D01*
X2284961Y-1453400D02*
X2304955D01*
X2294958D01*
Y-1393419D01*
X2284961Y-1403416D01*
X2957269Y-2537850D02*
Y-2477870D01*
X2987259D01*
X2997256Y-2487867D01*
Y-2507860D01*
X2987259Y-2517857D01*
X2957269D01*
X2977262D02*
X2997256Y-2537850D01*
X3057236Y-2477870D02*
X3017249D01*
Y-2507860D01*
X3037243D01*
X3017249D01*
Y-2537850D01*
X3117217Y-2477870D02*
X3077230D01*
Y-2507860D01*
X3097224Y-2497863D01*
X3107220D01*
X3117217Y-2507860D01*
Y-2527854D01*
X3107220Y-2537850D01*
X3087227D01*
X3077230Y-2527854D01*
X2175000Y-2506000D02*
Y-2446019D01*
X2204990D01*
X2214987Y-2456016D01*
Y-2476010D01*
X2204990Y-2486006D01*
X2175000D01*
X2194994D02*
X2214987Y-2506000D01*
X2274968Y-2446019D02*
X2234981D01*
Y-2476010D01*
X2254974D01*
X2234981D01*
Y-2506000D01*
X2324952D02*
Y-2446019D01*
X2294961Y-2476010D01*
X2334948D01*
X3270000Y-1494000D02*
Y-1434019D01*
X3299990D01*
X3309987Y-1444016D01*
Y-1464010D01*
X3299990Y-1474006D01*
X3270000D01*
X3289994D02*
X3309987Y-1494000D01*
X3369968Y-1434019D02*
X3329981D01*
Y-1464010D01*
X3349974D01*
X3329981D01*
Y-1494000D01*
X3389961Y-1444016D02*
X3399958Y-1434019D01*
X3419952D01*
X3429948Y-1444016D01*
Y-1454013D01*
X3419952Y-1464010D01*
X3409955D01*
X3419952D01*
X3429948Y-1474006D01*
Y-1484003D01*
X3419952Y-1494000D01*
X3399958D01*
X3389961Y-1484003D01*
X2500000Y-1569150D02*
Y-1509169D01*
X2529990D01*
X2539987Y-1519166D01*
Y-1539159D01*
X2529990Y-1549156D01*
X2500000D01*
X2519994D02*
X2539987Y-1569150D01*
X2599968Y-1509169D02*
X2559981D01*
Y-1539159D01*
X2579974D01*
X2559981D01*
Y-1569150D01*
X2659948D02*
X2619961D01*
X2659948Y-1529162D01*
Y-1519166D01*
X2649952Y-1509169D01*
X2629958D01*
X2619961Y-1519166D01*
X1670000Y-1551000D02*
Y-1491019D01*
X1699990D01*
X1709987Y-1501016D01*
Y-1521010D01*
X1699990Y-1531006D01*
X1670000D01*
X1689994D02*
X1709987Y-1551000D01*
X1769968Y-1491019D02*
X1729981D01*
Y-1521010D01*
X1749974D01*
X1729981D01*
Y-1551000D01*
X1789961D02*
X1809955D01*
X1799958D01*
Y-1491019D01*
X1789961Y-1501016D01*
X3599630Y-43019D02*
Y-103000D01*
X3629620D01*
X3639617Y-93003D01*
Y-53016D01*
X3629620Y-43019D01*
X3599630D01*
X3659610Y-63013D02*
Y-103000D01*
Y-83007D01*
X3669607Y-73010D01*
X3679604Y-63013D01*
X3689601D01*
X3719591Y-103000D02*
X3739585D01*
X3729588D01*
Y-63013D01*
X3719591D01*
X3769575D02*
X3789568Y-103000D01*
X3809562Y-63013D01*
X3859546Y-103000D02*
X3839552D01*
X3829555Y-93003D01*
Y-73010D01*
X3839552Y-63013D01*
X3859546D01*
X3869543Y-73010D01*
Y-83007D01*
X3829555D01*
X3889536Y-63013D02*
Y-103000D01*
Y-83007D01*
X3899533Y-73010D01*
X3909530Y-63013D01*
X3919526D01*
X3949517Y-103000D02*
X3979507D01*
X3989504Y-93003D01*
X3979507Y-83007D01*
X3959514D01*
X3949517Y-73010D01*
X3959514Y-63013D01*
X3989504D01*
X4009497Y-112997D02*
X4049484D01*
X4109465Y-103000D02*
X4069478D01*
X4109465Y-63013D01*
Y-53016D01*
X4099468Y-43019D01*
X4079475D01*
X4069478Y-53016D01*
X1035401Y-1197232D02*
Y-1237219D01*
X1055395Y-1257213D01*
X1075389Y-1237219D01*
Y-1197232D01*
X1095382Y-1257213D02*
Y-1197232D01*
X1125372D01*
X1135369Y-1207229D01*
Y-1227222D01*
X1125372Y-1237219D01*
X1095382D01*
X1115376D02*
X1135369Y-1257213D01*
X1155363Y-1207229D02*
X1165360Y-1197232D01*
X1185353D01*
X1195350Y-1207229D01*
Y-1217226D01*
X1185353Y-1227222D01*
X1175356D01*
X1185353D01*
X1195350Y-1237219D01*
Y-1247216D01*
X1185353Y-1257213D01*
X1165360D01*
X1155363Y-1247216D01*
X1442000Y-1969019D02*
Y-2009006D01*
X1461994Y-2029000D01*
X1481987Y-2009006D01*
Y-1969019D01*
X1501981Y-2029000D02*
Y-1969019D01*
X1531971D01*
X1541968Y-1979016D01*
Y-1999010D01*
X1531971Y-2009006D01*
X1501981D01*
X1521974D02*
X1541968Y-2029000D01*
X1601948D02*
X1561961D01*
X1601948Y-1989013D01*
Y-1979016D01*
X1591951Y-1969019D01*
X1571958D01*
X1561961Y-1979016D01*
X6284000Y-2754000D02*
Y-2694019D01*
X6313990D01*
X6323987Y-2704016D01*
Y-2724010D01*
X6313990Y-2734006D01*
X6284000D01*
X6303993D02*
X6323987Y-2754000D01*
X6383968Y-2694019D02*
X6363974Y-2704016D01*
X6343981Y-2724010D01*
Y-2744003D01*
X6353977Y-2754000D01*
X6373971D01*
X6383968Y-2744003D01*
Y-2734006D01*
X6373971Y-2724010D01*
X6343981D01*
X6403961Y-2744003D02*
X6413958Y-2754000D01*
X6433952D01*
X6443948Y-2744003D01*
Y-2704016D01*
X6433952Y-2694019D01*
X6413958D01*
X6403961Y-2704016D01*
Y-2714013D01*
X6413958Y-2724010D01*
X6443948D01*
X6279000Y-3004000D02*
Y-2944019D01*
X6308990D01*
X6318987Y-2954016D01*
Y-2974010D01*
X6308990Y-2984006D01*
X6279000D01*
X6298993D02*
X6318987Y-3004000D01*
X6378968Y-2944019D02*
X6358974Y-2954016D01*
X6338981Y-2974010D01*
Y-2994003D01*
X6348977Y-3004000D01*
X6368971D01*
X6378968Y-2994003D01*
Y-2984006D01*
X6368971Y-2974010D01*
X6338981D01*
X6398961Y-2954016D02*
X6408958Y-2944019D01*
X6428952D01*
X6438948Y-2954016D01*
Y-2964013D01*
X6428952Y-2974010D01*
X6438948Y-2984006D01*
Y-2994003D01*
X6428952Y-3004000D01*
X6408958D01*
X6398961Y-2994003D01*
Y-2984006D01*
X6408958Y-2974010D01*
X6398961Y-2964013D01*
Y-2954016D01*
X6408958Y-2974010D02*
X6428952D01*
X6339000Y-1964000D02*
Y-1904019D01*
X6368990D01*
X6378987Y-1914016D01*
Y-1934010D01*
X6368990Y-1944006D01*
X6339000D01*
X6358993D02*
X6378987Y-1964000D01*
X6438968Y-1904019D02*
X6418974Y-1914016D01*
X6398981Y-1934010D01*
Y-1954003D01*
X6408977Y-1964000D01*
X6428971D01*
X6438968Y-1954003D01*
Y-1944006D01*
X6428971Y-1934010D01*
X6398981D01*
X6458961Y-1904019D02*
X6498948D01*
Y-1914016D01*
X6458961Y-1954003D01*
Y-1964000D01*
X6339000Y-2199000D02*
Y-2139019D01*
X6368990D01*
X6378987Y-2149016D01*
Y-2169010D01*
X6368990Y-2179006D01*
X6339000D01*
X6358993D02*
X6378987Y-2199000D01*
X6438968Y-2139019D02*
X6418974Y-2149016D01*
X6398981Y-2169010D01*
Y-2189003D01*
X6408977Y-2199000D01*
X6428971D01*
X6438968Y-2189003D01*
Y-2179006D01*
X6428971Y-2169010D01*
X6398981D01*
X6498948Y-2139019D02*
X6478955Y-2149016D01*
X6458961Y-2169010D01*
Y-2189003D01*
X6468958Y-2199000D01*
X6488952D01*
X6498948Y-2189003D01*
Y-2179006D01*
X6488952Y-2169010D01*
X6458961D01*
X5379000Y-2724000D02*
Y-2664019D01*
X5408990D01*
X5418987Y-2674016D01*
Y-2694010D01*
X5408990Y-2704006D01*
X5379000D01*
X5398993D02*
X5418987Y-2724000D01*
X5478968Y-2664019D02*
X5458974Y-2674016D01*
X5438981Y-2694010D01*
Y-2714003D01*
X5448977Y-2724000D01*
X5468971D01*
X5478968Y-2714003D01*
Y-2704006D01*
X5468971Y-2694010D01*
X5438981D01*
X5538948Y-2664019D02*
X5498961D01*
Y-2694010D01*
X5518955Y-2684013D01*
X5528952D01*
X5538948Y-2694010D01*
Y-2714003D01*
X5528952Y-2724000D01*
X5508958D01*
X5498961Y-2714003D01*
X5379000Y-2969000D02*
Y-2909019D01*
X5408990D01*
X5418987Y-2919016D01*
Y-2939010D01*
X5408990Y-2949006D01*
X5379000D01*
X5398993D02*
X5418987Y-2969000D01*
X5478968Y-2909019D02*
X5458974Y-2919016D01*
X5438981Y-2939010D01*
Y-2959003D01*
X5448977Y-2969000D01*
X5468971D01*
X5478968Y-2959003D01*
Y-2949006D01*
X5468971Y-2939010D01*
X5438981D01*
X5528952Y-2969000D02*
Y-2909019D01*
X5498961Y-2939010D01*
X5538948D01*
X5434000Y-1934000D02*
Y-1874019D01*
X5463990D01*
X5473987Y-1884016D01*
Y-1904010D01*
X5463990Y-1914006D01*
X5434000D01*
X5453993D02*
X5473987Y-1934000D01*
X5533968Y-1874019D02*
X5513974Y-1884016D01*
X5493981Y-1904010D01*
Y-1924003D01*
X5503977Y-1934000D01*
X5523971D01*
X5533968Y-1924003D01*
Y-1914006D01*
X5523971Y-1904010D01*
X5493981D01*
X5553961Y-1884016D02*
X5563958Y-1874019D01*
X5583952D01*
X5593948Y-1884016D01*
Y-1894013D01*
X5583952Y-1904010D01*
X5573955D01*
X5583952D01*
X5593948Y-1914006D01*
Y-1924003D01*
X5583952Y-1934000D01*
X5563958D01*
X5553961Y-1924003D01*
X5434000Y-2179000D02*
Y-2119019D01*
X5463990D01*
X5473987Y-2129016D01*
Y-2149010D01*
X5463990Y-2159006D01*
X5434000D01*
X5453993D02*
X5473987Y-2179000D01*
X5533968Y-2119019D02*
X5513974Y-2129016D01*
X5493981Y-2149010D01*
Y-2169003D01*
X5503977Y-2179000D01*
X5523971D01*
X5533968Y-2169003D01*
Y-2159006D01*
X5523971Y-2149010D01*
X5493981D01*
X5593948Y-2179000D02*
X5553961D01*
X5593948Y-2139013D01*
Y-2129016D01*
X5583952Y-2119019D01*
X5563958D01*
X5553961Y-2129016D01*
X3980000Y-3235000D02*
Y-3175019D01*
X4009990D01*
X4019987Y-3185016D01*
Y-3205010D01*
X4009990Y-3215006D01*
X3980000D01*
X3999994D02*
X4019987Y-3235000D01*
X4079968Y-3175019D02*
X4059974Y-3185016D01*
X4039981Y-3205010D01*
Y-3225003D01*
X4049977Y-3235000D01*
X4069971D01*
X4079968Y-3225003D01*
Y-3215006D01*
X4069971Y-3205010D01*
X4039981D01*
X4099961Y-3235000D02*
X4119955D01*
X4109958D01*
Y-3175019D01*
X4099961Y-3185016D01*
X4896000Y-3129000D02*
Y-3069019D01*
X4925990D01*
X4935987Y-3079016D01*
Y-3099010D01*
X4925990Y-3109006D01*
X4896000D01*
X4915993D02*
X4935987Y-3129000D01*
X4995968Y-3069019D02*
X4975974Y-3079016D01*
X4955981Y-3099010D01*
Y-3119003D01*
X4965977Y-3129000D01*
X4985971D01*
X4995968Y-3119003D01*
Y-3109006D01*
X4985971Y-3099010D01*
X4955981D01*
X5015961Y-3079016D02*
X5025958Y-3069019D01*
X5045952D01*
X5055948Y-3079016D01*
Y-3119003D01*
X5045952Y-3129000D01*
X5025958D01*
X5015961Y-3119003D01*
Y-3079016D01*
X4004000Y-2704000D02*
Y-2644019D01*
X4033990D01*
X4043987Y-2654016D01*
Y-2674010D01*
X4033990Y-2684006D01*
X4004000D01*
X4023994D02*
X4043987Y-2704000D01*
X4103968Y-2644019D02*
X4063981D01*
Y-2674010D01*
X4083974Y-2664013D01*
X4093971D01*
X4103968Y-2674010D01*
Y-2694003D01*
X4093971Y-2704000D01*
X4073977D01*
X4063981Y-2694003D01*
X4123961D02*
X4133958Y-2704000D01*
X4153952D01*
X4163948Y-2694003D01*
Y-2654016D01*
X4153952Y-2644019D01*
X4133958D01*
X4123961Y-2654016D01*
Y-2664013D01*
X4133958Y-2674010D01*
X4163948D01*
X4709000Y-2674000D02*
Y-2614019D01*
X4738990D01*
X4748987Y-2624016D01*
Y-2644010D01*
X4738990Y-2654006D01*
X4709000D01*
X4728993D02*
X4748987Y-2674000D01*
X4808968Y-2614019D02*
X4768981D01*
Y-2644010D01*
X4788974Y-2634013D01*
X4798971D01*
X4808968Y-2644010D01*
Y-2664003D01*
X4798971Y-2674000D01*
X4778977D01*
X4768981Y-2664003D01*
X4828961Y-2624016D02*
X4838958Y-2614019D01*
X4858952D01*
X4868948Y-2624016D01*
Y-2634013D01*
X4858952Y-2644010D01*
X4868948Y-2654006D01*
Y-2664003D01*
X4858952Y-2674000D01*
X4838958D01*
X4828961Y-2664003D01*
Y-2654006D01*
X4838958Y-2644010D01*
X4828961Y-2634013D01*
Y-2624016D01*
X4838958Y-2644010D02*
X4858952D01*
X3814000Y-2899000D02*
Y-2839019D01*
X3843990D01*
X3853987Y-2849016D01*
Y-2869010D01*
X3843990Y-2879006D01*
X3814000D01*
X3833994D02*
X3853987Y-2899000D01*
X3913968Y-2839019D02*
X3873981D01*
Y-2869010D01*
X3893974Y-2859013D01*
X3903971D01*
X3913968Y-2869010D01*
Y-2889003D01*
X3903971Y-2899000D01*
X3883977D01*
X3873981Y-2889003D01*
X3933961Y-2839019D02*
X3973948D01*
Y-2849016D01*
X3933961Y-2889003D01*
Y-2899000D01*
X3814000Y-2659000D02*
Y-2599019D01*
X3843990D01*
X3853987Y-2609016D01*
Y-2629010D01*
X3843990Y-2639006D01*
X3814000D01*
X3833994D02*
X3853987Y-2659000D01*
X3913968Y-2599019D02*
X3873981D01*
Y-2629010D01*
X3893974Y-2619013D01*
X3903971D01*
X3913968Y-2629010D01*
Y-2649003D01*
X3903971Y-2659000D01*
X3883977D01*
X3873981Y-2649003D01*
X3973948Y-2599019D02*
X3953955Y-2609016D01*
X3933961Y-2629010D01*
Y-2649003D01*
X3943958Y-2659000D01*
X3963952D01*
X3973948Y-2649003D01*
Y-2639006D01*
X3963952Y-2629010D01*
X3933961D01*
X4549000Y-2889000D02*
Y-2829019D01*
X4578990D01*
X4588987Y-2839016D01*
Y-2859010D01*
X4578990Y-2869006D01*
X4549000D01*
X4568993D02*
X4588987Y-2889000D01*
X4648968Y-2829019D02*
X4608981D01*
Y-2859010D01*
X4628974Y-2849013D01*
X4638971D01*
X4648968Y-2859010D01*
Y-2879003D01*
X4638971Y-2889000D01*
X4618977D01*
X4608981Y-2879003D01*
X4708948Y-2829019D02*
X4668961D01*
Y-2859010D01*
X4688955Y-2849013D01*
X4698952D01*
X4708948Y-2859010D01*
Y-2879003D01*
X4698952Y-2889000D01*
X4678958D01*
X4668961Y-2879003D01*
X4549000Y-2623000D02*
Y-2563019D01*
X4578990D01*
X4588987Y-2573016D01*
Y-2593010D01*
X4578990Y-2603006D01*
X4549000D01*
X4568993D02*
X4588987Y-2623000D01*
X4648968Y-2563019D02*
X4608981D01*
Y-2593010D01*
X4628974Y-2583013D01*
X4638971D01*
X4648968Y-2593010D01*
Y-2613003D01*
X4638971Y-2623000D01*
X4618977D01*
X4608981Y-2613003D01*
X4698952Y-2623000D02*
Y-2563019D01*
X4668961Y-2593010D01*
X4708948D01*
X4209000Y-2704000D02*
Y-2644019D01*
X4238990D01*
X4248987Y-2654016D01*
Y-2674010D01*
X4238990Y-2684006D01*
X4209000D01*
X4228993D02*
X4248987Y-2704000D01*
X4308968Y-2644019D02*
X4268981D01*
Y-2674010D01*
X4288974Y-2664013D01*
X4298971D01*
X4308968Y-2674010D01*
Y-2694003D01*
X4298971Y-2704000D01*
X4278977D01*
X4268981Y-2694003D01*
X4328961Y-2654016D02*
X4338958Y-2644019D01*
X4358952D01*
X4368948Y-2654016D01*
Y-2664013D01*
X4358952Y-2674010D01*
X4348955D01*
X4358952D01*
X4368948Y-2684006D01*
Y-2694003D01*
X4358952Y-2704000D01*
X4338958D01*
X4328961Y-2694003D01*
X4932661Y-2669000D02*
Y-2609019D01*
X4962652D01*
X4972649Y-2619016D01*
Y-2639010D01*
X4962652Y-2649006D01*
X4932661D01*
X4952655D02*
X4972649Y-2669000D01*
X5032629Y-2609019D02*
X4992642D01*
Y-2639010D01*
X5012636Y-2629013D01*
X5022632D01*
X5032629Y-2639010D01*
Y-2659003D01*
X5022632Y-2669000D01*
X5002639D01*
X4992642Y-2659003D01*
X5092610Y-2669000D02*
X5052623D01*
X5092610Y-2629013D01*
Y-2619016D01*
X5082613Y-2609019D01*
X5062619D01*
X5052623Y-2619016D01*
X4791400Y-2405000D02*
Y-2345019D01*
X4821390D01*
X4831387Y-2355016D01*
Y-2375010D01*
X4821390Y-2385006D01*
X4791400D01*
X4811394D02*
X4831387Y-2405000D01*
X4891368Y-2345019D02*
X4851381D01*
Y-2375010D01*
X4871374Y-2365013D01*
X4881371D01*
X4891368Y-2375010D01*
Y-2395003D01*
X4881371Y-2405000D01*
X4861377D01*
X4851381Y-2395003D01*
X4911361Y-2405000D02*
X4931355D01*
X4921358D01*
Y-2345019D01*
X4911361Y-2355016D01*
X3996000Y-2385000D02*
Y-2325019D01*
X4025990D01*
X4035987Y-2335016D01*
Y-2355010D01*
X4025990Y-2365006D01*
X3996000D01*
X4015994D02*
X4035987Y-2385000D01*
X4095968Y-2325019D02*
X4055981D01*
Y-2355010D01*
X4075974Y-2345013D01*
X4085971D01*
X4095968Y-2355010D01*
Y-2375003D01*
X4085971Y-2385000D01*
X4065977D01*
X4055981Y-2375003D01*
X4115961Y-2335016D02*
X4125958Y-2325019D01*
X4145952D01*
X4155948Y-2335016D01*
Y-2375003D01*
X4145952Y-2385000D01*
X4125958D01*
X4115961Y-2375003D01*
Y-2335016D01*
X4701000Y-1920000D02*
Y-1860019D01*
X4730990D01*
X4740987Y-1870016D01*
Y-1890010D01*
X4730990Y-1900006D01*
X4701000D01*
X4720993D02*
X4740987Y-1920000D01*
X4790971D02*
Y-1860019D01*
X4760981Y-1890010D01*
X4800968D01*
X4820961Y-1910003D02*
X4830958Y-1920000D01*
X4850952D01*
X4860948Y-1910003D01*
Y-1870016D01*
X4850952Y-1860019D01*
X4830958D01*
X4820961Y-1870016D01*
Y-1880013D01*
X4830958Y-1890010D01*
X4860948D01*
X3921000Y-1905000D02*
Y-1845019D01*
X3950990D01*
X3960987Y-1855016D01*
Y-1875010D01*
X3950990Y-1885006D01*
X3921000D01*
X3940994D02*
X3960987Y-1905000D01*
X4010971D02*
Y-1845019D01*
X3980981Y-1875010D01*
X4020968D01*
X4040961Y-1855016D02*
X4050958Y-1845019D01*
X4070952D01*
X4080948Y-1855016D01*
Y-1865013D01*
X4070952Y-1875010D01*
X4080948Y-1885006D01*
Y-1895003D01*
X4070952Y-1905000D01*
X4050958D01*
X4040961Y-1895003D01*
Y-1885006D01*
X4050958Y-1875010D01*
X4040961Y-1865013D01*
Y-1855016D01*
X4050958Y-1875010D02*
X4070952D01*
X4585500Y-2106500D02*
Y-2046519D01*
X4615490D01*
X4625487Y-2056516D01*
Y-2076510D01*
X4615490Y-2086506D01*
X4585500D01*
X4605493D02*
X4625487Y-2106500D01*
X4675471D02*
Y-2046519D01*
X4645481Y-2076510D01*
X4685468D01*
X4705461Y-2046519D02*
X4745448D01*
Y-2056516D01*
X4705461Y-2096503D01*
Y-2106500D01*
X4585000Y-1836000D02*
Y-1776019D01*
X4614990D01*
X4624987Y-1786016D01*
Y-1806010D01*
X4614990Y-1816006D01*
X4585000D01*
X4604993D02*
X4624987Y-1836000D01*
X4674971D02*
Y-1776019D01*
X4644981Y-1806010D01*
X4684968D01*
X4744948Y-1776019D02*
X4724955Y-1786016D01*
X4704961Y-1806010D01*
Y-1826003D01*
X4714958Y-1836000D01*
X4734952D01*
X4744948Y-1826003D01*
Y-1816006D01*
X4734952Y-1806010D01*
X4704961D01*
X3780500Y-2106500D02*
Y-2046519D01*
X3810490D01*
X3820487Y-2056516D01*
Y-2076510D01*
X3810490Y-2086506D01*
X3780500D01*
X3800494D02*
X3820487Y-2106500D01*
X3870471D02*
Y-2046519D01*
X3840481Y-2076510D01*
X3880468D01*
X3940448Y-2046519D02*
X3900461D01*
Y-2076510D01*
X3920455Y-2066513D01*
X3930452D01*
X3940448Y-2076510D01*
Y-2096503D01*
X3930452Y-2106500D01*
X3910458D01*
X3900461Y-2096503D01*
X3775000Y-1816000D02*
Y-1756019D01*
X3804990D01*
X3814987Y-1766016D01*
Y-1786010D01*
X3804990Y-1796006D01*
X3775000D01*
X3794994D02*
X3814987Y-1816000D01*
X3864971D02*
Y-1756019D01*
X3834981Y-1786010D01*
X3874968D01*
X3924952Y-1816000D02*
Y-1756019D01*
X3894961Y-1786010D01*
X3934948D01*
X4901000Y-1920000D02*
Y-1860019D01*
X4930990D01*
X4940987Y-1870016D01*
Y-1890010D01*
X4930990Y-1900006D01*
X4901000D01*
X4920993D02*
X4940987Y-1920000D01*
X4990971D02*
Y-1860019D01*
X4960981Y-1890010D01*
X5000968D01*
X5020961Y-1870016D02*
X5030958Y-1860019D01*
X5050952D01*
X5060948Y-1870016D01*
Y-1880013D01*
X5050952Y-1890010D01*
X5040955D01*
X5050952D01*
X5060948Y-1900006D01*
Y-1910003D01*
X5050952Y-1920000D01*
X5030958D01*
X5020961Y-1910003D01*
X4126000Y-1905000D02*
Y-1845019D01*
X4155990D01*
X4165987Y-1855016D01*
Y-1875010D01*
X4155990Y-1885006D01*
X4126000D01*
X4145993D02*
X4165987Y-1905000D01*
X4215971D02*
Y-1845019D01*
X4185981Y-1875010D01*
X4225968D01*
X4285948Y-1905000D02*
X4245961D01*
X4285948Y-1865013D01*
Y-1855016D01*
X4275952Y-1845019D01*
X4255958D01*
X4245961Y-1855016D01*
X784000Y-2809000D02*
Y-2749019D01*
X813990D01*
X823987Y-2759016D01*
Y-2779010D01*
X813990Y-2789006D01*
X784000D01*
X803994D02*
X823987Y-2809000D01*
X873971D02*
Y-2749019D01*
X843981Y-2779010D01*
X883968D01*
X903961Y-2809000D02*
X923955D01*
X913958D01*
Y-2749019D01*
X903961Y-2759016D01*
X1819000Y-2809000D02*
Y-2749019D01*
X1848990D01*
X1858987Y-2759016D01*
Y-2779010D01*
X1848990Y-2789006D01*
X1819000D01*
X1838994D02*
X1858987Y-2809000D01*
X1908971D02*
Y-2749019D01*
X1878981Y-2779010D01*
X1918968D01*
X1938961Y-2759016D02*
X1948958Y-2749019D01*
X1968951D01*
X1978948Y-2759016D01*
Y-2799003D01*
X1968951Y-2809000D01*
X1948958D01*
X1938961Y-2799003D01*
Y-2759016D01*
X1123500Y-2809500D02*
Y-2749519D01*
X1153490D01*
X1163487Y-2759516D01*
Y-2779510D01*
X1153490Y-2789506D01*
X1123500D01*
X1143494D02*
X1163487Y-2809500D01*
X1183481Y-2759516D02*
X1193477Y-2749519D01*
X1213471D01*
X1223468Y-2759516D01*
Y-2769513D01*
X1213471Y-2779510D01*
X1203474D01*
X1213471D01*
X1223468Y-2789506D01*
Y-2799503D01*
X1213471Y-2809500D01*
X1193477D01*
X1183481Y-2799503D01*
X1243461Y-2759516D02*
X1253458Y-2749519D01*
X1273451D01*
X1283448Y-2759516D01*
Y-2769513D01*
X1273451Y-2779510D01*
X1283448Y-2789506D01*
Y-2799503D01*
X1273451Y-2809500D01*
X1253458D01*
X1243461Y-2799503D01*
Y-2789506D01*
X1253458Y-2779510D01*
X1243461Y-2769513D01*
Y-2759516D01*
X1253458Y-2779510D02*
X1273451D01*
X8380500Y-991500D02*
Y-931519D01*
X8410490D01*
X8420487Y-941516D01*
Y-961510D01*
X8410490Y-971506D01*
X8380500D01*
X8400494D02*
X8420487Y-991500D01*
X8440481Y-941516D02*
X8450477Y-931519D01*
X8470471D01*
X8480468Y-941516D01*
Y-951513D01*
X8470471Y-961510D01*
X8460474D01*
X8470471D01*
X8480468Y-971506D01*
Y-981503D01*
X8470471Y-991500D01*
X8450477D01*
X8440481Y-981503D01*
X8500461Y-931519D02*
X8540448D01*
Y-941516D01*
X8500461Y-981503D01*
Y-991500D01*
X8589000Y-1289000D02*
Y-1229019D01*
X8618990D01*
X8628987Y-1239016D01*
Y-1259010D01*
X8618990Y-1269006D01*
X8589000D01*
X8608994D02*
X8628987Y-1289000D01*
X8648981Y-1239016D02*
X8658977Y-1229019D01*
X8678971D01*
X8688968Y-1239016D01*
Y-1249013D01*
X8678971Y-1259010D01*
X8668974D01*
X8678971D01*
X8688968Y-1269006D01*
Y-1279003D01*
X8678971Y-1289000D01*
X8658977D01*
X8648981Y-1279003D01*
X8748948Y-1229019D02*
X8728955Y-1239016D01*
X8708961Y-1259010D01*
Y-1279003D01*
X8718958Y-1289000D01*
X8738951D01*
X8748948Y-1279003D01*
Y-1269006D01*
X8738951Y-1259010D01*
X8708961D01*
X9001874Y-1139433D02*
Y-1079453D01*
X9031864D01*
X9041861Y-1089449D01*
Y-1109443D01*
X9031864Y-1119440D01*
X9001874D01*
X9021868D02*
X9041861Y-1139433D01*
X9061855Y-1089449D02*
X9071851Y-1079453D01*
X9091845D01*
X9101842Y-1089449D01*
Y-1099446D01*
X9091845Y-1109443D01*
X9081848D01*
X9091845D01*
X9101842Y-1119440D01*
Y-1129436D01*
X9091845Y-1139433D01*
X9071851D01*
X9061855Y-1129436D01*
X9161822Y-1079453D02*
X9121835D01*
Y-1109443D01*
X9141829Y-1099446D01*
X9151826D01*
X9161822Y-1109443D01*
Y-1129436D01*
X9151826Y-1139433D01*
X9131832D01*
X9121835Y-1129436D01*
X9197874Y-1142402D02*
Y-1082421D01*
X9227864D01*
X9237861Y-1092418D01*
Y-1112411D01*
X9227864Y-1122408D01*
X9197874D01*
X9217868D02*
X9237861Y-1142402D01*
X9257855Y-1092418D02*
X9267851Y-1082421D01*
X9287845D01*
X9297842Y-1092418D01*
Y-1102415D01*
X9287845Y-1112411D01*
X9277848D01*
X9287845D01*
X9297842Y-1122408D01*
Y-1132405D01*
X9287845Y-1142402D01*
X9267851D01*
X9257855Y-1132405D01*
X9347826Y-1142402D02*
Y-1082421D01*
X9317835Y-1112411D01*
X9357822D01*
X7259161Y-1056500D02*
Y-996519D01*
X7289152D01*
X7299149Y-1006516D01*
Y-1026510D01*
X7289152Y-1036506D01*
X7259161D01*
X7279155D02*
X7299149Y-1056500D01*
X7319142Y-1006516D02*
X7329139Y-996519D01*
X7349132D01*
X7359129Y-1006516D01*
Y-1016513D01*
X7349132Y-1026510D01*
X7339136D01*
X7349132D01*
X7359129Y-1036506D01*
Y-1046503D01*
X7349132Y-1056500D01*
X7329139D01*
X7319142Y-1046503D01*
X7379123Y-1006516D02*
X7389119Y-996519D01*
X7409113D01*
X7419110Y-1006516D01*
Y-1016513D01*
X7409113Y-1026510D01*
X7399116D01*
X7409113D01*
X7419110Y-1036506D01*
Y-1046503D01*
X7409113Y-1056500D01*
X7389119D01*
X7379123Y-1046503D01*
X7474000Y-1319000D02*
Y-1259019D01*
X7503990D01*
X7513987Y-1269016D01*
Y-1289010D01*
X7503990Y-1299006D01*
X7474000D01*
X7493993D02*
X7513987Y-1319000D01*
X7533981Y-1269016D02*
X7543977Y-1259019D01*
X7563971D01*
X7573968Y-1269016D01*
Y-1279013D01*
X7563971Y-1289010D01*
X7553974D01*
X7563971D01*
X7573968Y-1299006D01*
Y-1309003D01*
X7563971Y-1319000D01*
X7543977D01*
X7533981Y-1309003D01*
X7633948Y-1319000D02*
X7593961D01*
X7633948Y-1279013D01*
Y-1269016D01*
X7623952Y-1259019D01*
X7603958D01*
X7593961Y-1269016D01*
X6113661Y-1091000D02*
Y-1031019D01*
X6143652D01*
X6153649Y-1041016D01*
Y-1061010D01*
X6143652Y-1071006D01*
X6113661D01*
X6133655D02*
X6153649Y-1091000D01*
X6173642Y-1041016D02*
X6183639Y-1031019D01*
X6203632D01*
X6213629Y-1041016D01*
Y-1051013D01*
X6203632Y-1061010D01*
X6193636D01*
X6203632D01*
X6213629Y-1071006D01*
Y-1081003D01*
X6203632Y-1091000D01*
X6183639D01*
X6173642Y-1081003D01*
X6233623Y-1091000D02*
X6253616D01*
X6243619D01*
Y-1031019D01*
X6233623Y-1041016D01*
X7867661Y-1172032D02*
Y-1112051D01*
X7897652D01*
X7907649Y-1122048D01*
Y-1142041D01*
X7897652Y-1152038D01*
X7867661D01*
X7887655D02*
X7907649Y-1172032D01*
X7927642Y-1122048D02*
X7937639Y-1112051D01*
X7957632D01*
X7967629Y-1122048D01*
Y-1132044D01*
X7957632Y-1142041D01*
X7947636D01*
X7957632D01*
X7967629Y-1152038D01*
Y-1162035D01*
X7957632Y-1172032D01*
X7937639D01*
X7927642Y-1162035D01*
X7987623Y-1122048D02*
X7997619Y-1112051D01*
X8017613D01*
X8027610Y-1122048D01*
Y-1162035D01*
X8017613Y-1172032D01*
X7997619D01*
X7987623Y-1162035D01*
Y-1122048D01*
X8054161Y-1159532D02*
Y-1099551D01*
X8084152D01*
X8094149Y-1109548D01*
Y-1129541D01*
X8084152Y-1139538D01*
X8054161D01*
X8074155D02*
X8094149Y-1159532D01*
X8154129D02*
X8114142D01*
X8154129Y-1119544D01*
Y-1109548D01*
X8144132Y-1099551D01*
X8124139D01*
X8114142Y-1109548D01*
X8174123Y-1149535D02*
X8184119Y-1159532D01*
X8204113D01*
X8214110Y-1149535D01*
Y-1109548D01*
X8204113Y-1099551D01*
X8184119D01*
X8174123Y-1109548D01*
Y-1119544D01*
X8184119Y-1129541D01*
X8214110D01*
X6286400Y-1375000D02*
Y-1315019D01*
X6316390D01*
X6326387Y-1325016D01*
Y-1345010D01*
X6316390Y-1355006D01*
X6286400D01*
X6306394D02*
X6326387Y-1375000D01*
X6386368D02*
X6346381D01*
X6386368Y-1335013D01*
Y-1325016D01*
X6376371Y-1315019D01*
X6356377D01*
X6346381Y-1325016D01*
X6406361D02*
X6416358Y-1315019D01*
X6436351D01*
X6446348Y-1325016D01*
Y-1335013D01*
X6436351Y-1345010D01*
X6446348Y-1355006D01*
Y-1365003D01*
X6436351Y-1375000D01*
X6416358D01*
X6406361Y-1365003D01*
Y-1355006D01*
X6416358Y-1345010D01*
X6406361Y-1335013D01*
Y-1325016D01*
X6416358Y-1345010D02*
X6436351D01*
X6695000Y-1220000D02*
Y-1160019D01*
X6724990D01*
X6734987Y-1170016D01*
Y-1190010D01*
X6724990Y-1200006D01*
X6695000D01*
X6714993D02*
X6734987Y-1220000D01*
X6794968D02*
X6754981D01*
X6794968Y-1180013D01*
Y-1170016D01*
X6784971Y-1160019D01*
X6764977D01*
X6754981Y-1170016D01*
X6814961Y-1160019D02*
X6854948D01*
Y-1170016D01*
X6814961Y-1210003D01*
Y-1220000D01*
X6885000Y-1215000D02*
Y-1155019D01*
X6914990D01*
X6924987Y-1165016D01*
Y-1185010D01*
X6914990Y-1195006D01*
X6885000D01*
X6904993D02*
X6924987Y-1215000D01*
X6984968D02*
X6944981D01*
X6984968Y-1175013D01*
Y-1165016D01*
X6974971Y-1155019D01*
X6954977D01*
X6944981Y-1165016D01*
X7044948Y-1155019D02*
X7024955Y-1165016D01*
X7004961Y-1185010D01*
Y-1205003D01*
X7014958Y-1215000D01*
X7034952D01*
X7044948Y-1205003D01*
Y-1195006D01*
X7034952Y-1185010D01*
X7004961D01*
X5165500Y-1066500D02*
Y-1006519D01*
X5195490D01*
X5205487Y-1016516D01*
Y-1036510D01*
X5195490Y-1046506D01*
X5165500D01*
X5185493D02*
X5205487Y-1066500D01*
X5265468D02*
X5225481D01*
X5265468Y-1026513D01*
Y-1016516D01*
X5255471Y-1006519D01*
X5235477D01*
X5225481Y-1016516D01*
X5325448Y-1006519D02*
X5285461D01*
Y-1036510D01*
X5305455Y-1026513D01*
X5315452D01*
X5325448Y-1036510D01*
Y-1056503D01*
X5315452Y-1066500D01*
X5295458D01*
X5285461Y-1056503D01*
X4095500Y-1071500D02*
Y-1011519D01*
X4125490D01*
X4135487Y-1021516D01*
Y-1041510D01*
X4125490Y-1051506D01*
X4095500D01*
X4115493D02*
X4135487Y-1071500D01*
X4195468D02*
X4155481D01*
X4195468Y-1031513D01*
Y-1021516D01*
X4185471Y-1011519D01*
X4165477D01*
X4155481Y-1021516D01*
X4245452Y-1071500D02*
Y-1011519D01*
X4215461Y-1041510D01*
X4255448D01*
X5374000Y-1344000D02*
Y-1284019D01*
X5403990D01*
X5413987Y-1294016D01*
Y-1314010D01*
X5403990Y-1324006D01*
X5374000D01*
X5393993D02*
X5413987Y-1344000D01*
X5473968D02*
X5433981D01*
X5473968Y-1304013D01*
Y-1294016D01*
X5463971Y-1284019D01*
X5443977D01*
X5433981Y-1294016D01*
X5493961D02*
X5503958Y-1284019D01*
X5523952D01*
X5533948Y-1294016D01*
Y-1304013D01*
X5523952Y-1314010D01*
X5513955D01*
X5523952D01*
X5533948Y-1324006D01*
Y-1334003D01*
X5523952Y-1344000D01*
X5503958D01*
X5493961Y-1334003D01*
X5725215Y-1197032D02*
Y-1137051D01*
X5755206D01*
X5765202Y-1147048D01*
Y-1167041D01*
X5755206Y-1177038D01*
X5725215D01*
X5745209D02*
X5765202Y-1197032D01*
X5825183D02*
X5785196D01*
X5825183Y-1157044D01*
Y-1147048D01*
X5815186Y-1137051D01*
X5795193D01*
X5785196Y-1147048D01*
X5885163Y-1197032D02*
X5845176D01*
X5885163Y-1157044D01*
Y-1147048D01*
X5875167Y-1137051D01*
X5855173D01*
X5845176Y-1147048D01*
X5904709Y-1197032D02*
Y-1137051D01*
X5934699D01*
X5944696Y-1147048D01*
Y-1167041D01*
X5934699Y-1177038D01*
X5904709D01*
X5924702D02*
X5944696Y-1197032D01*
X6004676D02*
X5964689D01*
X6004676Y-1157044D01*
Y-1147048D01*
X5994680Y-1137051D01*
X5974686D01*
X5964689Y-1147048D01*
X6024670Y-1197032D02*
X6044663D01*
X6034667D01*
Y-1137051D01*
X6024670Y-1147048D01*
X4292661Y-1339000D02*
Y-1279019D01*
X4322652D01*
X4332649Y-1289016D01*
Y-1309010D01*
X4322652Y-1319006D01*
X4292661D01*
X4312655D02*
X4332649Y-1339000D01*
X4392629D02*
X4352642D01*
X4392629Y-1299013D01*
Y-1289016D01*
X4382632Y-1279019D01*
X4362639D01*
X4352642Y-1289016D01*
X4412623D02*
X4422619Y-1279019D01*
X4442613D01*
X4452610Y-1289016D01*
Y-1329003D01*
X4442613Y-1339000D01*
X4422619D01*
X4412623Y-1329003D01*
Y-1289016D01*
X4685215Y-1254000D02*
Y-1194019D01*
X4715206D01*
X4725202Y-1204016D01*
Y-1224010D01*
X4715206Y-1234006D01*
X4685215D01*
X4705209D02*
X4725202Y-1254000D01*
X4745196D02*
X4765189D01*
X4755193D01*
Y-1194019D01*
X4745196Y-1204016D01*
X4795180Y-1244003D02*
X4805176Y-1254000D01*
X4825170D01*
X4835167Y-1244003D01*
Y-1204016D01*
X4825170Y-1194019D01*
X4805176D01*
X4795180Y-1204016D01*
Y-1214013D01*
X4805176Y-1224010D01*
X4835167D01*
X4872661Y-1254000D02*
Y-1194019D01*
X4902652D01*
X4912649Y-1204016D01*
Y-1224010D01*
X4902652Y-1234006D01*
X4872661D01*
X4892655D02*
X4912649Y-1254000D01*
X4932642D02*
X4952636D01*
X4942639D01*
Y-1194019D01*
X4932642Y-1204016D01*
X4982626D02*
X4992623Y-1194019D01*
X5012616D01*
X5022613Y-1204016D01*
Y-1214013D01*
X5012616Y-1224010D01*
X5022613Y-1234006D01*
Y-1244003D01*
X5012616Y-1254000D01*
X4992623D01*
X4982626Y-1244003D01*
Y-1234006D01*
X4992623Y-1224010D01*
X4982626Y-1214013D01*
Y-1204016D01*
X4992623Y-1224010D02*
X5012616D01*
X2460000Y-190000D02*
X2400019D01*
Y-160010D01*
X2410016Y-150013D01*
X2430010D01*
X2440006Y-160010D01*
Y-190000D01*
Y-170006D02*
X2460000Y-150013D01*
Y-130019D02*
Y-110026D01*
Y-120023D01*
X2400019D01*
X2410016Y-130019D01*
X2400019Y-40048D02*
Y-80036D01*
X2430010D01*
X2420013Y-60042D01*
Y-50045D01*
X2430010Y-40048D01*
X2450003D01*
X2460000Y-50045D01*
Y-70039D01*
X2450003Y-80036D01*
X2090000Y-195000D02*
X2030019D01*
Y-165010D01*
X2040016Y-155013D01*
X2060010D01*
X2070006Y-165010D01*
Y-195000D01*
Y-175006D02*
X2090000Y-155013D01*
Y-135019D02*
Y-115026D01*
Y-125023D01*
X2030019D01*
X2040016Y-135019D01*
X2090000Y-55045D02*
X2030019D01*
X2060010Y-85036D01*
Y-45048D01*
X1725000Y-195000D02*
X1665019D01*
Y-165010D01*
X1675016Y-155013D01*
X1695010D01*
X1705006Y-165010D01*
Y-195000D01*
Y-175006D02*
X1725000Y-155013D01*
Y-135019D02*
Y-115026D01*
Y-125023D01*
X1665019D01*
X1675016Y-135019D01*
Y-85036D02*
X1665019Y-75039D01*
Y-55045D01*
X1675016Y-45048D01*
X1685013D01*
X1695010Y-55045D01*
Y-65042D01*
Y-55045D01*
X1705006Y-45048D01*
X1715003D01*
X1725000Y-55045D01*
Y-75039D01*
X1715003Y-85036D01*
X2790000Y-783661D02*
X2730019D01*
Y-753671D01*
X2740016Y-743674D01*
X2760010D01*
X2770006Y-753671D01*
Y-783661D01*
Y-763668D02*
X2790000Y-743674D01*
Y-723681D02*
Y-703687D01*
Y-713684D01*
X2730019D01*
X2740016Y-723681D01*
X2790000Y-633710D02*
Y-673697D01*
X2750013Y-633710D01*
X2740016D01*
X2730019Y-643707D01*
Y-663700D01*
X2740016Y-673697D01*
X2420000Y-773661D02*
X2360019D01*
Y-743671D01*
X2370016Y-733674D01*
X2390010D01*
X2400006Y-743671D01*
Y-773661D01*
Y-753668D02*
X2420000Y-733674D01*
Y-713681D02*
Y-693687D01*
Y-703684D01*
X2360019D01*
X2370016Y-713681D01*
X2420000Y-663697D02*
Y-643703D01*
Y-653700D01*
X2360019D01*
X2370016Y-663697D01*
X2055000Y-783661D02*
X1995019D01*
Y-753671D01*
X2005016Y-743674D01*
X2025010D01*
X2035006Y-753671D01*
Y-783661D01*
Y-763668D02*
X2055000Y-743674D01*
Y-723681D02*
Y-703687D01*
Y-713684D01*
X1995019D01*
X2005016Y-723681D01*
Y-673697D02*
X1995019Y-663700D01*
Y-643707D01*
X2005016Y-633710D01*
X2045003D01*
X2055000Y-643707D01*
Y-663700D01*
X2045003Y-673697D01*
X2005016D01*
X1360000Y-190000D02*
X1300019D01*
Y-160010D01*
X1310016Y-150013D01*
X1330010D01*
X1340006Y-160010D01*
Y-190000D01*
Y-170006D02*
X1360000Y-150013D01*
X1350003Y-130019D02*
X1360000Y-120023D01*
Y-100029D01*
X1350003Y-90032D01*
X1310016D01*
X1300019Y-100029D01*
Y-120023D01*
X1310016Y-130019D01*
X1320013D01*
X1330010Y-120023D01*
Y-90032D01*
X990000Y-190000D02*
X930019D01*
Y-160010D01*
X940016Y-150013D01*
X960010D01*
X970006Y-160010D01*
Y-190000D01*
Y-170006D02*
X990000Y-150013D01*
X940016Y-130019D02*
X930019Y-120023D01*
Y-100029D01*
X940016Y-90032D01*
X950013D01*
X960010Y-100029D01*
X970006Y-90032D01*
X980003D01*
X990000Y-100029D01*
Y-120023D01*
X980003Y-130019D01*
X970006D01*
X960010Y-120023D01*
X950013Y-130019D01*
X940016D01*
X960010Y-120023D02*
Y-100029D01*
X635000Y-190000D02*
X575019D01*
Y-160010D01*
X585016Y-150013D01*
X605010D01*
X615006Y-160010D01*
Y-190000D01*
Y-170006D02*
X635000Y-150013D01*
X575019Y-130019D02*
Y-90032D01*
X585016D01*
X625003Y-130019D01*
X635000D01*
X1680000Y-763661D02*
X1620019D01*
Y-733671D01*
X1630016Y-723674D01*
X1650010D01*
X1660006Y-733671D01*
Y-763661D01*
Y-743668D02*
X1680000Y-723674D01*
X1620019Y-663694D02*
X1630016Y-683687D01*
X1650010Y-703681D01*
X1670003D01*
X1680000Y-693684D01*
Y-673691D01*
X1670003Y-663694D01*
X1660006D01*
X1650010Y-673691D01*
Y-703681D01*
X1295000Y-763661D02*
X1235019D01*
Y-733671D01*
X1245016Y-723674D01*
X1265010D01*
X1275006Y-733671D01*
Y-763661D01*
Y-743668D02*
X1295000Y-723674D01*
X1235019Y-663694D02*
Y-703681D01*
X1265010D01*
X1255013Y-683687D01*
Y-673691D01*
X1265010Y-663694D01*
X1285003D01*
X1295000Y-673691D01*
Y-693684D01*
X1285003Y-703681D01*
X940000Y-758661D02*
X880019D01*
Y-728671D01*
X890016Y-718674D01*
X910010D01*
X920006Y-728671D01*
Y-758661D01*
Y-738668D02*
X940000Y-718674D01*
Y-668691D02*
X880019D01*
X910010Y-698681D01*
Y-658694D01*
X8978000Y-1679000D02*
Y-1619019D01*
X9007990D01*
X9017987Y-1629016D01*
Y-1649010D01*
X9007990Y-1659006D01*
X8978000D01*
X8997994D02*
X9017987Y-1679000D01*
X9037981Y-1629016D02*
X9047977Y-1619019D01*
X9067971D01*
X9077968Y-1629016D01*
Y-1639013D01*
X9067971Y-1649010D01*
X9057974D01*
X9067971D01*
X9077968Y-1659006D01*
Y-1669003D01*
X9067971Y-1679000D01*
X9047977D01*
X9037981Y-1669003D01*
X8104000Y-1664000D02*
Y-1604019D01*
X8133990D01*
X8143987Y-1614016D01*
Y-1634010D01*
X8133990Y-1644006D01*
X8104000D01*
X8123993D02*
X8143987Y-1664000D01*
X8203968D02*
X8163981D01*
X8203968Y-1624013D01*
Y-1614016D01*
X8193971Y-1604019D01*
X8173977D01*
X8163981Y-1614016D01*
X7316000Y-1695000D02*
Y-1635019D01*
X7345990D01*
X7355987Y-1645016D01*
Y-1665010D01*
X7345990Y-1675006D01*
X7316000D01*
X7335993D02*
X7355987Y-1695000D01*
X7375981D02*
X7395974D01*
X7385977D01*
Y-1635019D01*
X7375981Y-1645016D01*
X2572176Y-99003D02*
Y-59016D01*
X2562179Y-49019D01*
X2542186D01*
X2532189Y-59016D01*
Y-99003D01*
X2542186Y-109000D01*
X2562179D01*
X2552182Y-89007D02*
X2572176Y-109000D01*
X2562179D02*
X2572176Y-99003D01*
X2632157Y-49019D02*
X2612163Y-59016D01*
X2592170Y-79010D01*
Y-99003D01*
X2602166Y-109000D01*
X2622160D01*
X2632157Y-99003D01*
Y-89007D01*
X2622160Y-79010D01*
X2592170D01*
X2204987Y-99003D02*
Y-59016D01*
X2194990Y-49019D01*
X2174997D01*
X2165000Y-59016D01*
Y-99003D01*
X2174997Y-109000D01*
X2194990D01*
X2184994Y-89007D02*
X2204987Y-109000D01*
X2194990D02*
X2204987Y-99003D01*
X2264968Y-49019D02*
X2224981D01*
Y-79010D01*
X2244974Y-69013D01*
X2254971D01*
X2264968Y-79010D01*
Y-99003D01*
X2254971Y-109000D01*
X2234977D01*
X2224981Y-99003D01*
X1838176D02*
Y-59016D01*
X1828179Y-49019D01*
X1808186D01*
X1798189Y-59016D01*
Y-99003D01*
X1808186Y-109000D01*
X1828179D01*
X1818182Y-89007D02*
X1838176Y-109000D01*
X1828179D02*
X1838176Y-99003D01*
X1888160Y-109000D02*
Y-49019D01*
X1858170Y-79010D01*
X1898157D01*
X1471176Y-99003D02*
Y-59016D01*
X1461179Y-49019D01*
X1441186D01*
X1431189Y-59016D01*
Y-99003D01*
X1441186Y-109000D01*
X1461179D01*
X1451182Y-89007D02*
X1471176Y-109000D01*
X1461179D02*
X1471176Y-99003D01*
X1491170Y-59016D02*
X1501166Y-49019D01*
X1521160D01*
X1531157Y-59016D01*
Y-69013D01*
X1521160Y-79010D01*
X1511163D01*
X1521160D01*
X1531157Y-89007D01*
Y-99003D01*
X1521160Y-109000D01*
X1501166D01*
X1491170Y-99003D01*
X1104176D02*
Y-59016D01*
X1094179Y-49019D01*
X1074186D01*
X1064189Y-59016D01*
Y-99003D01*
X1074186Y-109000D01*
X1094179D01*
X1084182Y-89007D02*
X1104176Y-109000D01*
X1094179D02*
X1104176Y-99003D01*
X1164157Y-109000D02*
X1124170D01*
X1164157Y-69013D01*
Y-59016D01*
X1154160Y-49019D01*
X1134166D01*
X1124170Y-59016D01*
X737176Y-99003D02*
Y-59016D01*
X727179Y-49019D01*
X707186D01*
X697189Y-59016D01*
Y-99003D01*
X707186Y-109000D01*
X727179D01*
X717183Y-89007D02*
X737176Y-109000D01*
X727179D02*
X737176Y-99003D01*
X757170Y-109000D02*
X777163D01*
X767166D01*
Y-49019D01*
X757170Y-59016D01*
X6717779Y-108000D02*
Y-48019D01*
X6747770D01*
X6757766Y-58016D01*
Y-78010D01*
X6747770Y-88007D01*
X6717779D01*
X6777760Y-48019D02*
X6817747D01*
X6797753D01*
Y-108000D01*
X6877728D02*
X6837741D01*
X6877728Y-68013D01*
Y-58016D01*
X6867731Y-48019D01*
X6847737D01*
X6837741Y-58016D01*
X6017354Y-107150D02*
Y-47169D01*
X6047345D01*
X6057341Y-57166D01*
Y-77159D01*
X6047345Y-87156D01*
X6017354D01*
X6077335Y-47169D02*
X6117322D01*
X6097328D01*
Y-107150D01*
X6137315D02*
X6157309D01*
X6147312D01*
Y-47169D01*
X6137315Y-57166D01*
X3311500Y-2986500D02*
Y-2926519D01*
X3341490D01*
X3351487Y-2936516D01*
Y-2956510D01*
X3341490Y-2966506D01*
X3311500D01*
X3371481Y-2986500D02*
X3391474D01*
X3381477D01*
Y-2926519D01*
X3371481Y-2936516D01*
X685000Y-3000016D02*
X694997Y-2990019D01*
X714990D01*
X724987Y-3000016D01*
Y-3010013D01*
X714990Y-3020010D01*
X704994D01*
X714990D01*
X724987Y-3030006D01*
Y-3040003D01*
X714990Y-3050000D01*
X694997D01*
X685000Y-3040003D01*
X744981Y-2990019D02*
Y-3030006D01*
X764974Y-3050000D01*
X784968Y-3030006D01*
Y-2990019D01*
X804961Y-3000016D02*
X814958Y-2990019D01*
X834952D01*
X844948Y-3000016D01*
Y-3010013D01*
X834952Y-3020010D01*
X824955D01*
X834952D01*
X844948Y-3030006D01*
Y-3040003D01*
X834952Y-3050000D01*
X814958D01*
X804961Y-3040003D01*
X1730000Y-3050000D02*
X1749993D01*
X1739997D01*
Y-2990019D01*
X1730000Y-3000016D01*
X1819971Y-3050000D02*
X1779984D01*
X1819971Y-3010013D01*
Y-3000016D01*
X1809974Y-2990019D01*
X1789980D01*
X1779984Y-3000016D01*
X1839964Y-2990019D02*
Y-3030006D01*
X1859958Y-3050000D01*
X1879951Y-3030006D01*
Y-2990019D01*
X1381667Y-3050000D02*
X1401660D01*
X1391663D01*
Y-2990019D01*
X1381667Y-3000016D01*
X1431650D02*
X1441647Y-2990019D01*
X1461641D01*
X1471638Y-3000016D01*
Y-3040003D01*
X1461641Y-3050000D01*
X1441647D01*
X1431650Y-3040003D01*
Y-3000016D01*
X1491631Y-2990019D02*
Y-3030006D01*
X1511624Y-3050000D01*
X1531618Y-3030006D01*
Y-2990019D01*
X1073321D02*
X1033333D01*
Y-3020010D01*
X1053327Y-3010013D01*
X1063324D01*
X1073321Y-3020010D01*
Y-3040003D01*
X1063324Y-3050000D01*
X1043330D01*
X1033333Y-3040003D01*
X1093314Y-2990019D02*
Y-3030006D01*
X1113307Y-3050000D01*
X1133301Y-3030006D01*
Y-2990019D01*
X9191327Y-831942D02*
Y-891923D01*
X9231314D01*
X9291294Y-841939D02*
X9281298Y-831942D01*
X9261304D01*
X9251307Y-841939D01*
Y-881926D01*
X9261304Y-891923D01*
X9281298D01*
X9291294Y-881926D01*
X9311288Y-831942D02*
X9331281D01*
X9321285D01*
Y-891923D01*
X9311288D01*
X9331281D01*
X9361272D02*
Y-831942D01*
X9401259Y-891923D01*
Y-831942D01*
X9461239D02*
X9421252D01*
Y-861932D01*
X9441246Y-851935D01*
X9451243D01*
X9461239Y-861932D01*
Y-881926D01*
X9451243Y-891923D01*
X9431249D01*
X9421252Y-881926D01*
X8057114Y-864540D02*
Y-924521D01*
X8097101D01*
X8157082Y-874537D02*
X8147085Y-864540D01*
X8127092D01*
X8117095Y-874537D01*
Y-914524D01*
X8127092Y-924521D01*
X8147085D01*
X8157082Y-914524D01*
X8177075Y-864540D02*
X8197069D01*
X8187072D01*
Y-924521D01*
X8177075D01*
X8197069D01*
X8227059D02*
Y-864540D01*
X8267046Y-924521D01*
Y-864540D01*
X8317030Y-924521D02*
Y-864540D01*
X8287040Y-894531D01*
X8327027D01*
X6884161Y-890519D02*
Y-950500D01*
X6924149D01*
X6984129Y-900516D02*
X6974132Y-890519D01*
X6954139D01*
X6944142Y-900516D01*
Y-940503D01*
X6954139Y-950500D01*
X6974132D01*
X6984129Y-940503D01*
X7004123Y-890519D02*
X7024116D01*
X7014119D01*
Y-950500D01*
X7004123D01*
X7024116D01*
X7054106D02*
Y-890519D01*
X7094093Y-950500D01*
Y-890519D01*
X7114087Y-900516D02*
X7124084Y-890519D01*
X7144077D01*
X7154074Y-900516D01*
Y-910513D01*
X7144077Y-920510D01*
X7134081D01*
X7144077D01*
X7154074Y-930506D01*
Y-940503D01*
X7144077Y-950500D01*
X7124084D01*
X7114087Y-940503D01*
X5904161Y-900519D02*
Y-960500D01*
X5944149D01*
X6004129Y-910516D02*
X5994132Y-900519D01*
X5974139D01*
X5964142Y-910516D01*
Y-950503D01*
X5974139Y-960500D01*
X5994132D01*
X6004129Y-950503D01*
X6024123Y-900519D02*
X6044116D01*
X6034119D01*
Y-960500D01*
X6024123D01*
X6044116D01*
X6074106D02*
Y-900519D01*
X6114093Y-960500D01*
Y-900519D01*
X6174074Y-960500D02*
X6134087D01*
X6174074Y-920513D01*
Y-910516D01*
X6164077Y-900519D01*
X6144084D01*
X6134087Y-910516D01*
X4870500Y-940519D02*
Y-1000500D01*
X4910487D01*
X4970468Y-950516D02*
X4960471Y-940519D01*
X4940477D01*
X4930481Y-950516D01*
Y-990503D01*
X4940477Y-1000500D01*
X4960471D01*
X4970468Y-990503D01*
X4990461Y-940519D02*
X5010455D01*
X5000458D01*
Y-1000500D01*
X4990461D01*
X5010455D01*
X5040445D02*
Y-940519D01*
X5080432Y-1000500D01*
Y-940519D01*
X5100426Y-1000500D02*
X5120419D01*
X5110422D01*
Y-940519D01*
X5100426Y-950516D01*
X3460000Y-3190019D02*
Y-3250000D01*
X3499987D01*
X3559968Y-3200016D02*
X3549971Y-3190019D01*
X3529977D01*
X3519981Y-3200016D01*
Y-3240003D01*
X3529977Y-3250000D01*
X3549971D01*
X3559968Y-3240003D01*
X3579961Y-3250000D02*
Y-3210013D01*
X3599955Y-3190019D01*
X3619948Y-3210013D01*
Y-3250000D01*
Y-3220010D01*
X3579961D01*
X3639942Y-3250000D02*
Y-3210013D01*
X3659935Y-3190019D01*
X3679929Y-3210013D01*
Y-3250000D01*
Y-3220010D01*
X3639942D01*
X3699922Y-3259997D02*
X3739910D01*
X3799890Y-3190019D02*
X3759903D01*
Y-3250000D01*
X3799890D01*
X3759903Y-3220010D02*
X3779896D01*
X3819884Y-3250000D02*
Y-3190019D01*
X3859871Y-3250000D01*
Y-3190019D01*
X3879864Y-3250000D02*
X3899858D01*
X3889861D01*
Y-3190019D01*
X3879864Y-3200016D01*
X2630500Y-3005519D02*
Y-3065500D01*
X2670487D01*
X2730468Y-3015516D02*
X2720471Y-3005519D01*
X2700477D01*
X2690481Y-3015516D01*
Y-3055503D01*
X2700477Y-3065500D01*
X2720471D01*
X2730468Y-3055503D01*
X2750461Y-3075497D02*
X2790448D01*
X2850429Y-3005519D02*
X2810442D01*
Y-3065500D01*
X2850429D01*
X2810442Y-3035510D02*
X2830435D01*
X2870422Y-3065500D02*
Y-3005519D01*
X2910410Y-3065500D01*
Y-3005519D01*
X2930403Y-3065500D02*
X2970390Y-3025513D01*
X3030371Y-3015516D02*
X3020374Y-3005519D01*
X3000380D01*
X2990384Y-3015516D01*
Y-3055503D01*
X3000380Y-3065500D01*
X3020374D01*
X3030371Y-3055503D01*
X3050364Y-3065500D02*
Y-3025513D01*
X3070358Y-3005519D01*
X3090351Y-3025513D01*
Y-3065500D01*
Y-3035510D01*
X3050364D01*
X3110345Y-3005519D02*
Y-3065500D01*
X3150332D01*
X3170325D02*
X3190319D01*
X3180322D01*
Y-3005519D01*
X3170325Y-3015516D01*
X5316520Y-48019D02*
Y-108000D01*
X5356507D01*
X5416487Y-58016D02*
X5406490Y-48019D01*
X5386497D01*
X5376500Y-58016D01*
Y-98003D01*
X5386497Y-108000D01*
X5406490D01*
X5416487Y-98003D01*
X5436481Y-58016D02*
X5446478Y-48019D01*
X5466471D01*
X5476468Y-58016D01*
Y-68013D01*
X5466471Y-78010D01*
X5456474D01*
X5466471D01*
X5476468Y-88007D01*
Y-98003D01*
X5466471Y-108000D01*
X5446478D01*
X5436481Y-98003D01*
X4615890Y-48019D02*
Y-108000D01*
X4655877D01*
X4715857Y-58016D02*
X4705861Y-48019D01*
X4685867D01*
X4675870Y-58016D01*
Y-98003D01*
X4685867Y-108000D01*
X4705861D01*
X4715857Y-98003D01*
X4775838Y-108000D02*
X4735851D01*
X4775838Y-68013D01*
Y-58016D01*
X4765841Y-48019D01*
X4745848D01*
X4735851Y-58016D01*
X4169000Y-48019D02*
Y-108000D01*
X4208987D01*
X4268968Y-58016D02*
X4258971Y-48019D01*
X4238977D01*
X4228981Y-58016D01*
Y-98003D01*
X4238977Y-108000D01*
X4258971D01*
X4268968Y-98003D01*
X4288961Y-108000D02*
X4308955D01*
X4298958D01*
Y-48019D01*
X4288961Y-58016D01*
X2395487Y-3020519D02*
X2375494D01*
X2385490D01*
Y-3070503D01*
X2375494Y-3080500D01*
X2365497D01*
X2355500Y-3070503D01*
X2415481Y-3080500D02*
Y-3020519D01*
X2445471D01*
X2455468Y-3030516D01*
Y-3050510D01*
X2445471Y-3060506D01*
X2415481D01*
X2515448Y-3080500D02*
X2475461D01*
X2515448Y-3040513D01*
Y-3030516D01*
X2505452Y-3020519D01*
X2485458D01*
X2475461Y-3030516D01*
X6687713Y-2698519D02*
X6707706D01*
X6697709D01*
Y-2758500D01*
X6687713D01*
X6707706D01*
X6777684Y-2708516D02*
X6767687Y-2698519D01*
X6747693D01*
X6737696Y-2708516D01*
Y-2748503D01*
X6747693Y-2758500D01*
X6767687D01*
X6777684Y-2748503D01*
X6797677Y-2758500D02*
X6817671D01*
X6807674D01*
Y-2698519D01*
X6797677Y-2708516D01*
X6847661D02*
X6857658Y-2698519D01*
X6877651D01*
X6887648Y-2708516D01*
Y-2718513D01*
X6877651Y-2728510D01*
X6887648Y-2738506D01*
Y-2748503D01*
X6877651Y-2758500D01*
X6857658D01*
X6847661Y-2748503D01*
Y-2738506D01*
X6857658Y-2728510D01*
X6847661Y-2718513D01*
Y-2708516D01*
X6857658Y-2728510D02*
X6877651D01*
X6723500Y-1913519D02*
X6743493D01*
X6733497D01*
Y-1973500D01*
X6723500D01*
X6743493D01*
X6813471Y-1923516D02*
X6803474Y-1913519D01*
X6783481D01*
X6773484Y-1923516D01*
Y-1963503D01*
X6783481Y-1973500D01*
X6803474D01*
X6813471Y-1963503D01*
X6833464Y-1973500D02*
X6853458D01*
X6843461D01*
Y-1913519D01*
X6833464Y-1923516D01*
X6883448Y-1913519D02*
X6923435D01*
Y-1923516D01*
X6883448Y-1963503D01*
Y-1973500D01*
X5773500Y-2742181D02*
X5793493D01*
X5783497D01*
Y-2802161D01*
X5773500D01*
X5793493D01*
X5863471Y-2752178D02*
X5853474Y-2742181D01*
X5833481D01*
X5823484Y-2752178D01*
Y-2792165D01*
X5833481Y-2802161D01*
X5853474D01*
X5863471Y-2792165D01*
X5883464Y-2802161D02*
X5903458D01*
X5893461D01*
Y-2742181D01*
X5883464Y-2752178D01*
X5973435Y-2742181D02*
X5953442Y-2752178D01*
X5933448Y-2772171D01*
Y-2792165D01*
X5943445Y-2802161D01*
X5963439D01*
X5973435Y-2792165D01*
Y-2782168D01*
X5963439Y-2772171D01*
X5933448D01*
X5843500Y-1873519D02*
X5863493D01*
X5853497D01*
Y-1933500D01*
X5843500D01*
X5863493D01*
X5933471Y-1883516D02*
X5923474Y-1873519D01*
X5903481D01*
X5893484Y-1883516D01*
Y-1923503D01*
X5903481Y-1933500D01*
X5923474D01*
X5933471Y-1923503D01*
X5953464Y-1933500D02*
X5973458D01*
X5963461D01*
Y-1873519D01*
X5953464Y-1883516D01*
X6043435Y-1873519D02*
X6003448D01*
Y-1903510D01*
X6023442Y-1893513D01*
X6033439D01*
X6043435Y-1903510D01*
Y-1923503D01*
X6033439Y-1933500D01*
X6013445D01*
X6003448Y-1923503D01*
X3988500Y-2823519D02*
X4008494D01*
X3998497D01*
Y-2883500D01*
X3988500D01*
X4008494D01*
X4078471Y-2833516D02*
X4068474Y-2823519D01*
X4048481D01*
X4038484Y-2833516D01*
Y-2873503D01*
X4048481Y-2883500D01*
X4068474D01*
X4078471Y-2873503D01*
X4098464Y-2883500D02*
X4118458D01*
X4108461D01*
Y-2823519D01*
X4098464Y-2833516D01*
X4178439Y-2883500D02*
Y-2823519D01*
X4148448Y-2853510D01*
X4188435D01*
X4753500Y-2808519D02*
X4773493D01*
X4763497D01*
Y-2868500D01*
X4753500D01*
X4773493D01*
X4843471Y-2818516D02*
X4833474Y-2808519D01*
X4813481D01*
X4803484Y-2818516D01*
Y-2858503D01*
X4813481Y-2868500D01*
X4833474D01*
X4843471Y-2858503D01*
X4863464Y-2868500D02*
X4883458D01*
X4873461D01*
Y-2808519D01*
X4863464Y-2818516D01*
X4913448D02*
X4923445Y-2808519D01*
X4943439D01*
X4953435Y-2818516D01*
Y-2828513D01*
X4943439Y-2838510D01*
X4933442D01*
X4943439D01*
X4953435Y-2848506D01*
Y-2858503D01*
X4943439Y-2868500D01*
X4923445D01*
X4913448Y-2858503D01*
X4783500Y-2053519D02*
X4803493D01*
X4793497D01*
Y-2113500D01*
X4783500D01*
X4803493D01*
X4873471Y-2063516D02*
X4863474Y-2053519D01*
X4843481D01*
X4833484Y-2063516D01*
Y-2103503D01*
X4843481Y-2113500D01*
X4863474D01*
X4873471Y-2103503D01*
X4893464Y-2113500D02*
X4913458D01*
X4903461D01*
Y-2053519D01*
X4893464Y-2063516D01*
X4983435Y-2113500D02*
X4943448D01*
X4983435Y-2073513D01*
Y-2063516D01*
X4973439Y-2053519D01*
X4953445D01*
X4943448Y-2063516D01*
X3989287Y-2040921D02*
X4009281D01*
X3999284D01*
Y-2100902D01*
X3989287D01*
X4009281D01*
X4079258Y-2050918D02*
X4069262Y-2040921D01*
X4049268D01*
X4039271Y-2050918D01*
Y-2090905D01*
X4049268Y-2100902D01*
X4069262D01*
X4079258Y-2090905D01*
X4099252Y-2100902D02*
X4119245D01*
X4109249D01*
Y-2040921D01*
X4099252Y-2050918D01*
X4149236Y-2100902D02*
X4169229D01*
X4159232D01*
Y-2040921D01*
X4149236Y-2050918D01*
X3126500Y-2215519D02*
X3146494D01*
X3136497D01*
Y-2275500D01*
X3126500D01*
X3146494D01*
X3216471Y-2225516D02*
X3206474Y-2215519D01*
X3186481D01*
X3176484Y-2225516D01*
Y-2265503D01*
X3186481Y-2275500D01*
X3206474D01*
X3216471Y-2265503D01*
X3236464Y-2275500D02*
X3256458D01*
X3246461D01*
Y-2215519D01*
X3236464Y-2225516D01*
X3286448D02*
X3296445Y-2215519D01*
X3316439D01*
X3326435Y-2225516D01*
Y-2265503D01*
X3316439Y-2275500D01*
X3296445D01*
X3286448Y-2265503D01*
Y-2225516D01*
X2371500Y-2180519D02*
X2391494D01*
X2381497D01*
Y-2240500D01*
X2371500D01*
X2391494D01*
X2461471Y-2190516D02*
X2451474Y-2180519D01*
X2431481D01*
X2421484Y-2190516D01*
Y-2230503D01*
X2431481Y-2240500D01*
X2451474D01*
X2461471Y-2230503D01*
X2481464D02*
X2491461Y-2240500D01*
X2511455D01*
X2521452Y-2230503D01*
Y-2190516D01*
X2511455Y-2180519D01*
X2491461D01*
X2481464Y-2190516D01*
Y-2200513D01*
X2491461Y-2210510D01*
X2521452D01*
X3496500Y-1190519D02*
X3516494D01*
X3506497D01*
Y-1250500D01*
X3496500D01*
X3516494D01*
X3586471Y-1200516D02*
X3576474Y-1190519D01*
X3556481D01*
X3546484Y-1200516D01*
Y-1240503D01*
X3556481Y-1250500D01*
X3576474D01*
X3586471Y-1240503D01*
X3606464Y-1200516D02*
X3616461Y-1190519D01*
X3636455D01*
X3646452Y-1200516D01*
Y-1210513D01*
X3636455Y-1220510D01*
X3646452Y-1230506D01*
Y-1240503D01*
X3636455Y-1250500D01*
X3616461D01*
X3606464Y-1240503D01*
Y-1230506D01*
X3616461Y-1220510D01*
X3606464Y-1210513D01*
Y-1200516D01*
X3616461Y-1220510D02*
X3636455D01*
X2731500Y-1223669D02*
X2751494D01*
X2741497D01*
Y-1283650D01*
X2731500D01*
X2751494D01*
X2821471Y-1233666D02*
X2811474Y-1223669D01*
X2791481D01*
X2781484Y-1233666D01*
Y-1273653D01*
X2791481Y-1283650D01*
X2811474D01*
X2821471Y-1273653D01*
X2841464Y-1223669D02*
X2881452D01*
Y-1233666D01*
X2841464Y-1273653D01*
Y-1283650D01*
X1881500Y-1220519D02*
X1901494D01*
X1891497D01*
Y-1280500D01*
X1881500D01*
X1901494D01*
X1971471Y-1230516D02*
X1961474Y-1220519D01*
X1941481D01*
X1931484Y-1230516D01*
Y-1270503D01*
X1941481Y-1280500D01*
X1961474D01*
X1971471Y-1270503D01*
X2031451Y-1220519D02*
X2011458Y-1230516D01*
X1991464Y-1250510D01*
Y-1270503D01*
X2001461Y-1280500D01*
X2021455D01*
X2031451Y-1270503D01*
Y-1260506D01*
X2021455Y-1250510D01*
X1991464D01*
X8566374Y-940921D02*
X8586368D01*
X8576371D01*
Y-1000902D01*
X8566374D01*
X8586368D01*
X8656345Y-950918D02*
X8646348Y-940921D01*
X8626355D01*
X8616358Y-950918D01*
Y-990905D01*
X8626355Y-1000902D01*
X8646348D01*
X8656345Y-990905D01*
X8716326Y-940921D02*
X8676338D01*
Y-970911D01*
X8696332Y-960914D01*
X8706329D01*
X8716326Y-970911D01*
Y-990905D01*
X8706329Y-1000902D01*
X8686335D01*
X8676338Y-990905D01*
X7452161Y-993519D02*
X7472155D01*
X7462158D01*
Y-1053500D01*
X7452161D01*
X7472155D01*
X7542132Y-1003516D02*
X7532136Y-993519D01*
X7512142D01*
X7502145Y-1003516D01*
Y-1043503D01*
X7512142Y-1053500D01*
X7532136D01*
X7542132Y-1043503D01*
X7592116Y-1053500D02*
Y-993519D01*
X7562126Y-1023510D01*
X7602113D01*
X6282949Y-1030921D02*
X6302942D01*
X6292946D01*
Y-1090902D01*
X6282949D01*
X6302942D01*
X6372920Y-1040918D02*
X6362923Y-1030921D01*
X6342929D01*
X6332933Y-1040918D01*
Y-1080905D01*
X6342929Y-1090902D01*
X6362923D01*
X6372920Y-1080905D01*
X6392913Y-1040918D02*
X6402910Y-1030921D01*
X6422904D01*
X6432900Y-1040918D01*
Y-1050915D01*
X6422904Y-1060911D01*
X6412907D01*
X6422904D01*
X6432900Y-1070908D01*
Y-1080905D01*
X6422904Y-1090902D01*
X6402910D01*
X6392913Y-1080905D01*
X5357161Y-1008519D02*
X5377155D01*
X5367158D01*
Y-1068500D01*
X5357161D01*
X5377155D01*
X5447132Y-1018516D02*
X5437136Y-1008519D01*
X5417142D01*
X5407145Y-1018516D01*
Y-1058503D01*
X5417142Y-1068500D01*
X5437136D01*
X5447132Y-1058503D01*
X5507113Y-1068500D02*
X5467126D01*
X5507113Y-1028513D01*
Y-1018516D01*
X5497116Y-1008519D01*
X5477123D01*
X5467126Y-1018516D01*
X4287161Y-1008519D02*
X4307155D01*
X4297158D01*
Y-1068500D01*
X4287161D01*
X4307155D01*
X4377132Y-1018516D02*
X4367136Y-1008519D01*
X4347142D01*
X4337145Y-1018516D01*
Y-1058503D01*
X4347142Y-1068500D01*
X4367136D01*
X4377132Y-1058503D01*
X4397126Y-1068500D02*
X4417119D01*
X4407123D01*
Y-1008519D01*
X4397126Y-1018516D01*
X840000Y-1555019D02*
Y-1615000D01*
X869990D01*
X879987Y-1605003D01*
Y-1565016D01*
X869990Y-1555019D01*
X840000D01*
X899981Y-1565016D02*
X909977Y-1555019D01*
X929971D01*
X939968Y-1565016D01*
Y-1575013D01*
X929971Y-1585010D01*
X939968Y-1595006D01*
Y-1605003D01*
X929971Y-1615000D01*
X909977D01*
X899981Y-1605003D01*
Y-1595006D01*
X909977Y-1585010D01*
X899981Y-1575013D01*
Y-1565016D01*
X909977Y-1585010D02*
X929971D01*
X2402000Y-402019D02*
Y-462000D01*
X2431990D01*
X2441987Y-452003D01*
Y-412016D01*
X2431990Y-402019D01*
X2402000D01*
X2501968D02*
X2481974Y-412016D01*
X2461981Y-432010D01*
Y-452003D01*
X2471977Y-462000D01*
X2491971D01*
X2501968Y-452003D01*
Y-442007D01*
X2491971Y-432010D01*
X2461981D01*
X2036000Y-402019D02*
Y-462000D01*
X2065990D01*
X2075987Y-452003D01*
Y-412016D01*
X2065990Y-402019D01*
X2036000D01*
X2135968D02*
X2095981D01*
Y-432010D01*
X2115974Y-422013D01*
X2125971D01*
X2135968Y-432010D01*
Y-452003D01*
X2125971Y-462000D01*
X2105977D01*
X2095981Y-452003D01*
X1670000Y-402019D02*
Y-462000D01*
X1699990D01*
X1709987Y-452003D01*
Y-412016D01*
X1699990Y-402019D01*
X1670000D01*
X1759971Y-462000D02*
Y-402019D01*
X1729981Y-432010D01*
X1769968D01*
X1304000Y-402019D02*
Y-462000D01*
X1333990D01*
X1343987Y-452003D01*
Y-412016D01*
X1333990Y-402019D01*
X1304000D01*
X1363981Y-412016D02*
X1373977Y-402019D01*
X1393971D01*
X1403968Y-412016D01*
Y-422013D01*
X1393971Y-432010D01*
X1383974D01*
X1393971D01*
X1403968Y-442007D01*
Y-452003D01*
X1393971Y-462000D01*
X1373977D01*
X1363981Y-452003D01*
X938000Y-402019D02*
Y-462000D01*
X967990D01*
X977987Y-452003D01*
Y-412016D01*
X967990Y-402019D01*
X938000D01*
X1037968Y-462000D02*
X997981D01*
X1037968Y-422013D01*
Y-412016D01*
X1027971Y-402019D01*
X1007977D01*
X997981Y-412016D01*
X572000Y-402019D02*
Y-462000D01*
X601990D01*
X611987Y-452003D01*
Y-412016D01*
X601990Y-402019D01*
X572000D01*
X631981Y-462000D02*
X651974D01*
X641977D01*
Y-402019D01*
X631981Y-412016D01*
X6506987Y-2697016D02*
X6496990Y-2687019D01*
X6476997D01*
X6467000Y-2697016D01*
Y-2737003D01*
X6476997Y-2747000D01*
X6496990D01*
X6506987Y-2737003D01*
X6566968Y-2687019D02*
X6526981D01*
Y-2717010D01*
X6546974Y-2707013D01*
X6556971D01*
X6566968Y-2717010D01*
Y-2737003D01*
X6556971Y-2747000D01*
X6536977D01*
X6526981Y-2737003D01*
X6586961Y-2687019D02*
X6626948D01*
Y-2697016D01*
X6586961Y-2737003D01*
Y-2747000D01*
X6511487Y-2947516D02*
X6501490Y-2937519D01*
X6481497D01*
X6471500Y-2947516D01*
Y-2987503D01*
X6481497Y-2997500D01*
X6501490D01*
X6511487Y-2987503D01*
X6571468Y-2937519D02*
X6531481D01*
Y-2967510D01*
X6551474Y-2957513D01*
X6561471D01*
X6571468Y-2967510D01*
Y-2987503D01*
X6561471Y-2997500D01*
X6541477D01*
X6531481Y-2987503D01*
X6631448Y-2937519D02*
X6611455Y-2947516D01*
X6591461Y-2967510D01*
Y-2987503D01*
X6601458Y-2997500D01*
X6621452D01*
X6631448Y-2987503D01*
Y-2977506D01*
X6621452Y-2967510D01*
X6591461D01*
X6596987Y-1912016D02*
X6586990Y-1902019D01*
X6566997D01*
X6557000Y-1912016D01*
Y-1952003D01*
X6566997Y-1962000D01*
X6586990D01*
X6596987Y-1952003D01*
X6656968Y-1902019D02*
X6616981D01*
Y-1932010D01*
X6636974Y-1922013D01*
X6646971D01*
X6656968Y-1932010D01*
Y-1952003D01*
X6646971Y-1962000D01*
X6626977D01*
X6616981Y-1952003D01*
X6716948Y-1902019D02*
X6676961D01*
Y-1932010D01*
X6696955Y-1922013D01*
X6706952D01*
X6716948Y-1932010D01*
Y-1952003D01*
X6706952Y-1962000D01*
X6686958D01*
X6676961Y-1952003D01*
X6595987Y-2152016D02*
X6585990Y-2142019D01*
X6565997D01*
X6556000Y-2152016D01*
Y-2192003D01*
X6565997Y-2202000D01*
X6585990D01*
X6595987Y-2192003D01*
X6655968Y-2142019D02*
X6615981D01*
Y-2172010D01*
X6635974Y-2162013D01*
X6645971D01*
X6655968Y-2172010D01*
Y-2192003D01*
X6645971Y-2202000D01*
X6625977D01*
X6615981Y-2192003D01*
X6705952Y-2202000D02*
Y-2142019D01*
X6675961Y-2172010D01*
X6715948D01*
X6736987Y-2522016D02*
X6726990Y-2512019D01*
X6706997D01*
X6697000Y-2522016D01*
Y-2562003D01*
X6706997Y-2572000D01*
X6726990D01*
X6736987Y-2562003D01*
X6796968Y-2512019D02*
X6756981D01*
Y-2542010D01*
X6776974Y-2532013D01*
X6786971D01*
X6796968Y-2542010D01*
Y-2562003D01*
X6786971Y-2572000D01*
X6766977D01*
X6756981Y-2562003D01*
X6816961Y-2522016D02*
X6826958Y-2512019D01*
X6846952D01*
X6856948Y-2522016D01*
Y-2532013D01*
X6846952Y-2542010D01*
X6836955D01*
X6846952D01*
X6856948Y-2552006D01*
Y-2562003D01*
X6846952Y-2572000D01*
X6826958D01*
X6816961Y-2562003D01*
X6776987Y-1727016D02*
X6766990Y-1717019D01*
X6746997D01*
X6737000Y-1727016D01*
Y-1767003D01*
X6746997Y-1777000D01*
X6766990D01*
X6776987Y-1767003D01*
X6836968Y-1717019D02*
X6796981D01*
Y-1747010D01*
X6816974Y-1737013D01*
X6826971D01*
X6836968Y-1747010D01*
Y-1767003D01*
X6826971Y-1777000D01*
X6806977D01*
X6796981Y-1767003D01*
X6896948Y-1777000D02*
X6856961D01*
X6896948Y-1737013D01*
Y-1727016D01*
X6886952Y-1717019D01*
X6866958D01*
X6856961Y-1727016D01*
X5636987Y-2672016D02*
X5626990Y-2662019D01*
X5606997D01*
X5597000Y-2672016D01*
Y-2712003D01*
X5606997Y-2722000D01*
X5626990D01*
X5636987Y-2712003D01*
X5696968Y-2662019D02*
X5656981D01*
Y-2692010D01*
X5676974Y-2682013D01*
X5686971D01*
X5696968Y-2692010D01*
Y-2712003D01*
X5686971Y-2722000D01*
X5666977D01*
X5656981Y-2712003D01*
X5716961Y-2722000D02*
X5736955D01*
X5726958D01*
Y-2662019D01*
X5716961Y-2672016D01*
X5640987Y-2922016D02*
X5630990Y-2912019D01*
X5610997D01*
X5601000Y-2922016D01*
Y-2962003D01*
X5610997Y-2972000D01*
X5630990D01*
X5640987Y-2962003D01*
X5700968Y-2912019D02*
X5660981D01*
Y-2942010D01*
X5680974Y-2932013D01*
X5690971D01*
X5700968Y-2942010D01*
Y-2962003D01*
X5690971Y-2972000D01*
X5670977D01*
X5660981Y-2962003D01*
X5720961Y-2922016D02*
X5730958Y-2912019D01*
X5750952D01*
X5760948Y-2922016D01*
Y-2962003D01*
X5750952Y-2972000D01*
X5730958D01*
X5720961Y-2962003D01*
Y-2922016D01*
X5686987Y-1882016D02*
X5676990Y-1872019D01*
X5656997D01*
X5647000Y-1882016D01*
Y-1922003D01*
X5656997Y-1932000D01*
X5676990D01*
X5686987Y-1922003D01*
X5736971Y-1932000D02*
Y-1872019D01*
X5706981Y-1902010D01*
X5746968D01*
X5766961Y-1922003D02*
X5776958Y-1932000D01*
X5796952D01*
X5806948Y-1922003D01*
Y-1882016D01*
X5796952Y-1872019D01*
X5776958D01*
X5766961Y-1882016D01*
Y-1892013D01*
X5776958Y-1902010D01*
X5806948D01*
X5675987Y-2128016D02*
X5665990Y-2118019D01*
X5645997D01*
X5636000Y-2128016D01*
Y-2168003D01*
X5645997Y-2178000D01*
X5665990D01*
X5675987Y-2168003D01*
X5725971Y-2178000D02*
Y-2118019D01*
X5695981Y-2148010D01*
X5735968D01*
X5755961Y-2128016D02*
X5765958Y-2118019D01*
X5785952D01*
X5795948Y-2128016D01*
Y-2138013D01*
X5785952Y-2148010D01*
X5795948Y-2158006D01*
Y-2168003D01*
X5785952Y-2178000D01*
X5765958D01*
X5755961Y-2168003D01*
Y-2158006D01*
X5765958Y-2148010D01*
X5755961Y-2138013D01*
Y-2128016D01*
X5765958Y-2148010D02*
X5785952D01*
X5831987Y-2552016D02*
X5821990Y-2542019D01*
X5801997D01*
X5792000Y-2552016D01*
Y-2592003D01*
X5801997Y-2602000D01*
X5821990D01*
X5831987Y-2592003D01*
X5881971Y-2602000D02*
Y-2542019D01*
X5851981Y-2572010D01*
X5891968D01*
X5911961Y-2542019D02*
X5951948D01*
Y-2552016D01*
X5911961Y-2592003D01*
Y-2602000D01*
X5895987Y-1692016D02*
X5885990Y-1682019D01*
X5865997D01*
X5856000Y-1692016D01*
Y-1732003D01*
X5865997Y-1742000D01*
X5885990D01*
X5895987Y-1732003D01*
X5945971Y-1742000D02*
Y-1682019D01*
X5915981Y-1712010D01*
X5955968D01*
X6015948Y-1682019D02*
X5995955Y-1692016D01*
X5975961Y-1712010D01*
Y-1732003D01*
X5985958Y-1742000D01*
X6005952D01*
X6015948Y-1732003D01*
Y-1722006D01*
X6005952Y-1712010D01*
X5975961D01*
X4276987Y-2847016D02*
X4266990Y-2837019D01*
X4246997D01*
X4237000Y-2847016D01*
Y-2887003D01*
X4246997Y-2897000D01*
X4266990D01*
X4276987Y-2887003D01*
X4326971Y-2897000D02*
Y-2837019D01*
X4296981Y-2867010D01*
X4336968D01*
X4396948Y-2837019D02*
X4356961D01*
Y-2867010D01*
X4376955Y-2857013D01*
X4386952D01*
X4396948Y-2867010D01*
Y-2887003D01*
X4386952Y-2897000D01*
X4366958D01*
X4356961Y-2887003D01*
X5036987Y-2837016D02*
X5026990Y-2827019D01*
X5006997D01*
X4997000Y-2837016D01*
Y-2877003D01*
X5006997Y-2887000D01*
X5026990D01*
X5036987Y-2877003D01*
X5086971Y-2887000D02*
Y-2827019D01*
X5056981Y-2857010D01*
X5096968D01*
X5146952Y-2887000D02*
Y-2827019D01*
X5116961Y-2857010D01*
X5156948D01*
X5031987Y-2093016D02*
X5021990Y-2083019D01*
X5001997D01*
X4992000Y-2093016D01*
Y-2133003D01*
X5001997Y-2143000D01*
X5021990D01*
X5031987Y-2133003D01*
X5081971Y-2143000D02*
Y-2083019D01*
X5051981Y-2113010D01*
X5091968D01*
X5111961Y-2093016D02*
X5121958Y-2083019D01*
X5141952D01*
X5151948Y-2093016D01*
Y-2103013D01*
X5141952Y-2113010D01*
X5131955D01*
X5141952D01*
X5151948Y-2123006D01*
Y-2133003D01*
X5141952Y-2143000D01*
X5121958D01*
X5111961Y-2133003D01*
X4266987Y-2063016D02*
X4256990Y-2053019D01*
X4236997D01*
X4227000Y-2063016D01*
Y-2103003D01*
X4236997Y-2113000D01*
X4256990D01*
X4266987Y-2103003D01*
X4316971Y-2113000D02*
Y-2053019D01*
X4286981Y-2083010D01*
X4326968D01*
X4386948Y-2113000D02*
X4346961D01*
X4386948Y-2073013D01*
Y-2063016D01*
X4376952Y-2053019D01*
X4356958D01*
X4346961Y-2063016D01*
X1089389Y-1016229D02*
X1079392Y-1006232D01*
X1059398D01*
X1049401Y-1016229D01*
Y-1056216D01*
X1059398Y-1066213D01*
X1079392D01*
X1089389Y-1056216D01*
X1139372Y-1066213D02*
Y-1006232D01*
X1109382Y-1036222D01*
X1149369D01*
X1169363Y-1066213D02*
X1189356D01*
X1179360D01*
Y-1006232D01*
X1169363Y-1016229D01*
X1299389Y-1216229D02*
X1289392Y-1206232D01*
X1269398D01*
X1259401Y-1216229D01*
Y-1256216D01*
X1269398Y-1266213D01*
X1289392D01*
X1299389Y-1256216D01*
X1349372Y-1266213D02*
Y-1206232D01*
X1319382Y-1236222D01*
X1359369D01*
X1379363Y-1216229D02*
X1389360Y-1206232D01*
X1409353D01*
X1419350Y-1216229D01*
Y-1256216D01*
X1409353Y-1266213D01*
X1389360D01*
X1379363Y-1256216D01*
Y-1216229D01*
X1681987Y-1837016D02*
X1671990Y-1827019D01*
X1651997D01*
X1642000Y-1837016D01*
Y-1877003D01*
X1651997Y-1887000D01*
X1671990D01*
X1681987Y-1877003D01*
X1701981Y-1837016D02*
X1711977Y-1827019D01*
X1731971D01*
X1741968Y-1837016D01*
Y-1847013D01*
X1731971Y-1857010D01*
X1721974D01*
X1731971D01*
X1741968Y-1867006D01*
Y-1877003D01*
X1731971Y-1887000D01*
X1711977D01*
X1701981Y-1877003D01*
X1761961D02*
X1771958Y-1887000D01*
X1791951D01*
X1801948Y-1877003D01*
Y-1837016D01*
X1791951Y-1827019D01*
X1771958D01*
X1761961Y-1837016D01*
Y-1847013D01*
X1771958Y-1857010D01*
X1801948D01*
X1350987Y-2117016D02*
X1340990Y-2107019D01*
X1320997D01*
X1311000Y-2117016D01*
Y-2157003D01*
X1320997Y-2167000D01*
X1340990D01*
X1350987Y-2157003D01*
X1370981Y-2117016D02*
X1380977Y-2107019D01*
X1400971D01*
X1410968Y-2117016D01*
Y-2127013D01*
X1400971Y-2137010D01*
X1390974D01*
X1400971D01*
X1410968Y-2147006D01*
Y-2157003D01*
X1400971Y-2167000D01*
X1380977D01*
X1370981Y-2157003D01*
X1430961Y-2117016D02*
X1440958Y-2107019D01*
X1460951D01*
X1470948Y-2117016D01*
Y-2127013D01*
X1460951Y-2137010D01*
X1470948Y-2147006D01*
Y-2157003D01*
X1460951Y-2167000D01*
X1440958D01*
X1430961Y-2157003D01*
Y-2147006D01*
X1440958Y-2137010D01*
X1430961Y-2127013D01*
Y-2117016D01*
X1440958Y-2137010D02*
X1460951D01*
X831487Y-2062516D02*
X821490Y-2052519D01*
X801497D01*
X791500Y-2062516D01*
Y-2102503D01*
X801497Y-2112500D01*
X821490D01*
X831487Y-2102503D01*
X851481Y-2062516D02*
X861477Y-2052519D01*
X881471D01*
X891468Y-2062516D01*
Y-2072513D01*
X881471Y-2082510D01*
X871474D01*
X881471D01*
X891468Y-2092506D01*
Y-2102503D01*
X881471Y-2112500D01*
X861477D01*
X851481Y-2102503D01*
X911461Y-2052519D02*
X951448D01*
Y-2062516D01*
X911461Y-2102503D01*
Y-2112500D01*
X831487Y-2307516D02*
X821490Y-2297519D01*
X801497D01*
X791500Y-2307516D01*
Y-2347503D01*
X801497Y-2357500D01*
X821490D01*
X831487Y-2347503D01*
X851481Y-2307516D02*
X861477Y-2297519D01*
X881471D01*
X891468Y-2307516D01*
Y-2317513D01*
X881471Y-2327510D01*
X871474D01*
X881471D01*
X891468Y-2337506D01*
Y-2347503D01*
X881471Y-2357500D01*
X861477D01*
X851481Y-2347503D01*
X951448Y-2297519D02*
X931455Y-2307516D01*
X911461Y-2327510D01*
Y-2347503D01*
X921458Y-2357500D01*
X941452D01*
X951448Y-2347503D01*
Y-2337506D01*
X941452Y-2327510D01*
X911461D01*
X2966487Y-2225351D02*
X2956490Y-2215354D01*
X2936497D01*
X2926500Y-2225351D01*
Y-2265338D01*
X2936497Y-2275334D01*
X2956490D01*
X2966487Y-2265338D01*
X2986481Y-2225351D02*
X2996477Y-2215354D01*
X3016471D01*
X3026468Y-2225351D01*
Y-2235347D01*
X3016471Y-2245344D01*
X3006474D01*
X3016471D01*
X3026468Y-2255341D01*
Y-2265338D01*
X3016471Y-2275334D01*
X2996477D01*
X2986481Y-2265338D01*
X3086448Y-2215354D02*
X3046461D01*
Y-2245344D01*
X3066455Y-2235347D01*
X3076452D01*
X3086448Y-2245344D01*
Y-2265338D01*
X3076452Y-2275334D01*
X3056458D01*
X3046461Y-2265338D01*
X2215250Y-2190351D02*
X2205253Y-2180354D01*
X2185260D01*
X2175263Y-2190351D01*
Y-2230338D01*
X2185260Y-2240334D01*
X2205253D01*
X2215250Y-2230338D01*
X2235244Y-2190351D02*
X2245241Y-2180354D01*
X2265234D01*
X2275231Y-2190351D01*
Y-2200347D01*
X2265234Y-2210344D01*
X2255237D01*
X2265234D01*
X2275231Y-2220341D01*
Y-2230338D01*
X2265234Y-2240334D01*
X2245241D01*
X2235244Y-2230338D01*
X2325215Y-2240334D02*
Y-2180354D01*
X2295224Y-2210344D01*
X2335211D01*
X3322694Y-1212016D02*
X3312698Y-1202019D01*
X3292704D01*
X3282707Y-1212016D01*
Y-1252003D01*
X3292704Y-1262000D01*
X3312698D01*
X3322694Y-1252003D01*
X3342688Y-1212016D02*
X3352685Y-1202019D01*
X3372678D01*
X3382675Y-1212016D01*
Y-1222013D01*
X3372678Y-1232010D01*
X3362681D01*
X3372678D01*
X3382675Y-1242006D01*
Y-1252003D01*
X3372678Y-1262000D01*
X3352685D01*
X3342688Y-1252003D01*
X3402668Y-1212016D02*
X3412665Y-1202019D01*
X3432659D01*
X3442655Y-1212016D01*
Y-1222013D01*
X3432659Y-1232010D01*
X3422662D01*
X3432659D01*
X3442655Y-1242006D01*
Y-1252003D01*
X3432659Y-1262000D01*
X3412665D01*
X3402668Y-1252003D01*
X1724987Y-1230016D02*
X1714990Y-1220019D01*
X1694997D01*
X1685000Y-1230016D01*
Y-1270003D01*
X1694997Y-1280000D01*
X1714990D01*
X1724987Y-1270003D01*
X1744981Y-1230016D02*
X1754977Y-1220019D01*
X1774971D01*
X1784968Y-1230016D01*
Y-1240013D01*
X1774971Y-1250010D01*
X1764974D01*
X1774971D01*
X1784968Y-1260006D01*
Y-1270003D01*
X1774971Y-1280000D01*
X1754977D01*
X1744981Y-1270003D01*
X1844948Y-1280000D02*
X1804961D01*
X1844948Y-1240013D01*
Y-1230016D01*
X1834951Y-1220019D01*
X1814958D01*
X1804961Y-1230016D01*
X2561987Y-1261166D02*
X2551990Y-1251169D01*
X2531997D01*
X2522000Y-1261166D01*
Y-1301153D01*
X2531997Y-1311150D01*
X2551990D01*
X2561987Y-1301153D01*
X2581981Y-1261166D02*
X2591977Y-1251169D01*
X2611971D01*
X2621968Y-1261166D01*
Y-1271162D01*
X2611971Y-1281159D01*
X2601974D01*
X2611971D01*
X2621968Y-1291156D01*
Y-1301153D01*
X2611971Y-1311150D01*
X2591977D01*
X2581981Y-1301153D01*
X2641961Y-1311150D02*
X2661955D01*
X2651958D01*
Y-1251169D01*
X2641961Y-1261166D01*
X9041307Y-834418D02*
X9031310Y-824421D01*
X9011317D01*
X9001320Y-834418D01*
Y-874405D01*
X9011317Y-884402D01*
X9031310D01*
X9041307Y-874405D01*
X9061301Y-834418D02*
X9071298Y-824421D01*
X9091291D01*
X9101288Y-834418D01*
Y-844414D01*
X9091291Y-854411D01*
X9081294D01*
X9091291D01*
X9101288Y-864408D01*
Y-874405D01*
X9091291Y-884402D01*
X9071298D01*
X9061301Y-874405D01*
X9121281Y-834418D02*
X9131278Y-824421D01*
X9151272D01*
X9161269Y-834418D01*
Y-874405D01*
X9151272Y-884402D01*
X9131278D01*
X9121281Y-874405D01*
Y-834418D01*
X8849361Y-834918D02*
X8839364Y-824921D01*
X8819371D01*
X8809374Y-834918D01*
Y-874905D01*
X8819371Y-884902D01*
X8839364D01*
X8849361Y-874905D01*
X8909342Y-884902D02*
X8869355D01*
X8909342Y-844914D01*
Y-834918D01*
X8899345Y-824921D01*
X8879351D01*
X8869355Y-834918D01*
X8929335Y-874905D02*
X8939332Y-884902D01*
X8959326D01*
X8969322Y-874905D01*
Y-834918D01*
X8959326Y-824921D01*
X8939332D01*
X8929335Y-834918D01*
Y-844914D01*
X8939332Y-854911D01*
X8969322D01*
X8848861Y-1089418D02*
X8838864Y-1079421D01*
X8818871D01*
X8808874Y-1089418D01*
Y-1129405D01*
X8818871Y-1139402D01*
X8838864D01*
X8848861Y-1129405D01*
X8908842Y-1139402D02*
X8868855D01*
X8908842Y-1099415D01*
Y-1089418D01*
X8898845Y-1079421D01*
X8878851D01*
X8868855Y-1089418D01*
X8928835D02*
X8938832Y-1079421D01*
X8958826D01*
X8968822Y-1089418D01*
Y-1099415D01*
X8958826Y-1109411D01*
X8968822Y-1119408D01*
Y-1129405D01*
X8958826Y-1139402D01*
X8938832D01*
X8928835Y-1129405D01*
Y-1119408D01*
X8938832Y-1109411D01*
X8928835Y-1099415D01*
Y-1089418D01*
X8938832Y-1109411D02*
X8958826D01*
X7912595Y-877516D02*
X7902598Y-867519D01*
X7882604D01*
X7872608Y-877516D01*
Y-917503D01*
X7882604Y-927500D01*
X7902598D01*
X7912595Y-917503D01*
X7972575Y-927500D02*
X7932588D01*
X7972575Y-887513D01*
Y-877516D01*
X7962578Y-867519D01*
X7942585D01*
X7932588Y-877516D01*
X7992569Y-867519D02*
X8032556D01*
Y-877516D01*
X7992569Y-917503D01*
Y-927500D01*
X7714649Y-867016D02*
X7704652Y-857019D01*
X7684658D01*
X7674661Y-867016D01*
Y-907003D01*
X7684658Y-917000D01*
X7704652D01*
X7714649Y-907003D01*
X7774629Y-917000D02*
X7734642D01*
X7774629Y-877013D01*
Y-867016D01*
X7764632Y-857019D01*
X7744639D01*
X7734642Y-867016D01*
X7834610Y-857019D02*
X7814616Y-867016D01*
X7794623Y-887010D01*
Y-907003D01*
X7804619Y-917000D01*
X7824613D01*
X7834610Y-907003D01*
Y-897006D01*
X7824613Y-887010D01*
X7794623D01*
X6732595Y-912516D02*
X6722598Y-902519D01*
X6702604D01*
X6692608Y-912516D01*
Y-952503D01*
X6702604Y-962500D01*
X6722598D01*
X6732595Y-952503D01*
X6792575Y-962500D02*
X6752588D01*
X6792575Y-922513D01*
Y-912516D01*
X6782578Y-902519D01*
X6762585D01*
X6752588Y-912516D01*
X6852556Y-902519D02*
X6812569D01*
Y-932510D01*
X6832562Y-922513D01*
X6842559D01*
X6852556Y-932510D01*
Y-952503D01*
X6842559Y-962500D01*
X6822566D01*
X6812569Y-952503D01*
X7714649Y-1122016D02*
X7704652Y-1112019D01*
X7684658D01*
X7674661Y-1122016D01*
Y-1162003D01*
X7684658Y-1172000D01*
X7704652D01*
X7714649Y-1162003D01*
X7774629Y-1172000D02*
X7734642D01*
X7774629Y-1132013D01*
Y-1122016D01*
X7764632Y-1112019D01*
X7744639D01*
X7734642Y-1122016D01*
X7824613Y-1172000D02*
Y-1112019D01*
X7794623Y-1142010D01*
X7834610D01*
X6535149Y-912516D02*
X6525152Y-902519D01*
X6505158D01*
X6495161Y-912516D01*
Y-952503D01*
X6505158Y-962500D01*
X6525152D01*
X6535149Y-952503D01*
X6595129Y-962500D02*
X6555142D01*
X6595129Y-922513D01*
Y-912516D01*
X6585132Y-902519D01*
X6565139D01*
X6555142Y-912516D01*
X6615123D02*
X6625119Y-902519D01*
X6645113D01*
X6655110Y-912516D01*
Y-922513D01*
X6645113Y-932510D01*
X6635116D01*
X6645113D01*
X6655110Y-942506D01*
Y-952503D01*
X6645113Y-962500D01*
X6625119D01*
X6615123Y-952503D01*
X6535149Y-1157516D02*
X6525152Y-1147519D01*
X6505158D01*
X6495161Y-1157516D01*
Y-1197503D01*
X6505158Y-1207500D01*
X6525152D01*
X6535149Y-1197503D01*
X6595129Y-1207500D02*
X6555142D01*
X6595129Y-1167513D01*
Y-1157516D01*
X6585132Y-1147519D01*
X6565139D01*
X6555142Y-1157516D01*
X6655110Y-1207500D02*
X6615123D01*
X6655110Y-1167513D01*
Y-1157516D01*
X6645113Y-1147519D01*
X6625119D01*
X6615123Y-1157516D01*
X5764649Y-902016D02*
X5754652Y-892019D01*
X5734658D01*
X5724661Y-902016D01*
Y-942003D01*
X5734658Y-952000D01*
X5754652D01*
X5764649Y-942003D01*
X5824629Y-952000D02*
X5784642D01*
X5824629Y-912013D01*
Y-902016D01*
X5814632Y-892019D01*
X5794639D01*
X5784642Y-902016D01*
X5844623Y-952000D02*
X5864616D01*
X5854619D01*
Y-892019D01*
X5844623Y-902016D01*
X4725149Y-941178D02*
X4715152Y-931181D01*
X4695158D01*
X4685161Y-941178D01*
Y-981165D01*
X4695158Y-991161D01*
X4715152D01*
X4725149Y-981165D01*
X4785129Y-991161D02*
X4745142D01*
X4785129Y-951174D01*
Y-941178D01*
X4775132Y-931181D01*
X4755139D01*
X4745142Y-941178D01*
X4805123D02*
X4815119Y-931181D01*
X4835113D01*
X4845110Y-941178D01*
Y-981165D01*
X4835113Y-991161D01*
X4815119D01*
X4805123Y-981165D01*
Y-941178D01*
X5589649Y-902016D02*
X5579652Y-892019D01*
X5559658D01*
X5549661Y-902016D01*
Y-942003D01*
X5559658Y-952000D01*
X5579652D01*
X5589649Y-942003D01*
X5609642Y-952000D02*
X5629636D01*
X5619639D01*
Y-892019D01*
X5609642Y-902016D01*
X5659626Y-942003D02*
X5669623Y-952000D01*
X5689616D01*
X5699613Y-942003D01*
Y-902016D01*
X5689616Y-892019D01*
X5669623D01*
X5659626Y-902016D01*
Y-912013D01*
X5669623Y-922010D01*
X5699613D01*
X4529649Y-940678D02*
X4519652Y-930681D01*
X4499658D01*
X4489661Y-940678D01*
Y-980665D01*
X4499658Y-990661D01*
X4519652D01*
X4529649Y-980665D01*
X4549642Y-990661D02*
X4569636D01*
X4559639D01*
Y-930681D01*
X4549642Y-940678D01*
X4599626D02*
X4609623Y-930681D01*
X4629616D01*
X4639613Y-940678D01*
Y-950674D01*
X4629616Y-960671D01*
X4639613Y-970668D01*
Y-980665D01*
X4629616Y-990661D01*
X4609623D01*
X4599626Y-980665D01*
Y-970668D01*
X4609623Y-960671D01*
X4599626Y-950674D01*
Y-940678D01*
X4609623Y-960671D02*
X4629616D01*
X5589649Y-1147016D02*
X5579652Y-1137019D01*
X5559658D01*
X5549661Y-1147016D01*
Y-1187003D01*
X5559658Y-1197000D01*
X5579652D01*
X5589649Y-1187003D01*
X5609642Y-1197000D02*
X5629636D01*
X5619639D01*
Y-1137019D01*
X5609642Y-1147016D01*
X5659626Y-1137019D02*
X5699613D01*
Y-1147016D01*
X5659626Y-1187003D01*
Y-1197000D01*
X4529649Y-1203985D02*
X4519652Y-1193988D01*
X4499658D01*
X4489661Y-1203985D01*
Y-1243972D01*
X4499658Y-1253968D01*
X4519652D01*
X4529649Y-1243972D01*
X4549642Y-1253968D02*
X4569636D01*
X4559639D01*
Y-1193988D01*
X4549642Y-1203985D01*
X4639613Y-1193988D02*
X4619619Y-1203985D01*
X4599626Y-1223978D01*
Y-1243972D01*
X4609623Y-1253968D01*
X4629616D01*
X4639613Y-1243972D01*
Y-1233975D01*
X4629616Y-1223978D01*
X4599626D01*
X9192987Y-1973016D02*
X9182990Y-1963019D01*
X9162997D01*
X9153000Y-1973016D01*
Y-2013003D01*
X9162997Y-2023000D01*
X9182990D01*
X9192987Y-2013003D01*
X9212981Y-1973016D02*
X9222977Y-1963019D01*
X9242971D01*
X9252968Y-1973016D01*
Y-1983013D01*
X9242971Y-1993010D01*
X9232974D01*
X9242971D01*
X9252968Y-2003006D01*
Y-2013003D01*
X9242971Y-2023000D01*
X9222977D01*
X9212981Y-2013003D01*
X8062649Y-1809016D02*
X8052652Y-1799019D01*
X8032659D01*
X8022662Y-1809016D01*
Y-1849003D01*
X8032659Y-1859000D01*
X8052652D01*
X8062649Y-1849003D01*
X8122630Y-1859000D02*
X8082643D01*
X8122630Y-1819013D01*
Y-1809016D01*
X8112633Y-1799019D01*
X8092639D01*
X8082643Y-1809016D01*
X7402987Y-1984016D02*
X7392990Y-1974019D01*
X7372997D01*
X7363000Y-1984016D01*
Y-2024003D01*
X7372997Y-2034000D01*
X7392990D01*
X7402987Y-2024003D01*
X7422981Y-2034000D02*
X7442974D01*
X7432977D01*
Y-1974019D01*
X7422981Y-1984016D01*
X9019000Y-108000D02*
Y-68013D01*
X9038994Y-48019D01*
X9058987Y-68013D01*
Y-108000D01*
Y-78010D01*
X9019000D01*
X9078981Y-48019D02*
Y-108000D01*
X9108971D01*
X9118968Y-98003D01*
Y-58016D01*
X9108971Y-48019D01*
X9078981D01*
X9178948Y-58016D02*
X9168951Y-48019D01*
X9148958D01*
X9138961Y-58016D01*
Y-98003D01*
X9148958Y-108000D01*
X9168951D01*
X9178948Y-98003D01*
X9238929Y-48019D02*
X9198942D01*
Y-78010D01*
X9218935Y-68013D01*
X9228932D01*
X9238929Y-78010D01*
Y-98003D01*
X9228932Y-108000D01*
X9208939D01*
X9198942Y-98003D01*
X8224000Y-108000D02*
Y-68013D01*
X8243994Y-48019D01*
X8263987Y-68013D01*
Y-108000D01*
Y-78010D01*
X8224000D01*
X8283981Y-48019D02*
Y-108000D01*
X8313971D01*
X8323968Y-98003D01*
Y-58016D01*
X8313971Y-48019D01*
X8283981D01*
X8383948Y-58016D02*
X8373951Y-48019D01*
X8353958D01*
X8343961Y-58016D01*
Y-98003D01*
X8353958Y-108000D01*
X8373951D01*
X8383948Y-98003D01*
X8433932Y-108000D02*
Y-48019D01*
X8403942Y-78010D01*
X8443929D01*
D55*
X10102653Y-2283000D02*
X10110984Y-2291331D01*
Y-2307992D01*
X10102653Y-2316323D01*
X10094323D01*
X10085992Y-2307992D01*
Y-2299661D01*
Y-2307992D01*
X10077661Y-2316323D01*
X10069331D01*
X10061000Y-2307992D01*
Y-2291331D01*
X10069331Y-2283000D01*
Y-2332984D02*
X10061000Y-2341314D01*
Y-2357976D01*
X10069331Y-2366306D01*
X10102653D01*
X10110984Y-2357976D01*
Y-2341314D01*
X10102653Y-2332984D01*
X10094323D01*
X10085992Y-2341314D01*
Y-2366306D01*
X9717000Y-2288992D02*
X9766984D01*
X9741992Y-2264000D01*
Y-2297323D01*
X9758653Y-2313984D02*
X9766984Y-2322314D01*
Y-2338976D01*
X9758653Y-2347306D01*
X9725331D01*
X9717000Y-2338976D01*
Y-2322314D01*
X9725331Y-2313984D01*
X9758653D01*
X9749000Y-279323D02*
Y-246000D01*
X9782323Y-279323D01*
X9790653D01*
X9798984Y-270992D01*
Y-254331D01*
X9790653Y-246000D01*
X10039000Y-258000D02*
Y-274661D01*
Y-266331D01*
X10088984D01*
X10080653Y-258000D01*
%TF.MD5,b14228ad9c9d89bb8f71319622f55d8c*%
M02*
