%TF.GenerationSoftware,Altium Limited,Altium Designer,21.2.2 (38)*%
G04 Layer_Color=8421504*
%FSLAX26Y26*%
%MOIN*%
%TF.SameCoordinates,72563302-9CA4-4070-8E96-6B9CF41BC73D*%
%TF.FilePolarity,Positive*%
%TF.FileFunction,Paste,Top*%
%TF.Part,Single*%
G01*
G75*
%TA.AperFunction,SMDPad,CuDef*%
%ADD10R,0.023622X0.035433*%
%ADD11R,0.042000X0.085000*%
%ADD12R,0.049213X0.027559*%
%ADD13R,0.027559X0.049213*%
%ADD14R,0.035433X0.023622*%
%ADD15O,0.023622X0.090551*%
%ADD16R,0.053150X0.029528*%
%ADD17R,0.029528X0.053150*%
%ADD18O,0.059055X0.023622*%
D10*
X1144804Y-1315000D02*
D03*
X1070000D02*
D03*
X1107402Y-1413426D02*
D03*
D11*
X1545000Y-2105000D02*
D03*
X1645000D02*
D03*
X1745000D02*
D03*
D12*
X2195000Y-1228662D02*
D03*
Y-1311338D02*
D03*
X3480000Y-2475788D02*
D03*
Y-2393112D02*
D03*
X2710000Y-2471338D02*
D03*
Y-2388662D02*
D03*
X3830000Y-1496338D02*
D03*
Y-1413662D02*
D03*
X3055000Y-1542088D02*
D03*
Y-1459410D02*
D03*
X2195000Y-1603738D02*
D03*
Y-1521062D02*
D03*
X2987268Y-2688188D02*
D03*
Y-2605512D02*
D03*
X2205000Y-2656338D02*
D03*
Y-2573662D02*
D03*
X3300000Y-1643938D02*
D03*
Y-1561262D02*
D03*
X2530000Y-1719488D02*
D03*
Y-1636810D02*
D03*
X1700000Y-1701338D02*
D03*
Y-1618662D02*
D03*
X6310000Y-2891338D02*
D03*
Y-2808662D02*
D03*
X6305000Y-3141338D02*
D03*
Y-3058662D02*
D03*
X6365000Y-2101338D02*
D03*
Y-2018662D02*
D03*
Y-2336338D02*
D03*
Y-2253662D02*
D03*
X5405000Y-2861338D02*
D03*
Y-2778662D02*
D03*
Y-3106338D02*
D03*
Y-3023662D02*
D03*
X5460000Y-2071338D02*
D03*
Y-1988662D02*
D03*
Y-2316338D02*
D03*
Y-2233662D02*
D03*
X3840000Y-2953662D02*
D03*
Y-3036338D02*
D03*
Y-2796338D02*
D03*
Y-2713662D02*
D03*
X4575000Y-2943662D02*
D03*
Y-3026338D02*
D03*
Y-2760000D02*
D03*
Y-2677322D02*
D03*
X4615000Y-2173662D02*
D03*
Y-2256338D02*
D03*
Y-1986338D02*
D03*
Y-1903662D02*
D03*
X3810000Y-2173662D02*
D03*
Y-2256338D02*
D03*
X3805000Y-1966338D02*
D03*
Y-1883662D02*
D03*
X810000Y-2863662D02*
D03*
Y-2946338D02*
D03*
X1845000D02*
D03*
Y-2863662D02*
D03*
X1500000Y-2946338D02*
D03*
Y-2863662D02*
D03*
X1150000D02*
D03*
Y-2946338D02*
D03*
X8410000Y-1058662D02*
D03*
Y-1141338D02*
D03*
X9027874Y-1276772D02*
D03*
Y-1194094D02*
D03*
X9217874D02*
D03*
Y-1276772D02*
D03*
X7288662Y-1123662D02*
D03*
Y-1206338D02*
D03*
X6143662Y-1158662D02*
D03*
Y-1241338D02*
D03*
X7893662Y-1309370D02*
D03*
Y-1226692D02*
D03*
X8083662D02*
D03*
Y-1309370D02*
D03*
X6720000Y-1341338D02*
D03*
Y-1258662D02*
D03*
X6910000Y-1253662D02*
D03*
Y-1336338D02*
D03*
X5195000Y-1133662D02*
D03*
Y-1216338D02*
D03*
X4125000Y-1138662D02*
D03*
Y-1221338D02*
D03*
X5751216Y-1334370D02*
D03*
Y-1251692D02*
D03*
X5930708D02*
D03*
Y-1334370D02*
D03*
X4711216Y-1391338D02*
D03*
Y-1308662D02*
D03*
X4898662D02*
D03*
Y-1391338D02*
D03*
X2428032Y-321338D02*
D03*
Y-238662D02*
D03*
X2062032Y-321338D02*
D03*
Y-238662D02*
D03*
X1696032Y-321338D02*
D03*
Y-238662D02*
D03*
X2670000Y-667322D02*
D03*
Y-750000D02*
D03*
X2305000Y-667322D02*
D03*
Y-750000D02*
D03*
X1935000Y-667322D02*
D03*
Y-750000D02*
D03*
X1330032Y-321338D02*
D03*
Y-238662D02*
D03*
X964032Y-321338D02*
D03*
Y-238662D02*
D03*
X605000Y-321338D02*
D03*
Y-238662D02*
D03*
X1565000Y-667322D02*
D03*
Y-750000D02*
D03*
X1185000Y-667322D02*
D03*
Y-750000D02*
D03*
X820000Y-667322D02*
D03*
Y-750000D02*
D03*
D13*
X4013662Y-3130000D02*
D03*
X4096338D02*
D03*
X4773662Y-3125000D02*
D03*
X4856338D02*
D03*
X4018662Y-2770000D02*
D03*
X4101338D02*
D03*
X4723662Y-2740000D02*
D03*
X4806338D02*
D03*
X4223662Y-2770000D02*
D03*
X4306338D02*
D03*
X4947322Y-2735000D02*
D03*
X5030000D02*
D03*
X4818662Y-2475000D02*
D03*
X4901338D02*
D03*
X4023662Y-2455000D02*
D03*
X4106338D02*
D03*
X4728662Y-1990000D02*
D03*
X4811338D02*
D03*
X3948662Y-1975000D02*
D03*
X4031338D02*
D03*
X4928662Y-1990000D02*
D03*
X5011338D02*
D03*
X4153662Y-1975000D02*
D03*
X4236338D02*
D03*
X8603662Y-1355000D02*
D03*
X8686338D02*
D03*
X7488662Y-1385000D02*
D03*
X7571338D02*
D03*
X6313662Y-1445000D02*
D03*
X6396338D02*
D03*
X5388662Y-1410000D02*
D03*
X5471338D02*
D03*
X4307322Y-1405000D02*
D03*
X4390000D02*
D03*
X8992662Y-1745000D02*
D03*
X9075338D02*
D03*
X8118662Y-1730000D02*
D03*
X8201338D02*
D03*
X7330662Y-1761000D02*
D03*
X7413338D02*
D03*
D14*
X6803426Y-2832598D02*
D03*
Y-2907402D02*
D03*
X6705000D02*
D03*
Y-2870000D02*
D03*
Y-2832598D02*
D03*
X6839212Y-2047598D02*
D03*
Y-2122402D02*
D03*
X6740788D02*
D03*
Y-2085000D02*
D03*
Y-2047598D02*
D03*
X5889212Y-2876260D02*
D03*
Y-2951062D02*
D03*
X5790788D02*
D03*
Y-2913662D02*
D03*
Y-2876260D02*
D03*
X5959212Y-2007598D02*
D03*
Y-2082402D02*
D03*
X5860788D02*
D03*
Y-2045000D02*
D03*
Y-2007598D02*
D03*
X4104212Y-2957598D02*
D03*
Y-3032402D02*
D03*
X4005788D02*
D03*
Y-2995000D02*
D03*
Y-2957598D02*
D03*
X4869212Y-2942598D02*
D03*
Y-3017402D02*
D03*
X4770788D02*
D03*
Y-2980000D02*
D03*
Y-2942598D02*
D03*
X4899212Y-2187598D02*
D03*
Y-2262402D02*
D03*
X4800788D02*
D03*
Y-2225000D02*
D03*
Y-2187598D02*
D03*
X4105000Y-2175000D02*
D03*
Y-2249804D02*
D03*
X4006574D02*
D03*
Y-2212402D02*
D03*
Y-2175000D02*
D03*
X8682086Y-1075000D02*
D03*
Y-1149804D02*
D03*
X8583662D02*
D03*
Y-1112402D02*
D03*
Y-1075000D02*
D03*
X7567874Y-1127598D02*
D03*
Y-1202402D02*
D03*
X7469448D02*
D03*
Y-1165000D02*
D03*
Y-1127598D02*
D03*
X6398662Y-1165000D02*
D03*
Y-1239804D02*
D03*
X6300236D02*
D03*
Y-1202402D02*
D03*
Y-1165000D02*
D03*
X5472874Y-1142598D02*
D03*
Y-1217402D02*
D03*
X5374448D02*
D03*
Y-1180000D02*
D03*
Y-1142598D02*
D03*
X4402874D02*
D03*
Y-1217402D02*
D03*
X4304448D02*
D03*
Y-1180000D02*
D03*
Y-1142598D02*
D03*
D15*
X3160000Y-2638426D02*
D03*
X3210000D02*
D03*
X3260000D02*
D03*
X3310000D02*
D03*
X3160000Y-2441574D02*
D03*
X3210000D02*
D03*
X3260000D02*
D03*
X3310000D02*
D03*
X2405000Y-2603426D02*
D03*
X2455000D02*
D03*
X2505000D02*
D03*
X2555000D02*
D03*
X2405000Y-2406574D02*
D03*
X2455000D02*
D03*
X2505000D02*
D03*
X2555000D02*
D03*
X3530000Y-1613426D02*
D03*
X3580000D02*
D03*
X3630000D02*
D03*
X3680000D02*
D03*
X3530000Y-1416574D02*
D03*
X3580000D02*
D03*
X3630000D02*
D03*
X3680000D02*
D03*
X2765000Y-1646574D02*
D03*
X2815000D02*
D03*
X2865000D02*
D03*
X2915000D02*
D03*
X2765000Y-1449724D02*
D03*
X2815000D02*
D03*
X2865000D02*
D03*
X2915000D02*
D03*
X1915000Y-1643426D02*
D03*
X1965000D02*
D03*
X2015000D02*
D03*
X2065000D02*
D03*
X1915000Y-1446574D02*
D03*
X1965000D02*
D03*
X2015000D02*
D03*
X2065000D02*
D03*
D16*
X2430000Y-601338D02*
D03*
Y-518662D02*
D03*
X2064000Y-601338D02*
D03*
Y-518662D02*
D03*
X1698000Y-601338D02*
D03*
Y-518662D02*
D03*
X1332000Y-601338D02*
D03*
Y-518662D02*
D03*
X966000Y-601338D02*
D03*
Y-518662D02*
D03*
X600000Y-601338D02*
D03*
Y-518662D02*
D03*
X6495000Y-2886338D02*
D03*
Y-2803662D02*
D03*
X6500000Y-3053662D02*
D03*
Y-3136338D02*
D03*
X6585000Y-2101338D02*
D03*
Y-2018662D02*
D03*
Y-2258662D02*
D03*
Y-2341338D02*
D03*
X5625000Y-2861338D02*
D03*
Y-2778662D02*
D03*
X5630000Y-3028662D02*
D03*
Y-3111338D02*
D03*
X5675000Y-2071338D02*
D03*
Y-1988662D02*
D03*
X5665000Y-2235000D02*
D03*
Y-2317678D02*
D03*
X4265000Y-3036338D02*
D03*
Y-2953662D02*
D03*
X5025000Y-3026338D02*
D03*
Y-2943662D02*
D03*
X5015000Y-2271338D02*
D03*
Y-2188662D02*
D03*
X4250000Y-2241338D02*
D03*
Y-2158662D02*
D03*
X1287402Y-1405552D02*
D03*
Y-1322874D02*
D03*
X1340000Y-2223662D02*
D03*
Y-2306338D02*
D03*
X820000Y-2168662D02*
D03*
Y-2251338D02*
D03*
Y-2413662D02*
D03*
Y-2496338D02*
D03*
X2950000Y-2321496D02*
D03*
Y-2404172D02*
D03*
X2198764Y-2286496D02*
D03*
Y-2369172D02*
D03*
X3306236Y-1308188D02*
D03*
Y-1390866D02*
D03*
X1700000Y-1338662D02*
D03*
Y-1421338D02*
D03*
X2545000Y-1356810D02*
D03*
Y-1439488D02*
D03*
X9030320Y-941062D02*
D03*
Y-1023740D02*
D03*
X8837874Y-941062D02*
D03*
Y-1023740D02*
D03*
Y-1196062D02*
D03*
Y-1278740D02*
D03*
X7896108Y-973662D02*
D03*
Y-1056338D02*
D03*
X7703662Y-973662D02*
D03*
Y-1056338D02*
D03*
X6721108Y-1018662D02*
D03*
Y-1101338D02*
D03*
X7703662Y-1228662D02*
D03*
Y-1311338D02*
D03*
X6523662Y-1018662D02*
D03*
Y-1101338D02*
D03*
Y-1263662D02*
D03*
Y-1346338D02*
D03*
X5753662Y-1008662D02*
D03*
Y-1091338D02*
D03*
X4713662Y-1047322D02*
D03*
Y-1130000D02*
D03*
X5578662Y-1008662D02*
D03*
Y-1091338D02*
D03*
X4518662Y-1047322D02*
D03*
Y-1130000D02*
D03*
X5578662Y-1253662D02*
D03*
Y-1336338D02*
D03*
X4518662Y-1310630D02*
D03*
Y-1393308D02*
D03*
D17*
X6713662Y-2640000D02*
D03*
X6796338D02*
D03*
X6753662Y-1845000D02*
D03*
X6836338D02*
D03*
X5808662Y-2670000D02*
D03*
X5891338D02*
D03*
X5872322Y-1810000D02*
D03*
X5955000D02*
D03*
X1066062Y-1134212D02*
D03*
X1148740D02*
D03*
X1658662Y-1955000D02*
D03*
X1741338D02*
D03*
X9157662Y-2074000D02*
D03*
X9240338D02*
D03*
X8039324Y-1927000D02*
D03*
X8122000D02*
D03*
X7379662Y-2102000D02*
D03*
X7462338D02*
D03*
D18*
X8453700Y-1730000D02*
D03*
Y-1780000D02*
D03*
Y-1830000D02*
D03*
Y-1880000D02*
D03*
Y-1930000D02*
D03*
Y-1980000D02*
D03*
Y-2030000D02*
D03*
Y-2080000D02*
D03*
X8666300Y-1730000D02*
D03*
Y-1780000D02*
D03*
Y-1830000D02*
D03*
Y-1880000D02*
D03*
Y-1930000D02*
D03*
Y-1980000D02*
D03*
Y-2030000D02*
D03*
Y-2080000D02*
D03*
X7841300Y-2082500D02*
D03*
Y-2032500D02*
D03*
Y-1982500D02*
D03*
Y-1932500D02*
D03*
Y-1882500D02*
D03*
Y-1832500D02*
D03*
Y-1782500D02*
D03*
Y-1732500D02*
D03*
X7628700Y-2082500D02*
D03*
Y-2032500D02*
D03*
Y-1982500D02*
D03*
Y-1932500D02*
D03*
Y-1882500D02*
D03*
Y-1832500D02*
D03*
Y-1782500D02*
D03*
Y-1732500D02*
D03*
X9536300Y-2080000D02*
D03*
Y-2030000D02*
D03*
Y-1980000D02*
D03*
Y-1930000D02*
D03*
Y-1880000D02*
D03*
Y-1830000D02*
D03*
Y-1780000D02*
D03*
Y-1730000D02*
D03*
X9323700Y-2080000D02*
D03*
Y-2030000D02*
D03*
Y-1980000D02*
D03*
Y-1930000D02*
D03*
Y-1880000D02*
D03*
Y-1830000D02*
D03*
Y-1780000D02*
D03*
Y-1730000D02*
D03*
%TF.MD5,83360f999ad3a736418e040da2f7a862*%
M02*
