G04*
G04 #@! TF.GenerationSoftware,Altium Limited,Altium Designer,21.2.2 (38)*
G04*
G04 Layer_Color=8388736*
%FSLAX25Y25*%
%MOIN*%
G70*
G04*
G04 #@! TF.SameCoordinates,995D3981-EE6D-4FB4-BC24-832038281B60*
G04*
G04*
G04 #@! TF.FilePolarity,Positive*
G04*
G01*
G75*
%ADD14C,0.01000*%
%ADD15C,0.00800*%
%ADD67C,0.00600*%
D14*
X120167Y-310500D02*
X119530Y-309719D01*
X118834Y-308993D01*
X118080Y-308324D01*
X117276Y-307718D01*
X116425Y-307180D01*
X115534Y-306711D01*
X114608Y-306315D01*
X113653Y-305996D01*
X112675Y-305754D01*
X111681Y-305592D01*
X110678Y-305510D01*
X109670Y-305510D01*
X108667Y-305590D01*
X107673Y-305751D01*
X106695Y-305992D01*
X105739Y-306310D01*
X104813Y-306705D01*
X103921Y-307172D01*
X103070Y-307710D01*
X102264Y-308315D01*
X101510Y-308982D01*
X100812Y-309708D01*
X100175Y-310488D01*
X99603Y-311317D01*
X99099Y-312189D01*
X98668Y-313099D01*
X98311Y-314040D01*
X98030Y-315007D01*
X97829Y-315994D01*
X97707Y-316994D01*
X97667Y-318000D01*
X97707Y-319006D01*
X97829Y-320006D01*
X98030Y-320992D01*
X98311Y-321960D01*
X98668Y-322901D01*
X99099Y-323811D01*
X99603Y-324683D01*
X100175Y-325512D01*
X100812Y-326292D01*
X101510Y-327018D01*
X102264Y-327685D01*
X103070Y-328290D01*
X103921Y-328828D01*
X104813Y-329295D01*
X105739Y-329690D01*
X106695Y-330008D01*
X107673Y-330249D01*
X108667Y-330410D01*
X109670Y-330490D01*
X110678Y-330490D01*
X111681Y-330408D01*
X112675Y-330246D01*
X113653Y-330004D01*
X114608Y-329684D01*
X115534Y-329289D01*
X116425Y-328820D01*
X117276Y-328282D01*
X118080Y-327676D01*
X118833Y-327008D01*
X119530Y-326281D01*
X120167Y-325500D01*
X154833Y-310500D02*
X154197Y-309719D01*
X153500Y-308993D01*
X152747Y-308324D01*
X151943Y-307718D01*
X151092Y-307180D01*
X150200Y-306711D01*
X149274Y-306315D01*
X148319Y-305996D01*
X147342Y-305754D01*
X146348Y-305592D01*
X145344Y-305510D01*
X144337Y-305510D01*
X143333Y-305590D01*
X142339Y-305751D01*
X141361Y-305992D01*
X140406Y-306310D01*
X139479Y-306705D01*
X138588Y-307172D01*
X137736Y-307710D01*
X136931Y-308315D01*
X136177Y-308982D01*
X135479Y-309708D01*
X134842Y-310488D01*
X134270Y-311317D01*
X133766Y-312189D01*
X133334Y-313099D01*
X132977Y-314040D01*
X132697Y-315007D01*
X132495Y-315994D01*
X132374Y-316994D01*
X132333Y-318000D01*
X132374Y-319006D01*
X132495Y-320006D01*
X132697Y-320992D01*
X132977Y-321960D01*
X133334Y-322901D01*
X133766Y-323811D01*
X134270Y-324683D01*
X134842Y-325512D01*
X135479Y-326292D01*
X136177Y-327018D01*
X136931Y-327685D01*
X137736Y-328290D01*
X138587Y-328828D01*
X139479Y-329295D01*
X140406Y-329690D01*
X141361Y-330008D01*
X142339Y-330249D01*
X143333Y-330410D01*
X144337Y-330490D01*
X145344Y-330490D01*
X146348Y-330408D01*
X147342Y-330246D01*
X148319Y-330004D01*
X149274Y-329684D01*
X150200Y-329289D01*
X151092Y-328820D01*
X151942Y-328282D01*
X152747Y-327676D01*
X153500Y-327008D01*
X154197Y-326281D01*
X154833Y-325500D01*
X189500Y-310500D02*
X188864Y-309719D01*
X188167Y-308993D01*
X187414Y-308324D01*
X186609Y-307718D01*
X185758Y-307180D01*
X184867Y-306711D01*
X183941Y-306315D01*
X182986Y-305996D01*
X182008Y-305754D01*
X181015Y-305592D01*
X180011Y-305510D01*
X179004Y-305510D01*
X178000Y-305590D01*
X177006Y-305751D01*
X176028Y-305992D01*
X175073Y-306310D01*
X174146Y-306705D01*
X173254Y-307172D01*
X172403Y-307710D01*
X171598Y-308315D01*
X170844Y-308982D01*
X170146Y-309708D01*
X169509Y-310488D01*
X168937Y-311317D01*
X168433Y-312189D01*
X168001Y-313099D01*
X167644Y-314040D01*
X167364Y-315007D01*
X167162Y-315994D01*
X167041Y-316994D01*
X167000Y-318000D01*
X167041Y-319006D01*
X167162Y-320006D01*
X167364Y-320992D01*
X167644Y-321960D01*
X168001Y-322901D01*
X168433Y-323811D01*
X168937Y-324683D01*
X169509Y-325512D01*
X170146Y-326292D01*
X170844Y-327018D01*
X171598Y-327685D01*
X172403Y-328290D01*
X173254Y-328828D01*
X174146Y-329295D01*
X175073Y-329690D01*
X176028Y-330008D01*
X177006Y-330249D01*
X178000Y-330410D01*
X179004Y-330490D01*
X180011Y-330490D01*
X181015Y-330408D01*
X182008Y-330246D01*
X182986Y-330004D01*
X183941Y-329684D01*
X184867Y-329289D01*
X185758Y-328820D01*
X186609Y-328282D01*
X187414Y-327676D01*
X188167Y-327008D01*
X188864Y-326281D01*
X189500Y-325500D01*
X85500Y-310500D02*
X84864Y-309719D01*
X84167Y-308993D01*
X83414Y-308324D01*
X82609Y-307718D01*
X81758Y-307180D01*
X80867Y-306711D01*
X79941Y-306315D01*
X78986Y-305996D01*
X78008Y-305754D01*
X77014Y-305592D01*
X76011Y-305510D01*
X75004Y-305510D01*
X74000Y-305590D01*
X73006Y-305751D01*
X72028Y-305992D01*
X71073Y-306310D01*
X70146Y-306705D01*
X69254Y-307172D01*
X68403Y-307710D01*
X67598Y-308315D01*
X66844Y-308982D01*
X66146Y-309708D01*
X65509Y-310488D01*
X64937Y-311317D01*
X64433Y-312189D01*
X64001Y-313099D01*
X63644Y-314040D01*
X63363Y-315007D01*
X63162Y-315994D01*
X63041Y-316994D01*
X63000Y-318000D01*
X63041Y-319006D01*
X63162Y-320006D01*
X63363Y-320992D01*
X63644Y-321960D01*
X64001Y-322901D01*
X64433Y-323811D01*
X64937Y-324683D01*
X65509Y-325512D01*
X66146Y-326292D01*
X66844Y-327018D01*
X67598Y-327685D01*
X68403Y-328290D01*
X69254Y-328828D01*
X70146Y-329295D01*
X71073Y-329690D01*
X72028Y-330008D01*
X73006Y-330249D01*
X74000Y-330410D01*
X75004Y-330490D01*
X76011Y-330490D01*
X77014Y-330408D01*
X78008Y-330246D01*
X78986Y-330004D01*
X79941Y-329684D01*
X80867Y-329289D01*
X81758Y-328820D01*
X82609Y-328282D01*
X83414Y-327676D01*
X84167Y-327008D01*
X84864Y-326281D01*
X85500Y-325500D01*
D15*
X120167Y-325500D02*
Y-310500D01*
X154833Y-325500D02*
Y-310500D01*
X189500Y-325500D02*
Y-310500D01*
X85500Y-325500D02*
Y-310500D01*
D67*
X120167Y-318000D02*
X120117Y-317004D01*
X119968Y-316019D01*
X119722Y-315052D01*
X119381Y-314116D01*
X118949Y-313217D01*
X118429Y-312367D01*
X117827Y-311572D01*
X117149Y-310841D01*
X116402Y-310182D01*
X115592Y-309600D01*
X114729Y-309101D01*
X113820Y-308691D01*
X112875Y-308374D01*
X111903Y-308152D01*
X110914Y-308028D01*
X109917Y-308003D01*
X108923Y-308078D01*
X107941Y-308251D01*
X106982Y-308521D01*
X106054Y-308885D01*
X105167Y-309340D01*
X104329Y-309881D01*
X103550Y-310502D01*
X102836Y-311198D01*
X102195Y-311962D01*
X101634Y-312786D01*
X101157Y-313661D01*
X100770Y-314580D01*
X100476Y-315532D01*
X100278Y-316510D01*
X100179Y-317501D01*
Y-318498D01*
X100278Y-319490D01*
X100476Y-320468D01*
X100770Y-321420D01*
X101157Y-322339D01*
X101634Y-323214D01*
X102195Y-324038D01*
X102836Y-324802D01*
X103550Y-325498D01*
X104329Y-326119D01*
X105167Y-326660D01*
X106054Y-327115D01*
X106982Y-327479D01*
X107941Y-327749D01*
X108923Y-327922D01*
X109917Y-327997D01*
X110914Y-327972D01*
X111903Y-327848D01*
X112875Y-327626D01*
X113820Y-327309D01*
X114729Y-326899D01*
X115592Y-326400D01*
X116402Y-325818D01*
X117149Y-325159D01*
X117827Y-324428D01*
X118429Y-323633D01*
X118949Y-322782D01*
X119381Y-321884D01*
X119722Y-320948D01*
X119968Y-319982D01*
X120117Y-318996D01*
X120167Y-318000D01*
X154833D02*
X154784Y-317004D01*
X154635Y-316019D01*
X154389Y-315052D01*
X154048Y-314116D01*
X153616Y-313217D01*
X153096Y-312367D01*
X152494Y-311572D01*
X151816Y-310841D01*
X151068Y-310182D01*
X150259Y-309600D01*
X149396Y-309101D01*
X148487Y-308691D01*
X147542Y-308374D01*
X146570Y-308152D01*
X145581Y-308028D01*
X144584Y-308003D01*
X143590Y-308078D01*
X142608Y-308251D01*
X141648Y-308521D01*
X140720Y-308885D01*
X139833Y-309340D01*
X138996Y-309881D01*
X138216Y-310502D01*
X137503Y-311198D01*
X136862Y-311962D01*
X136300Y-312786D01*
X135824Y-313661D01*
X135436Y-314580D01*
X135143Y-315532D01*
X134945Y-316510D01*
X134846Y-317501D01*
Y-318498D01*
X134945Y-319490D01*
X135143Y-320468D01*
X135436Y-321420D01*
X135824Y-322339D01*
X136300Y-323214D01*
X136862Y-324038D01*
X137503Y-324802D01*
X138216Y-325498D01*
X138996Y-326119D01*
X139833Y-326660D01*
X140720Y-327115D01*
X141648Y-327479D01*
X142608Y-327749D01*
X143590Y-327922D01*
X144584Y-327997D01*
X145581Y-327972D01*
X146570Y-327848D01*
X147542Y-327626D01*
X148487Y-327309D01*
X149395Y-326899D01*
X150259Y-326400D01*
X151068Y-325818D01*
X151816Y-325159D01*
X152494Y-324428D01*
X153096Y-323633D01*
X153616Y-322782D01*
X154048Y-321884D01*
X154389Y-320948D01*
X154635Y-319982D01*
X154784Y-318996D01*
X154833Y-318000D01*
X189500D02*
X189450Y-317004D01*
X189302Y-316019D01*
X189056Y-315052D01*
X188715Y-314116D01*
X188282Y-313217D01*
X187762Y-312367D01*
X187160Y-311572D01*
X186482Y-310841D01*
X185735Y-310182D01*
X184925Y-309600D01*
X184062Y-309101D01*
X183153Y-308691D01*
X182208Y-308374D01*
X181237Y-308152D01*
X180247Y-308028D01*
X179251Y-308003D01*
X178257Y-308078D01*
X177275Y-308251D01*
X176315Y-308521D01*
X175387Y-308885D01*
X174500Y-309340D01*
X173663Y-309881D01*
X172883Y-310502D01*
X172169Y-311198D01*
X171529Y-311962D01*
X170967Y-312786D01*
X170490Y-313661D01*
X170103Y-314580D01*
X169809Y-315532D01*
X169612Y-316510D01*
X169512Y-317501D01*
Y-318498D01*
X169612Y-319490D01*
X169809Y-320468D01*
X170103Y-321420D01*
X170490Y-322339D01*
X170967Y-323214D01*
X171529Y-324038D01*
X172169Y-324802D01*
X172883Y-325498D01*
X173663Y-326119D01*
X174500Y-326660D01*
X175387Y-327115D01*
X176315Y-327479D01*
X177275Y-327749D01*
X178256Y-327922D01*
X179251Y-327997D01*
X180247Y-327972D01*
X181237Y-327848D01*
X182208Y-327626D01*
X183153Y-327309D01*
X184062Y-326899D01*
X184925Y-326400D01*
X185735Y-325818D01*
X186482Y-325159D01*
X187160Y-324428D01*
X187762Y-323633D01*
X188282Y-322782D01*
X188715Y-321884D01*
X189056Y-320948D01*
X189302Y-319982D01*
X189450Y-318996D01*
X189500Y-318000D01*
X85500D02*
X85450Y-317004D01*
X85302Y-316019D01*
X85056Y-315052D01*
X84715Y-314116D01*
X84282Y-313217D01*
X83762Y-312367D01*
X83161Y-311572D01*
X82482Y-310841D01*
X81735Y-310182D01*
X80926Y-309600D01*
X80062Y-309101D01*
X79153Y-308691D01*
X78208Y-308374D01*
X77236Y-308152D01*
X76247Y-308028D01*
X75251Y-308003D01*
X74257Y-308078D01*
X73275Y-308251D01*
X72315Y-308521D01*
X71387Y-308885D01*
X70500Y-309340D01*
X69663Y-309881D01*
X68883Y-310502D01*
X68169Y-311198D01*
X67529Y-311962D01*
X66967Y-312786D01*
X66490Y-313661D01*
X66103Y-314580D01*
X65809Y-315532D01*
X65612Y-316510D01*
X65513Y-317501D01*
Y-318498D01*
X65612Y-319490D01*
X65809Y-320468D01*
X66103Y-321420D01*
X66490Y-322339D01*
X66967Y-323214D01*
X67529Y-324038D01*
X68169Y-324802D01*
X68883Y-325498D01*
X69663Y-326119D01*
X70500Y-326660D01*
X71387Y-327115D01*
X72315Y-327479D01*
X73275Y-327749D01*
X74257Y-327922D01*
X75251Y-327997D01*
X76247Y-327972D01*
X77236Y-327848D01*
X78208Y-327626D01*
X79153Y-327309D01*
X80062Y-326899D01*
X80926Y-326400D01*
X81735Y-325818D01*
X82482Y-325159D01*
X83161Y-324428D01*
X83762Y-323633D01*
X84282Y-322782D01*
X84715Y-321884D01*
X85056Y-320948D01*
X85302Y-319982D01*
X85450Y-318996D01*
X85500Y-318000D01*
M02*
