M48
;Layer_Color=9474304
;FILE_FORMAT=2:4
INCH,TZ
;TYPE=PLATED
T1F00S00C0.0118
T2F00S00C0.0236
T3F00S00C0.0276
T4F00S00C0.0280
T5F00S00C0.0320
T6F00S00C0.0354
T7F00S00C0.0394
T8F00S00C0.0433
T9F00S00C0.1083
%
T01
X85240Y-19440
X92256Y-19414
X92200Y-18725
X92592Y-17522
X82500Y-17300
X83480Y-23990
X74510Y-19450
X74637Y-17610
X70126Y-21224
T02
X23850Y-32000
Y-31500
X26600Y-31450
Y-31950
X36037Y-31200
Y-30700
X49000Y-11200
Y-10700
X59337Y-10800
Y-10300
X69137Y-10200
Y-10700
X80866Y-10440
Y-9940
X92208Y-10114
Y-9614
T03
X22350Y-20500
X23350
X24350
X30000Y-20619
X31000
X32000
X19700Y-10750
X18700
X17700
X25850Y-10882
X26850
X27850
X33200Y-10700
X34200
X35200
T04
X19200Y-32900
X90880Y-20713
X91670Y-18200
X82808Y-18843
X81300Y-18100
X81270Y-20560
X81750Y-23150
Y-24000
X82700Y-24200
X75620Y-20560
X75377Y-18843
X76949Y-18540
X71230Y-17630
X69710Y-18050
X69726Y-29074
X59282Y-29900
X59600Y-23700
X48380Y-28900
X42610Y-28940
X42920Y-28343
X41974Y-29576
X42920Y-23440
X32600Y-22700
X25050Y-22450
X26550Y-25380
X28650Y-26680
X29470Y-27410
X12800Y-28640
X13983Y-23599
X9099
X8200Y-8100
X11850
X15100Y-8050
X19300Y-8100
X19950Y-12900
X22790Y-14380
X23050Y-8100
X26700Y-8150
X28650Y-12900
X36300Y-12500
T05
X7050Y-31800
X8050
X10517
X11517
X13983
X14983
X17450
X18450
T06
X33550Y-31700
X85150Y-25450
X86150
X87150
X88150
X98660Y-22420
Y-21420
Y-20420
Y-19420
Y-18420
Y-17420
Y-16420
X99660
Y-17420
Y-18420
Y-19420
Y-20420
Y-21420
Y-22420
X84150Y-25450
X83150
X82150
X81150
X80150
X79150
X78150
Y-30450
X79150
X80150
X81150
X82150
X33550Y-30700
X98660Y-15420
Y-14420
Y-13420
Y-12420
Y-11420
Y-10420
Y-9420
Y-8420
Y-7420
Y-6420
Y-5420
Y-4420
Y-3420
X99660
Y-4420
Y-5420
Y-6420
Y-7420
Y-8420
Y-9420
Y-10420
Y-11420
Y-12420
Y-13420
Y-14420
Y-15420
T07
X7400Y-17450
X14400
X4300Y-18594
Y-21350
X2332Y-19972
Y-22728
X2482Y-14728
Y-11972
X4450Y-10594
Y-13350
X31600Y-4350
X34356
X32978Y-2382
X30222
X37228
X38606Y-4350
X44300Y-4300
X42922Y-2332
X47391
X50147
X51525Y-4300
X48769
X55775
X58531
X57153Y-2332
X54397
X61404
X64159
X62782Y-4300
X65537
X68410Y-2332
X71166
X69788Y-4300
X72544
X76794
X79550
X78172Y-2332
X75416
X83472
X86228
X87606Y-4300
X84850
X92800
X95556
X94178Y-2332
X91422
T08
X10632Y-24000
Y-23000
Y-22000
X11252Y-4700
Y-3700
Y-2700
X7582
Y-3700
Y-4700
X14922
Y-3700
Y-2700
X18592
Y-3700
Y-4700
X22262
Y-3700
Y-2700
X25932
Y-3700
Y-4700
T09
X1662Y-31598
X118451Y-24337
X99160
X90150Y-27950
X76150
X1662Y-1662
X99160Y-1503
X118451
M30
