G04*
G04 #@! TF.GenerationSoftware,Altium Limited,Altium Designer,21.2.2 (38)*
G04*
G04 Layer_Color=65535*
%FSLAX25Y25*%
%MOIN*%
G70*
G04*
G04 #@! TF.SameCoordinates,995D3981-EE6D-4FB4-BC24-832038281B60*
G04*
G04*
G04 #@! TF.FilePolarity,Positive*
G04*
G01*
G75*
%ADD10C,0.02362*%
%ADD11C,0.00984*%
%ADD12C,0.00394*%
%ADD13C,0.00787*%
%ADD14C,0.01000*%
%ADD15C,0.00800*%
G36*
X828143Y-312800D02*
X830278D01*
Y-313227D01*
X830705D01*
Y-312800D01*
X831132D01*
Y-313227D01*
X833267D01*
Y-314509D01*
X832840D01*
Y-314935D01*
X833267D01*
Y-315363D01*
X832840D01*
Y-315790D01*
X833267D01*
Y-316216D01*
X832840D01*
Y-316644D01*
X833267D01*
Y-317071D01*
X832840D01*
Y-316644D01*
X832413D01*
Y-315363D01*
X831986D01*
Y-314935D01*
X831559D01*
Y-314509D01*
X830278D01*
Y-314082D01*
X829851D01*
Y-313654D01*
X829424D01*
Y-314082D01*
X828997D01*
Y-313654D01*
X824300D01*
Y-314082D01*
X823019D01*
Y-314509D01*
X821738D01*
Y-314935D01*
X822165D01*
Y-315363D01*
X820884D01*
Y-316216D01*
X820457D01*
Y-317071D01*
X820030D01*
Y-317924D01*
X819603D01*
Y-318778D01*
X819176D01*
Y-319205D01*
X819603D01*
Y-319633D01*
X819176D01*
Y-320059D01*
X819603D01*
Y-320486D01*
X819176D01*
Y-320914D01*
X819603D01*
Y-321340D01*
X819176D01*
Y-321767D01*
X819603D01*
Y-322195D01*
X819176D01*
Y-322622D01*
X819603D01*
Y-323049D01*
X819176D01*
Y-323476D01*
X819603D01*
Y-324757D01*
X820030D01*
Y-325184D01*
X820457D01*
Y-326465D01*
X820884D01*
Y-326892D01*
X821311D01*
Y-327319D01*
X821738D01*
Y-327746D01*
X822165D01*
Y-328173D01*
X822592D01*
Y-328600D01*
X823019D01*
Y-329027D01*
X823446D01*
Y-329454D01*
X824727D01*
Y-329881D01*
X825154D01*
Y-330308D01*
X825581D01*
Y-329881D01*
X826008D01*
Y-330308D01*
X826435D01*
Y-329881D01*
X826862D01*
Y-330308D01*
X829851D01*
Y-329881D01*
X830278D01*
Y-330308D01*
X830705D01*
Y-329881D01*
X831132D01*
Y-329454D01*
X831986D01*
Y-328600D01*
X832413D01*
Y-328173D01*
X832840D01*
Y-328600D01*
X833267D01*
Y-329027D01*
X832840D01*
Y-329454D01*
X833267D01*
Y-329881D01*
X832840D01*
Y-330308D01*
X832413D01*
Y-330735D01*
X831986D01*
Y-331162D01*
X831559D01*
Y-330735D01*
X831132D01*
Y-331162D01*
X829851D01*
Y-331589D01*
X829424D01*
Y-331162D01*
X828997D01*
Y-331589D01*
X828570D01*
Y-331162D01*
X828143D01*
Y-331589D01*
X827716D01*
Y-331162D01*
X827289D01*
Y-331589D01*
X826862D01*
Y-331162D01*
X826435D01*
Y-331589D01*
X826008D01*
Y-331162D01*
X824727D01*
Y-330735D01*
X824300D01*
Y-331162D01*
X823873D01*
Y-330735D01*
X822592D01*
Y-330308D01*
X822165D01*
Y-329881D01*
X820884D01*
Y-329454D01*
X820457D01*
Y-329027D01*
X820030D01*
Y-328600D01*
X819603D01*
Y-328173D01*
X819176D01*
Y-327746D01*
X818749D01*
Y-327319D01*
X818322D01*
Y-326892D01*
X818749D01*
Y-326465D01*
X818322D01*
Y-326038D01*
X817895D01*
Y-325611D01*
X817468D01*
Y-325184D01*
X817895D01*
Y-324757D01*
X817468D01*
Y-322622D01*
X817041D01*
Y-321340D01*
X817468D01*
Y-320914D01*
X817041D01*
Y-320486D01*
X817468D01*
Y-319205D01*
X817895D01*
Y-318778D01*
X817468D01*
Y-318352D01*
X817895D01*
Y-317924D01*
X818322D01*
Y-316644D01*
X818749D01*
Y-316216D01*
X819176D01*
Y-315790D01*
X819603D01*
Y-315363D01*
X820030D01*
Y-314935D01*
X820457D01*
Y-314509D01*
X820884D01*
Y-314082D01*
X822165D01*
Y-313654D01*
X822592D01*
Y-313227D01*
X823873D01*
Y-312800D01*
X824300D01*
Y-313227D01*
X824727D01*
Y-312800D01*
X826008D01*
Y-312373D01*
X826435D01*
Y-312800D01*
X826862D01*
Y-312373D01*
X827289D01*
Y-312800D01*
X827716D01*
Y-312373D01*
X828143D01*
Y-312800D01*
D02*
G37*
G36*
X814906Y-313227D02*
X815333D01*
Y-313654D01*
X814052D01*
Y-314082D01*
X814479D01*
Y-314509D01*
X814052D01*
Y-314935D01*
X814479D01*
Y-315363D01*
X814052D01*
Y-315790D01*
X814479D01*
Y-316216D01*
X814052D01*
Y-316644D01*
X814479D01*
Y-317071D01*
X814052D01*
Y-317497D01*
X814479D01*
Y-317924D01*
X814052D01*
Y-318352D01*
X814479D01*
Y-318778D01*
X814052D01*
Y-319205D01*
X814479D01*
Y-319633D01*
X814052D01*
Y-320059D01*
X814479D01*
Y-320486D01*
X814052D01*
Y-320914D01*
X814479D01*
Y-321340D01*
X814052D01*
Y-321767D01*
X814479D01*
Y-322195D01*
X814052D01*
Y-322622D01*
X814479D01*
Y-323049D01*
X814052D01*
Y-323476D01*
X814479D01*
Y-323903D01*
X814052D01*
Y-324330D01*
X814479D01*
Y-324757D01*
X814052D01*
Y-325184D01*
X814479D01*
Y-325611D01*
X814052D01*
Y-326038D01*
X814479D01*
Y-326465D01*
X814052D01*
Y-326892D01*
X814479D01*
Y-327319D01*
X814052D01*
Y-327746D01*
X814479D01*
Y-328173D01*
X814052D01*
Y-328600D01*
X814479D01*
Y-329027D01*
X814052D01*
Y-329454D01*
X814479D01*
Y-330308D01*
X815333D01*
Y-330735D01*
X815760D01*
Y-331162D01*
X815333D01*
Y-330735D01*
X814906D01*
Y-331162D01*
X814479D01*
Y-330735D01*
X814052D01*
Y-331162D01*
X813625D01*
Y-330735D01*
X813198D01*
Y-331162D01*
X812771D01*
Y-330735D01*
X812344D01*
Y-331162D01*
X811917D01*
Y-330735D01*
X811490D01*
Y-330308D01*
X811917D01*
Y-329881D01*
X812344D01*
Y-329454D01*
X811917D01*
Y-329027D01*
X812344D01*
Y-327746D01*
X811917D01*
Y-327319D01*
X812344D01*
Y-326038D01*
X811917D01*
Y-325611D01*
X812344D01*
Y-324330D01*
X811917D01*
Y-323903D01*
X812344D01*
Y-322622D01*
X811917D01*
Y-322195D01*
X812344D01*
Y-319205D01*
X811917D01*
Y-318778D01*
X812344D01*
Y-315790D01*
X811917D01*
Y-315363D01*
X812344D01*
Y-314082D01*
X811917D01*
Y-313654D01*
X811490D01*
Y-313227D01*
X811063D01*
Y-312800D01*
X811490D01*
Y-313227D01*
X812771D01*
Y-312800D01*
X813198D01*
Y-313227D01*
X814479D01*
Y-312800D01*
X814906D01*
Y-313227D01*
D02*
G37*
G36*
X801242D02*
X803377D01*
Y-313654D01*
X803804D01*
Y-314082D01*
X805085D01*
Y-314509D01*
X805512D01*
Y-314935D01*
X805939D01*
Y-315363D01*
X805512D01*
Y-315790D01*
X805939D01*
Y-316216D01*
X806366D01*
Y-316644D01*
X805939D01*
Y-317071D01*
X806366D01*
Y-318352D01*
X805939D01*
Y-319633D01*
X805512D01*
Y-320486D01*
X805085D01*
Y-321340D01*
X804658D01*
Y-321767D01*
X804231D01*
Y-322195D01*
X803804D01*
Y-322622D01*
X803377D01*
Y-323049D01*
X803804D01*
Y-323476D01*
X804231D01*
Y-323903D01*
X804658D01*
Y-324330D01*
X805085D01*
Y-324757D01*
X804658D01*
Y-325184D01*
X805512D01*
Y-326038D01*
X805939D01*
Y-326465D01*
X806366D01*
Y-326892D01*
X806793D01*
Y-327319D01*
X807220D01*
Y-327746D01*
X807647D01*
Y-328173D01*
X808074D01*
Y-328600D01*
X808501D01*
Y-329027D01*
X808928D01*
Y-329454D01*
X809355D01*
Y-329881D01*
X809782D01*
Y-330308D01*
X811063D01*
Y-330735D01*
X811490D01*
Y-331162D01*
X811063D01*
Y-330735D01*
X810636D01*
Y-331162D01*
X810209D01*
Y-330735D01*
X809782D01*
Y-331162D01*
X809355D01*
Y-330735D01*
X808928D01*
Y-331162D01*
X808501D01*
Y-330735D01*
X807220D01*
Y-330308D01*
X806793D01*
Y-329881D01*
X806366D01*
Y-329454D01*
X805939D01*
Y-329027D01*
X805512D01*
Y-328173D01*
X805085D01*
Y-327319D01*
X804658D01*
Y-326892D01*
X804231D01*
Y-326465D01*
X803804D01*
Y-326038D01*
X803377D01*
Y-325611D01*
X802950D01*
Y-324757D01*
X802523D01*
Y-323903D01*
X802096D01*
Y-323476D01*
X801669D01*
Y-323049D01*
X801242D01*
Y-323476D01*
X800815D01*
Y-323049D01*
X800388D01*
Y-323476D01*
X799961D01*
Y-323049D01*
X799534D01*
Y-323476D01*
X799107D01*
Y-323049D01*
X798680D01*
Y-323476D01*
X798253D01*
Y-325611D01*
X798680D01*
Y-326038D01*
X798253D01*
Y-327319D01*
X798680D01*
Y-327746D01*
X798253D01*
Y-329027D01*
X798680D01*
Y-330308D01*
X799107D01*
Y-330735D01*
X799534D01*
Y-331162D01*
X799107D01*
Y-330735D01*
X798680D01*
Y-331162D01*
X798253D01*
Y-330735D01*
X797826D01*
Y-331162D01*
X797399D01*
Y-330735D01*
X796972D01*
Y-331162D01*
X796545D01*
Y-330735D01*
X796118D01*
Y-331162D01*
X795691D01*
Y-330735D01*
X795264D01*
Y-330308D01*
X796545D01*
Y-329881D01*
X796118D01*
Y-329454D01*
X796545D01*
Y-329027D01*
X796118D01*
Y-328600D01*
X796545D01*
Y-328173D01*
X796118D01*
Y-327746D01*
X796545D01*
Y-327319D01*
X796118D01*
Y-326892D01*
X796545D01*
Y-326465D01*
X796118D01*
Y-326038D01*
X796545D01*
Y-325611D01*
X796118D01*
Y-325184D01*
X796545D01*
Y-324757D01*
X796118D01*
Y-324330D01*
X796545D01*
Y-323903D01*
X796118D01*
Y-323476D01*
X796545D01*
Y-322195D01*
X796118D01*
Y-321767D01*
X796545D01*
Y-321340D01*
X796118D01*
Y-320914D01*
X796545D01*
Y-320486D01*
X796118D01*
Y-320059D01*
X796545D01*
Y-319633D01*
X796118D01*
Y-319205D01*
X796545D01*
Y-318778D01*
X796118D01*
Y-318352D01*
X796545D01*
Y-317924D01*
X796118D01*
Y-317497D01*
X796545D01*
Y-317071D01*
X796118D01*
Y-316644D01*
X796545D01*
Y-316216D01*
X796118D01*
Y-315790D01*
X796545D01*
Y-315363D01*
X796118D01*
Y-314935D01*
X796545D01*
Y-314509D01*
X796118D01*
Y-313654D01*
X795264D01*
Y-313227D01*
X794837D01*
Y-312800D01*
X795264D01*
Y-313227D01*
X795691D01*
Y-312800D01*
X796118D01*
Y-313227D01*
X797399D01*
Y-312800D01*
X797826D01*
Y-313227D01*
X799107D01*
Y-312800D01*
X799534D01*
Y-313227D01*
X799961D01*
Y-312800D01*
X800388D01*
Y-313227D01*
X800815D01*
Y-312800D01*
X801242D01*
Y-313227D01*
D02*
G37*
G36*
X832840Y-317497D02*
X833267D01*
Y-317924D01*
X832840D01*
Y-317497D01*
X832413D01*
Y-317071D01*
X832840D01*
Y-317497D01*
D02*
G37*
G36*
X799961Y-330735D02*
X800388D01*
Y-331162D01*
X799961D01*
Y-330735D01*
X799534D01*
Y-330308D01*
X799961D01*
Y-330735D01*
D02*
G37*
G36*
X858034Y-311946D02*
X858461D01*
Y-312373D01*
X858888D01*
Y-312800D01*
X858461D01*
Y-313227D01*
X858034D01*
Y-313654D01*
X857607D01*
Y-313227D01*
X857180D01*
Y-313654D01*
X856753D01*
Y-313227D01*
X856326D01*
Y-313654D01*
X855899D01*
Y-313227D01*
X855472D01*
Y-313654D01*
X855045D01*
Y-313227D01*
X854618D01*
Y-313654D01*
X854191D01*
Y-320914D01*
X854618D01*
Y-321340D01*
X855045D01*
Y-320914D01*
X855472D01*
Y-321340D01*
X855899D01*
Y-321767D01*
X856326D01*
Y-322622D01*
X855472D01*
Y-323049D01*
X855045D01*
Y-322622D01*
X854191D01*
Y-330308D01*
X855472D01*
Y-330735D01*
X855899D01*
Y-330308D01*
X857180D01*
Y-330735D01*
X857607D01*
Y-330308D01*
X858888D01*
Y-330735D01*
X858461D01*
Y-331162D01*
X858888D01*
Y-331589D01*
X858461D01*
Y-332016D01*
X858034D01*
Y-332443D01*
X857607D01*
Y-332016D01*
X857180D01*
Y-332443D01*
X856753D01*
Y-332016D01*
X856326D01*
Y-332443D01*
X855899D01*
Y-332016D01*
X855472D01*
Y-332443D01*
X855045D01*
Y-332016D01*
X854618D01*
Y-332443D01*
X854191D01*
Y-332016D01*
X853764D01*
Y-332443D01*
X853337D01*
Y-332016D01*
X852910D01*
Y-332443D01*
X852483D01*
Y-311519D01*
X852910D01*
Y-311946D01*
X853337D01*
Y-311519D01*
X853764D01*
Y-311946D01*
X854191D01*
Y-311519D01*
X854618D01*
Y-311946D01*
X855045D01*
Y-311519D01*
X855472D01*
Y-311946D01*
X855899D01*
Y-311519D01*
X856326D01*
Y-311946D01*
X856753D01*
Y-311519D01*
X857180D01*
Y-311946D01*
X857607D01*
Y-311519D01*
X858034D01*
Y-311946D01*
D02*
G37*
G36*
X844797Y-313227D02*
X845224D01*
Y-313654D01*
X844797D01*
Y-315790D01*
X844370D01*
Y-315363D01*
X843943D01*
Y-314935D01*
X844370D01*
Y-314509D01*
X843943D01*
Y-314082D01*
X843515D01*
Y-314509D01*
X843089D01*
Y-314082D01*
X841807D01*
Y-313654D01*
X841381D01*
Y-314082D01*
X840954D01*
Y-313654D01*
X840526D01*
Y-314082D01*
X840100D01*
Y-313654D01*
X839672D01*
Y-314082D01*
X839246D01*
Y-314509D01*
X838818D01*
Y-314935D01*
X839246D01*
Y-315363D01*
X838818D01*
Y-315790D01*
X839246D01*
Y-316216D01*
X838818D01*
Y-316644D01*
X839246D01*
Y-317071D01*
X838818D01*
Y-317497D01*
X839246D01*
Y-317924D01*
X838818D01*
Y-318352D01*
X839246D01*
Y-318778D01*
X838818D01*
Y-319205D01*
X839246D01*
Y-319633D01*
X838818D01*
Y-320059D01*
X839246D01*
Y-320486D01*
X838818D01*
Y-320914D01*
X843943D01*
Y-320059D01*
X844370D01*
Y-320486D01*
X844797D01*
Y-320914D01*
X844370D01*
Y-323049D01*
X843943D01*
Y-322622D01*
X843515D01*
Y-322195D01*
X842235D01*
Y-321767D01*
X841807D01*
Y-322195D01*
X841381D01*
Y-321767D01*
X840954D01*
Y-322195D01*
X840526D01*
Y-321767D01*
X840100D01*
Y-322195D01*
X839672D01*
Y-321767D01*
X839246D01*
Y-322195D01*
X838818D01*
Y-322622D01*
X839246D01*
Y-323049D01*
X838818D01*
Y-323476D01*
X839246D01*
Y-323903D01*
X838818D01*
Y-324330D01*
X839246D01*
Y-324757D01*
X838818D01*
Y-325184D01*
X839246D01*
Y-325611D01*
X838818D01*
Y-326038D01*
X839246D01*
Y-326465D01*
X838818D01*
Y-326892D01*
X839246D01*
Y-327319D01*
X838818D01*
Y-327746D01*
X839246D01*
Y-328173D01*
X838818D01*
Y-328600D01*
X839246D01*
Y-329881D01*
X840526D01*
Y-330308D01*
X841807D01*
Y-329881D01*
X842235D01*
Y-330308D01*
X842661D01*
Y-329881D01*
X843089D01*
Y-330308D01*
X843515D01*
Y-329881D01*
X843943D01*
Y-330308D01*
X844370D01*
Y-329881D01*
X844797D01*
Y-329454D01*
X845224D01*
Y-330735D01*
X844797D01*
Y-331162D01*
X844370D01*
Y-330735D01*
X843943D01*
Y-331162D01*
X843515D01*
Y-330735D01*
X843089D01*
Y-331162D01*
X842661D01*
Y-330735D01*
X842235D01*
Y-331162D01*
X841807D01*
Y-330735D01*
X841381D01*
Y-331162D01*
X840954D01*
Y-330735D01*
X840526D01*
Y-331162D01*
X840100D01*
Y-330735D01*
X839672D01*
Y-331162D01*
X839246D01*
Y-330735D01*
X838818D01*
Y-331162D01*
X838391D01*
Y-330735D01*
X837965D01*
Y-331162D01*
X837537D01*
Y-330735D01*
X837111D01*
Y-331162D01*
X836683D01*
Y-330735D01*
X836257D01*
Y-330308D01*
X836683D01*
Y-329881D01*
X837111D01*
Y-323476D01*
X837537D01*
Y-323049D01*
X837111D01*
Y-321767D01*
X837537D01*
Y-321340D01*
X837111D01*
Y-320059D01*
X837537D01*
Y-319633D01*
X837111D01*
Y-318352D01*
X837537D01*
Y-317924D01*
X837111D01*
Y-316644D01*
X837537D01*
Y-316216D01*
X837111D01*
Y-314082D01*
X836683D01*
Y-313654D01*
X836257D01*
Y-313227D01*
X835829D01*
Y-312800D01*
X836257D01*
Y-313227D01*
X836683D01*
Y-312800D01*
X837111D01*
Y-313227D01*
X838391D01*
Y-312800D01*
X838818D01*
Y-313227D01*
X840100D01*
Y-312800D01*
X840526D01*
Y-313227D01*
X841807D01*
Y-312800D01*
X842235D01*
Y-313227D01*
X843515D01*
Y-312800D01*
X843943D01*
Y-313227D01*
X844370D01*
Y-312800D01*
X844797D01*
Y-313227D01*
D02*
G37*
G36*
X835402D02*
X835829D01*
Y-313654D01*
X835402D01*
Y-313227D01*
X834976D01*
Y-312800D01*
X835402D01*
Y-313227D01*
D02*
G37*
G36*
X845224Y-329027D02*
X845651D01*
Y-329454D01*
X845224D01*
Y-329027D01*
X844797D01*
Y-328600D01*
X845224D01*
Y-329027D01*
D02*
G37*
G36*
X835829Y-330735D02*
X836257D01*
Y-331162D01*
X835829D01*
Y-330735D01*
X835402D01*
Y-330308D01*
X835829D01*
Y-330735D01*
D02*
G37*
G36*
X1193400Y16400D02*
Y15600D01*
X1191800D01*
Y16400D01*
X1192600D01*
Y17200D01*
X1193400D01*
Y16400D01*
D02*
G37*
G36*
X907566Y-311946D02*
X907993D01*
Y-312373D01*
X908420D01*
Y-312800D01*
X907993D01*
Y-313227D01*
X907566D01*
Y-313654D01*
X907139D01*
Y-313227D01*
X906712D01*
Y-313654D01*
X906285D01*
Y-313227D01*
X905858D01*
Y-313654D01*
X905431D01*
Y-313227D01*
X905004D01*
Y-313654D01*
X904577D01*
Y-313227D01*
X904150D01*
Y-313654D01*
X903723D01*
Y-314935D01*
X904150D01*
Y-315363D01*
X903723D01*
Y-316644D01*
X904150D01*
Y-317071D01*
X903723D01*
Y-318352D01*
X904150D01*
Y-318778D01*
X903723D01*
Y-320059D01*
X904150D01*
Y-320486D01*
X903723D01*
Y-320914D01*
X904150D01*
Y-321340D01*
X904577D01*
Y-320914D01*
X905004D01*
Y-321340D01*
X905431D01*
Y-320914D01*
X905858D01*
Y-322622D01*
X905004D01*
Y-323049D01*
X904577D01*
Y-322622D01*
X904150D01*
Y-323049D01*
X903723D01*
Y-323476D01*
X904150D01*
Y-323903D01*
X903723D01*
Y-324330D01*
X907566D01*
Y-324757D01*
X907993D01*
Y-324330D01*
X908420D01*
Y-324757D01*
X908847D01*
Y-324330D01*
X909274D01*
Y-324757D01*
X909701D01*
Y-324330D01*
X910128D01*
Y-324757D01*
X910555D01*
Y-325184D01*
X913544D01*
Y-325611D01*
X914825D01*
Y-326038D01*
X916106D01*
Y-326465D01*
X916533D01*
Y-326892D01*
X916960D01*
Y-326465D01*
X917387D01*
Y-326892D01*
X918668D01*
Y-327319D01*
X919095D01*
Y-327746D01*
X920376D01*
Y-328173D01*
X920803D01*
Y-328600D01*
X922085D01*
Y-329027D01*
X922511D01*
Y-329454D01*
X922939D01*
Y-329881D01*
X922511D01*
Y-329454D01*
X922085D01*
Y-329027D01*
X921657D01*
Y-329454D01*
X921231D01*
Y-329027D01*
X920803D01*
Y-328600D01*
X919522D01*
Y-328173D01*
X918241D01*
Y-327746D01*
X916960D01*
Y-327319D01*
X915679D01*
Y-326892D01*
X914398D01*
Y-326465D01*
X913971D01*
Y-326892D01*
X913544D01*
Y-326465D01*
X912263D01*
Y-326038D01*
X911836D01*
Y-326465D01*
X911409D01*
Y-326038D01*
X910128D01*
Y-325611D01*
X909701D01*
Y-326038D01*
X909274D01*
Y-325611D01*
X908847D01*
Y-326038D01*
X908420D01*
Y-325611D01*
X907993D01*
Y-326038D01*
X907566D01*
Y-325611D01*
X901161D01*
Y-326038D01*
X900734D01*
Y-325611D01*
X900307D01*
Y-326038D01*
X899880D01*
Y-325611D01*
X899453D01*
Y-326038D01*
X898172D01*
Y-326465D01*
X897745D01*
Y-326038D01*
X897318D01*
Y-326465D01*
X895183D01*
Y-326892D01*
X894756D01*
Y-327319D01*
X894329D01*
Y-326892D01*
X893902D01*
Y-327319D01*
X892621D01*
Y-327746D01*
X891340D01*
Y-328173D01*
X890059D01*
Y-328600D01*
X889632D01*
Y-329027D01*
X888351D01*
Y-329454D01*
X887924D01*
Y-329881D01*
X887497D01*
Y-329454D01*
X887070D01*
Y-329881D01*
X886643D01*
Y-330308D01*
X886216D01*
Y-330735D01*
X884935D01*
Y-331162D01*
X884508D01*
Y-331589D01*
X883227D01*
Y-332016D01*
X882800D01*
Y-332443D01*
X882373D01*
Y-332870D01*
X881946D01*
Y-333297D01*
X881092D01*
Y-333724D01*
X880665D01*
Y-334151D01*
X879811D01*
Y-334578D01*
X879384D01*
Y-333724D01*
X880238D01*
Y-333297D01*
X880665D01*
Y-332870D01*
X881092D01*
Y-332443D01*
X881519D01*
Y-332016D01*
X881946D01*
Y-331589D01*
X882373D01*
Y-331162D01*
X882800D01*
Y-330735D01*
X882373D01*
Y-330308D01*
X882800D01*
Y-329881D01*
X882373D01*
Y-329454D01*
X882800D01*
Y-329027D01*
X882373D01*
Y-328600D01*
X882800D01*
Y-328173D01*
X882373D01*
Y-327746D01*
X882800D01*
Y-327319D01*
X882373D01*
Y-326892D01*
X882800D01*
Y-326465D01*
X882373D01*
Y-326038D01*
X882800D01*
Y-325611D01*
X882373D01*
Y-325184D01*
X882800D01*
Y-324757D01*
X882373D01*
Y-324330D01*
X882800D01*
Y-323903D01*
X882373D01*
Y-323476D01*
X882800D01*
Y-323049D01*
X882373D01*
Y-322622D01*
X882800D01*
Y-322195D01*
X882373D01*
Y-321767D01*
X882800D01*
Y-321340D01*
X882373D01*
Y-320914D01*
X882800D01*
Y-320486D01*
X882373D01*
Y-320059D01*
X882800D01*
Y-319633D01*
X882373D01*
Y-319205D01*
X882800D01*
Y-318778D01*
X882373D01*
Y-318352D01*
X882800D01*
Y-317924D01*
X882373D01*
Y-317497D01*
X882800D01*
Y-317071D01*
X882373D01*
Y-316644D01*
X882800D01*
Y-316216D01*
X882373D01*
Y-315790D01*
X882800D01*
Y-315363D01*
X882373D01*
Y-314935D01*
X882800D01*
Y-314509D01*
X882373D01*
Y-314082D01*
X882800D01*
Y-313654D01*
X882373D01*
Y-313227D01*
X882800D01*
Y-312800D01*
X882373D01*
Y-312373D01*
X882800D01*
Y-311946D01*
X882373D01*
Y-311519D01*
X882800D01*
Y-311946D01*
X883227D01*
Y-311519D01*
X883654D01*
Y-311946D01*
X884081D01*
Y-311519D01*
X884508D01*
Y-311946D01*
X884935D01*
Y-311519D01*
X885362D01*
Y-311946D01*
X885789D01*
Y-311519D01*
X886216D01*
Y-311946D01*
X886643D01*
Y-311519D01*
X887070D01*
Y-311946D01*
X887497D01*
Y-311519D01*
X887924D01*
Y-311946D01*
X888351D01*
Y-312373D01*
X888778D01*
Y-312800D01*
X889205D01*
Y-313227D01*
X889632D01*
Y-313654D01*
X890059D01*
Y-318352D01*
X890486D01*
Y-318778D01*
X890059D01*
Y-321767D01*
X889632D01*
Y-323049D01*
X889205D01*
Y-323476D01*
X888778D01*
Y-323903D01*
X887497D01*
Y-324330D01*
X887070D01*
Y-323903D01*
X886643D01*
Y-324330D01*
X886216D01*
Y-323903D01*
X885789D01*
Y-323476D01*
X886216D01*
Y-323049D01*
X885789D01*
Y-322622D01*
X887070D01*
Y-322195D01*
X887497D01*
Y-321767D01*
X887924D01*
Y-321340D01*
X888351D01*
Y-314082D01*
X887924D01*
Y-313654D01*
X886643D01*
Y-313227D01*
X886216D01*
Y-313654D01*
X885789D01*
Y-313227D01*
X885362D01*
Y-313654D01*
X884935D01*
Y-313227D01*
X884508D01*
Y-313654D01*
X884081D01*
Y-314082D01*
X884508D01*
Y-314509D01*
X884081D01*
Y-314935D01*
X884508D01*
Y-315363D01*
X884081D01*
Y-315790D01*
X884508D01*
Y-316216D01*
X884081D01*
Y-316644D01*
X884508D01*
Y-317071D01*
X884081D01*
Y-317497D01*
X884508D01*
Y-317924D01*
X884081D01*
Y-318352D01*
X884508D01*
Y-318778D01*
X884081D01*
Y-319205D01*
X884508D01*
Y-319633D01*
X884081D01*
Y-320059D01*
X884508D01*
Y-320486D01*
X884081D01*
Y-320914D01*
X884508D01*
Y-321340D01*
X884081D01*
Y-321767D01*
X884508D01*
Y-322195D01*
X884081D01*
Y-322622D01*
X884508D01*
Y-323049D01*
X884081D01*
Y-323476D01*
X884508D01*
Y-323903D01*
X884081D01*
Y-324330D01*
X884508D01*
Y-324757D01*
X884081D01*
Y-325184D01*
X884508D01*
Y-325611D01*
X884081D01*
Y-326038D01*
X884508D01*
Y-326465D01*
X884081D01*
Y-326892D01*
X884508D01*
Y-327319D01*
X884081D01*
Y-327746D01*
X884508D01*
Y-328173D01*
X884081D01*
Y-328600D01*
X884508D01*
Y-329027D01*
X884081D01*
Y-329454D01*
X884508D01*
Y-329881D01*
X884935D01*
Y-329454D01*
X886216D01*
Y-329027D01*
X886643D01*
Y-328600D01*
X887924D01*
Y-328173D01*
X888351D01*
Y-327746D01*
X888778D01*
Y-327319D01*
X889205D01*
Y-327746D01*
X889632D01*
Y-327319D01*
X890059D01*
Y-326892D01*
X891340D01*
Y-326465D01*
X891767D01*
Y-326038D01*
X892194D01*
Y-325611D01*
X891767D01*
Y-325184D01*
X892194D01*
Y-324757D01*
X892621D01*
Y-324330D01*
X893048D01*
Y-324757D01*
X893475D01*
Y-325184D01*
X893902D01*
Y-325611D01*
X894329D01*
Y-325184D01*
X894756D01*
Y-325611D01*
X895183D01*
Y-325184D01*
X896464D01*
Y-324757D01*
X896891D01*
Y-325184D01*
X897318D01*
Y-324757D01*
X897745D01*
Y-324330D01*
X897318D01*
Y-323903D01*
X896891D01*
Y-323476D01*
X896464D01*
Y-323049D01*
X896037D01*
Y-322622D01*
X896464D01*
Y-321767D01*
X898172D01*
Y-322195D01*
X898599D01*
Y-322622D01*
X899026D01*
Y-323476D01*
X899453D01*
Y-324330D01*
X902015D01*
Y-323476D01*
X902442D01*
Y-323049D01*
X902015D01*
Y-321767D01*
X902442D01*
Y-321340D01*
X902015D01*
Y-320059D01*
X902442D01*
Y-319633D01*
X902015D01*
Y-318352D01*
X902442D01*
Y-317924D01*
X902015D01*
Y-316644D01*
X902442D01*
Y-316216D01*
X902015D01*
Y-314935D01*
X902442D01*
Y-314509D01*
X902015D01*
Y-313227D01*
X902442D01*
Y-312800D01*
X902015D01*
Y-311519D01*
X902442D01*
Y-311946D01*
X902869D01*
Y-311519D01*
X903296D01*
Y-311946D01*
X903723D01*
Y-311519D01*
X904150D01*
Y-311946D01*
X904577D01*
Y-311519D01*
X905004D01*
Y-311946D01*
X905431D01*
Y-311519D01*
X905858D01*
Y-311946D01*
X906285D01*
Y-311519D01*
X906712D01*
Y-311946D01*
X907139D01*
Y-311519D01*
X907566D01*
Y-311946D01*
D02*
G37*
G36*
X898172D02*
X898599D01*
Y-312373D01*
X899026D01*
Y-312800D01*
X899453D01*
Y-313227D01*
X899880D01*
Y-313654D01*
X899453D01*
Y-314082D01*
X899880D01*
Y-314509D01*
X899453D01*
Y-314935D01*
X899880D01*
Y-315363D01*
X899453D01*
Y-315790D01*
X899880D01*
Y-316216D01*
X899453D01*
Y-316644D01*
X899880D01*
Y-317071D01*
X899453D01*
Y-317497D01*
X899880D01*
Y-317924D01*
X899453D01*
Y-318352D01*
X899880D01*
Y-318778D01*
X898599D01*
Y-318352D01*
X898172D01*
Y-317924D01*
X897745D01*
Y-317497D01*
X898172D01*
Y-317071D01*
X897745D01*
Y-316644D01*
X898172D01*
Y-316216D01*
X897745D01*
Y-315790D01*
X898172D01*
Y-315363D01*
X897745D01*
Y-314935D01*
X898172D01*
Y-314509D01*
X897745D01*
Y-314082D01*
X898172D01*
Y-313654D01*
X896891D01*
Y-313227D01*
X896464D01*
Y-312800D01*
X896037D01*
Y-313227D01*
X895610D01*
Y-312800D01*
X895183D01*
Y-313227D01*
X894756D01*
Y-313654D01*
X894329D01*
Y-314082D01*
X893902D01*
Y-314509D01*
X893475D01*
Y-314935D01*
X893902D01*
Y-316216D01*
X893475D01*
Y-316644D01*
X893902D01*
Y-317924D01*
X893475D01*
Y-318352D01*
X893902D01*
Y-318778D01*
X894329D01*
Y-319205D01*
X894756D01*
Y-319633D01*
X895183D01*
Y-320059D01*
X895610D01*
Y-320914D01*
X895183D01*
Y-321340D01*
X893475D01*
Y-320914D01*
X893048D01*
Y-320486D01*
X892621D01*
Y-319205D01*
X892194D01*
Y-318778D01*
X891767D01*
Y-318352D01*
X892194D01*
Y-317924D01*
X891767D01*
Y-317497D01*
X892194D01*
Y-317071D01*
X891767D01*
Y-316644D01*
X892194D01*
Y-316216D01*
X891767D01*
Y-315790D01*
X892194D01*
Y-315363D01*
X891767D01*
Y-314935D01*
X892194D01*
Y-314509D01*
X891767D01*
Y-314082D01*
X892194D01*
Y-313227D01*
X892621D01*
Y-312373D01*
X893048D01*
Y-311946D01*
X893475D01*
Y-311519D01*
X893902D01*
Y-311946D01*
X894329D01*
Y-311519D01*
X898172D01*
Y-311946D01*
D02*
G37*
G36*
X880238D02*
X880665D01*
Y-312373D01*
X880238D01*
Y-332443D01*
X879811D01*
Y-332016D01*
X879384D01*
Y-332443D01*
X878957D01*
Y-332016D01*
X878530D01*
Y-327319D01*
X878103D01*
Y-326892D01*
X878530D01*
Y-320486D01*
X878103D01*
Y-320059D01*
X878530D01*
Y-313654D01*
X878103D01*
Y-313227D01*
X878530D01*
Y-311946D01*
X878957D01*
Y-311519D01*
X879384D01*
Y-311946D01*
X879811D01*
Y-311519D01*
X880238D01*
Y-311946D01*
D02*
G37*
G36*
X871698D02*
X872125D01*
Y-312373D01*
X872552D01*
Y-312800D01*
X872125D01*
Y-313227D01*
X872552D01*
Y-313654D01*
X872125D01*
Y-314082D01*
X872552D01*
Y-314509D01*
X872125D01*
Y-314935D01*
X872552D01*
Y-315363D01*
X872125D01*
Y-315790D01*
X872552D01*
Y-316216D01*
X872125D01*
Y-316644D01*
X872552D01*
Y-317071D01*
X872125D01*
Y-317497D01*
X872552D01*
Y-317924D01*
X872125D01*
Y-318352D01*
X872552D01*
Y-318778D01*
X872125D01*
Y-319205D01*
X872552D01*
Y-319633D01*
X872125D01*
Y-320059D01*
X872552D01*
Y-320486D01*
X872125D01*
Y-320914D01*
X872552D01*
Y-321340D01*
X872125D01*
Y-321767D01*
X872552D01*
Y-322195D01*
X872125D01*
Y-322622D01*
X872552D01*
Y-323049D01*
X872125D01*
Y-323476D01*
X872552D01*
Y-323903D01*
X872125D01*
Y-324330D01*
X872552D01*
Y-324757D01*
X872125D01*
Y-325184D01*
X872552D01*
Y-325611D01*
X872125D01*
Y-326038D01*
X872552D01*
Y-326465D01*
X872125D01*
Y-326892D01*
X872552D01*
Y-327319D01*
X872125D01*
Y-327746D01*
X872552D01*
Y-328173D01*
X872125D01*
Y-328600D01*
X872552D01*
Y-329027D01*
X872125D01*
Y-329454D01*
X872552D01*
Y-329881D01*
X872125D01*
Y-330308D01*
X872552D01*
Y-330735D01*
X872979D01*
Y-330308D01*
X874260D01*
Y-330735D01*
X874687D01*
Y-330308D01*
X875968D01*
Y-330735D01*
X876395D01*
Y-331162D01*
X876822D01*
Y-331589D01*
X876395D01*
Y-332016D01*
X876822D01*
Y-332443D01*
X876395D01*
Y-332016D01*
X875968D01*
Y-332443D01*
X875541D01*
Y-332016D01*
X875114D01*
Y-332443D01*
X874687D01*
Y-332016D01*
X874260D01*
Y-332443D01*
X873833D01*
Y-332016D01*
X873406D01*
Y-332443D01*
X872979D01*
Y-332016D01*
X872552D01*
Y-332443D01*
X872125D01*
Y-332016D01*
X871698D01*
Y-332443D01*
X871271D01*
Y-332016D01*
X870844D01*
Y-331589D01*
X870417D01*
Y-331162D01*
X870844D01*
Y-330735D01*
X870417D01*
Y-330308D01*
X870844D01*
Y-329881D01*
X870417D01*
Y-329454D01*
X870844D01*
Y-329027D01*
X870417D01*
Y-328600D01*
X870844D01*
Y-328173D01*
X870417D01*
Y-327746D01*
X870844D01*
Y-327319D01*
X870417D01*
Y-326892D01*
X870844D01*
Y-326465D01*
X870417D01*
Y-326038D01*
X870844D01*
Y-325611D01*
X870417D01*
Y-325184D01*
X870844D01*
Y-324757D01*
X870417D01*
Y-324330D01*
X870844D01*
Y-323903D01*
X870417D01*
Y-323476D01*
X870844D01*
Y-323049D01*
X870417D01*
Y-322622D01*
X870844D01*
Y-322195D01*
X870417D01*
Y-321767D01*
X870844D01*
Y-321340D01*
X870417D01*
Y-320914D01*
X870844D01*
Y-320486D01*
X870417D01*
Y-320059D01*
X870844D01*
Y-319633D01*
X870417D01*
Y-319205D01*
X870844D01*
Y-318778D01*
X870417D01*
Y-318352D01*
X870844D01*
Y-317924D01*
X870417D01*
Y-317497D01*
X870844D01*
Y-317071D01*
X870417D01*
Y-316644D01*
X870844D01*
Y-316216D01*
X870417D01*
Y-315790D01*
X870844D01*
Y-315363D01*
X870417D01*
Y-314935D01*
X870844D01*
Y-314509D01*
X870417D01*
Y-314082D01*
X870844D01*
Y-313654D01*
X870417D01*
Y-313227D01*
X870844D01*
Y-312800D01*
X870417D01*
Y-312373D01*
X870844D01*
Y-311946D01*
X870417D01*
Y-311519D01*
X870844D01*
Y-311946D01*
X871271D01*
Y-311519D01*
X871698D01*
Y-311946D01*
D02*
G37*
G36*
X866574D02*
X867001D01*
Y-312373D01*
X867855D01*
Y-313227D01*
X868282D01*
Y-315363D01*
X868709D01*
Y-315790D01*
X868282D01*
Y-317071D01*
X868709D01*
Y-317497D01*
X868282D01*
Y-318778D01*
X866574D01*
Y-317924D01*
X867001D01*
Y-317497D01*
X866574D01*
Y-316216D01*
X867001D01*
Y-315790D01*
X866574D01*
Y-313654D01*
X866147D01*
Y-313227D01*
X864866D01*
Y-312800D01*
X864439D01*
Y-313227D01*
X863158D01*
Y-313654D01*
X862731D01*
Y-314082D01*
X862304D01*
Y-318778D01*
X861877D01*
Y-319205D01*
X862304D01*
Y-320486D01*
X861877D01*
Y-320914D01*
X860596D01*
Y-319633D01*
X860169D01*
Y-319205D01*
X860596D01*
Y-317924D01*
X860169D01*
Y-317497D01*
X860596D01*
Y-316216D01*
X860169D01*
Y-315790D01*
X860596D01*
Y-313654D01*
X861023D01*
Y-313227D01*
X861450D01*
Y-312800D01*
X861023D01*
Y-312373D01*
X861450D01*
Y-311946D01*
X861877D01*
Y-312373D01*
X862304D01*
Y-311946D01*
X862731D01*
Y-311519D01*
X866574D01*
Y-311946D01*
D02*
G37*
G36*
X923792Y-329881D02*
X924220D01*
Y-330308D01*
X924646D01*
Y-330735D01*
X924220D01*
Y-330308D01*
X923792D01*
Y-329881D01*
X923365D01*
Y-329454D01*
X923792D01*
Y-329881D01*
D02*
G37*
G36*
X861877Y-322622D02*
X862304D01*
Y-325611D01*
X861877D01*
Y-326038D01*
X862304D01*
Y-329881D01*
X862731D01*
Y-330308D01*
X863158D01*
Y-330735D01*
X863585D01*
Y-330308D01*
X864012D01*
Y-330735D01*
X864439D01*
Y-330308D01*
X864866D01*
Y-330735D01*
X865293D01*
Y-330308D01*
X866574D01*
Y-328173D01*
X867001D01*
Y-327746D01*
X866574D01*
Y-326465D01*
X867001D01*
Y-326038D01*
X866574D01*
Y-324757D01*
X867001D01*
Y-324330D01*
X868282D01*
Y-324757D01*
X868709D01*
Y-325184D01*
X868282D01*
Y-325611D01*
X868709D01*
Y-326038D01*
X868282D01*
Y-327319D01*
X868709D01*
Y-327746D01*
X868282D01*
Y-329027D01*
X868709D01*
Y-329454D01*
X868282D01*
Y-330735D01*
X867855D01*
Y-331162D01*
X867428D01*
Y-331589D01*
X867001D01*
Y-332016D01*
X866574D01*
Y-332443D01*
X866147D01*
Y-332016D01*
X865720D01*
Y-332443D01*
X864439D01*
Y-332016D01*
X864012D01*
Y-332443D01*
X863585D01*
Y-332016D01*
X863158D01*
Y-332443D01*
X862731D01*
Y-332016D01*
X862304D01*
Y-331589D01*
X861450D01*
Y-330735D01*
X861023D01*
Y-330308D01*
X860596D01*
Y-328173D01*
X860169D01*
Y-327746D01*
X860596D01*
Y-326465D01*
X860169D01*
Y-326038D01*
X860596D01*
Y-325611D01*
X860169D01*
Y-325184D01*
X860596D01*
Y-324757D01*
X860169D01*
Y-324330D01*
X860596D01*
Y-323049D01*
X860169D01*
Y-322622D01*
X861450D01*
Y-322195D01*
X861877D01*
Y-322622D01*
D02*
G37*
G36*
X879384Y-335005D02*
X878957D01*
Y-335432D01*
X878530D01*
Y-334578D01*
X879384D01*
Y-335005D01*
D02*
G37*
G36*
X878530Y-335859D02*
X878103D01*
Y-336286D01*
X877676D01*
Y-336713D01*
X877249D01*
Y-337140D01*
X876822D01*
Y-336286D01*
X877249D01*
Y-335859D01*
X877676D01*
Y-335432D01*
X878530D01*
Y-335859D01*
D02*
G37*
%LPC*%
G36*
X801669Y-313654D02*
X801242D01*
Y-314082D01*
X800815D01*
Y-313654D01*
X798680D01*
Y-314082D01*
X798253D01*
Y-314509D01*
Y-314935D01*
Y-315363D01*
Y-315790D01*
Y-316216D01*
Y-316644D01*
Y-317071D01*
Y-317497D01*
Y-317924D01*
Y-318352D01*
Y-318778D01*
Y-319205D01*
Y-319633D01*
Y-320059D01*
Y-320486D01*
Y-320914D01*
Y-321340D01*
Y-321767D01*
Y-322195D01*
X798680D01*
Y-322622D01*
X802523D01*
Y-322195D01*
X802950D01*
Y-321767D01*
X803377D01*
Y-321340D01*
X803804D01*
Y-320914D01*
X804231D01*
Y-320486D01*
X803804D01*
Y-320059D01*
X804231D01*
Y-319633D01*
Y-319205D01*
Y-318778D01*
Y-318352D01*
Y-317924D01*
Y-317497D01*
Y-317071D01*
X803804D01*
Y-316644D01*
X804231D01*
Y-316216D01*
X803804D01*
Y-315790D01*
X803377D01*
Y-315363D01*
X802950D01*
Y-314935D01*
X803377D01*
Y-314509D01*
X802096D01*
Y-314082D01*
X801669D01*
Y-313654D01*
D02*
G37*
%LPD*%
D10*
X859346Y-206051D02*
X858902Y-205128D01*
X857903Y-204900D01*
X857101Y-205539D01*
Y-206564D01*
X857903Y-207203D01*
X858902Y-206975D01*
X859346Y-206051D01*
X776847Y-206301D02*
X776402Y-205378D01*
X775402Y-205150D01*
X774601Y-205789D01*
Y-206814D01*
X775402Y-207453D01*
X776402Y-207225D01*
X776847Y-206301D01*
X946346Y-206051D02*
X945902Y-205128D01*
X944903Y-204900D01*
X944101Y-205539D01*
Y-206564D01*
X944903Y-207203D01*
X945902Y-206975D01*
X946346Y-206051D01*
X279472Y-162591D02*
X279028Y-161667D01*
X278028Y-161439D01*
X277227Y-162078D01*
Y-163103D01*
X278028Y-163742D01*
X279028Y-163514D01*
X279472Y-162591D01*
X318972Y-261776D02*
X318528Y-260852D01*
X317529Y-260624D01*
X316727Y-261263D01*
Y-262288D01*
X317529Y-262927D01*
X318528Y-262699D01*
X318972Y-261776D01*
X194472Y-162276D02*
X194028Y-161352D01*
X193028Y-161124D01*
X192227Y-161763D01*
Y-162788D01*
X193028Y-163427D01*
X194028Y-163199D01*
X194472Y-162276D01*
X355972Y-159276D02*
X355528Y-158352D01*
X354528Y-158124D01*
X353727Y-158763D01*
Y-159788D01*
X354528Y-160427D01*
X355528Y-160199D01*
X355972Y-159276D01*
X243472Y-258276D02*
X243028Y-257352D01*
X242028Y-257124D01*
X241227Y-257763D01*
Y-258788D01*
X242028Y-259427D01*
X243028Y-259199D01*
X243472Y-258276D01*
D11*
X867122Y-211347D02*
X866384Y-210920D01*
Y-211773D01*
X867122Y-211347D01*
X784622Y-211596D02*
X783884Y-211170D01*
Y-212023D01*
X784622Y-211596D01*
X954122Y-211347D02*
X953384Y-210920D01*
Y-211773D01*
X954122Y-211347D01*
X630516Y-113154D02*
X629778Y-112727D01*
Y-113580D01*
X630516Y-113154D01*
X747437Y-109413D02*
X746699Y-108987D01*
Y-109840D01*
X747437Y-109413D01*
X858858Y-104154D02*
X858120Y-103727D01*
Y-104580D01*
X858858Y-104154D01*
X273646Y-172630D02*
X272907Y-172204D01*
Y-173056D01*
X273646Y-172630D01*
X313146Y-271815D02*
X312407Y-271389D01*
Y-272241D01*
X313146Y-271815D01*
X401150Y-214154D02*
X400411Y-213727D01*
Y-214580D01*
X401150Y-214154D01*
X579571Y-284279D02*
X578833Y-283853D01*
Y-284706D01*
X579571Y-284279D01*
X674571Y-201413D02*
X673833Y-200987D01*
Y-201840D01*
X674571Y-201413D01*
X670992Y-279913D02*
X670254Y-279487D01*
Y-280340D01*
X670992Y-279913D01*
X118319Y-131500D02*
X117581Y-131074D01*
Y-131926D01*
X118319Y-131500D01*
X430937Y-110913D02*
X430199Y-110487D01*
Y-111340D01*
X430937Y-110913D01*
X537937D02*
X537199Y-110487D01*
Y-111340D01*
X537937Y-110913D01*
X188646Y-172315D02*
X187908Y-171889D01*
Y-172741D01*
X188646Y-172315D01*
X350146Y-169315D02*
X349408Y-168889D01*
Y-169741D01*
X350146Y-169315D01*
X237646Y-268315D02*
X236908Y-267889D01*
Y-268741D01*
X237646Y-268315D01*
X480571Y-215413D02*
X479833Y-214987D01*
Y-215840D01*
X480571Y-215413D01*
X477571Y-290913D02*
X476833Y-290487D01*
Y-291340D01*
X477571Y-290913D01*
X401071Y-292413D02*
X400333Y-291987D01*
Y-292840D01*
X401071Y-292413D01*
X586571Y-197413D02*
X585833Y-196987D01*
Y-197840D01*
X586571Y-197413D01*
D12*
X448570Y-141642D02*
D03*
X468070Y-115312D02*
D03*
X767070Y-107945D02*
D03*
X786315D02*
D03*
X899736Y-104686D02*
D03*
X251204Y-146260D02*
D03*
X327328Y-141398D02*
D03*
X216581Y-239229D02*
D03*
X291704Y-242729D02*
D03*
X132430Y-129976D02*
D03*
X117382Y-116914D02*
D03*
X598008Y-184493D02*
D03*
X563204Y-234079D02*
D03*
X682142Y-267493D02*
D03*
X646704Y-315945D02*
D03*
X653190Y-278055D02*
D03*
X246690Y-49555D02*
D03*
X748742Y-213693D02*
D03*
X814708Y-196193D02*
D03*
X926542Y-210893D02*
D03*
X554570Y-135945D02*
D03*
X448570Y-115312D02*
D03*
X554570Y-111445D02*
D03*
X572070D02*
D03*
X649070Y-136945D02*
D03*
Y-112445D02*
D03*
X767070Y-133445D02*
D03*
X668815Y-112445D02*
D03*
X880492Y-130186D02*
D03*
Y-104686D02*
D03*
X166704Y-144445D02*
D03*
X78704Y-251945D02*
D03*
Y-227445D02*
D03*
X130704Y-232945D02*
D03*
X176642Y-198993D02*
D03*
X428689Y-213555D02*
D03*
X505190Y-216555D02*
D03*
X506189Y-292055D02*
D03*
X430190Y-293055D02*
D03*
X591642Y-270493D02*
D03*
X571189Y-196555D02*
D03*
X559704Y-313445D02*
D03*
X566189Y-275555D02*
D03*
X686142Y-187993D02*
D03*
X655204Y-236445D02*
D03*
X662189Y-199555D02*
D03*
X63690Y-49555D02*
D03*
X100289D02*
D03*
X136890D02*
D03*
X173489D02*
D03*
X210089D02*
D03*
D13*
X981600Y-229200D02*
X1001600D01*
X981600Y-29200D02*
X1001600D01*
Y-229200D02*
Y-29200D01*
X981600Y-229200D02*
Y-29200D01*
X849898Y-171012D02*
X862102D01*
X849898Y-209988D02*
X862102D01*
X849898D02*
Y-171012D01*
X862102Y-209988D02*
Y-171012D01*
X779602Y-210238D02*
Y-171262D01*
X767398Y-210238D02*
Y-171262D01*
Y-210238D02*
X779602D01*
X767398Y-171262D02*
X779602D01*
X949102Y-209988D02*
Y-171012D01*
X936898Y-209988D02*
Y-171012D01*
Y-209988D02*
X949102D01*
X936898Y-171012D02*
X949102D01*
X480319Y-310433D02*
X482681D01*
X480319Y-314567D02*
X482681D01*
X449602Y-136378D02*
Y-134016D01*
X454130Y-136378D02*
Y-134016D01*
X469102Y-110047D02*
Y-107685D01*
X473630Y-110047D02*
Y-107685D01*
X768102Y-102681D02*
Y-100319D01*
X772630Y-102681D02*
Y-100319D01*
X787347Y-102681D02*
Y-100319D01*
X791875Y-102681D02*
Y-100319D01*
X900768Y-99421D02*
Y-97059D01*
X905296Y-99421D02*
Y-97059D01*
X252236Y-140996D02*
Y-138634D01*
X256764Y-140996D02*
Y-138634D01*
X328360Y-136134D02*
Y-133772D01*
X332887Y-136134D02*
Y-133772D01*
X217613Y-233965D02*
Y-231602D01*
X222140Y-233965D02*
Y-231602D01*
X292736Y-237465D02*
Y-235102D01*
X297264Y-237465D02*
Y-235102D01*
X131004Y-137602D02*
Y-135240D01*
X126476Y-137602D02*
Y-135240D01*
X109559Y-115685D02*
X111921D01*
X109559Y-111157D02*
X111921D01*
X590185Y-183264D02*
X592547D01*
X590185Y-178736D02*
X592547D01*
X564236Y-228815D02*
Y-226453D01*
X568764Y-228815D02*
Y-226453D01*
X674319Y-266264D02*
X676681D01*
X674319Y-261736D02*
X676681D01*
X647736Y-310681D02*
Y-308319D01*
X652264Y-310681D02*
Y-308319D01*
X651764Y-285681D02*
Y-283319D01*
X647236Y-285681D02*
Y-283319D01*
X245264Y-57181D02*
Y-54819D01*
X240736Y-57181D02*
Y-54819D01*
X134000Y-174500D02*
X138000D01*
X80000D02*
X84000D01*
X124000Y-184500D02*
Y-164500D01*
X134000Y-184500D02*
Y-164500D01*
X84000Y-184500D02*
X134000D01*
X84000D02*
Y-164500D01*
X134000D01*
X636520Y-127327D02*
Y-113154D01*
X633370Y-127327D02*
Y-113154D01*
Y-127327D02*
X636520D01*
X633370Y-113154D02*
X636520D01*
X753441Y-123587D02*
Y-109413D01*
X750291Y-123587D02*
Y-109413D01*
Y-123587D02*
X753441D01*
X750291Y-109413D02*
X753441D01*
X864862Y-118327D02*
Y-104154D01*
X861713Y-118327D02*
Y-104154D01*
Y-118327D02*
X864862D01*
X861713Y-104154D02*
X864862D01*
X274354Y-166528D02*
X293646D01*
X274354Y-143102D02*
X293646D01*
X274354Y-166528D02*
Y-143102D01*
X293646Y-166528D02*
Y-143102D01*
X313854Y-265713D02*
X333146D01*
X313854Y-242287D02*
X333146D01*
X313854Y-265713D02*
Y-242287D01*
X333146Y-265713D02*
Y-242287D01*
X407154Y-228327D02*
Y-214154D01*
X404004Y-228327D02*
Y-214154D01*
Y-228327D02*
X407154D01*
X404004Y-214154D02*
X407154D01*
X585575Y-298453D02*
Y-284280D01*
X582425Y-298453D02*
Y-284280D01*
Y-298453D02*
X585575D01*
X582425Y-284280D02*
X585575D01*
X680575Y-215587D02*
Y-201413D01*
X677425Y-215587D02*
Y-201413D01*
Y-215587D02*
X680575D01*
X677425Y-201413D02*
X680575D01*
X676996Y-294087D02*
Y-279913D01*
X673846Y-294087D02*
Y-279913D01*
Y-294087D02*
X676996D01*
X673846Y-279913D02*
X676996D01*
X486457Y-103457D02*
X493543D01*
X486457Y-115543D02*
Y-103457D01*
Y-115543D02*
X493543D01*
Y-103457D01*
X687823Y-98457D02*
X694909D01*
X687823Y-110543D02*
Y-98457D01*
Y-110543D02*
X694909D01*
Y-98457D01*
X805118Y-95859D02*
X812205D01*
X805118Y-107945D02*
Y-95859D01*
Y-107945D02*
X812205D01*
Y-95859D01*
X918539Y-92599D02*
X925626D01*
X918539Y-104686D02*
Y-92599D01*
Y-104686D02*
X925626D01*
Y-92599D01*
X330500Y-322000D02*
Y-302000D01*
Y-322000D02*
X340500D01*
Y-302000D01*
X330500D02*
X340500D01*
X240736Y-29181D02*
Y-26819D01*
X244870Y-29181D02*
Y-26819D01*
X473188Y-136181D02*
Y-133819D01*
X469055Y-136181D02*
Y-133819D01*
X591004Y-130484D02*
Y-128122D01*
X595138Y-130484D02*
Y-128122D01*
X577188Y-130484D02*
Y-128122D01*
X573055Y-130484D02*
Y-128122D01*
X806299Y-127984D02*
Y-125622D01*
X810433Y-127984D02*
Y-125622D01*
X791433Y-127984D02*
Y-125622D01*
X787299Y-127984D02*
Y-125622D01*
X726799Y-117681D02*
Y-115319D01*
X730933Y-117681D02*
Y-115319D01*
X919720Y-124724D02*
Y-122362D01*
X923854Y-124724D02*
Y-122362D01*
X904854Y-124724D02*
Y-122362D01*
X900720Y-124724D02*
Y-122362D01*
X497685Y-275567D02*
X500047D01*
X497685Y-271433D02*
X500047D01*
X459567Y-273047D02*
Y-270685D01*
X455433Y-273047D02*
Y-270685D01*
X404319Y-310933D02*
X406681D01*
X404319Y-315067D02*
X406681D01*
X103654Y-139571D02*
X107984D01*
X103654D02*
Y-134846D01*
X113496Y-139571D02*
X117827D01*
Y-134846D01*
X300794Y-265866D02*
Y-263504D01*
X296660Y-265866D02*
Y-263504D01*
X307567Y-151256D02*
Y-148894D01*
X303433Y-151256D02*
Y-148894D01*
X350067Y-244626D02*
Y-242264D01*
X345933Y-244626D02*
Y-242264D01*
X217433Y-128181D02*
Y-125819D01*
X221567Y-128181D02*
Y-125819D01*
X152067Y-291681D02*
Y-289319D01*
X147933Y-291681D02*
Y-289319D01*
X248500Y-98815D02*
X288500D01*
Y-108815D02*
Y-98815D01*
Y-108815D02*
X293500D01*
Y-118815D02*
Y-108815D01*
X248500Y-118815D02*
X293500D01*
X248500D02*
Y-98815D01*
X213500Y-195000D02*
X253500D01*
Y-205000D02*
Y-195000D01*
Y-205000D02*
X258500D01*
Y-215000D02*
Y-205000D01*
X213500Y-215000D02*
X258500D01*
X213500D02*
Y-195000D01*
X290000Y-196185D02*
X330000D01*
Y-206185D02*
Y-196185D01*
Y-206185D02*
X335000D01*
Y-216185D02*
Y-206185D01*
X290000Y-216185D02*
X335000D01*
X290000D02*
Y-196185D01*
X784000Y-249500D02*
X886500D01*
X776500D02*
X784000D01*
X776500Y-259500D02*
Y-249500D01*
Y-259500D02*
X886500D01*
Y-249500D01*
X776500Y-309500D02*
Y-299500D01*
X826500D01*
X776500Y-309500D02*
X826500D01*
Y-299500D01*
X740919Y-212464D02*
X743281D01*
X740919Y-207936D02*
X743281D01*
X806885Y-194964D02*
X809247D01*
X806885Y-190436D02*
X809247D01*
X918719Y-205136D02*
X921081D01*
X918719Y-209664D02*
X921081D01*
X555602Y-130681D02*
Y-128319D01*
X560130Y-130681D02*
Y-128319D01*
X449602Y-110047D02*
Y-107685D01*
X454130Y-110047D02*
Y-107685D01*
X555602Y-106181D02*
Y-103819D01*
X560130Y-106181D02*
Y-103819D01*
X577630Y-106181D02*
Y-103819D01*
X573102Y-106181D02*
Y-103819D01*
X650102Y-131681D02*
Y-129319D01*
X654630Y-131681D02*
Y-129319D01*
X650102Y-107181D02*
Y-104819D01*
X654630Y-107181D02*
Y-104819D01*
X768102Y-128181D02*
Y-125819D01*
X772630Y-128181D02*
Y-125819D01*
X669847Y-107181D02*
Y-104819D01*
X674375Y-107181D02*
Y-104819D01*
X881524Y-124921D02*
Y-122559D01*
X886051Y-124921D02*
Y-122559D01*
X881524Y-99421D02*
Y-97059D01*
X886051Y-99421D02*
Y-97059D01*
X172264Y-139181D02*
Y-136819D01*
X167736Y-139181D02*
Y-136819D01*
X79736Y-246681D02*
Y-244319D01*
X84264Y-246681D02*
Y-244319D01*
X79736Y-222181D02*
Y-219819D01*
X84264Y-222181D02*
Y-219819D01*
X131736Y-227681D02*
Y-225319D01*
X136264Y-227681D02*
Y-225319D01*
X168819Y-197764D02*
X171181D01*
X168819Y-193236D02*
X171181D01*
X427264Y-221181D02*
Y-218819D01*
X422736Y-221181D02*
Y-218819D01*
X503764Y-224181D02*
Y-221819D01*
X499236Y-224181D02*
Y-221819D01*
X504764Y-299681D02*
Y-297319D01*
X500236Y-299681D02*
Y-297319D01*
X428764Y-300681D02*
Y-298319D01*
X424236Y-300681D02*
Y-298319D01*
X583819Y-269264D02*
X586181D01*
X583819Y-264736D02*
X586181D01*
X569764Y-204181D02*
Y-201819D01*
X565236Y-204181D02*
Y-201819D01*
X560736Y-308181D02*
Y-305819D01*
X565264Y-308181D02*
Y-305819D01*
X564764Y-283181D02*
Y-280819D01*
X560236Y-283181D02*
Y-280819D01*
X678319Y-186764D02*
X680681D01*
X678319Y-182236D02*
X680681D01*
X656236Y-231181D02*
Y-228819D01*
X660764Y-231181D02*
Y-228819D01*
Y-207181D02*
Y-204819D01*
X656236Y-207181D02*
Y-204819D01*
X57736Y-57181D02*
Y-54819D01*
X62264Y-57181D02*
Y-54819D01*
X98864Y-57181D02*
Y-54819D01*
X94336Y-57181D02*
Y-54819D01*
X135464Y-57181D02*
Y-54819D01*
X130936Y-57181D02*
Y-54819D01*
X172064Y-57181D02*
Y-54819D01*
X167536Y-57181D02*
Y-54819D01*
X208664Y-57181D02*
Y-54819D01*
X204136Y-57181D02*
Y-54819D01*
X436941Y-125087D02*
Y-110913D01*
X433791Y-125087D02*
Y-110913D01*
Y-125087D02*
X436941D01*
X433791Y-110913D02*
X436941D01*
X543941Y-125087D02*
Y-110913D01*
X540791Y-125087D02*
Y-110913D01*
Y-125087D02*
X543941D01*
X540791Y-110913D02*
X543941D01*
X189354Y-166213D02*
X208646D01*
X189354Y-142787D02*
X208646D01*
X189354Y-166213D02*
Y-142787D01*
X208646Y-166213D02*
Y-142787D01*
X350854Y-163213D02*
X370146D01*
X350854Y-139787D02*
X370146D01*
X350854Y-163213D02*
Y-139787D01*
X370146Y-163213D02*
Y-139787D01*
X238354Y-262213D02*
X257646D01*
X238354Y-238787D02*
X257646D01*
X238354Y-262213D02*
Y-238787D01*
X257646Y-262213D02*
Y-238787D01*
X483425Y-215413D02*
X486575D01*
X483425Y-229587D02*
X486575D01*
X483425D02*
Y-215413D01*
X486575Y-229587D02*
Y-215413D01*
X483575Y-305087D02*
Y-290913D01*
X480425Y-305087D02*
Y-290913D01*
Y-305087D02*
X483575D01*
X480425Y-290913D02*
X483575D01*
X407075Y-306587D02*
Y-292413D01*
X403925Y-306587D02*
Y-292413D01*
Y-306587D02*
X407075D01*
X403925Y-292413D02*
X407075D01*
X592575Y-211587D02*
Y-197413D01*
X589425Y-211587D02*
Y-197413D01*
Y-211587D02*
X592575D01*
X589425Y-197413D02*
X592575D01*
X234957Y-311457D02*
X242043D01*
X234957Y-323543D02*
Y-311457D01*
Y-323543D02*
X242043D01*
Y-311457D01*
X262457Y-310957D02*
X269543D01*
X262457Y-323043D02*
Y-310957D01*
Y-323043D02*
X269543D01*
Y-310957D01*
X363909Y-315543D02*
Y-303457D01*
X356823Y-315543D02*
X363909D01*
X356823D02*
Y-303457D01*
X363909D01*
X589823Y-99457D02*
X596909D01*
X589823Y-111543D02*
Y-99457D01*
Y-111543D02*
X596909D01*
Y-99457D01*
X736019Y-178167D02*
X738381D01*
X736019Y-174033D02*
X738381D01*
X814819Y-175067D02*
X817181D01*
X814819Y-170933D02*
X817181D01*
X902219Y-176567D02*
X904581D01*
X902219Y-172433D02*
X904581D01*
X84067Y-72047D02*
Y-69685D01*
X79933Y-72047D02*
Y-69685D01*
X120567Y-72047D02*
Y-69685D01*
X116433Y-72047D02*
Y-69685D01*
X158567Y-72047D02*
Y-69685D01*
X154433Y-72047D02*
Y-69685D01*
X58433Y-29181D02*
Y-26819D01*
X62567Y-29181D02*
Y-26819D01*
X94336Y-29181D02*
Y-26819D01*
X98470Y-29181D02*
Y-26819D01*
X130936Y-29181D02*
Y-26819D01*
X135070Y-29181D02*
Y-26819D01*
X195567Y-72047D02*
Y-69685D01*
X191433Y-72047D02*
Y-69685D01*
X232567Y-72047D02*
Y-69685D01*
X228433Y-72047D02*
Y-69685D01*
X264933Y-72047D02*
Y-69685D01*
X269067Y-72047D02*
Y-69685D01*
X167536Y-29181D02*
Y-26819D01*
X171670Y-29181D02*
Y-26819D01*
X204136Y-29181D02*
Y-26819D01*
X208270Y-29181D02*
Y-26819D01*
X487799Y-136181D02*
Y-133819D01*
X491933Y-136181D02*
Y-133819D01*
X433685Y-142567D02*
X436047D01*
X433685Y-138433D02*
X436047D01*
X541819Y-143067D02*
X544181D01*
X541819Y-138933D02*
X544181D01*
X410433Y-119181D02*
Y-116819D01*
X414567Y-119181D02*
Y-116819D01*
X517433Y-118681D02*
Y-116319D01*
X521567Y-118681D02*
Y-116319D01*
X693067Y-130681D02*
Y-128319D01*
X688933Y-130681D02*
Y-128319D01*
X674067Y-131181D02*
Y-128819D01*
X669933Y-131181D02*
Y-128819D01*
X634319Y-146567D02*
X636681D01*
X634319Y-142433D02*
X636681D01*
X612299Y-121181D02*
Y-118819D01*
X616433Y-121181D02*
Y-118819D01*
X751819Y-140567D02*
X754181D01*
X751819Y-136433D02*
X754181D01*
X863319Y-137567D02*
X865681D01*
X863319Y-133433D02*
X865681D01*
X838933Y-111181D02*
Y-108819D01*
X843067Y-111181D02*
Y-108819D01*
X112933Y-291681D02*
Y-289319D01*
X117067Y-291681D02*
Y-289319D01*
X186567Y-291681D02*
Y-289319D01*
X182433Y-291681D02*
Y-289319D01*
X78933Y-291681D02*
Y-289319D01*
X83067Y-291681D02*
Y-289319D01*
X418319Y-199567D02*
X420681D01*
X418319Y-195433D02*
X420681D01*
X495819Y-201067D02*
X498181D01*
X495819Y-196933D02*
X498181D01*
X382567Y-193681D02*
Y-191319D01*
X378433Y-193681D02*
Y-191319D01*
X378933Y-222681D02*
Y-220319D01*
X383067Y-222681D02*
Y-220319D01*
X463567Y-195681D02*
Y-193319D01*
X459433Y-195681D02*
Y-193319D01*
Y-222681D02*
Y-220319D01*
X463567Y-222681D02*
Y-220319D01*
X397819Y-199567D02*
X400181D01*
X397819Y-195433D02*
X400181D01*
X475819Y-201067D02*
X478181D01*
X475819Y-196933D02*
X478181D01*
X405319Y-247567D02*
X407681D01*
X405319Y-243433D02*
X407681D01*
X484819Y-249567D02*
X487181D01*
X484819Y-245433D02*
X487181D01*
X425319Y-279067D02*
X427681D01*
X425319Y-274933D02*
X427681D01*
X455433Y-299681D02*
Y-297319D01*
X459567Y-299681D02*
Y-297319D01*
X386067Y-276681D02*
Y-274319D01*
X381933Y-276681D02*
Y-274319D01*
Y-300681D02*
Y-298319D01*
X386067Y-300681D02*
Y-298319D01*
X475319Y-276067D02*
X477681D01*
X475319Y-271933D02*
X477681D01*
X404819Y-279067D02*
X407181D01*
X404819Y-274933D02*
X407181D01*
X548067Y-228681D02*
Y-226319D01*
X543933Y-228681D02*
Y-226319D01*
X548067Y-204181D02*
Y-201819D01*
X543933Y-204181D02*
Y-201819D01*
X542567Y-307681D02*
Y-305319D01*
X538433Y-307681D02*
Y-305319D01*
X542567Y-283181D02*
Y-280819D01*
X538433Y-283181D02*
Y-280819D01*
X638567Y-230681D02*
Y-228319D01*
X634433Y-230681D02*
Y-228319D01*
X638567Y-207181D02*
Y-204819D01*
X634433Y-207181D02*
Y-204819D01*
X632567Y-311181D02*
Y-308819D01*
X628433Y-311181D02*
Y-308819D01*
X633067Y-286181D02*
Y-283819D01*
X628933Y-286181D02*
Y-283819D01*
X172067Y-167181D02*
Y-164819D01*
X167933Y-167181D02*
Y-164819D01*
X255067Y-168996D02*
Y-166634D01*
X250933Y-168996D02*
Y-166634D01*
X332067Y-161441D02*
Y-159079D01*
X327933Y-161441D02*
Y-159079D01*
X222567Y-262681D02*
Y-260319D01*
X218433Y-262681D02*
Y-260319D01*
X221567Y-157421D02*
Y-155059D01*
X217433Y-157421D02*
Y-155059D01*
X385067Y-146681D02*
Y-144319D01*
X380933Y-146681D02*
Y-144319D01*
X273067Y-244181D02*
Y-241819D01*
X268933Y-244181D02*
Y-241819D01*
X167000Y-97500D02*
X207000D01*
Y-107500D02*
Y-97500D01*
Y-107500D02*
X212000D01*
Y-117500D02*
Y-107500D01*
X167000Y-117500D02*
X212000D01*
X167000D02*
Y-97500D01*
X322000Y-97000D02*
X362000D01*
Y-107000D02*
Y-97000D01*
Y-107000D02*
X367000D01*
Y-117000D02*
Y-107000D01*
X322000Y-117000D02*
X367000D01*
X322000D02*
Y-97000D01*
D14*
X449985Y-61504D02*
Y-50000D01*
Y-34500D02*
Y-14260D01*
X422331Y-61504D02*
Y-50000D01*
Y-34500D02*
Y-14339D01*
X416425Y-14260D02*
X449985D01*
X416425Y-61504D02*
X422331D01*
X416425D02*
X449985D01*
X416425D02*
Y-14260D01*
X522059Y-61504D02*
Y-50000D01*
Y-34500D02*
Y-14260D01*
X467020Y-61504D02*
Y-50000D01*
Y-34500D02*
Y-14339D01*
X461114Y-14260D02*
X521441D01*
X461114Y-61504D02*
X467020D01*
X461114D02*
X521941D01*
X461114D02*
Y-14260D01*
X592122Y-61504D02*
Y-50000D01*
Y-34500D02*
Y-14260D01*
X537083Y-61504D02*
Y-50000D01*
Y-34500D02*
Y-14339D01*
X531177Y-14260D02*
X591504D01*
X531177Y-61504D02*
X537083D01*
X531177D02*
X592004D01*
X531177D02*
Y-14260D01*
X662185Y-61504D02*
Y-50000D01*
Y-34500D02*
Y-14260D01*
X607146Y-61504D02*
Y-50000D01*
Y-34500D02*
Y-14339D01*
X601240Y-14260D02*
X661567D01*
X601240Y-61504D02*
X607146D01*
X601240D02*
X662067D01*
X601240D02*
Y-14260D01*
X732248Y-61504D02*
Y-50000D01*
Y-34500D02*
Y-14260D01*
X677209Y-61504D02*
Y-50000D01*
Y-34500D02*
Y-14339D01*
X671303Y-14260D02*
X731630D01*
X671303Y-61504D02*
X677209D01*
X671303D02*
X732130D01*
X671303D02*
Y-14260D01*
X359488Y-62004D02*
Y-14760D01*
Y-62004D02*
X393048D01*
X359488D02*
X365394D01*
X359488Y-14760D02*
X393048D01*
X365394Y-35000D02*
Y-14839D01*
Y-62004D02*
Y-50500D01*
X393048Y-35000D02*
Y-14760D01*
Y-62004D02*
Y-50500D01*
X802311Y-61504D02*
Y-50000D01*
Y-34500D02*
Y-14260D01*
X747272Y-61504D02*
Y-50000D01*
Y-34500D02*
Y-14339D01*
X741366Y-14260D02*
X801693D01*
X741366Y-61504D02*
X747272D01*
X741366D02*
X802193D01*
X741366D02*
Y-14260D01*
X99742Y-252638D02*
X117458D01*
X99742Y-207362D02*
X117458D01*
Y-252638D02*
Y-207362D01*
X99742Y-252638D02*
Y-207362D01*
X50000Y-179130D02*
X61504D01*
X14260D02*
X34500D01*
X50000Y-234169D02*
X61504D01*
X14339D02*
X34500D01*
X14260Y-240075D02*
Y-179748D01*
X61504Y-240075D02*
Y-234169D01*
Y-240075D02*
Y-179248D01*
X14260Y-240075D02*
X61504D01*
X882870Y-61504D02*
Y-50000D01*
Y-34500D02*
Y-14260D01*
X827831Y-61504D02*
Y-50000D01*
Y-34500D02*
Y-14339D01*
X821925Y-14260D02*
X882252D01*
X821925Y-61504D02*
X827831D01*
X821925D02*
X882752D01*
X821925D02*
Y-14260D01*
X901425Y-61504D02*
Y-14260D01*
Y-61504D02*
X962252D01*
X901425D02*
X907331D01*
X901425Y-14260D02*
X961752D01*
X907331Y-34500D02*
Y-14339D01*
Y-61504D02*
Y-50000D01*
X962370Y-34500D02*
Y-14260D01*
Y-61504D02*
Y-50000D01*
X69242Y-59638D02*
X86958D01*
X69242Y-14362D02*
X86958D01*
Y-59638D02*
Y-14362D01*
X69242Y-59638D02*
Y-14362D01*
X105942Y-59638D02*
X123658D01*
X105942Y-14362D02*
X123658D01*
Y-59638D02*
Y-14362D01*
X105942Y-59638D02*
Y-14362D01*
X142642Y-59638D02*
X160358D01*
X142642Y-14362D02*
X160358D01*
Y-59638D02*
Y-14362D01*
X142642Y-59638D02*
Y-14362D01*
X179342Y-59638D02*
X197058D01*
X179342Y-14362D02*
X197058D01*
Y-59638D02*
Y-14362D01*
X179342Y-59638D02*
Y-14362D01*
X216042Y-59638D02*
X233758D01*
X216042Y-14362D02*
X233758D01*
Y-59638D02*
Y-14362D01*
X216042Y-59638D02*
Y-14362D01*
X252742Y-59638D02*
X270458D01*
X252742Y-14362D02*
X270458D01*
Y-59638D02*
Y-14362D01*
X252742Y-59638D02*
Y-14362D01*
X51500Y-99130D02*
X63004D01*
X15760D02*
X36000D01*
X51500Y-154169D02*
X63004D01*
X15839D02*
X36000D01*
X15760Y-160075D02*
Y-99748D01*
X63004Y-160075D02*
Y-154169D01*
Y-160075D02*
Y-99248D01*
X15760Y-160075D02*
X63004D01*
X350370Y-62004D02*
Y-50500D01*
Y-35000D02*
Y-14760D01*
X295331Y-62004D02*
Y-50500D01*
Y-35000D02*
Y-14839D01*
X289425Y-14760D02*
X349752D01*
X289425Y-62004D02*
X295331D01*
X289425D02*
X350252D01*
X289425D02*
Y-14760D01*
X926500Y-284910D02*
Y-280911D01*
X928499Y-278912D01*
X930499Y-280911D01*
Y-284910D01*
Y-281911D01*
X926500D01*
X932498Y-284910D02*
Y-278912D01*
X935497D01*
X936497Y-279912D01*
Y-281911D01*
X935497Y-282911D01*
X932498D01*
X934497D02*
X936497Y-284910D01*
X942495Y-279912D02*
X941495Y-278912D01*
X939496D01*
X938496Y-279912D01*
Y-283910D01*
X939496Y-284910D01*
X941495D01*
X942495Y-283910D01*
X944494Y-284910D02*
Y-280911D01*
X946494Y-278912D01*
X948493Y-280911D01*
Y-284910D01*
Y-281911D01*
X944494D01*
X956490Y-284910D02*
X958490D01*
X957490D01*
Y-278912D01*
X956490Y-279912D01*
X961489Y-284910D02*
Y-283910D01*
X962488D01*
Y-284910D01*
X961489D01*
X966487Y-279912D02*
X967487Y-278912D01*
X969486D01*
X970486Y-279912D01*
Y-283910D01*
X969486Y-284910D01*
X967487D01*
X966487Y-283910D01*
Y-279912D01*
X926500Y-294508D02*
Y-288510D01*
X929499D01*
X930499Y-289509D01*
Y-291509D01*
X929499Y-292508D01*
X926500D01*
X928499D02*
X930499Y-294508D01*
X932498D02*
X934497D01*
X933498D01*
Y-290509D01*
X932498D01*
X941495D02*
X938496D01*
X937496Y-291509D01*
Y-293508D01*
X938496Y-294508D01*
X941495D01*
X946494D02*
X944494D01*
X943495Y-293508D01*
Y-291509D01*
X944494Y-290509D01*
X946494D01*
X947493Y-291509D01*
Y-292508D01*
X943495D01*
X930499Y-298107D02*
X926500D01*
Y-304105D01*
X930499D01*
X926500Y-301106D02*
X928499D01*
X936497Y-300107D02*
X933498D01*
X932498Y-301106D01*
Y-303106D01*
X933498Y-304105D01*
X936497D01*
X938496D02*
X940495D01*
X939496D01*
Y-298107D01*
X938496D01*
X943495Y-304105D02*
X945494D01*
X944494D01*
Y-300107D01*
X943495D01*
X948493Y-306105D02*
Y-300107D01*
X951492D01*
X952492Y-301106D01*
Y-303106D01*
X951492Y-304105D01*
X948493D01*
X954491D02*
X957490D01*
X958490Y-303106D01*
X957490Y-302106D01*
X955491D01*
X954491Y-301106D01*
X955491Y-300107D01*
X958490D01*
X963488Y-304105D02*
X961489D01*
X960489Y-303106D01*
Y-301106D01*
X961489Y-300107D01*
X963488D01*
X964488Y-301106D01*
Y-302106D01*
X960489D01*
X926500Y-315702D02*
X928499D01*
X927500D01*
Y-309704D01*
X926500Y-310704D01*
X931498D02*
X932498Y-309704D01*
X934497D01*
X935497Y-310704D01*
Y-314703D01*
X934497Y-315702D01*
X932498D01*
X931498Y-314703D01*
Y-310704D01*
X937496Y-315702D02*
X941495Y-311704D01*
X943495Y-310704D02*
X944494Y-309704D01*
X946494D01*
X947493Y-310704D01*
Y-311704D01*
X946494Y-312703D01*
X945494D01*
X946494D01*
X947493Y-313703D01*
Y-314703D01*
X946494Y-315702D01*
X944494D01*
X943495Y-314703D01*
X949493Y-315702D02*
X953491Y-311704D01*
X959489Y-315702D02*
X955491D01*
X959489Y-311704D01*
Y-310704D01*
X958490Y-309704D01*
X956490D01*
X955491Y-310704D01*
X961489D02*
X962488Y-309704D01*
X964488D01*
X965487Y-310704D01*
Y-314703D01*
X964488Y-315702D01*
X962488D01*
X961489Y-314703D01*
Y-310704D01*
X971485Y-315702D02*
X967487D01*
X971485Y-311704D01*
Y-310704D01*
X970486Y-309704D01*
X968486D01*
X967487Y-310704D01*
X973485D02*
X974485Y-309704D01*
X976484D01*
X977483Y-310704D01*
Y-314703D01*
X976484Y-315702D01*
X974485D01*
X973485Y-314703D01*
Y-310704D01*
X926500Y-325300D02*
Y-321301D01*
X928499Y-319302D01*
X930499Y-321301D01*
Y-325300D01*
Y-322301D01*
X926500D01*
X932498Y-319302D02*
Y-325300D01*
X935497D01*
X936497Y-324300D01*
Y-323301D01*
X935497Y-322301D01*
X932498D01*
X935497D01*
X936497Y-321301D01*
Y-320302D01*
X935497Y-319302D01*
X932498D01*
X942495Y-320302D02*
X941495Y-319302D01*
X939496D01*
X938496Y-320302D01*
Y-324300D01*
X939496Y-325300D01*
X941495D01*
X942495Y-324300D01*
X954491Y-325300D02*
X953491Y-324300D01*
X952492Y-325300D01*
X951492D01*
X950492Y-324300D01*
Y-323301D01*
X951492Y-322301D01*
X950492Y-321301D01*
Y-320302D01*
X951492Y-319302D01*
X952492D01*
X953491Y-320302D01*
Y-321301D01*
X952492Y-322301D01*
X953491Y-323301D01*
Y-324300D01*
X954491Y-322301D02*
X953491Y-323301D01*
X951492Y-322301D02*
X952492D01*
X962488Y-325300D02*
Y-321301D01*
X964488Y-319302D01*
X966487Y-321301D01*
Y-325300D01*
Y-322301D01*
X962488D01*
X972485Y-320302D02*
X971485Y-319302D01*
X969486D01*
X968486Y-320302D01*
Y-321301D01*
X969486Y-322301D01*
X971485D01*
X972485Y-323301D01*
Y-324300D01*
X971485Y-325300D01*
X969486D01*
X968486Y-324300D01*
X978483Y-320302D02*
X977483Y-319302D01*
X975484D01*
X974485Y-320302D01*
Y-324300D01*
X975484Y-325300D01*
X977483D01*
X978483Y-324300D01*
X837800Y-168300D02*
Y-164301D01*
X839799Y-162302D01*
X841799Y-164301D01*
Y-168300D01*
Y-165301D01*
X837800D01*
X843798Y-162302D02*
Y-168300D01*
X846797D01*
X847797Y-167300D01*
Y-163302D01*
X846797Y-162302D01*
X843798D01*
X853795Y-163302D02*
X852795Y-162302D01*
X850796D01*
X849796Y-163302D01*
Y-167300D01*
X850796Y-168300D01*
X852795D01*
X853795Y-167300D01*
X859793Y-168300D02*
X855794D01*
X859793Y-164301D01*
Y-163302D01*
X858793Y-162302D01*
X856794D01*
X855794Y-163302D01*
X923100Y-168300D02*
Y-164301D01*
X925099Y-162302D01*
X927099Y-164301D01*
Y-168300D01*
Y-165301D01*
X923100D01*
X929098Y-162302D02*
Y-168300D01*
X932097D01*
X933097Y-167300D01*
Y-163302D01*
X932097Y-162302D01*
X929098D01*
X939095Y-163302D02*
X938095Y-162302D01*
X936096D01*
X935096Y-163302D01*
Y-167300D01*
X936096Y-168300D01*
X938095D01*
X939095Y-167300D01*
X941094Y-163302D02*
X942094Y-162302D01*
X944093D01*
X945093Y-163302D01*
Y-164301D01*
X944093Y-165301D01*
X943093D01*
X944093D01*
X945093Y-166301D01*
Y-167300D01*
X944093Y-168300D01*
X942094D01*
X941094Y-167300D01*
X1009300Y-29902D02*
X1013299Y-33900D01*
X1009300D02*
X1013299Y-29902D01*
X1009300Y-31901D02*
X1013299D01*
X1011299Y-33900D02*
Y-29902D01*
X754600Y-168900D02*
Y-164901D01*
X756599Y-162902D01*
X758599Y-164901D01*
Y-168900D01*
Y-165901D01*
X754600D01*
X760598Y-162902D02*
Y-168900D01*
X763597D01*
X764597Y-167900D01*
Y-163902D01*
X763597Y-162902D01*
X760598D01*
X770595Y-163902D02*
X769595Y-162902D01*
X767596D01*
X766596Y-163902D01*
Y-167900D01*
X767596Y-168900D01*
X769595D01*
X770595Y-167900D01*
X772594Y-168900D02*
X774593D01*
X773594D01*
Y-162902D01*
X772594Y-163902D01*
X777100Y-296100D02*
Y-290102D01*
X780099D01*
X781099Y-291102D01*
Y-293101D01*
X780099Y-294101D01*
X777100D01*
X784098Y-296100D02*
X786097D01*
X787097Y-295100D01*
Y-293101D01*
X786097Y-292101D01*
X784098D01*
X783098Y-293101D01*
Y-295100D01*
X784098Y-296100D01*
X789096Y-292101D02*
Y-295100D01*
X790096Y-296100D01*
X791095Y-295100D01*
X792095Y-296100D01*
X793095Y-295100D01*
Y-292101D01*
X798093Y-296100D02*
X796094D01*
X795094Y-295100D01*
Y-293101D01*
X796094Y-292101D01*
X798093D01*
X799093Y-293101D01*
Y-294101D01*
X795094D01*
X801092Y-292101D02*
Y-296100D01*
Y-294101D01*
X802092Y-293101D01*
X803092Y-292101D01*
X804091D01*
X813088Y-290102D02*
Y-296100D01*
Y-293101D01*
X817087D01*
Y-290102D01*
Y-296100D01*
X777100Y-246100D02*
Y-242101D01*
X779099Y-240102D01*
X781099Y-242101D01*
Y-246100D01*
Y-243101D01*
X777100D01*
X783098Y-240102D02*
Y-246100D01*
X786097D01*
X787097Y-245100D01*
Y-241102D01*
X786097Y-240102D01*
X783098D01*
X793095Y-241102D02*
X792095Y-240102D01*
X790096D01*
X789096Y-241102D01*
Y-245100D01*
X790096Y-246100D01*
X792095D01*
X793095Y-245100D01*
X801092Y-240102D02*
Y-246100D01*
Y-243101D01*
X805091D01*
Y-240102D01*
Y-246100D01*
X290600Y-192785D02*
Y-186787D01*
X293599D01*
X294599Y-187787D01*
Y-189786D01*
X293599Y-190786D01*
X290600D01*
X292599D02*
X294599Y-192785D01*
X296598Y-186787D02*
X300597D01*
Y-187787D01*
X296598Y-191785D01*
Y-192785D01*
X300597D01*
X306595Y-186787D02*
X302596D01*
Y-189786D01*
X304595Y-188786D01*
X305595D01*
X306595Y-189786D01*
Y-191785D01*
X305595Y-192785D01*
X303596D01*
X302596Y-191785D01*
X214100Y-191600D02*
Y-185602D01*
X217099D01*
X218099Y-186602D01*
Y-188601D01*
X217099Y-189601D01*
X214100D01*
X216099D02*
X218099Y-191600D01*
X220098Y-185602D02*
X224097D01*
Y-186602D01*
X220098Y-190600D01*
Y-191600D01*
X224097D01*
X229095D02*
Y-185602D01*
X226096Y-188601D01*
X230095D01*
X322600Y-93600D02*
Y-87602D01*
X325599D01*
X326599Y-88602D01*
Y-90601D01*
X325599Y-91601D01*
X322600D01*
X324599D02*
X326599Y-93600D01*
X328598Y-87602D02*
X332597D01*
Y-88602D01*
X328598Y-92600D01*
Y-93600D01*
X332597D01*
X334596Y-88602D02*
X335596Y-87602D01*
X337595D01*
X338595Y-88602D01*
Y-89601D01*
X337595Y-90601D01*
X336596D01*
X337595D01*
X338595Y-91601D01*
Y-92600D01*
X337595Y-93600D01*
X335596D01*
X334596Y-92600D01*
X249100Y-95415D02*
Y-89417D01*
X252099D01*
X253099Y-90417D01*
Y-92416D01*
X252099Y-93416D01*
X249100D01*
X251099D02*
X253099Y-95415D01*
X255098Y-89417D02*
X259097D01*
Y-90417D01*
X255098Y-94415D01*
Y-95415D01*
X259097D01*
X265095D02*
X261096D01*
X265095Y-91416D01*
Y-90417D01*
X264095Y-89417D01*
X262096D01*
X261096Y-90417D01*
X147400Y-280900D02*
Y-274902D01*
X150399D01*
X151399Y-275902D01*
Y-277901D01*
X150399Y-278901D01*
X147400D01*
X149399D02*
X151399Y-280900D01*
X153398Y-275902D02*
X154398Y-274902D01*
X156397D01*
X157397Y-275902D01*
Y-276901D01*
X156397Y-277901D01*
X155397D01*
X156397D01*
X157397Y-278901D01*
Y-279900D01*
X156397Y-280900D01*
X154398D01*
X153398Y-279900D01*
X159396D02*
X160396Y-280900D01*
X162395D01*
X163395Y-279900D01*
Y-275902D01*
X162395Y-274902D01*
X160396D01*
X159396Y-275902D01*
Y-276901D01*
X160396Y-277901D01*
X163395D01*
X18799Y-170602D02*
X17799Y-169602D01*
X15800D01*
X14800Y-170602D01*
Y-174600D01*
X15800Y-175600D01*
X17799D01*
X18799Y-174600D01*
Y-172601D01*
X16799D01*
X20798Y-175600D02*
Y-169602D01*
X24797Y-175600D01*
Y-169602D01*
X26796D02*
Y-175600D01*
X29795D01*
X30795Y-174600D01*
Y-170602D01*
X29795Y-169602D01*
X26796D01*
X289959Y-4302D02*
Y-10300D01*
X292958D01*
X293958Y-9300D01*
Y-5302D01*
X292958Y-4302D01*
X289959D01*
X295957Y-6301D02*
Y-10300D01*
Y-8301D01*
X296957Y-7301D01*
X297956Y-6301D01*
X298956D01*
X301955Y-10300D02*
X303955D01*
X302955D01*
Y-6301D01*
X301955D01*
X306954D02*
X308953Y-10300D01*
X310952Y-6301D01*
X315951Y-10300D02*
X313951D01*
X312952Y-9300D01*
Y-7301D01*
X313951Y-6301D01*
X315951D01*
X316950Y-7301D01*
Y-8301D01*
X312952D01*
X318950Y-6301D02*
Y-10300D01*
Y-8301D01*
X319949Y-7301D01*
X320949Y-6301D01*
X321949D01*
X324948Y-10300D02*
X327947D01*
X328946Y-9300D01*
X327947Y-8301D01*
X325947D01*
X324948Y-7301D01*
X325947Y-6301D01*
X328946D01*
X330946Y-11300D02*
X334945D01*
X336944Y-10300D02*
X338943D01*
X337944D01*
Y-4302D01*
X336944Y-5302D01*
X16300Y-95600D02*
Y-89602D01*
X19299D01*
X20299Y-90602D01*
Y-92601D01*
X19299Y-93601D01*
X16300D01*
X23298Y-95600D02*
X25297D01*
X26297Y-94600D01*
Y-92601D01*
X25297Y-91601D01*
X23298D01*
X22298Y-92601D01*
Y-94600D01*
X23298Y-95600D01*
X28296Y-91601D02*
Y-94600D01*
X29296Y-95600D01*
X30296Y-94600D01*
X31295Y-95600D01*
X32295Y-94600D01*
Y-91601D01*
X37293Y-95600D02*
X35294D01*
X34294Y-94600D01*
Y-92601D01*
X35294Y-91601D01*
X37293D01*
X38293Y-92601D01*
Y-93601D01*
X34294D01*
X40292Y-91601D02*
Y-95600D01*
Y-93601D01*
X41292Y-92601D01*
X42292Y-91601D01*
X43291D01*
X100250Y-197852D02*
Y-201851D01*
X102249Y-203850D01*
X104249Y-201851D01*
Y-197852D01*
X106248Y-203850D02*
Y-197852D01*
X109247D01*
X110247Y-198852D01*
Y-200851D01*
X109247Y-201851D01*
X106248D01*
X108247D02*
X110247Y-203850D01*
X112246D02*
X114245D01*
X113246D01*
Y-197852D01*
X112246Y-198852D01*
X741900Y-4802D02*
X745899D01*
X743899D01*
Y-10800D01*
X751897Y-5802D02*
X750897Y-4802D01*
X748898D01*
X747898Y-5802D01*
Y-9800D01*
X748898Y-10800D01*
X750897D01*
X751897Y-9800D01*
X753896Y-10800D02*
X755895D01*
X754896D01*
Y-4802D01*
X753896Y-5802D01*
X167600Y-94100D02*
Y-88102D01*
X170599D01*
X171599Y-89102D01*
Y-91101D01*
X170599Y-92101D01*
X167600D01*
X169599D02*
X171599Y-94100D01*
X173598Y-88102D02*
X177597D01*
Y-89102D01*
X173598Y-93100D01*
Y-94100D01*
X177597D01*
X179596D02*
X181596D01*
X180596D01*
Y-88102D01*
X179596Y-89102D01*
X216550Y-116150D02*
Y-110152D01*
X219549D01*
X220549Y-111152D01*
Y-113151D01*
X219549Y-114151D01*
X216550D01*
X218549D02*
X220549Y-116150D01*
X222548D02*
Y-110152D01*
X225547D01*
X226547Y-111152D01*
Y-113151D01*
X225547Y-114151D01*
X222548D01*
X228546Y-110152D02*
Y-116150D01*
X231545D01*
X232545Y-115150D01*
Y-111152D01*
X231545Y-110152D01*
X228546D01*
X234544Y-116150D02*
X236543D01*
X235544D01*
Y-110152D01*
X234544Y-111152D01*
X345038Y-232585D02*
Y-226587D01*
X348037D01*
X349037Y-227587D01*
Y-229586D01*
X348037Y-230586D01*
X345038D01*
X347037D02*
X349037Y-232585D01*
X355035Y-227587D02*
X354035Y-226587D01*
X352036D01*
X351036Y-227587D01*
Y-231585D01*
X352036Y-232585D01*
X354035D01*
X355035Y-231585D01*
Y-229586D01*
X353035D01*
X361033Y-226587D02*
X357034D01*
Y-229586D01*
X359033Y-228586D01*
X360033D01*
X361033Y-229586D01*
Y-231585D01*
X360033Y-232585D01*
X358034D01*
X357034Y-231585D01*
X268038Y-232100D02*
Y-226102D01*
X271037D01*
X272037Y-227102D01*
Y-229101D01*
X271037Y-230101D01*
X268038D01*
X270037D02*
X272037Y-232100D01*
X278035Y-227102D02*
X277035Y-226102D01*
X275036D01*
X274036Y-227102D01*
Y-231100D01*
X275036Y-232100D01*
X277035D01*
X278035Y-231100D01*
Y-229101D01*
X276035D01*
X283033Y-232100D02*
Y-226102D01*
X280034Y-229101D01*
X284033D01*
X380009Y-134600D02*
Y-128602D01*
X383008D01*
X384008Y-129602D01*
Y-131601D01*
X383008Y-132601D01*
X380009D01*
X382008D02*
X384008Y-134600D01*
X390006Y-129602D02*
X389006Y-128602D01*
X387007D01*
X386007Y-129602D01*
Y-133600D01*
X387007Y-134600D01*
X389006D01*
X390006Y-133600D01*
Y-131601D01*
X388006D01*
X392005Y-129602D02*
X393005Y-128602D01*
X395004D01*
X396004Y-129602D01*
Y-130601D01*
X395004Y-131601D01*
X394005D01*
X395004D01*
X396004Y-132601D01*
Y-133600D01*
X395004Y-134600D01*
X393005D01*
X392005Y-133600D01*
X302500Y-139215D02*
Y-133217D01*
X305499D01*
X306499Y-134217D01*
Y-136216D01*
X305499Y-137216D01*
X302500D01*
X304499D02*
X306499Y-139215D01*
X312497Y-134217D02*
X311497Y-133217D01*
X309498D01*
X308498Y-134217D01*
Y-138215D01*
X309498Y-139215D01*
X311497D01*
X312497Y-138215D01*
Y-136216D01*
X310497D01*
X318495Y-139215D02*
X314496D01*
X318495Y-135216D01*
Y-134217D01*
X317495Y-133217D01*
X315496D01*
X314496Y-134217D01*
X216500Y-145340D02*
Y-139342D01*
X219499D01*
X220499Y-140342D01*
Y-142341D01*
X219499Y-143341D01*
X216500D01*
X218499D02*
X220499Y-145340D01*
X226497Y-140342D02*
X225497Y-139342D01*
X223498D01*
X222498Y-140342D01*
Y-144340D01*
X223498Y-145340D01*
X225497D01*
X226497Y-144340D01*
Y-142341D01*
X224497D01*
X228496Y-145340D02*
X230496D01*
X229496D01*
Y-139342D01*
X228496Y-140342D01*
X295727Y-253785D02*
Y-247787D01*
X298726D01*
X299726Y-248787D01*
Y-250786D01*
X298726Y-251786D01*
X295727D01*
X297726D02*
X299726Y-253785D01*
X305724Y-247787D02*
X301725D01*
Y-250786D01*
X303724D01*
X301725D01*
Y-253785D01*
X311722Y-247787D02*
X307723D01*
Y-250786D01*
X309722Y-249786D01*
X310722D01*
X311722Y-250786D01*
Y-252785D01*
X310722Y-253785D01*
X308723D01*
X307723Y-252785D01*
X217500Y-250600D02*
Y-244602D01*
X220499D01*
X221499Y-245602D01*
Y-247601D01*
X220499Y-248601D01*
X217500D01*
X219499D02*
X221499Y-250600D01*
X227497Y-244602D02*
X223498D01*
Y-247601D01*
X225497D01*
X223498D01*
Y-250600D01*
X232495D02*
Y-244602D01*
X229496Y-247601D01*
X233495D01*
X327000Y-149400D02*
Y-143402D01*
X329999D01*
X330999Y-144402D01*
Y-146401D01*
X329999Y-147401D01*
X327000D01*
X328999D02*
X330999Y-149400D01*
X336997Y-143402D02*
X332998D01*
Y-146401D01*
X334997D01*
X332998D01*
Y-149400D01*
X338996Y-144402D02*
X339996Y-143402D01*
X341995D01*
X342995Y-144402D01*
Y-145401D01*
X341995Y-146401D01*
X340996D01*
X341995D01*
X342995Y-147401D01*
Y-148400D01*
X341995Y-149400D01*
X339996D01*
X338996Y-148400D01*
X250000Y-156915D02*
Y-150917D01*
X252999D01*
X253999Y-151917D01*
Y-153916D01*
X252999Y-154916D01*
X250000D01*
X251999D02*
X253999Y-156915D01*
X259997Y-150917D02*
X255998D01*
Y-153916D01*
X257997D01*
X255998D01*
Y-156915D01*
X265995D02*
X261996D01*
X265995Y-152916D01*
Y-151917D01*
X264995Y-150917D01*
X262996D01*
X261996Y-151917D01*
X167000Y-155100D02*
Y-149102D01*
X169999D01*
X170999Y-150102D01*
Y-152101D01*
X169999Y-153101D01*
X167000D01*
X168999D02*
X170999Y-155100D01*
X176997Y-149102D02*
X172998D01*
Y-152101D01*
X174997D01*
X172998D01*
Y-155100D01*
X178996D02*
X180996D01*
X179996D01*
Y-149102D01*
X178996Y-150102D01*
X359963Y-4302D02*
Y-10300D01*
X362962D01*
X363962Y-9300D01*
Y-5302D01*
X362962Y-4302D01*
X359963D01*
X365961Y-6301D02*
Y-10300D01*
Y-8301D01*
X366961Y-7301D01*
X367960Y-6301D01*
X368960D01*
X371959Y-10300D02*
X373958D01*
X372959D01*
Y-6301D01*
X371959D01*
X376958D02*
X378957Y-10300D01*
X380956Y-6301D01*
X385955Y-10300D02*
X383955D01*
X382956Y-9300D01*
Y-7301D01*
X383955Y-6301D01*
X385955D01*
X386954Y-7301D01*
Y-8301D01*
X382956D01*
X388954Y-6301D02*
Y-10300D01*
Y-8301D01*
X389953Y-7301D01*
X390953Y-6301D01*
X391953D01*
X394952Y-10300D02*
X397951D01*
X398950Y-9300D01*
X397951Y-8301D01*
X395951D01*
X394952Y-7301D01*
X395951Y-6301D01*
X398950D01*
X400950Y-11300D02*
X404948D01*
X410947Y-10300D02*
X406948D01*
X410947Y-6301D01*
Y-5302D01*
X409947Y-4302D01*
X407947D01*
X406948Y-5302D01*
X103540Y-119723D02*
Y-123722D01*
X105540Y-125721D01*
X107539Y-123722D01*
Y-119723D01*
X109538Y-125721D02*
Y-119723D01*
X112537D01*
X113537Y-120723D01*
Y-122722D01*
X112537Y-123722D01*
X109538D01*
X111538D02*
X113537Y-125721D01*
X115536Y-120723D02*
X116536Y-119723D01*
X118535D01*
X119535Y-120723D01*
Y-121723D01*
X118535Y-122722D01*
X117536D01*
X118535D01*
X119535Y-123722D01*
Y-124722D01*
X118535Y-125721D01*
X116536D01*
X115536Y-124722D01*
X144200Y-196902D02*
Y-200901D01*
X146199Y-202900D01*
X148199Y-200901D01*
Y-196902D01*
X150198Y-202900D02*
Y-196902D01*
X153197D01*
X154197Y-197902D01*
Y-199901D01*
X153197Y-200901D01*
X150198D01*
X152197D02*
X154197Y-202900D01*
X160195D02*
X156196D01*
X160195Y-198901D01*
Y-197902D01*
X159195Y-196902D01*
X157196D01*
X156196Y-197902D01*
X628400Y-275400D02*
Y-269402D01*
X631399D01*
X632399Y-270402D01*
Y-272401D01*
X631399Y-273401D01*
X628400D01*
X630399D02*
X632399Y-275400D01*
X638397Y-269402D02*
X636397Y-270402D01*
X634398Y-272401D01*
Y-274400D01*
X635398Y-275400D01*
X637397D01*
X638397Y-274400D01*
Y-273401D01*
X637397Y-272401D01*
X634398D01*
X640396Y-274400D02*
X641396Y-275400D01*
X643395D01*
X644395Y-274400D01*
Y-270402D01*
X643395Y-269402D01*
X641396D01*
X640396Y-270402D01*
Y-271401D01*
X641396Y-272401D01*
X644395D01*
X627900Y-300400D02*
Y-294402D01*
X630899D01*
X631899Y-295402D01*
Y-297401D01*
X630899Y-298401D01*
X627900D01*
X629899D02*
X631899Y-300400D01*
X637897Y-294402D02*
X635897Y-295402D01*
X633898Y-297401D01*
Y-299400D01*
X634898Y-300400D01*
X636897D01*
X637897Y-299400D01*
Y-298401D01*
X636897Y-297401D01*
X633898D01*
X639896Y-295402D02*
X640896Y-294402D01*
X642895D01*
X643895Y-295402D01*
Y-296401D01*
X642895Y-297401D01*
X643895Y-298401D01*
Y-299400D01*
X642895Y-300400D01*
X640896D01*
X639896Y-299400D01*
Y-298401D01*
X640896Y-297401D01*
X639896Y-296401D01*
Y-295402D01*
X640896Y-297401D02*
X642895D01*
X633900Y-196400D02*
Y-190402D01*
X636899D01*
X637899Y-191402D01*
Y-193401D01*
X636899Y-194401D01*
X633900D01*
X635899D02*
X637899Y-196400D01*
X643897Y-190402D02*
X641897Y-191402D01*
X639898Y-193401D01*
Y-195400D01*
X640898Y-196400D01*
X642897D01*
X643897Y-195400D01*
Y-194401D01*
X642897Y-193401D01*
X639898D01*
X645896Y-190402D02*
X649895D01*
Y-191402D01*
X645896Y-195400D01*
Y-196400D01*
X633900Y-219900D02*
Y-213902D01*
X636899D01*
X637899Y-214902D01*
Y-216901D01*
X636899Y-217901D01*
X633900D01*
X635899D02*
X637899Y-219900D01*
X643897Y-213902D02*
X641897Y-214902D01*
X639898Y-216901D01*
Y-218900D01*
X640898Y-219900D01*
X642897D01*
X643897Y-218900D01*
Y-217901D01*
X642897Y-216901D01*
X639898D01*
X649895Y-213902D02*
X647895Y-214902D01*
X645896Y-216901D01*
Y-218900D01*
X646896Y-219900D01*
X648895D01*
X649895Y-218900D01*
Y-217901D01*
X648895Y-216901D01*
X645896D01*
X537900Y-272400D02*
Y-266402D01*
X540899D01*
X541899Y-267402D01*
Y-269401D01*
X540899Y-270401D01*
X537900D01*
X539899D02*
X541899Y-272400D01*
X547897Y-266402D02*
X545897Y-267402D01*
X543898Y-269401D01*
Y-271400D01*
X544898Y-272400D01*
X546897D01*
X547897Y-271400D01*
Y-270401D01*
X546897Y-269401D01*
X543898D01*
X553895Y-266402D02*
X549896D01*
Y-269401D01*
X551896Y-268401D01*
X552895D01*
X553895Y-269401D01*
Y-271400D01*
X552895Y-272400D01*
X550896D01*
X549896Y-271400D01*
X537900Y-296900D02*
Y-290902D01*
X540899D01*
X541899Y-291902D01*
Y-293901D01*
X540899Y-294901D01*
X537900D01*
X539899D02*
X541899Y-296900D01*
X547897Y-290902D02*
X545897Y-291902D01*
X543898Y-293901D01*
Y-295900D01*
X544898Y-296900D01*
X546897D01*
X547897Y-295900D01*
Y-294901D01*
X546897Y-293901D01*
X543898D01*
X552895Y-296900D02*
Y-290902D01*
X549896Y-293901D01*
X553895D01*
X543400Y-193400D02*
Y-187402D01*
X546399D01*
X547399Y-188402D01*
Y-190401D01*
X546399Y-191401D01*
X543400D01*
X545399D02*
X547399Y-193400D01*
X553397Y-187402D02*
X551397Y-188402D01*
X549398Y-190401D01*
Y-192400D01*
X550398Y-193400D01*
X552397D01*
X553397Y-192400D01*
Y-191401D01*
X552397Y-190401D01*
X549398D01*
X555396Y-188402D02*
X556396Y-187402D01*
X558395D01*
X559395Y-188402D01*
Y-189401D01*
X558395Y-190401D01*
X557396D01*
X558395D01*
X559395Y-191401D01*
Y-192400D01*
X558395Y-193400D01*
X556396D01*
X555396Y-192400D01*
X543400Y-217900D02*
Y-211902D01*
X546399D01*
X547399Y-212902D01*
Y-214901D01*
X546399Y-215901D01*
X543400D01*
X545399D02*
X547399Y-217900D01*
X553397Y-211902D02*
X551397Y-212902D01*
X549398Y-214901D01*
Y-216900D01*
X550398Y-217900D01*
X552397D01*
X553397Y-216900D01*
Y-215901D01*
X552397Y-214901D01*
X549398D01*
X559395Y-217900D02*
X555396D01*
X559395Y-213901D01*
Y-212902D01*
X558395Y-211902D01*
X556396D01*
X555396Y-212902D01*
X398000Y-323500D02*
Y-317502D01*
X400999D01*
X401999Y-318502D01*
Y-320501D01*
X400999Y-321501D01*
X398000D01*
X399999D02*
X401999Y-323500D01*
X407997Y-317502D02*
X405997Y-318502D01*
X403998Y-320501D01*
Y-322500D01*
X404998Y-323500D01*
X406997D01*
X407997Y-322500D01*
Y-321501D01*
X406997Y-320501D01*
X403998D01*
X409996Y-323500D02*
X411996D01*
X410996D01*
Y-317502D01*
X409996Y-318502D01*
X489600Y-312900D02*
Y-306902D01*
X492599D01*
X493599Y-307902D01*
Y-309901D01*
X492599Y-310901D01*
X489600D01*
X491599D02*
X493599Y-312900D01*
X499597Y-306902D02*
X497597Y-307902D01*
X495598Y-309901D01*
Y-311900D01*
X496598Y-312900D01*
X498597D01*
X499597Y-311900D01*
Y-310901D01*
X498597Y-309901D01*
X495598D01*
X501596Y-307902D02*
X502596Y-306902D01*
X504595D01*
X505595Y-307902D01*
Y-311900D01*
X504595Y-312900D01*
X502596D01*
X501596Y-311900D01*
Y-307902D01*
X400400Y-270400D02*
Y-264402D01*
X403399D01*
X404399Y-265402D01*
Y-267401D01*
X403399Y-268401D01*
X400400D01*
X402399D02*
X404399Y-270400D01*
X410397Y-264402D02*
X406398D01*
Y-267401D01*
X408397Y-266401D01*
X409397D01*
X410397Y-267401D01*
Y-269400D01*
X409397Y-270400D01*
X407398D01*
X406398Y-269400D01*
X412396D02*
X413396Y-270400D01*
X415395D01*
X416395Y-269400D01*
Y-265402D01*
X415395Y-264402D01*
X413396D01*
X412396Y-265402D01*
Y-266401D01*
X413396Y-267401D01*
X416395D01*
X470900Y-267400D02*
Y-261402D01*
X473899D01*
X474899Y-262402D01*
Y-264401D01*
X473899Y-265401D01*
X470900D01*
X472899D02*
X474899Y-267400D01*
X480897Y-261402D02*
X476898D01*
Y-264401D01*
X478897Y-263401D01*
X479897D01*
X480897Y-264401D01*
Y-266400D01*
X479897Y-267400D01*
X477898D01*
X476898Y-266400D01*
X482896Y-262402D02*
X483896Y-261402D01*
X485895D01*
X486895Y-262402D01*
Y-263401D01*
X485895Y-264401D01*
X486895Y-265401D01*
Y-266400D01*
X485895Y-267400D01*
X483896D01*
X482896Y-266400D01*
Y-265401D01*
X483896Y-264401D01*
X482896Y-263401D01*
Y-262402D01*
X483896Y-264401D02*
X485895D01*
X381400Y-289900D02*
Y-283902D01*
X384399D01*
X385399Y-284902D01*
Y-286901D01*
X384399Y-287901D01*
X381400D01*
X383399D02*
X385399Y-289900D01*
X391397Y-283902D02*
X387398D01*
Y-286901D01*
X389397Y-285901D01*
X390397D01*
X391397Y-286901D01*
Y-288900D01*
X390397Y-289900D01*
X388398D01*
X387398Y-288900D01*
X393396Y-283902D02*
X397395D01*
Y-284902D01*
X393396Y-288900D01*
Y-289900D01*
X381400Y-265900D02*
Y-259902D01*
X384399D01*
X385399Y-260902D01*
Y-262901D01*
X384399Y-263901D01*
X381400D01*
X383399D02*
X385399Y-265900D01*
X391397Y-259902D02*
X387398D01*
Y-262901D01*
X389397Y-261901D01*
X390397D01*
X391397Y-262901D01*
Y-264900D01*
X390397Y-265900D01*
X388398D01*
X387398Y-264900D01*
X397395Y-259902D02*
X395395Y-260902D01*
X393396Y-262901D01*
Y-264900D01*
X394396Y-265900D01*
X396395D01*
X397395Y-264900D01*
Y-263901D01*
X396395Y-262901D01*
X393396D01*
X454900Y-288900D02*
Y-282902D01*
X457899D01*
X458899Y-283902D01*
Y-285901D01*
X457899Y-286901D01*
X454900D01*
X456899D02*
X458899Y-288900D01*
X464897Y-282902D02*
X460898D01*
Y-285901D01*
X462897Y-284901D01*
X463897D01*
X464897Y-285901D01*
Y-287900D01*
X463897Y-288900D01*
X461898D01*
X460898Y-287900D01*
X470895Y-282902D02*
X466896D01*
Y-285901D01*
X468895Y-284901D01*
X469895D01*
X470895Y-285901D01*
Y-287900D01*
X469895Y-288900D01*
X467896D01*
X466896Y-287900D01*
X454900Y-262300D02*
Y-256302D01*
X457899D01*
X458899Y-257302D01*
Y-259301D01*
X457899Y-260301D01*
X454900D01*
X456899D02*
X458899Y-262300D01*
X464897Y-256302D02*
X460898D01*
Y-259301D01*
X462897Y-258301D01*
X463897D01*
X464897Y-259301D01*
Y-261300D01*
X463897Y-262300D01*
X461898D01*
X460898Y-261300D01*
X469895Y-262300D02*
Y-256302D01*
X466896Y-259301D01*
X470895D01*
X420900Y-270400D02*
Y-264402D01*
X423899D01*
X424899Y-265402D01*
Y-267401D01*
X423899Y-268401D01*
X420900D01*
X422899D02*
X424899Y-270400D01*
X430897Y-264402D02*
X426898D01*
Y-267401D01*
X428897Y-266401D01*
X429897D01*
X430897Y-267401D01*
Y-269400D01*
X429897Y-270400D01*
X427898D01*
X426898Y-269400D01*
X432896Y-265402D02*
X433896Y-264402D01*
X435895D01*
X436895Y-265402D01*
Y-266401D01*
X435895Y-267401D01*
X434896D01*
X435895D01*
X436895Y-268401D01*
Y-269400D01*
X435895Y-270400D01*
X433896D01*
X432896Y-269400D01*
X493266Y-266900D02*
Y-260902D01*
X496265D01*
X497265Y-261902D01*
Y-263901D01*
X496265Y-264901D01*
X493266D01*
X495265D02*
X497265Y-266900D01*
X503263Y-260902D02*
X499264D01*
Y-263901D01*
X501264Y-262901D01*
X502263D01*
X503263Y-263901D01*
Y-265900D01*
X502263Y-266900D01*
X500264D01*
X499264Y-265900D01*
X509261Y-266900D02*
X505262D01*
X509261Y-262901D01*
Y-261902D01*
X508261Y-260902D01*
X506262D01*
X505262Y-261902D01*
X479140Y-240500D02*
Y-234502D01*
X482139D01*
X483139Y-235502D01*
Y-237501D01*
X482139Y-238501D01*
X479140D01*
X481139D02*
X483139Y-240500D01*
X489137Y-234502D02*
X485138D01*
Y-237501D01*
X487137Y-236501D01*
X488137D01*
X489137Y-237501D01*
Y-239500D01*
X488137Y-240500D01*
X486138D01*
X485138Y-239500D01*
X491136Y-240500D02*
X493135D01*
X492136D01*
Y-234502D01*
X491136Y-235502D01*
X399600Y-238500D02*
Y-232502D01*
X402599D01*
X403599Y-233502D01*
Y-235501D01*
X402599Y-236501D01*
X399600D01*
X401599D02*
X403599Y-238500D01*
X409597Y-232502D02*
X405598D01*
Y-235501D01*
X407597Y-234501D01*
X408597D01*
X409597Y-235501D01*
Y-237500D01*
X408597Y-238500D01*
X406598D01*
X405598Y-237500D01*
X411596Y-233502D02*
X412596Y-232502D01*
X414595D01*
X415595Y-233502D01*
Y-237500D01*
X414595Y-238500D01*
X412596D01*
X411596Y-237500D01*
Y-233502D01*
X470100Y-192000D02*
Y-186002D01*
X473099D01*
X474099Y-187002D01*
Y-189001D01*
X473099Y-190001D01*
X470100D01*
X472099D02*
X474099Y-192000D01*
X479097D02*
Y-186002D01*
X476098Y-189001D01*
X480097D01*
X482096Y-191000D02*
X483096Y-192000D01*
X485095D01*
X486095Y-191000D01*
Y-187002D01*
X485095Y-186002D01*
X483096D01*
X482096Y-187002D01*
Y-188001D01*
X483096Y-189001D01*
X486095D01*
X392100Y-190500D02*
Y-184502D01*
X395099D01*
X396099Y-185502D01*
Y-187501D01*
X395099Y-188501D01*
X392100D01*
X394099D02*
X396099Y-190500D01*
X401097D02*
Y-184502D01*
X398098Y-187501D01*
X402097D01*
X404096Y-185502D02*
X405096Y-184502D01*
X407095D01*
X408095Y-185502D01*
Y-186501D01*
X407095Y-187501D01*
X408095Y-188501D01*
Y-189500D01*
X407095Y-190500D01*
X405096D01*
X404096Y-189500D01*
Y-188501D01*
X405096Y-187501D01*
X404096Y-186501D01*
Y-185502D01*
X405096Y-187501D02*
X407095D01*
X458550Y-210650D02*
Y-204652D01*
X461549D01*
X462549Y-205652D01*
Y-207651D01*
X461549Y-208651D01*
X458550D01*
X460549D02*
X462549Y-210650D01*
X467547D02*
Y-204652D01*
X464548Y-207651D01*
X468547D01*
X470546Y-204652D02*
X474545D01*
Y-205652D01*
X470546Y-209650D01*
Y-210650D01*
X458500Y-183600D02*
Y-177602D01*
X461499D01*
X462499Y-178602D01*
Y-180601D01*
X461499Y-181601D01*
X458500D01*
X460499D02*
X462499Y-183600D01*
X467497D02*
Y-177602D01*
X464498Y-180601D01*
X468497D01*
X474495Y-177602D02*
X472496Y-178602D01*
X470496Y-180601D01*
Y-182600D01*
X471496Y-183600D01*
X473495D01*
X474495Y-182600D01*
Y-181601D01*
X473495Y-180601D01*
X470496D01*
X378050Y-210650D02*
Y-204652D01*
X381049D01*
X382049Y-205652D01*
Y-207651D01*
X381049Y-208651D01*
X378050D01*
X380049D02*
X382049Y-210650D01*
X387047D02*
Y-204652D01*
X384048Y-207651D01*
X388047D01*
X394045Y-204652D02*
X390046D01*
Y-207651D01*
X392045Y-206651D01*
X393045D01*
X394045Y-207651D01*
Y-209650D01*
X393045Y-210650D01*
X391046D01*
X390046Y-209650D01*
X377500Y-181600D02*
Y-175602D01*
X380499D01*
X381499Y-176602D01*
Y-178601D01*
X380499Y-179601D01*
X377500D01*
X379499D02*
X381499Y-181600D01*
X386497D02*
Y-175602D01*
X383498Y-178601D01*
X387497D01*
X392495Y-181600D02*
Y-175602D01*
X389496Y-178601D01*
X393495D01*
X490100Y-192000D02*
Y-186002D01*
X493099D01*
X494099Y-187002D01*
Y-189001D01*
X493099Y-190001D01*
X490100D01*
X492099D02*
X494099Y-192000D01*
X499097D02*
Y-186002D01*
X496098Y-189001D01*
X500097D01*
X502096Y-187002D02*
X503096Y-186002D01*
X505095D01*
X506095Y-187002D01*
Y-188001D01*
X505095Y-189001D01*
X504096D01*
X505095D01*
X506095Y-190001D01*
Y-191000D01*
X505095Y-192000D01*
X503096D01*
X502096Y-191000D01*
X412600Y-190500D02*
Y-184502D01*
X415599D01*
X416599Y-185502D01*
Y-187501D01*
X415599Y-188501D01*
X412600D01*
X414599D02*
X416599Y-190500D01*
X421597D02*
Y-184502D01*
X418598Y-187501D01*
X422597D01*
X428595Y-190500D02*
X424596D01*
X428595Y-186501D01*
Y-185502D01*
X427595Y-184502D01*
X425596D01*
X424596Y-185502D01*
X78400Y-280900D02*
Y-274902D01*
X81399D01*
X82399Y-275902D01*
Y-277901D01*
X81399Y-278901D01*
X78400D01*
X80399D02*
X82399Y-280900D01*
X87397D02*
Y-274902D01*
X84398Y-277901D01*
X88397D01*
X90396Y-280900D02*
X92396D01*
X91396D01*
Y-274902D01*
X90396Y-275902D01*
X181900Y-280900D02*
Y-274902D01*
X184899D01*
X185899Y-275902D01*
Y-277901D01*
X184899Y-278901D01*
X181900D01*
X183899D02*
X185899Y-280900D01*
X190897D02*
Y-274902D01*
X187898Y-277901D01*
X191897D01*
X193896Y-275902D02*
X194896Y-274902D01*
X196895D01*
X197895Y-275902D01*
Y-279900D01*
X196895Y-280900D01*
X194896D01*
X193896Y-279900D01*
Y-275902D01*
X112350Y-280950D02*
Y-274952D01*
X115349D01*
X116349Y-275952D01*
Y-277951D01*
X115349Y-278951D01*
X112350D01*
X114349D02*
X116349Y-280950D01*
X118348Y-275952D02*
X119348Y-274952D01*
X121347D01*
X122347Y-275952D01*
Y-276951D01*
X121347Y-277951D01*
X120347D01*
X121347D01*
X122347Y-278951D01*
Y-279950D01*
X121347Y-280950D01*
X119348D01*
X118348Y-279950D01*
X124346Y-275952D02*
X125346Y-274952D01*
X127345D01*
X128345Y-275952D01*
Y-276951D01*
X127345Y-277951D01*
X128345Y-278951D01*
Y-279950D01*
X127345Y-280950D01*
X125346D01*
X124346Y-279950D01*
Y-278951D01*
X125346Y-277951D01*
X124346Y-276951D01*
Y-275952D01*
X125346Y-277951D02*
X127345D01*
X838050Y-99150D02*
Y-93152D01*
X841049D01*
X842049Y-94152D01*
Y-96151D01*
X841049Y-97151D01*
X838050D01*
X840049D02*
X842049Y-99150D01*
X844048Y-94152D02*
X845048Y-93152D01*
X847047D01*
X848047Y-94152D01*
Y-95151D01*
X847047Y-96151D01*
X846047D01*
X847047D01*
X848047Y-97151D01*
Y-98150D01*
X847047Y-99150D01*
X845048D01*
X844048Y-98150D01*
X850046Y-93152D02*
X854045D01*
Y-94152D01*
X850046Y-98150D01*
Y-99150D01*
X858900Y-128900D02*
Y-122902D01*
X861899D01*
X862899Y-123902D01*
Y-125901D01*
X861899Y-126901D01*
X858900D01*
X860899D02*
X862899Y-128900D01*
X864898Y-123902D02*
X865898Y-122902D01*
X867897D01*
X868897Y-123902D01*
Y-124901D01*
X867897Y-125901D01*
X866897D01*
X867897D01*
X868897Y-126901D01*
Y-127900D01*
X867897Y-128900D01*
X865898D01*
X864898Y-127900D01*
X874895Y-122902D02*
X872896Y-123902D01*
X870896Y-125901D01*
Y-127900D01*
X871896Y-128900D01*
X873895D01*
X874895Y-127900D01*
Y-126901D01*
X873895Y-125901D01*
X870896D01*
X900187Y-113943D02*
Y-107945D01*
X903186D01*
X904186Y-108945D01*
Y-110944D01*
X903186Y-111944D01*
X900187D01*
X902187D02*
X904186Y-113943D01*
X906186Y-108945D02*
X907185Y-107945D01*
X909184D01*
X910184Y-108945D01*
Y-109945D01*
X909184Y-110944D01*
X908185D01*
X909184D01*
X910184Y-111944D01*
Y-112944D01*
X909184Y-113943D01*
X907185D01*
X906186Y-112944D01*
X916182Y-107945D02*
X912183D01*
Y-110944D01*
X914183Y-109945D01*
X915183D01*
X916182Y-110944D01*
Y-112944D01*
X915183Y-113943D01*
X913183D01*
X912183Y-112944D01*
X919787Y-114240D02*
Y-108242D01*
X922786D01*
X923786Y-109242D01*
Y-111241D01*
X922786Y-112241D01*
X919787D01*
X921787D02*
X923786Y-114240D01*
X925786Y-109242D02*
X926785Y-108242D01*
X928784D01*
X929784Y-109242D01*
Y-110241D01*
X928784Y-111241D01*
X927785D01*
X928784D01*
X929784Y-112241D01*
Y-113241D01*
X928784Y-114240D01*
X926785D01*
X925786Y-113241D01*
X934783Y-114240D02*
Y-108242D01*
X931783Y-111241D01*
X935782D01*
X725916Y-105650D02*
Y-99652D01*
X728915D01*
X729915Y-100652D01*
Y-102651D01*
X728915Y-103651D01*
X725916D01*
X727915D02*
X729915Y-105650D01*
X731914Y-100652D02*
X732914Y-99652D01*
X734913D01*
X735913Y-100652D01*
Y-101651D01*
X734913Y-102651D01*
X733914D01*
X734913D01*
X735913Y-103651D01*
Y-104650D01*
X734913Y-105650D01*
X732914D01*
X731914Y-104650D01*
X737912Y-100652D02*
X738912Y-99652D01*
X740911D01*
X741911Y-100652D01*
Y-101651D01*
X740911Y-102651D01*
X739912D01*
X740911D01*
X741911Y-103651D01*
Y-104650D01*
X740911Y-105650D01*
X738912D01*
X737912Y-104650D01*
X747400Y-131900D02*
Y-125902D01*
X750399D01*
X751399Y-126902D01*
Y-128901D01*
X750399Y-129901D01*
X747400D01*
X749399D02*
X751399Y-131900D01*
X753398Y-126902D02*
X754398Y-125902D01*
X756397D01*
X757397Y-126902D01*
Y-127901D01*
X756397Y-128901D01*
X755397D01*
X756397D01*
X757397Y-129901D01*
Y-130900D01*
X756397Y-131900D01*
X754398D01*
X753398Y-130900D01*
X763395Y-131900D02*
X759396D01*
X763395Y-127901D01*
Y-126902D01*
X762395Y-125902D01*
X760396D01*
X759396Y-126902D01*
X611366Y-109100D02*
Y-103102D01*
X614365D01*
X615365Y-104102D01*
Y-106101D01*
X614365Y-107101D01*
X611366D01*
X613366D02*
X615365Y-109100D01*
X617364Y-104102D02*
X618364Y-103102D01*
X620363D01*
X621363Y-104102D01*
Y-105101D01*
X620363Y-106101D01*
X619364D01*
X620363D01*
X621363Y-107101D01*
Y-108100D01*
X620363Y-109100D01*
X618364D01*
X617364Y-108100D01*
X623362Y-109100D02*
X625362D01*
X624362D01*
Y-103102D01*
X623362Y-104102D01*
X786766Y-117203D02*
Y-111205D01*
X789765D01*
X790765Y-112205D01*
Y-114204D01*
X789765Y-115204D01*
X786766D01*
X788765D02*
X790765Y-117203D01*
X792764Y-112205D02*
X793764Y-111205D01*
X795763D01*
X796763Y-112205D01*
Y-113204D01*
X795763Y-114204D01*
X794764D01*
X795763D01*
X796763Y-115204D01*
Y-116203D01*
X795763Y-117203D01*
X793764D01*
X792764Y-116203D01*
X798762Y-112205D02*
X799762Y-111205D01*
X801761D01*
X802761Y-112205D01*
Y-116203D01*
X801761Y-117203D01*
X799762D01*
X798762Y-116203D01*
Y-112205D01*
X805416Y-115953D02*
Y-109955D01*
X808415D01*
X809415Y-110955D01*
Y-112954D01*
X808415Y-113954D01*
X805416D01*
X807415D02*
X809415Y-115953D01*
X815413D02*
X811414D01*
X815413Y-111954D01*
Y-110955D01*
X814413Y-109955D01*
X812414D01*
X811414Y-110955D01*
X817412Y-114953D02*
X818412Y-115953D01*
X820411D01*
X821411Y-114953D01*
Y-110955D01*
X820411Y-109955D01*
X818412D01*
X817412Y-110955D01*
Y-111954D01*
X818412Y-112954D01*
X821411D01*
X628640Y-137500D02*
Y-131502D01*
X631639D01*
X632639Y-132502D01*
Y-134501D01*
X631639Y-135501D01*
X628640D01*
X630639D02*
X632639Y-137500D01*
X638637D02*
X634638D01*
X638637Y-133501D01*
Y-132502D01*
X637637Y-131502D01*
X635638D01*
X634638Y-132502D01*
X640636D02*
X641636Y-131502D01*
X643635D01*
X644635Y-132502D01*
Y-133501D01*
X643635Y-134501D01*
X644635Y-135501D01*
Y-136500D01*
X643635Y-137500D01*
X641636D01*
X640636Y-136500D01*
Y-135501D01*
X641636Y-134501D01*
X640636Y-133501D01*
Y-132502D01*
X641636Y-134501D02*
X643635D01*
X669500Y-122000D02*
Y-116002D01*
X672499D01*
X673499Y-117002D01*
Y-119001D01*
X672499Y-120001D01*
X669500D01*
X671499D02*
X673499Y-122000D01*
X679497D02*
X675498D01*
X679497Y-118001D01*
Y-117002D01*
X678497Y-116002D01*
X676498D01*
X675498Y-117002D01*
X681496Y-116002D02*
X685495D01*
Y-117002D01*
X681496Y-121000D01*
Y-122000D01*
X688500Y-121500D02*
Y-115502D01*
X691499D01*
X692499Y-116502D01*
Y-118501D01*
X691499Y-119501D01*
X688500D01*
X690499D02*
X692499Y-121500D01*
X698497D02*
X694498D01*
X698497Y-117501D01*
Y-116502D01*
X697497Y-115502D01*
X695498D01*
X694498Y-116502D01*
X704495Y-115502D02*
X702495Y-116502D01*
X700496Y-118501D01*
Y-120500D01*
X701496Y-121500D01*
X703495D01*
X704495Y-120500D01*
Y-119501D01*
X703495Y-118501D01*
X700496D01*
X516550Y-106650D02*
Y-100652D01*
X519549D01*
X520549Y-101652D01*
Y-103651D01*
X519549Y-104651D01*
X516550D01*
X518549D02*
X520549Y-106650D01*
X526547D02*
X522548D01*
X526547Y-102651D01*
Y-101652D01*
X525547Y-100652D01*
X523548D01*
X522548Y-101652D01*
X532545Y-100652D02*
X528546D01*
Y-103651D01*
X530546Y-102651D01*
X531545D01*
X532545Y-103651D01*
Y-105650D01*
X531545Y-106650D01*
X529546D01*
X528546Y-105650D01*
X409550Y-107150D02*
Y-101152D01*
X412549D01*
X413549Y-102152D01*
Y-104151D01*
X412549Y-105151D01*
X409550D01*
X411549D02*
X413549Y-107150D01*
X419547D02*
X415548D01*
X419547Y-103151D01*
Y-102152D01*
X418547Y-101152D01*
X416548D01*
X415548Y-102152D01*
X424545Y-107150D02*
Y-101152D01*
X421546Y-104151D01*
X425545D01*
X537400Y-134400D02*
Y-128402D01*
X540399D01*
X541399Y-129402D01*
Y-131401D01*
X540399Y-132401D01*
X537400D01*
X539399D02*
X541399Y-134400D01*
X547397D02*
X543398D01*
X547397Y-130401D01*
Y-129402D01*
X546397Y-128402D01*
X544398D01*
X543398Y-129402D01*
X549396D02*
X550396Y-128402D01*
X552395D01*
X553395Y-129402D01*
Y-130401D01*
X552395Y-131401D01*
X551396D01*
X552395D01*
X553395Y-132401D01*
Y-133400D01*
X552395Y-134400D01*
X550396D01*
X549396Y-133400D01*
X572521Y-119703D02*
Y-113705D01*
X575521D01*
X576520Y-114705D01*
Y-116704D01*
X575521Y-117704D01*
X572521D01*
X574521D02*
X576520Y-119703D01*
X582518D02*
X578520D01*
X582518Y-115704D01*
Y-114705D01*
X581519Y-113705D01*
X579519D01*
X578520Y-114705D01*
X588516Y-119703D02*
X584518D01*
X588516Y-115704D01*
Y-114705D01*
X587517Y-113705D01*
X585517D01*
X584518Y-114705D01*
X590471Y-119703D02*
Y-113705D01*
X593470D01*
X594470Y-114705D01*
Y-116704D01*
X593470Y-117704D01*
X590471D01*
X592470D02*
X594470Y-119703D01*
X600468D02*
X596469D01*
X600468Y-115704D01*
Y-114705D01*
X599468Y-113705D01*
X597469D01*
X596469Y-114705D01*
X602467Y-119703D02*
X604466D01*
X603467D01*
Y-113705D01*
X602467Y-114705D01*
X429266Y-133900D02*
Y-127902D01*
X432265D01*
X433265Y-128902D01*
Y-130901D01*
X432265Y-131901D01*
X429266D01*
X431265D02*
X433265Y-133900D01*
X439263D02*
X435264D01*
X439263Y-129901D01*
Y-128902D01*
X438263Y-127902D01*
X436264D01*
X435264Y-128902D01*
X441262D02*
X442262Y-127902D01*
X444261D01*
X445261Y-128902D01*
Y-132900D01*
X444261Y-133900D01*
X442262D01*
X441262Y-132900D01*
Y-128902D01*
X468521Y-125400D02*
Y-119402D01*
X471521D01*
X472520Y-120402D01*
Y-122401D01*
X471521Y-123401D01*
X468521D01*
X470521D02*
X472520Y-125400D01*
X474520D02*
X476519D01*
X475519D01*
Y-119402D01*
X474520Y-120402D01*
X479518Y-124400D02*
X480518Y-125400D01*
X482517D01*
X483517Y-124400D01*
Y-120402D01*
X482517Y-119402D01*
X480518D01*
X479518Y-120402D01*
Y-121401D01*
X480518Y-122401D01*
X483517D01*
X487266Y-125400D02*
Y-119402D01*
X490265D01*
X491265Y-120402D01*
Y-122401D01*
X490265Y-123401D01*
X487266D01*
X489265D02*
X491265Y-125400D01*
X493264D02*
X495264D01*
X494264D01*
Y-119402D01*
X493264Y-120402D01*
X498263D02*
X499262Y-119402D01*
X501262D01*
X502261Y-120402D01*
Y-121401D01*
X501262Y-122401D01*
X502261Y-123401D01*
Y-124400D01*
X501262Y-125400D01*
X499262D01*
X498263Y-124400D01*
Y-123401D01*
X499262Y-122401D01*
X498263Y-121401D01*
Y-120402D01*
X499262Y-122401D02*
X501262D01*
X246000Y-19000D02*
X240002D01*
Y-16001D01*
X241002Y-15001D01*
X243001D01*
X244001Y-16001D01*
Y-19000D01*
Y-17001D02*
X246000Y-15001D01*
Y-13002D02*
Y-11003D01*
Y-12002D01*
X240002D01*
X241002Y-13002D01*
X240002Y-4005D02*
Y-8004D01*
X243001D01*
X242001Y-6004D01*
Y-5004D01*
X243001Y-4005D01*
X245000D01*
X246000Y-5004D01*
Y-7004D01*
X245000Y-8004D01*
X209000Y-19500D02*
X203002D01*
Y-16501D01*
X204002Y-15501D01*
X206001D01*
X207001Y-16501D01*
Y-19500D01*
Y-17501D02*
X209000Y-15501D01*
Y-13502D02*
Y-11503D01*
Y-12502D01*
X203002D01*
X204002Y-13502D01*
X209000Y-5505D02*
X203002D01*
X206001Y-8504D01*
Y-4505D01*
X172500Y-19500D02*
X166502D01*
Y-16501D01*
X167502Y-15501D01*
X169501D01*
X170501Y-16501D01*
Y-19500D01*
Y-17501D02*
X172500Y-15501D01*
Y-13502D02*
Y-11503D01*
Y-12502D01*
X166502D01*
X167502Y-13502D01*
Y-8504D02*
X166502Y-7504D01*
Y-5505D01*
X167502Y-4505D01*
X168501D01*
X169501Y-5505D01*
Y-6504D01*
Y-5505D01*
X170501Y-4505D01*
X171500D01*
X172500Y-5505D01*
Y-7504D01*
X171500Y-8504D01*
X279000Y-78366D02*
X273002D01*
Y-75367D01*
X274002Y-74367D01*
X276001D01*
X277001Y-75367D01*
Y-78366D01*
Y-76367D02*
X279000Y-74367D01*
Y-72368D02*
Y-70369D01*
Y-71368D01*
X273002D01*
X274002Y-72368D01*
X279000Y-63371D02*
Y-67370D01*
X275001Y-63371D01*
X274002D01*
X273002Y-64371D01*
Y-66370D01*
X274002Y-67370D01*
X242000Y-77366D02*
X236002D01*
Y-74367D01*
X237002Y-73367D01*
X239001D01*
X240001Y-74367D01*
Y-77366D01*
Y-75367D02*
X242000Y-73367D01*
Y-71368D02*
Y-69369D01*
Y-70368D01*
X236002D01*
X237002Y-71368D01*
X242000Y-66370D02*
Y-64370D01*
Y-65370D01*
X236002D01*
X237002Y-66370D01*
X205500Y-78366D02*
X199502D01*
Y-75367D01*
X200502Y-74367D01*
X202501D01*
X203501Y-75367D01*
Y-78366D01*
Y-76367D02*
X205500Y-74367D01*
Y-72368D02*
Y-70369D01*
Y-71368D01*
X199502D01*
X200502Y-72368D01*
Y-67370D02*
X199502Y-66370D01*
Y-64371D01*
X200502Y-63371D01*
X204500D01*
X205500Y-64371D01*
Y-66370D01*
X204500Y-67370D01*
X200502D01*
X136000Y-19000D02*
X130002D01*
Y-16001D01*
X131002Y-15001D01*
X133001D01*
X134001Y-16001D01*
Y-19000D01*
Y-17001D02*
X136000Y-15001D01*
X135000Y-13002D02*
X136000Y-12002D01*
Y-10003D01*
X135000Y-9003D01*
X131002D01*
X130002Y-10003D01*
Y-12002D01*
X131002Y-13002D01*
X132001D01*
X133001Y-12002D01*
Y-9003D01*
X99000Y-19000D02*
X93002D01*
Y-16001D01*
X94002Y-15001D01*
X96001D01*
X97001Y-16001D01*
Y-19000D01*
Y-17001D02*
X99000Y-15001D01*
X94002Y-13002D02*
X93002Y-12002D01*
Y-10003D01*
X94002Y-9003D01*
X95001D01*
X96001Y-10003D01*
X97001Y-9003D01*
X98000D01*
X99000Y-10003D01*
Y-12002D01*
X98000Y-13002D01*
X97001D01*
X96001Y-12002D01*
X95001Y-13002D01*
X94002D01*
X96001Y-12002D02*
Y-10003D01*
X63500Y-19000D02*
X57502D01*
Y-16001D01*
X58502Y-15001D01*
X60501D01*
X61501Y-16001D01*
Y-19000D01*
Y-17001D02*
X63500Y-15001D01*
X57502Y-13002D02*
Y-9003D01*
X58502D01*
X62500Y-13002D01*
X63500D01*
X168000Y-76366D02*
X162002D01*
Y-73367D01*
X163002Y-72367D01*
X165001D01*
X166001Y-73367D01*
Y-76366D01*
Y-74367D02*
X168000Y-72367D01*
X162002Y-66369D02*
X163002Y-68369D01*
X165001Y-70368D01*
X167000D01*
X168000Y-69368D01*
Y-67369D01*
X167000Y-66369D01*
X166001D01*
X165001Y-67369D01*
Y-70368D01*
X129500Y-76366D02*
X123502D01*
Y-73367D01*
X124502Y-72367D01*
X126501D01*
X127501Y-73367D01*
Y-76366D01*
Y-74367D02*
X129500Y-72367D01*
X123502Y-66369D02*
Y-70368D01*
X126501D01*
X125501Y-68369D01*
Y-67369D01*
X126501Y-66369D01*
X128500D01*
X129500Y-67369D01*
Y-69368D01*
X128500Y-70368D01*
X94000Y-75866D02*
X88002D01*
Y-72867D01*
X89002Y-71867D01*
X91001D01*
X92001Y-72867D01*
Y-75866D01*
Y-73867D02*
X94000Y-71867D01*
Y-66869D02*
X88002D01*
X91001Y-69868D01*
Y-65869D01*
X897800Y-167900D02*
Y-161902D01*
X900799D01*
X901799Y-162902D01*
Y-164901D01*
X900799Y-165901D01*
X897800D01*
X899799D02*
X901799Y-167900D01*
X903798Y-162902D02*
X904798Y-161902D01*
X906797D01*
X907797Y-162902D01*
Y-163901D01*
X906797Y-164901D01*
X905797D01*
X906797D01*
X907797Y-165901D01*
Y-166900D01*
X906797Y-167900D01*
X904798D01*
X903798Y-166900D01*
X810400Y-166400D02*
Y-160402D01*
X813399D01*
X814399Y-161402D01*
Y-163401D01*
X813399Y-164401D01*
X810400D01*
X812399D02*
X814399Y-166400D01*
X820397D02*
X816398D01*
X820397Y-162401D01*
Y-161402D01*
X819397Y-160402D01*
X817398D01*
X816398Y-161402D01*
X731600Y-169500D02*
Y-163502D01*
X734599D01*
X735599Y-164502D01*
Y-166501D01*
X734599Y-167501D01*
X731600D01*
X733599D02*
X735599Y-169500D01*
X737598D02*
X739597D01*
X738598D01*
Y-163502D01*
X737598Y-164502D01*
X257218Y-9900D02*
Y-5902D01*
X256218Y-4902D01*
X254219D01*
X253219Y-5902D01*
Y-9900D01*
X254219Y-10900D01*
X256218D01*
X255218Y-8901D02*
X257218Y-10900D01*
X256218D02*
X257218Y-9900D01*
X263216Y-4902D02*
X261216Y-5902D01*
X259217Y-7901D01*
Y-9900D01*
X260217Y-10900D01*
X262216D01*
X263216Y-9900D01*
Y-8901D01*
X262216Y-7901D01*
X259217D01*
X220499Y-9900D02*
Y-5902D01*
X219499Y-4902D01*
X217500D01*
X216500Y-5902D01*
Y-9900D01*
X217500Y-10900D01*
X219499D01*
X218499Y-8901D02*
X220499Y-10900D01*
X219499D02*
X220499Y-9900D01*
X226497Y-4902D02*
X222498D01*
Y-7901D01*
X224497Y-6901D01*
X225497D01*
X226497Y-7901D01*
Y-9900D01*
X225497Y-10900D01*
X223498D01*
X222498Y-9900D01*
X183818D02*
Y-5902D01*
X182818Y-4902D01*
X180819D01*
X179819Y-5902D01*
Y-9900D01*
X180819Y-10900D01*
X182818D01*
X181818Y-8901D02*
X183818Y-10900D01*
X182818D02*
X183818Y-9900D01*
X188816Y-10900D02*
Y-4902D01*
X185817Y-7901D01*
X189816D01*
X147118Y-9900D02*
Y-5902D01*
X146118Y-4902D01*
X144119D01*
X143119Y-5902D01*
Y-9900D01*
X144119Y-10900D01*
X146118D01*
X145118Y-8901D02*
X147118Y-10900D01*
X146118D02*
X147118Y-9900D01*
X149117Y-5902D02*
X150117Y-4902D01*
X152116D01*
X153116Y-5902D01*
Y-6901D01*
X152116Y-7901D01*
X151116D01*
X152116D01*
X153116Y-8901D01*
Y-9900D01*
X152116Y-10900D01*
X150117D01*
X149117Y-9900D01*
X110418D02*
Y-5902D01*
X109418Y-4902D01*
X107419D01*
X106419Y-5902D01*
Y-9900D01*
X107419Y-10900D01*
X109418D01*
X108418Y-8901D02*
X110418Y-10900D01*
X109418D02*
X110418Y-9900D01*
X116416Y-10900D02*
X112417D01*
X116416Y-6901D01*
Y-5902D01*
X115416Y-4902D01*
X113417D01*
X112417Y-5902D01*
X73718Y-9900D02*
Y-5902D01*
X72718Y-4902D01*
X70719D01*
X69719Y-5902D01*
Y-9900D01*
X70719Y-10900D01*
X72718D01*
X71718Y-8901D02*
X73718Y-10900D01*
X72718D02*
X73718Y-9900D01*
X75717Y-10900D02*
X77716D01*
X76717D01*
Y-4902D01*
X75717Y-5902D01*
X671778Y-10800D02*
Y-4802D01*
X674777D01*
X675777Y-5802D01*
Y-7801D01*
X674777Y-8801D01*
X671778D01*
X677776Y-4802D02*
X681775D01*
X679775D01*
Y-10800D01*
X687773D02*
X683774D01*
X687773Y-6801D01*
Y-5802D01*
X686773Y-4802D01*
X684774D01*
X683774Y-5802D01*
X601735Y-10715D02*
Y-4717D01*
X604735D01*
X605734Y-5717D01*
Y-7716D01*
X604735Y-8716D01*
X601735D01*
X607733Y-4717D02*
X611732D01*
X609733D01*
Y-10715D01*
X613731D02*
X615731D01*
X614731D01*
Y-4717D01*
X613731Y-5717D01*
X331150Y-298650D02*
Y-292652D01*
X334149D01*
X335149Y-293652D01*
Y-295651D01*
X334149Y-296651D01*
X331150D01*
X337148Y-298650D02*
X339147D01*
X338148D01*
Y-292652D01*
X337148Y-293652D01*
X68500Y-300002D02*
X69500Y-299002D01*
X71499D01*
X72499Y-300002D01*
Y-301001D01*
X71499Y-302001D01*
X70499D01*
X71499D01*
X72499Y-303001D01*
Y-304000D01*
X71499Y-305000D01*
X69500D01*
X68500Y-304000D01*
X74498Y-299002D02*
Y-303001D01*
X76497Y-305000D01*
X78497Y-303001D01*
Y-299002D01*
X80496Y-300002D02*
X81496Y-299002D01*
X83495D01*
X84495Y-300002D01*
Y-301001D01*
X83495Y-302001D01*
X82495D01*
X83495D01*
X84495Y-303001D01*
Y-304000D01*
X83495Y-305000D01*
X81496D01*
X80496Y-304000D01*
X173000Y-305000D02*
X174999D01*
X174000D01*
Y-299002D01*
X173000Y-300002D01*
X181997Y-305000D02*
X177998D01*
X181997Y-301001D01*
Y-300002D01*
X180997Y-299002D01*
X178998D01*
X177998Y-300002D01*
X183996Y-299002D02*
Y-303001D01*
X185996Y-305000D01*
X187995Y-303001D01*
Y-299002D01*
X138167Y-305000D02*
X140166D01*
X139166D01*
Y-299002D01*
X138167Y-300002D01*
X143165D02*
X144165Y-299002D01*
X146164D01*
X147164Y-300002D01*
Y-304000D01*
X146164Y-305000D01*
X144165D01*
X143165Y-304000D01*
Y-300002D01*
X149163Y-299002D02*
Y-303001D01*
X151162Y-305000D01*
X153162Y-303001D01*
Y-299002D01*
X107332D02*
X103333D01*
Y-302001D01*
X105333Y-301001D01*
X106332D01*
X107332Y-302001D01*
Y-304000D01*
X106332Y-305000D01*
X104333D01*
X103333Y-304000D01*
X109331Y-299002D02*
Y-303001D01*
X111331Y-305000D01*
X113330Y-303001D01*
Y-299002D01*
X919133Y-83194D02*
Y-89192D01*
X923131D01*
X929129Y-84194D02*
X928130Y-83194D01*
X926130D01*
X925131Y-84194D01*
Y-88193D01*
X926130Y-89192D01*
X928130D01*
X929129Y-88193D01*
X931129Y-83194D02*
X933128D01*
X932129D01*
Y-89192D01*
X931129D01*
X933128D01*
X936127D02*
Y-83194D01*
X940126Y-89192D01*
Y-83194D01*
X946124D02*
X942125D01*
Y-86193D01*
X944125Y-85194D01*
X945124D01*
X946124Y-86193D01*
Y-88193D01*
X945124Y-89192D01*
X943125D01*
X942125Y-88193D01*
X805711Y-86454D02*
Y-92452D01*
X809710D01*
X815708Y-87454D02*
X814709Y-86454D01*
X812709D01*
X811709Y-87454D01*
Y-91452D01*
X812709Y-92452D01*
X814709D01*
X815708Y-91452D01*
X817708Y-86454D02*
X819707D01*
X818707D01*
Y-92452D01*
X817708D01*
X819707D01*
X822706D02*
Y-86454D01*
X826705Y-92452D01*
Y-86454D01*
X831703Y-92452D02*
Y-86454D01*
X828704Y-89453D01*
X832703D01*
X688416Y-89052D02*
Y-95050D01*
X692415D01*
X698413Y-90052D02*
X697413Y-89052D01*
X695414D01*
X694414Y-90052D01*
Y-94050D01*
X695414Y-95050D01*
X697413D01*
X698413Y-94050D01*
X700412Y-89052D02*
X702412D01*
X701412D01*
Y-95050D01*
X700412D01*
X702412D01*
X705411D02*
Y-89052D01*
X709409Y-95050D01*
Y-89052D01*
X711409Y-90052D02*
X712408Y-89052D01*
X714408D01*
X715407Y-90052D01*
Y-91051D01*
X714408Y-92051D01*
X713408D01*
X714408D01*
X715407Y-93051D01*
Y-94050D01*
X714408Y-95050D01*
X712408D01*
X711409Y-94050D01*
X590416Y-90052D02*
Y-96050D01*
X594415D01*
X600413Y-91052D02*
X599413Y-90052D01*
X597414D01*
X596414Y-91052D01*
Y-95050D01*
X597414Y-96050D01*
X599413D01*
X600413Y-95050D01*
X602412Y-90052D02*
X604412D01*
X603412D01*
Y-96050D01*
X602412D01*
X604412D01*
X607411D02*
Y-90052D01*
X611409Y-96050D01*
Y-90052D01*
X617407Y-96050D02*
X613409D01*
X617407Y-92051D01*
Y-91052D01*
X616408Y-90052D01*
X614408D01*
X613409Y-91052D01*
X487050Y-94052D02*
Y-100050D01*
X491049D01*
X497047Y-95052D02*
X496047Y-94052D01*
X494048D01*
X493048Y-95052D01*
Y-99050D01*
X494048Y-100050D01*
X496047D01*
X497047Y-99050D01*
X499046Y-94052D02*
X501046D01*
X500046D01*
Y-100050D01*
X499046D01*
X501046D01*
X504044D02*
Y-94052D01*
X508043Y-100050D01*
Y-94052D01*
X510043Y-100050D02*
X512042D01*
X511042D01*
Y-94052D01*
X510043Y-95052D01*
X346000Y-319002D02*
Y-325000D01*
X349999D01*
X355997Y-320002D02*
X354997Y-319002D01*
X352998D01*
X351998Y-320002D01*
Y-324000D01*
X352998Y-325000D01*
X354997D01*
X355997Y-324000D01*
X357996Y-325000D02*
Y-321001D01*
X359996Y-319002D01*
X361995Y-321001D01*
Y-325000D01*
Y-322001D01*
X357996D01*
X363994Y-325000D02*
Y-321001D01*
X365993Y-319002D01*
X367993Y-321001D01*
Y-325000D01*
Y-322001D01*
X363994D01*
X369992Y-326000D02*
X373991D01*
X379989Y-319002D02*
X375990D01*
Y-325000D01*
X379989D01*
X375990Y-322001D02*
X377990D01*
X381988Y-325000D02*
Y-319002D01*
X385987Y-325000D01*
Y-319002D01*
X387986Y-325000D02*
X389986D01*
X388986D01*
Y-319002D01*
X387986Y-320002D01*
X263050Y-300552D02*
Y-306550D01*
X267049D01*
X273047Y-301552D02*
X272047Y-300552D01*
X270048D01*
X269048Y-301552D01*
Y-305550D01*
X270048Y-306550D01*
X272047D01*
X273047Y-305550D01*
X275046Y-307550D02*
X279045D01*
X285043Y-300552D02*
X281044D01*
Y-306550D01*
X285043D01*
X281044Y-303551D02*
X283044D01*
X287042Y-306550D02*
Y-300552D01*
X291041Y-306550D01*
Y-300552D01*
X293040Y-306550D02*
X297039Y-302551D01*
X303037Y-301552D02*
X302037Y-300552D01*
X300038D01*
X299038Y-301552D01*
Y-305550D01*
X300038Y-306550D01*
X302037D01*
X303037Y-305550D01*
X305036Y-306550D02*
Y-302551D01*
X307036Y-300552D01*
X309035Y-302551D01*
Y-306550D01*
Y-303551D01*
X305036D01*
X311034Y-300552D02*
Y-306550D01*
X315033D01*
X317033D02*
X319032D01*
X318032D01*
Y-300552D01*
X317033Y-301552D01*
X531652Y-4802D02*
Y-10800D01*
X535651D01*
X541649Y-5802D02*
X540649Y-4802D01*
X538650D01*
X537650Y-5802D01*
Y-9800D01*
X538650Y-10800D01*
X540649D01*
X541649Y-9800D01*
X543648Y-5802D02*
X544648Y-4802D01*
X546647D01*
X547647Y-5802D01*
Y-6801D01*
X546647Y-7801D01*
X545647D01*
X546647D01*
X547647Y-8801D01*
Y-9800D01*
X546647Y-10800D01*
X544648D01*
X543648Y-9800D01*
X461589Y-4802D02*
Y-10800D01*
X465588D01*
X471586Y-5802D02*
X470586Y-4802D01*
X468587D01*
X467587Y-5802D01*
Y-9800D01*
X468587Y-10800D01*
X470586D01*
X471586Y-9800D01*
X477584Y-10800D02*
X473585D01*
X477584Y-6801D01*
Y-5802D01*
X476584Y-4802D01*
X474585D01*
X473585Y-5802D01*
X416900Y-4802D02*
Y-10800D01*
X420899D01*
X426897Y-5802D02*
X425897Y-4802D01*
X423898D01*
X422898Y-5802D01*
Y-9800D01*
X423898Y-10800D01*
X425897D01*
X426897Y-9800D01*
X428896Y-10800D02*
X430896D01*
X429896D01*
Y-4802D01*
X428896Y-5802D01*
X239549Y-302052D02*
X237549D01*
X238549D01*
Y-307050D01*
X237549Y-308050D01*
X236550D01*
X235550Y-307050D01*
X241548Y-308050D02*
Y-302052D01*
X244547D01*
X245547Y-303052D01*
Y-305051D01*
X244547Y-306051D01*
X241548D01*
X251545Y-308050D02*
X247546D01*
X251545Y-304051D01*
Y-303052D01*
X250545Y-302052D01*
X248546D01*
X247546Y-303052D01*
X668771Y-269852D02*
X670771D01*
X669771D01*
Y-275850D01*
X668771D01*
X670771D01*
X677768Y-270852D02*
X676769Y-269852D01*
X674769D01*
X673770Y-270852D01*
Y-274850D01*
X674769Y-275850D01*
X676769D01*
X677768Y-274850D01*
X679768Y-275850D02*
X681767D01*
X680767D01*
Y-269852D01*
X679768Y-270852D01*
X684766D02*
X685766Y-269852D01*
X687765D01*
X688765Y-270852D01*
Y-271851D01*
X687765Y-272851D01*
X688765Y-273851D01*
Y-274850D01*
X687765Y-275850D01*
X685766D01*
X684766Y-274850D01*
Y-273851D01*
X685766Y-272851D01*
X684766Y-271851D01*
Y-270852D01*
X685766Y-272851D02*
X687765D01*
X672350Y-191352D02*
X674349D01*
X673350D01*
Y-197350D01*
X672350D01*
X674349D01*
X681347Y-192352D02*
X680347Y-191352D01*
X678348D01*
X677348Y-192352D01*
Y-196350D01*
X678348Y-197350D01*
X680347D01*
X681347Y-196350D01*
X683346Y-197350D02*
X685346D01*
X684346D01*
Y-191352D01*
X683346Y-192352D01*
X688345Y-191352D02*
X692344D01*
Y-192352D01*
X688345Y-196350D01*
Y-197350D01*
X577350Y-274218D02*
X579349D01*
X578350D01*
Y-280216D01*
X577350D01*
X579349D01*
X586347Y-275218D02*
X585347Y-274218D01*
X583348D01*
X582348Y-275218D01*
Y-279217D01*
X583348Y-280216D01*
X585347D01*
X586347Y-279217D01*
X588346Y-280216D02*
X590346D01*
X589346D01*
Y-274218D01*
X588346Y-275218D01*
X597343Y-274218D02*
X595344Y-275218D01*
X593345Y-277217D01*
Y-279217D01*
X594345Y-280216D01*
X596344D01*
X597343Y-279217D01*
Y-278217D01*
X596344Y-277217D01*
X593345D01*
X584350Y-187352D02*
X586349D01*
X585350D01*
Y-193350D01*
X584350D01*
X586349D01*
X593347Y-188352D02*
X592347Y-187352D01*
X590348D01*
X589348Y-188352D01*
Y-192350D01*
X590348Y-193350D01*
X592347D01*
X593347Y-192350D01*
X595346Y-193350D02*
X597346D01*
X596346D01*
Y-187352D01*
X595346Y-188352D01*
X604344Y-187352D02*
X600345D01*
Y-190351D01*
X602344Y-189351D01*
X603344D01*
X604344Y-190351D01*
Y-192350D01*
X603344Y-193350D01*
X601344D01*
X600345Y-192350D01*
X398850Y-282352D02*
X400849D01*
X399850D01*
Y-288350D01*
X398850D01*
X400849D01*
X407847Y-283352D02*
X406847Y-282352D01*
X404848D01*
X403848Y-283352D01*
Y-287350D01*
X404848Y-288350D01*
X406847D01*
X407847Y-287350D01*
X409846Y-288350D02*
X411846D01*
X410846D01*
Y-282352D01*
X409846Y-283352D01*
X417844Y-288350D02*
Y-282352D01*
X414845Y-285351D01*
X418844D01*
X475350Y-280852D02*
X477349D01*
X476350D01*
Y-286850D01*
X475350D01*
X477349D01*
X484347Y-281852D02*
X483347Y-280852D01*
X481348D01*
X480348Y-281852D01*
Y-285850D01*
X481348Y-286850D01*
X483347D01*
X484347Y-285850D01*
X486346Y-286850D02*
X488346D01*
X487346D01*
Y-280852D01*
X486346Y-281852D01*
X491345D02*
X492345Y-280852D01*
X494344D01*
X495343Y-281852D01*
Y-282851D01*
X494344Y-283851D01*
X493344D01*
X494344D01*
X495343Y-284851D01*
Y-285850D01*
X494344Y-286850D01*
X492345D01*
X491345Y-285850D01*
X478350Y-205352D02*
X480349D01*
X479350D01*
Y-211350D01*
X478350D01*
X480349D01*
X487347Y-206352D02*
X486347Y-205352D01*
X484348D01*
X483348Y-206352D01*
Y-210350D01*
X484348Y-211350D01*
X486347D01*
X487347Y-210350D01*
X489346Y-211350D02*
X491346D01*
X490346D01*
Y-205352D01*
X489346Y-206352D01*
X498344Y-211350D02*
X494345D01*
X498344Y-207351D01*
Y-206352D01*
X497344Y-205352D01*
X495344D01*
X494345Y-206352D01*
X398929Y-204092D02*
X400928D01*
X399928D01*
Y-210090D01*
X398929D01*
X400928D01*
X407926Y-205092D02*
X406926Y-204092D01*
X404927D01*
X403927Y-205092D01*
Y-209090D01*
X404927Y-210090D01*
X406926D01*
X407926Y-209090D01*
X409925Y-210090D02*
X411925D01*
X410925D01*
Y-204092D01*
X409925Y-205092D01*
X414924Y-210090D02*
X416923D01*
X415923D01*
Y-204092D01*
X414924Y-205092D01*
X312650Y-221552D02*
X314649D01*
X313650D01*
Y-227550D01*
X312650D01*
X314649D01*
X321647Y-222552D02*
X320647Y-221552D01*
X318648D01*
X317648Y-222552D01*
Y-226550D01*
X318648Y-227550D01*
X320647D01*
X321647Y-226550D01*
X323646Y-227550D02*
X325646D01*
X324646D01*
Y-221552D01*
X323646Y-222552D01*
X328645D02*
X329644Y-221552D01*
X331644D01*
X332644Y-222552D01*
Y-226550D01*
X331644Y-227550D01*
X329644D01*
X328645Y-226550D01*
Y-222552D01*
X237150Y-218052D02*
X239149D01*
X238150D01*
Y-224050D01*
X237150D01*
X239149D01*
X246147Y-219052D02*
X245147Y-218052D01*
X243148D01*
X242148Y-219052D01*
Y-223050D01*
X243148Y-224050D01*
X245147D01*
X246147Y-223050D01*
X248146D02*
X249146Y-224050D01*
X251146D01*
X252145Y-223050D01*
Y-219052D01*
X251146Y-218052D01*
X249146D01*
X248146Y-219052D01*
Y-220051D01*
X249146Y-221051D01*
X252145D01*
X349650Y-119052D02*
X351649D01*
X350650D01*
Y-125050D01*
X349650D01*
X351649D01*
X358647Y-120052D02*
X357647Y-119052D01*
X355648D01*
X354648Y-120052D01*
Y-124050D01*
X355648Y-125050D01*
X357647D01*
X358647Y-124050D01*
X360646Y-120052D02*
X361646Y-119052D01*
X363646D01*
X364645Y-120052D01*
Y-121051D01*
X363646Y-122051D01*
X364645Y-123051D01*
Y-124050D01*
X363646Y-125050D01*
X361646D01*
X360646Y-124050D01*
Y-123051D01*
X361646Y-122051D01*
X360646Y-121051D01*
Y-120052D01*
X361646Y-122051D02*
X363646D01*
X273150Y-122367D02*
X275149D01*
X274150D01*
Y-128365D01*
X273150D01*
X275149D01*
X282147Y-123367D02*
X281147Y-122367D01*
X279148D01*
X278148Y-123367D01*
Y-127365D01*
X279148Y-128365D01*
X281147D01*
X282147Y-127365D01*
X284146Y-122367D02*
X288145D01*
Y-123367D01*
X284146Y-127365D01*
Y-128365D01*
X188150Y-122052D02*
X190149D01*
X189150D01*
Y-128050D01*
X188150D01*
X190149D01*
X197147Y-123052D02*
X196147Y-122052D01*
X194148D01*
X193148Y-123052D01*
Y-127050D01*
X194148Y-128050D01*
X196147D01*
X197147Y-127050D01*
X203145Y-122052D02*
X201146Y-123052D01*
X199146Y-125051D01*
Y-127050D01*
X200146Y-128050D01*
X202146D01*
X203145Y-127050D01*
Y-126051D01*
X202146Y-125051D01*
X199146D01*
X856637Y-94092D02*
X858637D01*
X857637D01*
Y-100090D01*
X856637D01*
X858637D01*
X865635Y-95092D02*
X864635Y-94092D01*
X862636D01*
X861636Y-95092D01*
Y-99090D01*
X862636Y-100090D01*
X864635D01*
X865635Y-99090D01*
X871633Y-94092D02*
X867634D01*
Y-97091D01*
X869633Y-96091D01*
X870633D01*
X871633Y-97091D01*
Y-99090D01*
X870633Y-100090D01*
X868633D01*
X867634Y-99090D01*
X745216Y-99352D02*
X747216D01*
X746216D01*
Y-105350D01*
X745216D01*
X747216D01*
X754213Y-100352D02*
X753214Y-99352D01*
X751214D01*
X750214Y-100352D01*
Y-104350D01*
X751214Y-105350D01*
X753214D01*
X754213Y-104350D01*
X759212Y-105350D02*
Y-99352D01*
X756213Y-102351D01*
X760211D01*
X628295Y-103092D02*
X630294D01*
X629295D01*
Y-109090D01*
X628295D01*
X630294D01*
X637292Y-104092D02*
X636292Y-103092D01*
X634293D01*
X633293Y-104092D01*
Y-108090D01*
X634293Y-109090D01*
X636292D01*
X637292Y-108090D01*
X639291Y-104092D02*
X640291Y-103092D01*
X642290D01*
X643290Y-104092D01*
Y-105092D01*
X642290Y-106091D01*
X641291D01*
X642290D01*
X643290Y-107091D01*
Y-108090D01*
X642290Y-109090D01*
X640291D01*
X639291Y-108090D01*
X535716Y-100852D02*
X537715D01*
X536716D01*
Y-106850D01*
X535716D01*
X537715D01*
X544713Y-101852D02*
X543714Y-100852D01*
X541714D01*
X540715Y-101852D01*
Y-105850D01*
X541714Y-106850D01*
X543714D01*
X544713Y-105850D01*
X550711Y-106850D02*
X546713D01*
X550711Y-102851D01*
Y-101852D01*
X549712Y-100852D01*
X547712D01*
X546713Y-101852D01*
X428716Y-100852D02*
X430716D01*
X429716D01*
Y-106850D01*
X428716D01*
X430716D01*
X437713Y-101852D02*
X436714Y-100852D01*
X434714D01*
X433714Y-101852D01*
Y-105850D01*
X434714Y-106850D01*
X436714D01*
X437713Y-105850D01*
X439713Y-106850D02*
X441712D01*
X440712D01*
Y-100852D01*
X439713Y-101852D01*
X84000Y-155502D02*
Y-161500D01*
X86999D01*
X87999Y-160500D01*
Y-156502D01*
X86999Y-155502D01*
X84000D01*
X89998Y-156502D02*
X90998Y-155502D01*
X92997D01*
X93997Y-156502D01*
Y-157501D01*
X92997Y-158501D01*
X93997Y-159501D01*
Y-160500D01*
X92997Y-161500D01*
X90998D01*
X89998Y-160500D01*
Y-159501D01*
X90998Y-158501D01*
X89998Y-157501D01*
Y-156502D01*
X90998Y-158501D02*
X92997D01*
X240200Y-40202D02*
Y-46200D01*
X243199D01*
X244199Y-45200D01*
Y-41202D01*
X243199Y-40202D01*
X240200D01*
X250197D02*
X248197Y-41202D01*
X246198Y-43201D01*
Y-45200D01*
X247198Y-46200D01*
X249197D01*
X250197Y-45200D01*
Y-44201D01*
X249197Y-43201D01*
X246198D01*
X203600Y-40202D02*
Y-46200D01*
X206599D01*
X207599Y-45200D01*
Y-41202D01*
X206599Y-40202D01*
X203600D01*
X213597D02*
X209598D01*
Y-43201D01*
X211597Y-42201D01*
X212597D01*
X213597Y-43201D01*
Y-45200D01*
X212597Y-46200D01*
X210598D01*
X209598Y-45200D01*
X167000Y-40202D02*
Y-46200D01*
X169999D01*
X170999Y-45200D01*
Y-41202D01*
X169999Y-40202D01*
X167000D01*
X175997Y-46200D02*
Y-40202D01*
X172998Y-43201D01*
X176997D01*
X130400Y-40202D02*
Y-46200D01*
X133399D01*
X134399Y-45200D01*
Y-41202D01*
X133399Y-40202D01*
X130400D01*
X136398Y-41202D02*
X137398Y-40202D01*
X139397D01*
X140397Y-41202D01*
Y-42201D01*
X139397Y-43201D01*
X138397D01*
X139397D01*
X140397Y-44201D01*
Y-45200D01*
X139397Y-46200D01*
X137398D01*
X136398Y-45200D01*
X93800Y-40202D02*
Y-46200D01*
X96799D01*
X97799Y-45200D01*
Y-41202D01*
X96799Y-40202D01*
X93800D01*
X103797Y-46200D02*
X99798D01*
X103797Y-42201D01*
Y-41202D01*
X102797Y-40202D01*
X100798D01*
X99798Y-41202D01*
X57200Y-40202D02*
Y-46200D01*
X60199D01*
X61199Y-45200D01*
Y-41202D01*
X60199Y-40202D01*
X57200D01*
X63198Y-46200D02*
X65197D01*
X64198D01*
Y-40202D01*
X63198Y-41202D01*
X650699Y-269702D02*
X649699Y-268702D01*
X647700D01*
X646700Y-269702D01*
Y-273700D01*
X647700Y-274700D01*
X649699D01*
X650699Y-273700D01*
X656697Y-268702D02*
X652698D01*
Y-271701D01*
X654697Y-270701D01*
X655697D01*
X656697Y-271701D01*
Y-273700D01*
X655697Y-274700D01*
X653698D01*
X652698Y-273700D01*
X658696Y-268702D02*
X662695D01*
Y-269702D01*
X658696Y-273700D01*
Y-274700D01*
X651149Y-294752D02*
X650149Y-293752D01*
X648150D01*
X647150Y-294752D01*
Y-298750D01*
X648150Y-299750D01*
X650149D01*
X651149Y-298750D01*
X657147Y-293752D02*
X653148D01*
Y-296751D01*
X655147Y-295751D01*
X656147D01*
X657147Y-296751D01*
Y-298750D01*
X656147Y-299750D01*
X654148D01*
X653148Y-298750D01*
X663145Y-293752D02*
X661145Y-294752D01*
X659146Y-296751D01*
Y-298750D01*
X660146Y-299750D01*
X662145D01*
X663145Y-298750D01*
Y-297751D01*
X662145Y-296751D01*
X659146D01*
X659699Y-191202D02*
X658699Y-190202D01*
X656700D01*
X655700Y-191202D01*
Y-195200D01*
X656700Y-196200D01*
X658699D01*
X659699Y-195200D01*
X665697Y-190202D02*
X661698D01*
Y-193201D01*
X663697Y-192201D01*
X664697D01*
X665697Y-193201D01*
Y-195200D01*
X664697Y-196200D01*
X662698D01*
X661698Y-195200D01*
X671695Y-190202D02*
X667696D01*
Y-193201D01*
X669696Y-192201D01*
X670695D01*
X671695Y-193201D01*
Y-195200D01*
X670695Y-196200D01*
X668696D01*
X667696Y-195200D01*
X659599Y-215202D02*
X658599Y-214202D01*
X656600D01*
X655600Y-215202D01*
Y-219200D01*
X656600Y-220200D01*
X658599D01*
X659599Y-219200D01*
X665597Y-214202D02*
X661598D01*
Y-217201D01*
X663597Y-216201D01*
X664597D01*
X665597Y-217201D01*
Y-219200D01*
X664597Y-220200D01*
X662598D01*
X661598Y-219200D01*
X670595Y-220200D02*
Y-214202D01*
X667596Y-217201D01*
X671595D01*
X673699Y-252202D02*
X672699Y-251202D01*
X670700D01*
X669700Y-252202D01*
Y-256200D01*
X670700Y-257200D01*
X672699D01*
X673699Y-256200D01*
X679697Y-251202D02*
X675698D01*
Y-254201D01*
X677697Y-253201D01*
X678697D01*
X679697Y-254201D01*
Y-256200D01*
X678697Y-257200D01*
X676698D01*
X675698Y-256200D01*
X681696Y-252202D02*
X682696Y-251202D01*
X684695D01*
X685695Y-252202D01*
Y-253201D01*
X684695Y-254201D01*
X683696D01*
X684695D01*
X685695Y-255201D01*
Y-256200D01*
X684695Y-257200D01*
X682696D01*
X681696Y-256200D01*
X677699Y-172702D02*
X676699Y-171702D01*
X674700D01*
X673700Y-172702D01*
Y-176700D01*
X674700Y-177700D01*
X676699D01*
X677699Y-176700D01*
X683697Y-171702D02*
X679698D01*
Y-174701D01*
X681697Y-173701D01*
X682697D01*
X683697Y-174701D01*
Y-176700D01*
X682697Y-177700D01*
X680698D01*
X679698Y-176700D01*
X689695Y-177700D02*
X685696D01*
X689695Y-173701D01*
Y-172702D01*
X688695Y-171702D01*
X686696D01*
X685696Y-172702D01*
X563699Y-267202D02*
X562699Y-266202D01*
X560700D01*
X559700Y-267202D01*
Y-271200D01*
X560700Y-272200D01*
X562699D01*
X563699Y-271200D01*
X569697Y-266202D02*
X565698D01*
Y-269201D01*
X567697Y-268201D01*
X568697D01*
X569697Y-269201D01*
Y-271200D01*
X568697Y-272200D01*
X566698D01*
X565698Y-271200D01*
X571696Y-272200D02*
X573696D01*
X572696D01*
Y-266202D01*
X571696Y-267202D01*
X564099Y-292202D02*
X563099Y-291202D01*
X561100D01*
X560100Y-292202D01*
Y-296200D01*
X561100Y-297200D01*
X563099D01*
X564099Y-296200D01*
X570097Y-291202D02*
X566098D01*
Y-294201D01*
X568097Y-293201D01*
X569097D01*
X570097Y-294201D01*
Y-296200D01*
X569097Y-297200D01*
X567098D01*
X566098Y-296200D01*
X572096Y-292202D02*
X573096Y-291202D01*
X575095D01*
X576095Y-292202D01*
Y-296200D01*
X575095Y-297200D01*
X573096D01*
X572096Y-296200D01*
Y-292202D01*
X568699Y-188202D02*
X567699Y-187202D01*
X565700D01*
X564700Y-188202D01*
Y-192200D01*
X565700Y-193200D01*
X567699D01*
X568699Y-192200D01*
X573697Y-193200D02*
Y-187202D01*
X570698Y-190201D01*
X574697D01*
X576696Y-192200D02*
X577696Y-193200D01*
X579695D01*
X580695Y-192200D01*
Y-188202D01*
X579695Y-187202D01*
X577696D01*
X576696Y-188202D01*
Y-189201D01*
X577696Y-190201D01*
X580695D01*
X567599Y-212802D02*
X566599Y-211802D01*
X564600D01*
X563600Y-212802D01*
Y-216800D01*
X564600Y-217800D01*
X566599D01*
X567599Y-216800D01*
X572597Y-217800D02*
Y-211802D01*
X569598Y-214801D01*
X573597D01*
X575596Y-212802D02*
X576596Y-211802D01*
X578595D01*
X579595Y-212802D01*
Y-213801D01*
X578595Y-214801D01*
X579595Y-215801D01*
Y-216800D01*
X578595Y-217800D01*
X576596D01*
X575596Y-216800D01*
Y-215801D01*
X576596Y-214801D01*
X575596Y-213801D01*
Y-212802D01*
X576596Y-214801D02*
X578595D01*
X583199Y-255202D02*
X582199Y-254202D01*
X580200D01*
X579200Y-255202D01*
Y-259200D01*
X580200Y-260200D01*
X582199D01*
X583199Y-259200D01*
X588197Y-260200D02*
Y-254202D01*
X585198Y-257201D01*
X589197D01*
X591196Y-254202D02*
X595195D01*
Y-255202D01*
X591196Y-259200D01*
Y-260200D01*
X589599Y-169202D02*
X588599Y-168202D01*
X586600D01*
X585600Y-169202D01*
Y-173200D01*
X586600Y-174200D01*
X588599D01*
X589599Y-173200D01*
X594597Y-174200D02*
Y-168202D01*
X591598Y-171201D01*
X595597D01*
X601595Y-168202D02*
X599595Y-169202D01*
X597596Y-171201D01*
Y-173200D01*
X598596Y-174200D01*
X600595D01*
X601595Y-173200D01*
Y-172201D01*
X600595Y-171201D01*
X597596D01*
X427699Y-284702D02*
X426699Y-283702D01*
X424700D01*
X423700Y-284702D01*
Y-288700D01*
X424700Y-289700D01*
X426699D01*
X427699Y-288700D01*
X432697Y-289700D02*
Y-283702D01*
X429698Y-286701D01*
X433697D01*
X439695Y-283702D02*
X435696D01*
Y-286701D01*
X437696Y-285701D01*
X438695D01*
X439695Y-286701D01*
Y-288700D01*
X438695Y-289700D01*
X436696D01*
X435696Y-288700D01*
X503699Y-283702D02*
X502699Y-282702D01*
X500700D01*
X499700Y-283702D01*
Y-287700D01*
X500700Y-288700D01*
X502699D01*
X503699Y-287700D01*
X508697Y-288700D02*
Y-282702D01*
X505698Y-285701D01*
X509697D01*
X514695Y-288700D02*
Y-282702D01*
X511696Y-285701D01*
X515695D01*
X503199Y-209302D02*
X502199Y-208302D01*
X500200D01*
X499200Y-209302D01*
Y-213300D01*
X500200Y-214300D01*
X502199D01*
X503199Y-213300D01*
X508197Y-214300D02*
Y-208302D01*
X505198Y-211301D01*
X509197D01*
X511196Y-209302D02*
X512196Y-208302D01*
X514195D01*
X515195Y-209302D01*
Y-210301D01*
X514195Y-211301D01*
X513196D01*
X514195D01*
X515195Y-212301D01*
Y-213300D01*
X514195Y-214300D01*
X512196D01*
X511196Y-213300D01*
X426699Y-206302D02*
X425699Y-205302D01*
X423700D01*
X422700Y-206302D01*
Y-210300D01*
X423700Y-211300D01*
X425699D01*
X426699Y-210300D01*
X431697Y-211300D02*
Y-205302D01*
X428698Y-208301D01*
X432697D01*
X438695Y-211300D02*
X434696D01*
X438695Y-207301D01*
Y-206302D01*
X437695Y-205302D01*
X435696D01*
X434696Y-206302D01*
X108939Y-101623D02*
X107939Y-100623D01*
X105940D01*
X104940Y-101623D01*
Y-105622D01*
X105940Y-106621D01*
X107939D01*
X108939Y-105622D01*
X113937Y-106621D02*
Y-100623D01*
X110938Y-103622D01*
X114937D01*
X116936Y-106621D02*
X118936D01*
X117936D01*
Y-100623D01*
X116936Y-101623D01*
X129939Y-121623D02*
X128939Y-120623D01*
X126940D01*
X125940Y-121623D01*
Y-125622D01*
X126940Y-126621D01*
X128939D01*
X129939Y-125622D01*
X134937Y-126621D02*
Y-120623D01*
X131938Y-123622D01*
X135937D01*
X137936Y-121623D02*
X138936Y-120623D01*
X140935D01*
X141935Y-121623D01*
Y-125622D01*
X140935Y-126621D01*
X138936D01*
X137936Y-125622D01*
Y-121623D01*
X168199Y-183702D02*
X167199Y-182702D01*
X165200D01*
X164200Y-183702D01*
Y-187700D01*
X165200Y-188700D01*
X167199D01*
X168199Y-187700D01*
X170198Y-183702D02*
X171198Y-182702D01*
X173197D01*
X174197Y-183702D01*
Y-184701D01*
X173197Y-185701D01*
X172197D01*
X173197D01*
X174197Y-186701D01*
Y-187700D01*
X173197Y-188700D01*
X171198D01*
X170198Y-187700D01*
X176196D02*
X177196Y-188700D01*
X179195D01*
X180195Y-187700D01*
Y-183702D01*
X179195Y-182702D01*
X177196D01*
X176196Y-183702D01*
Y-184701D01*
X177196Y-185701D01*
X180195D01*
X135099Y-211702D02*
X134099Y-210702D01*
X132100D01*
X131100Y-211702D01*
Y-215700D01*
X132100Y-216700D01*
X134099D01*
X135099Y-215700D01*
X137098Y-211702D02*
X138098Y-210702D01*
X140097D01*
X141097Y-211702D01*
Y-212701D01*
X140097Y-213701D01*
X139097D01*
X140097D01*
X141097Y-214701D01*
Y-215700D01*
X140097Y-216700D01*
X138098D01*
X137098Y-215700D01*
X143096Y-211702D02*
X144096Y-210702D01*
X146095D01*
X147095Y-211702D01*
Y-212701D01*
X146095Y-213701D01*
X147095Y-214701D01*
Y-215700D01*
X146095Y-216700D01*
X144096D01*
X143096Y-215700D01*
Y-214701D01*
X144096Y-213701D01*
X143096Y-212701D01*
Y-211702D01*
X144096Y-213701D02*
X146095D01*
X83149Y-206252D02*
X82149Y-205252D01*
X80150D01*
X79150Y-206252D01*
Y-210250D01*
X80150Y-211250D01*
X82149D01*
X83149Y-210250D01*
X85148Y-206252D02*
X86148Y-205252D01*
X88147D01*
X89147Y-206252D01*
Y-207251D01*
X88147Y-208251D01*
X87147D01*
X88147D01*
X89147Y-209251D01*
Y-210250D01*
X88147Y-211250D01*
X86148D01*
X85148Y-210250D01*
X91146Y-205252D02*
X95145D01*
Y-206252D01*
X91146Y-210250D01*
Y-211250D01*
X83149Y-230752D02*
X82149Y-229752D01*
X80150D01*
X79150Y-230752D01*
Y-234750D01*
X80150Y-235750D01*
X82149D01*
X83149Y-234750D01*
X85148Y-230752D02*
X86148Y-229752D01*
X88147D01*
X89147Y-230752D01*
Y-231751D01*
X88147Y-232751D01*
X87147D01*
X88147D01*
X89147Y-233751D01*
Y-234750D01*
X88147Y-235750D01*
X86148D01*
X85148Y-234750D01*
X95145Y-229752D02*
X93146Y-230752D01*
X91146Y-232751D01*
Y-234750D01*
X92146Y-235750D01*
X94145D01*
X95145Y-234750D01*
Y-233751D01*
X94145Y-232751D01*
X91146D01*
X296649Y-222535D02*
X295649Y-221535D01*
X293650D01*
X292650Y-222535D01*
Y-226534D01*
X293650Y-227533D01*
X295649D01*
X296649Y-226534D01*
X298648Y-222535D02*
X299648Y-221535D01*
X301647D01*
X302647Y-222535D01*
Y-223535D01*
X301647Y-224534D01*
X300647D01*
X301647D01*
X302647Y-225534D01*
Y-226534D01*
X301647Y-227533D01*
X299648D01*
X298648Y-226534D01*
X308645Y-221535D02*
X304646D01*
Y-224534D01*
X306645Y-223535D01*
X307645D01*
X308645Y-224534D01*
Y-226534D01*
X307645Y-227533D01*
X305646D01*
X304646Y-226534D01*
X221525Y-219035D02*
X220525Y-218035D01*
X218526D01*
X217526Y-219035D01*
Y-223034D01*
X218526Y-224033D01*
X220525D01*
X221525Y-223034D01*
X223524Y-219035D02*
X224524Y-218035D01*
X226523D01*
X227523Y-219035D01*
Y-220035D01*
X226523Y-221034D01*
X225524D01*
X226523D01*
X227523Y-222034D01*
Y-223034D01*
X226523Y-224033D01*
X224524D01*
X223524Y-223034D01*
X232522Y-224033D02*
Y-218035D01*
X229522Y-221034D01*
X233521D01*
X332269Y-121202D02*
X331270Y-120202D01*
X329270D01*
X328271Y-121202D01*
Y-125200D01*
X329270Y-126200D01*
X331270D01*
X332269Y-125200D01*
X334269Y-121202D02*
X335268Y-120202D01*
X337268D01*
X338267Y-121202D01*
Y-122201D01*
X337268Y-123201D01*
X336268D01*
X337268D01*
X338267Y-124201D01*
Y-125200D01*
X337268Y-126200D01*
X335268D01*
X334269Y-125200D01*
X340267Y-121202D02*
X341266Y-120202D01*
X343266D01*
X344266Y-121202D01*
Y-122201D01*
X343266Y-123201D01*
X342266D01*
X343266D01*
X344266Y-124201D01*
Y-125200D01*
X343266Y-126200D01*
X341266D01*
X340267Y-125200D01*
X172499Y-123002D02*
X171499Y-122002D01*
X169500D01*
X168500Y-123002D01*
Y-127000D01*
X169500Y-128000D01*
X171499D01*
X172499Y-127000D01*
X174498Y-123002D02*
X175498Y-122002D01*
X177497D01*
X178497Y-123002D01*
Y-124001D01*
X177497Y-125001D01*
X176497D01*
X177497D01*
X178497Y-126001D01*
Y-127000D01*
X177497Y-128000D01*
X175498D01*
X174498Y-127000D01*
X184495Y-128000D02*
X180496D01*
X184495Y-124001D01*
Y-123002D01*
X183495Y-122002D01*
X181496D01*
X180496Y-123002D01*
X256199Y-126117D02*
X255199Y-125117D01*
X253200D01*
X252200Y-126117D01*
Y-130115D01*
X253200Y-131115D01*
X255199D01*
X256199Y-130115D01*
X258198Y-126117D02*
X259198Y-125117D01*
X261197D01*
X262197Y-126117D01*
Y-127116D01*
X261197Y-128116D01*
X260197D01*
X261197D01*
X262197Y-129116D01*
Y-130115D01*
X261197Y-131115D01*
X259198D01*
X258198Y-130115D01*
X264196Y-131115D02*
X266196D01*
X265196D01*
Y-125117D01*
X264196Y-126117D01*
X904131Y-83442D02*
X903131Y-82442D01*
X901132D01*
X900132Y-83442D01*
Y-87441D01*
X901132Y-88440D01*
X903131D01*
X904131Y-87441D01*
X906130Y-83442D02*
X907130Y-82442D01*
X909129D01*
X910129Y-83442D01*
Y-84441D01*
X909129Y-85441D01*
X908129D01*
X909129D01*
X910129Y-86441D01*
Y-87441D01*
X909129Y-88440D01*
X907130D01*
X906130Y-87441D01*
X912128Y-83442D02*
X913128Y-82442D01*
X915127D01*
X916127Y-83442D01*
Y-87441D01*
X915127Y-88440D01*
X913128D01*
X912128Y-87441D01*
Y-83442D01*
X884936Y-83492D02*
X883936Y-82492D01*
X881937D01*
X880937Y-83492D01*
Y-87490D01*
X881937Y-88490D01*
X883936D01*
X884936Y-87490D01*
X890934Y-88490D02*
X886936D01*
X890934Y-84491D01*
Y-83492D01*
X889935Y-82492D01*
X887935D01*
X886936Y-83492D01*
X892933Y-87490D02*
X893933Y-88490D01*
X895933D01*
X896932Y-87490D01*
Y-83492D01*
X895933Y-82492D01*
X893933D01*
X892933Y-83492D01*
Y-84491D01*
X893933Y-85491D01*
X896932D01*
X884886Y-108942D02*
X883886Y-107942D01*
X881887D01*
X880887Y-108942D01*
Y-112941D01*
X881887Y-113940D01*
X883886D01*
X884886Y-112941D01*
X890884Y-113940D02*
X886886D01*
X890884Y-109941D01*
Y-108942D01*
X889884Y-107942D01*
X887885D01*
X886886Y-108942D01*
X892883D02*
X893883Y-107942D01*
X895883D01*
X896882Y-108942D01*
Y-109941D01*
X895883Y-110941D01*
X896882Y-111941D01*
Y-112941D01*
X895883Y-113940D01*
X893883D01*
X892883Y-112941D01*
Y-111941D01*
X893883Y-110941D01*
X892883Y-109941D01*
Y-108942D01*
X893883Y-110941D02*
X895883D01*
X791259Y-87752D02*
X790260Y-86752D01*
X788260D01*
X787261Y-87752D01*
Y-91750D01*
X788260Y-92750D01*
X790260D01*
X791259Y-91750D01*
X797258Y-92750D02*
X793259D01*
X797258Y-88751D01*
Y-87752D01*
X796258Y-86752D01*
X794258D01*
X793259Y-87752D01*
X799257Y-86752D02*
X803256D01*
Y-87752D01*
X799257Y-91750D01*
Y-92750D01*
X771465Y-86702D02*
X770465Y-85702D01*
X768466D01*
X767466Y-86702D01*
Y-90700D01*
X768466Y-91700D01*
X770465D01*
X771465Y-90700D01*
X777463Y-91700D02*
X773464D01*
X777463Y-87701D01*
Y-86702D01*
X776463Y-85702D01*
X774464D01*
X773464Y-86702D01*
X783461Y-85702D02*
X781462Y-86702D01*
X779462Y-88701D01*
Y-90700D01*
X780462Y-91700D01*
X782461D01*
X783461Y-90700D01*
Y-89701D01*
X782461Y-88701D01*
X779462D01*
X673259Y-91252D02*
X672260Y-90252D01*
X670260D01*
X669261Y-91252D01*
Y-95250D01*
X670260Y-96250D01*
X672260D01*
X673259Y-95250D01*
X679257Y-96250D02*
X675259D01*
X679257Y-92251D01*
Y-91252D01*
X678258Y-90252D01*
X676259D01*
X675259Y-91252D01*
X685256Y-90252D02*
X681257D01*
Y-93251D01*
X683256Y-92251D01*
X684256D01*
X685256Y-93251D01*
Y-95250D01*
X684256Y-96250D01*
X682257D01*
X681257Y-95250D01*
X771465Y-112202D02*
X770465Y-111202D01*
X768466D01*
X767466Y-112202D01*
Y-116200D01*
X768466Y-117200D01*
X770465D01*
X771465Y-116200D01*
X777463Y-117200D02*
X773464D01*
X777463Y-113201D01*
Y-112202D01*
X776463Y-111202D01*
X774464D01*
X773464Y-112202D01*
X782461Y-117200D02*
Y-111202D01*
X779462Y-114201D01*
X783461D01*
X653515Y-91252D02*
X652515Y-90252D01*
X650516D01*
X649516Y-91252D01*
Y-95250D01*
X650516Y-96250D01*
X652515D01*
X653515Y-95250D01*
X659513Y-96250D02*
X655514D01*
X659513Y-92251D01*
Y-91252D01*
X658513Y-90252D01*
X656514D01*
X655514Y-91252D01*
X661512D02*
X662512Y-90252D01*
X664511D01*
X665511Y-91252D01*
Y-92251D01*
X664511Y-93251D01*
X663512D01*
X664511D01*
X665511Y-94251D01*
Y-95250D01*
X664511Y-96250D01*
X662512D01*
X661512Y-95250D01*
X653515Y-115752D02*
X652515Y-114752D01*
X650516D01*
X649516Y-115752D01*
Y-119750D01*
X650516Y-120750D01*
X652515D01*
X653515Y-119750D01*
X659513Y-120750D02*
X655514D01*
X659513Y-116751D01*
Y-115752D01*
X658513Y-114752D01*
X656514D01*
X655514Y-115752D01*
X665511Y-120750D02*
X661512D01*
X665511Y-116751D01*
Y-115752D01*
X664511Y-114752D01*
X662512D01*
X661512Y-115752D01*
X576465Y-90202D02*
X575465Y-89202D01*
X573466D01*
X572466Y-90202D01*
Y-94200D01*
X573466Y-95200D01*
X575465D01*
X576465Y-94200D01*
X582463Y-95200D02*
X578464D01*
X582463Y-91201D01*
Y-90202D01*
X581463Y-89202D01*
X579464D01*
X578464Y-90202D01*
X584462Y-95200D02*
X586462D01*
X585462D01*
Y-89202D01*
X584462Y-90202D01*
X472515Y-94118D02*
X471515Y-93118D01*
X469516D01*
X468516Y-94118D01*
Y-98116D01*
X469516Y-99116D01*
X471515D01*
X472515Y-98116D01*
X478513Y-99116D02*
X474514D01*
X478513Y-95117D01*
Y-94118D01*
X477513Y-93118D01*
X475514D01*
X474514Y-94118D01*
X480512D02*
X481512Y-93118D01*
X483511D01*
X484511Y-94118D01*
Y-98116D01*
X483511Y-99116D01*
X481512D01*
X480512Y-98116D01*
Y-94118D01*
X558965Y-90202D02*
X557965Y-89202D01*
X555966D01*
X554966Y-90202D01*
Y-94200D01*
X555966Y-95200D01*
X557965D01*
X558965Y-94200D01*
X560964Y-95200D02*
X562964D01*
X561964D01*
Y-89202D01*
X560964Y-90202D01*
X565963Y-94200D02*
X566962Y-95200D01*
X568962D01*
X569961Y-94200D01*
Y-90202D01*
X568962Y-89202D01*
X566962D01*
X565963Y-90202D01*
Y-91201D01*
X566962Y-92201D01*
X569961D01*
X452965Y-94068D02*
X451965Y-93068D01*
X449966D01*
X448966Y-94068D01*
Y-98067D01*
X449966Y-99066D01*
X451965D01*
X452965Y-98067D01*
X454964Y-99066D02*
X456964D01*
X455964D01*
Y-93068D01*
X454964Y-94068D01*
X459963D02*
X460962Y-93068D01*
X462962D01*
X463961Y-94068D01*
Y-95067D01*
X462962Y-96067D01*
X463961Y-97067D01*
Y-98067D01*
X462962Y-99066D01*
X460962D01*
X459963Y-98067D01*
Y-97067D01*
X460962Y-96067D01*
X459963Y-95067D01*
Y-94068D01*
X460962Y-96067D02*
X462962D01*
X558965Y-114702D02*
X557965Y-113702D01*
X555966D01*
X554966Y-114702D01*
Y-118700D01*
X555966Y-119700D01*
X557965D01*
X558965Y-118700D01*
X560964Y-119700D02*
X562964D01*
X561964D01*
Y-113702D01*
X560964Y-114702D01*
X565963Y-113702D02*
X569961D01*
Y-114702D01*
X565963Y-118700D01*
Y-119700D01*
X452965Y-120398D02*
X451965Y-119399D01*
X449966D01*
X448966Y-120398D01*
Y-124397D01*
X449966Y-125397D01*
X451965D01*
X452965Y-124397D01*
X454964Y-125397D02*
X456964D01*
X455964D01*
Y-119399D01*
X454964Y-120398D01*
X463961Y-119399D02*
X461962Y-120398D01*
X459963Y-122398D01*
Y-124397D01*
X460962Y-125397D01*
X462962D01*
X463961Y-124397D01*
Y-123398D01*
X462962Y-122398D01*
X459963D01*
X919299Y-197302D02*
X918299Y-196302D01*
X916300D01*
X915300Y-197302D01*
Y-201300D01*
X916300Y-202300D01*
X918299D01*
X919299Y-201300D01*
X921298Y-197302D02*
X922298Y-196302D01*
X924297D01*
X925297Y-197302D01*
Y-198301D01*
X924297Y-199301D01*
X923297D01*
X924297D01*
X925297Y-200301D01*
Y-201300D01*
X924297Y-202300D01*
X922298D01*
X921298Y-201300D01*
X806265Y-180902D02*
X805265Y-179902D01*
X803266D01*
X802266Y-180902D01*
Y-184900D01*
X803266Y-185900D01*
X805265D01*
X806265Y-184900D01*
X812263Y-185900D02*
X808264D01*
X812263Y-181901D01*
Y-180902D01*
X811263Y-179902D01*
X809264D01*
X808264Y-180902D01*
X740299Y-198402D02*
X739299Y-197402D01*
X737300D01*
X736300Y-198402D01*
Y-202400D01*
X737300Y-203400D01*
X739299D01*
X740299Y-202400D01*
X742298Y-203400D02*
X744297D01*
X743298D01*
Y-197402D01*
X742298Y-198402D01*
X901900Y-10800D02*
Y-6801D01*
X903899Y-4802D01*
X905899Y-6801D01*
Y-10800D01*
Y-7801D01*
X901900D01*
X907898Y-4802D02*
Y-10800D01*
X910897D01*
X911897Y-9800D01*
Y-5802D01*
X910897Y-4802D01*
X907898D01*
X917895Y-5802D02*
X916895Y-4802D01*
X914896D01*
X913896Y-5802D01*
Y-9800D01*
X914896Y-10800D01*
X916895D01*
X917895Y-9800D01*
X923893Y-4802D02*
X919894D01*
Y-7801D01*
X921894Y-6801D01*
X922893D01*
X923893Y-7801D01*
Y-9800D01*
X922893Y-10800D01*
X920894D01*
X919894Y-9800D01*
X822400Y-10800D02*
Y-6801D01*
X824399Y-4802D01*
X826399Y-6801D01*
Y-10800D01*
Y-7801D01*
X822400D01*
X828398Y-4802D02*
Y-10800D01*
X831397D01*
X832397Y-9800D01*
Y-5802D01*
X831397Y-4802D01*
X828398D01*
X838395Y-5802D02*
X837395Y-4802D01*
X835396D01*
X834396Y-5802D01*
Y-9800D01*
X835396Y-10800D01*
X837395D01*
X838395Y-9800D01*
X843393Y-10800D02*
Y-4802D01*
X840394Y-7801D01*
X844393D01*
D15*
X1010265Y-228300D02*
X1011098Y-229133D01*
Y-230799D01*
X1010265Y-231632D01*
X1009432D01*
X1008599Y-230799D01*
Y-229966D01*
Y-230799D01*
X1007766Y-231632D01*
X1006933D01*
X1006100Y-230799D01*
Y-229133D01*
X1006933Y-228300D01*
Y-233298D02*
X1006100Y-234131D01*
Y-235798D01*
X1006933Y-236631D01*
X1010265D01*
X1011098Y-235798D01*
Y-234131D01*
X1010265Y-233298D01*
X1009432D01*
X1008599Y-234131D01*
Y-236631D01*
X971700Y-228899D02*
X976698D01*
X974199Y-226400D01*
Y-229732D01*
X975865Y-231398D02*
X976698Y-232231D01*
Y-233898D01*
X975865Y-234731D01*
X972533D01*
X971700Y-233898D01*
Y-232231D01*
X972533Y-231398D01*
X975865D01*
X974900Y-27932D02*
Y-24600D01*
X978232Y-27932D01*
X979065D01*
X979898Y-27099D01*
Y-25433D01*
X979065Y-24600D01*
X1003900Y-25800D02*
Y-27466D01*
Y-26633D01*
X1008898D01*
X1008065Y-25800D01*
M02*
