%TF.GenerationSoftware,Altium Limited,Altium Designer,21.2.2 (38)*%
G04 Layer_Color=16711935*
%FSLAX26Y26*%
%MOIN*%
%TF.SameCoordinates,72563302-9CA4-4070-8E96-6B9CF41BC73D*%
%TF.FilePolarity,Negative*%
%TF.FileFunction,Soldermask,Bot*%
%TF.Part,Single*%
G01*
G75*
%TA.AperFunction,ComponentPad*%
%ADD36R,0.072835X0.072835*%
%ADD37C,0.072835*%
%ADD38R,0.053150X0.053150*%
%ADD39C,0.053150*%
%ADD40C,0.064961*%
%ADD41R,0.064961X0.064961*%
%ADD42R,0.064961X0.064961*%
%ADD43R,0.045276X0.045276*%
%ADD44C,0.045276*%
%ADD45C,0.070866*%
%TA.AperFunction,ViaPad*%
%ADD46C,0.250000*%
%TA.AperFunction,ComponentPad*%
%ADD47C,0.084646*%
G04:AMPARAMS|DCode=48|XSize=52.381mil|YSize=52.381mil|CornerRadius=0mil|HoleSize=0mil|Usage=FLASHONLY|Rotation=0.000|XOffset=0mil|YOffset=0mil|HoleType=Round|Shape=Octagon|*
%AMOCTAGOND48*
4,1,8,0.026191,-0.013095,0.026191,0.013095,0.013095,0.026191,-0.013095,0.026191,-0.026191,0.013095,-0.026191,-0.013095,-0.013095,-0.026191,0.013095,-0.026191,0.026191,-0.013095,0.0*
%
%ADD48OCTAGOND48*%

%TA.AperFunction,ViaPad*%
%ADD49C,0.029528*%
D36*
X1063190Y-2200000D02*
D03*
X2593190Y-270000D02*
D03*
X2226190D02*
D03*
X1859190D02*
D03*
X1492190D02*
D03*
X1125190D02*
D03*
X758190D02*
D03*
D37*
X1063190Y-2300000D02*
D03*
Y-2400000D02*
D03*
X2593190Y-370000D02*
D03*
Y-470000D02*
D03*
X2226190Y-370000D02*
D03*
Y-470000D02*
D03*
X1859190Y-370000D02*
D03*
Y-470000D02*
D03*
X1492190Y-370000D02*
D03*
Y-470000D02*
D03*
X1125190Y-370000D02*
D03*
Y-470000D02*
D03*
X758190Y-370000D02*
D03*
Y-470000D02*
D03*
D38*
X3000000Y-2061850D02*
D03*
X2235000Y-2050000D02*
D03*
X3320000Y-1070000D02*
D03*
X2585000Y-1088150D02*
D03*
X1770000Y-1075000D02*
D03*
D39*
X3100000Y-2061850D02*
D03*
X3200000D02*
D03*
X2335000Y-2050000D02*
D03*
X2435000D02*
D03*
X3420000Y-1070000D02*
D03*
X3520000D02*
D03*
X2685000Y-1088150D02*
D03*
X2785000D02*
D03*
X1870000Y-1075000D02*
D03*
X1970000D02*
D03*
D40*
X8215000Y-3045000D02*
D03*
X8115000D02*
D03*
X8015000D02*
D03*
X7915000D02*
D03*
X3355000Y-3070000D02*
D03*
X8815000Y-2545000D02*
D03*
X8715000D02*
D03*
X8615000D02*
D03*
X8515000D02*
D03*
X8415000D02*
D03*
X8315000D02*
D03*
X8215000D02*
D03*
X8115000D02*
D03*
X8015000D02*
D03*
X7915000D02*
D03*
X9966000Y-342000D02*
D03*
X9866000Y-442000D02*
D03*
X9966000D02*
D03*
X9866000Y-542000D02*
D03*
X9966000D02*
D03*
X9866000Y-642000D02*
D03*
X9966000D02*
D03*
X9866000Y-742000D02*
D03*
X9966000D02*
D03*
X9866000Y-842000D02*
D03*
X9966000D02*
D03*
X9866000Y-942000D02*
D03*
X9966000D02*
D03*
X9866000Y-1042000D02*
D03*
X9966000D02*
D03*
X9866000Y-1142000D02*
D03*
X9966000D02*
D03*
X9866000Y-1242000D02*
D03*
X9966000D02*
D03*
X9866000Y-1342000D02*
D03*
X9966000D02*
D03*
X9866000Y-1442000D02*
D03*
X9966000D02*
D03*
X9866000Y-1542000D02*
D03*
X9966000D02*
D03*
X9866000Y-1642000D02*
D03*
X9966000D02*
D03*
X9866000Y-1742000D02*
D03*
X9966000D02*
D03*
X9866000Y-1842000D02*
D03*
X9966000D02*
D03*
X9866000Y-1942000D02*
D03*
X9966000D02*
D03*
X9866000Y-2042000D02*
D03*
X9966000D02*
D03*
X9866000Y-2142000D02*
D03*
X9966000D02*
D03*
X9866000Y-2242000D02*
D03*
X9966000D02*
D03*
D41*
X7815000Y-3045000D02*
D03*
Y-2545000D02*
D03*
D42*
X3355000Y-3170000D02*
D03*
X9866000Y-342000D02*
D03*
D43*
X9220826Y-1011422D02*
D03*
X8086614Y-1044020D02*
D03*
X6913662Y-1070000D02*
D03*
X5933662Y-1080000D02*
D03*
X4900000Y-1120000D02*
D03*
X3603662Y-3120000D02*
D03*
X2660000Y-3195000D02*
D03*
X2385000Y-3200000D02*
D03*
D44*
X9220826Y-961422D02*
D03*
X8086614Y-994020D02*
D03*
X6913662Y-1020000D02*
D03*
X5933662Y-1030000D02*
D03*
X4900000Y-1070000D02*
D03*
X3603662Y-3070000D02*
D03*
X2660000Y-3145000D02*
D03*
X2385000Y-3150000D02*
D03*
D45*
X1440000Y-1745000D02*
D03*
X740000D02*
D03*
D46*
X9916000Y-150268D02*
D03*
Y-2433732D02*
D03*
X11845134D02*
D03*
Y-150268D02*
D03*
D47*
X4430000Y-430000D02*
D03*
X4292204Y-233150D02*
D03*
X5152480Y-430000D02*
D03*
X5014686Y-233150D02*
D03*
X4876890Y-430000D02*
D03*
X4739094Y-233150D02*
D03*
X5853110Y-430000D02*
D03*
X5715314Y-233150D02*
D03*
X5577520Y-430000D02*
D03*
X5439724Y-233150D02*
D03*
X6553740Y-430000D02*
D03*
X6415944Y-233150D02*
D03*
X6278150Y-430000D02*
D03*
X6140354Y-233150D02*
D03*
X7254370Y-430000D02*
D03*
X7116574Y-233150D02*
D03*
X6978780Y-430000D02*
D03*
X6840984Y-233150D02*
D03*
X3722834Y-238150D02*
D03*
X3860630Y-435000D02*
D03*
X7955000Y-430000D02*
D03*
X7817204Y-233150D02*
D03*
X7679410Y-430000D02*
D03*
X7541614Y-233150D02*
D03*
X430000Y-1859410D02*
D03*
X233150Y-1997204D02*
D03*
X430000Y-2135000D02*
D03*
X233150Y-2272796D02*
D03*
X8760590Y-430000D02*
D03*
X8622796Y-233150D02*
D03*
X8485000Y-430000D02*
D03*
X8347204Y-233150D02*
D03*
X9142204D02*
D03*
X9280000Y-430000D02*
D03*
X9417796Y-233150D02*
D03*
X9555590Y-430000D02*
D03*
X445000Y-1059410D02*
D03*
X248150Y-1197204D02*
D03*
X445000Y-1335000D02*
D03*
X248150Y-1472796D02*
D03*
X3435590Y-435000D02*
D03*
X3297796Y-238150D02*
D03*
X3160000Y-435000D02*
D03*
X3022204Y-238150D02*
D03*
D48*
X1151666Y-3180000D02*
D03*
X1051666D02*
D03*
X1498334D02*
D03*
X1398334D02*
D03*
X1845000D02*
D03*
X1745000D02*
D03*
X805000D02*
D03*
X705000D02*
D03*
D49*
X6589000Y-1101338D02*
D03*
X7574000Y-1075000D02*
D03*
X5214662Y-1091338D02*
D03*
X4672686Y-1214686D02*
D03*
X8530000Y-2178000D02*
D03*
X8713000Y-1847000D02*
D03*
X8733000Y-495000D02*
D03*
X9417796Y-1981754D02*
D03*
X9486000Y-1747000D02*
D03*
X2765000Y-1351000D02*
D03*
X2269000D02*
D03*
X2955000Y-2850000D02*
D03*
X8318000Y-65000D02*
D03*
X2555000Y-2541000D02*
D03*
X2243796Y-2302732D02*
D03*
X2111700Y-1602850D02*
D03*
X2432000Y-2545000D02*
D03*
X2673000Y-2507000D02*
D03*
X9260000Y-1880000D02*
D03*
X7674412Y-1862000D02*
D03*
X8404000Y-1880000D02*
D03*
X8403000Y-1916812D02*
D03*
X7674000Y-1932500D02*
D03*
X6396338Y-1627338D02*
D03*
X7795000Y-1940000D02*
D03*
X6188000Y-1056000D02*
D03*
X3866338Y-1935000D02*
D03*
X8668000Y-2124000D02*
D03*
X6225000Y-2711000D02*
D03*
X8587000Y-2003000D02*
D03*
X5935000Y-1960000D02*
D03*
X6207812Y-1147188D02*
D03*
X4064000Y-2060000D02*
D03*
X9588000Y-177000D02*
D03*
X9537000Y-125000D02*
D03*
X4150000Y-2452000D02*
D03*
X5305000Y-2624000D02*
D03*
X5959000Y-1174000D02*
D03*
X8711000Y-2006182D02*
D03*
X3984000Y-1166000D02*
D03*
X7886000Y-2208000D02*
D03*
X5471338Y-1703338D02*
D03*
X4799000Y-2381000D02*
D03*
X7845000Y-2252000D02*
D03*
X9272000Y-904000D02*
D03*
X8516000Y-1085000D02*
D03*
X9036000Y-976000D02*
D03*
X9603000Y-1210000D02*
D03*
X3095000Y-2204000D02*
D03*
X3274000Y-2357000D02*
D03*
X5024000Y-945000D02*
D03*
X2015000Y-1721000D02*
D03*
X1777000Y-1618000D02*
D03*
X3600000Y-956000D02*
D03*
X3822000Y-150000D02*
D03*
X8394000Y-1810002D02*
D03*
X9330000Y-1292000D02*
D03*
X9694000Y-1260000D02*
D03*
X8489000D02*
D03*
X2120000Y-694000D02*
D03*
X6812000Y-1991000D02*
D03*
X8560000Y-2037000D02*
D03*
X1908000Y-522000D02*
D03*
X9527000Y-1703000D02*
D03*
X9440000Y-2065000D02*
D03*
X7571000Y-1835188D02*
D03*
X7691000Y-2027000D02*
D03*
X7810000Y-2148000D02*
D03*
X8635000Y-2003000D02*
D03*
X6798000Y-2554000D02*
D03*
X8687000Y-1429000D02*
D03*
X7797000Y-1851000D02*
D03*
X3270000Y-1143000D02*
D03*
X7675000Y-1714000D02*
D03*
X7108598Y-2832598D02*
D03*
X8480000Y-1139000D02*
D03*
X8826000Y-985000D02*
D03*
X8714000Y-1743262D02*
D03*
X3473000Y-1376000D02*
D03*
X2765000D02*
D03*
X4055000Y-3020000D02*
D03*
%TF.MD5,ec845f334c7921406808721c6fc1b942*%
M02*
