G04*
G04 #@! TF.GenerationSoftware,Altium Limited,Altium Designer,21.2.2 (38)*
G04*
G04 Layer_Color=32768*
%FSLAX25Y25*%
%MOIN*%
G70*
G04*
G04 #@! TF.SameCoordinates,995D3981-EE6D-4FB4-BC24-832038281B60*
G04*
G04*
G04 #@! TF.FilePolarity,Positive*
G04*
G01*
G75*
%ADD68C,0.00394*%
%ADD69C,0.00197*%
D68*
X856000Y-192469D02*
Y-188531D01*
X854031Y-190500D02*
X857969D01*
X771531Y-190750D02*
X775468D01*
X773500Y-192719D02*
Y-188781D01*
X941031Y-190500D02*
X944969D01*
X943000Y-192469D02*
Y-188531D01*
X481500Y-314468D02*
Y-310531D01*
X479532Y-312500D02*
X483469D01*
X451866Y-137165D02*
Y-133228D01*
X449898Y-135197D02*
X453835D01*
X471366Y-110835D02*
Y-106898D01*
X469398Y-108866D02*
X473335D01*
X770366Y-103469D02*
Y-99531D01*
X768398Y-101500D02*
X772335D01*
X789611Y-103469D02*
Y-99531D01*
X787642Y-101500D02*
X791579D01*
X903032Y-100209D02*
Y-96272D01*
X901064Y-98240D02*
X905001D01*
X254500Y-141783D02*
Y-137846D01*
X252532Y-139815D02*
X256469D01*
X330624Y-136921D02*
Y-132984D01*
X328655Y-134953D02*
X332592D01*
X219876Y-234752D02*
Y-230815D01*
X217908Y-232783D02*
X221845D01*
X295000Y-238252D02*
Y-234315D01*
X293032Y-236283D02*
X296969D01*
X128740Y-138390D02*
Y-134453D01*
X126772Y-136421D02*
X130709D01*
X108772Y-113421D02*
X112709D01*
X110740Y-115390D02*
Y-111453D01*
X589398Y-181000D02*
X593335D01*
X591366Y-182968D02*
Y-179031D01*
X566500Y-229602D02*
Y-225665D01*
X564532Y-227634D02*
X568469D01*
X673532Y-264000D02*
X677469D01*
X675500Y-265968D02*
Y-262031D01*
X650000Y-311469D02*
Y-307531D01*
X648032Y-309500D02*
X651969D01*
X649500Y-286468D02*
Y-282531D01*
X647532Y-284500D02*
X651469D01*
X243000Y-57968D02*
Y-54031D01*
X241032Y-56000D02*
X244969D01*
X634945Y-122209D02*
Y-118272D01*
X632976Y-120240D02*
X636913D01*
X751866Y-118468D02*
Y-114531D01*
X749898Y-116500D02*
X753835D01*
X863287Y-113209D02*
Y-109272D01*
X861319Y-111240D02*
X865256D01*
X284000Y-156783D02*
Y-152846D01*
X282032Y-154815D02*
X285969D01*
X323500Y-255968D02*
Y-252031D01*
X321532Y-254000D02*
X325469D01*
X405579Y-223209D02*
Y-219272D01*
X403610Y-221240D02*
X407547D01*
X584000Y-293335D02*
Y-289398D01*
X582032Y-291366D02*
X585969D01*
X679000Y-210468D02*
Y-206531D01*
X677032Y-208500D02*
X680969D01*
X675421Y-288968D02*
Y-285031D01*
X673453Y-287000D02*
X677390D01*
X240835Y-28000D02*
X244772D01*
X242803Y-29968D02*
Y-26031D01*
X471122Y-136968D02*
Y-133031D01*
X469153Y-135000D02*
X473090D01*
X593071Y-131272D02*
Y-127335D01*
X591102Y-129303D02*
X595039D01*
X575122Y-131272D02*
Y-127335D01*
X573153Y-129303D02*
X577090D01*
X808366Y-128772D02*
Y-124835D01*
X806398Y-126803D02*
X810335D01*
X789366Y-128772D02*
Y-124835D01*
X787398Y-126803D02*
X791335D01*
X728866Y-118469D02*
Y-114531D01*
X726898Y-116500D02*
X730835D01*
X921787Y-125512D02*
Y-121575D01*
X919819Y-123543D02*
X923756D01*
X902787Y-125512D02*
Y-121575D01*
X900819Y-123543D02*
X904756D01*
X496898Y-273500D02*
X500835D01*
X498866Y-275468D02*
Y-271531D01*
X457500Y-273835D02*
Y-269898D01*
X455532Y-271866D02*
X459469D01*
X405500Y-314968D02*
Y-311031D01*
X403532Y-313000D02*
X407469D01*
X108772Y-136421D02*
X112709D01*
X110740Y-138390D02*
Y-134453D01*
X298727Y-266654D02*
Y-262717D01*
X296758Y-264685D02*
X300695D01*
X305500Y-152043D02*
Y-148106D01*
X303532Y-150075D02*
X307469D01*
X348000Y-245414D02*
Y-241477D01*
X346032Y-243445D02*
X349969D01*
X219500Y-128969D02*
Y-125031D01*
X217532Y-127000D02*
X221469D01*
X150000Y-292468D02*
Y-288531D01*
X148032Y-290500D02*
X151969D01*
X740132Y-210200D02*
X744069D01*
X742100Y-212169D02*
Y-208232D01*
X806098Y-192700D02*
X810035D01*
X808066Y-194668D02*
Y-190731D01*
X919900Y-209369D02*
Y-205432D01*
X917932Y-207400D02*
X921869D01*
X557866Y-131469D02*
Y-127531D01*
X555898Y-129500D02*
X559835D01*
X451866Y-110835D02*
Y-106898D01*
X449898Y-108866D02*
X453835D01*
X557866Y-106969D02*
Y-103031D01*
X555898Y-105000D02*
X559835D01*
X573398D02*
X577335D01*
X575366Y-106969D02*
Y-103031D01*
X652366Y-132469D02*
Y-128531D01*
X650398Y-130500D02*
X654335D01*
X652366Y-107969D02*
Y-104031D01*
X650398Y-106000D02*
X654335D01*
X770366Y-128969D02*
Y-125031D01*
X768398Y-127000D02*
X772335D01*
X672111Y-107969D02*
Y-104031D01*
X670142Y-106000D02*
X674079D01*
X883787Y-125709D02*
Y-121772D01*
X881819Y-123740D02*
X885756D01*
X883787Y-100209D02*
Y-96272D01*
X881819Y-98240D02*
X885756D01*
X168032Y-138000D02*
X171969D01*
X170000Y-139969D02*
Y-136031D01*
X82000Y-247469D02*
Y-243531D01*
X80032Y-245500D02*
X83969D01*
X82000Y-222969D02*
Y-219031D01*
X80032Y-221000D02*
X83969D01*
X134000Y-228469D02*
Y-224531D01*
X132032Y-226500D02*
X135969D01*
X168032Y-195500D02*
X171969D01*
X170000Y-197468D02*
Y-193531D01*
X425000Y-221968D02*
Y-218031D01*
X423032Y-220000D02*
X426969D01*
X501500Y-224968D02*
Y-221031D01*
X499532Y-223000D02*
X503469D01*
X502500Y-300468D02*
Y-296531D01*
X500532Y-298500D02*
X504469D01*
X426500Y-301468D02*
Y-297531D01*
X424532Y-299500D02*
X428469D01*
X583032Y-267000D02*
X586969D01*
X585000Y-268968D02*
Y-265031D01*
X567500Y-204968D02*
Y-201031D01*
X565532Y-203000D02*
X569469D01*
X563000Y-308969D02*
Y-305031D01*
X561032Y-307000D02*
X564969D01*
X562500Y-283968D02*
Y-280031D01*
X560532Y-282000D02*
X564469D01*
X677532Y-184500D02*
X681469D01*
X679500Y-186468D02*
Y-182531D01*
X658500Y-231969D02*
Y-228031D01*
X656532Y-230000D02*
X660469D01*
X658500Y-207968D02*
Y-204031D01*
X656532Y-206000D02*
X660469D01*
X58032Y-56000D02*
X61969D01*
X60000Y-57968D02*
Y-54031D01*
X96600Y-57968D02*
Y-54031D01*
X94632Y-56000D02*
X98569D01*
X133200Y-57968D02*
Y-54031D01*
X131232Y-56000D02*
X135169D01*
X169800Y-57968D02*
Y-54031D01*
X167832Y-56000D02*
X171769D01*
X206400Y-57968D02*
Y-54031D01*
X204432Y-56000D02*
X208369D01*
X435366Y-119968D02*
Y-116031D01*
X433398Y-118000D02*
X437335D01*
X542366Y-119968D02*
Y-116031D01*
X540398Y-118000D02*
X544335D01*
X199000Y-156468D02*
Y-152531D01*
X197032Y-154500D02*
X200969D01*
X360500Y-153468D02*
Y-149531D01*
X358532Y-151500D02*
X362469D01*
X248000Y-252468D02*
Y-248531D01*
X246032Y-250500D02*
X249969D01*
X483032Y-222500D02*
X486969D01*
X485000Y-224468D02*
Y-220531D01*
X482000Y-299968D02*
Y-296031D01*
X480032Y-298000D02*
X483969D01*
X405500Y-301468D02*
Y-297531D01*
X403532Y-299500D02*
X407469D01*
X591000Y-206468D02*
Y-202531D01*
X589032Y-204500D02*
X592969D01*
X735232Y-176100D02*
X739169D01*
X737200Y-178068D02*
Y-174131D01*
X814032Y-173000D02*
X817969D01*
X816000Y-174968D02*
Y-171031D01*
X901432Y-174500D02*
X905369D01*
X903400Y-176468D02*
Y-172531D01*
X80032Y-70866D02*
X83969D01*
X82000Y-72835D02*
Y-68898D01*
X116532Y-70866D02*
X120469D01*
X118500Y-72835D02*
Y-68898D01*
X154532Y-70866D02*
X158469D01*
X156500Y-72835D02*
Y-68898D01*
X58532Y-28000D02*
X62469D01*
X60500Y-29968D02*
Y-26031D01*
X94435Y-28000D02*
X98372D01*
X96403Y-29968D02*
Y-26031D01*
X131035Y-28000D02*
X134972D01*
X133003Y-29968D02*
Y-26031D01*
X191532Y-70866D02*
X195469D01*
X193500Y-72835D02*
Y-68898D01*
X228532Y-70866D02*
X232469D01*
X230500Y-72835D02*
Y-68898D01*
X267000Y-72835D02*
Y-68898D01*
X265032Y-70866D02*
X268969D01*
X167635Y-28000D02*
X171572D01*
X169603Y-29968D02*
Y-26031D01*
X204235Y-28000D02*
X208172D01*
X206203Y-29968D02*
Y-26031D01*
X489866Y-136969D02*
Y-133031D01*
X487898Y-135000D02*
X491835D01*
X432898Y-140500D02*
X436835D01*
X434866Y-142468D02*
Y-138531D01*
X541032Y-141000D02*
X544969D01*
X543000Y-142968D02*
Y-139031D01*
X412500Y-119969D02*
Y-116031D01*
X410532Y-118000D02*
X414469D01*
X519500Y-119469D02*
Y-115531D01*
X517532Y-117500D02*
X521469D01*
X689032Y-129500D02*
X692969D01*
X691000Y-131469D02*
Y-127531D01*
X672000Y-131968D02*
Y-128031D01*
X670032Y-130000D02*
X673969D01*
X633532Y-144500D02*
X637469D01*
X635500Y-146468D02*
Y-142531D01*
X614366Y-121969D02*
Y-118031D01*
X612398Y-120000D02*
X616335D01*
X751032Y-138500D02*
X754969D01*
X753000Y-140468D02*
Y-136531D01*
X862532Y-135500D02*
X866469D01*
X864500Y-137468D02*
Y-133531D01*
X841000Y-111969D02*
Y-108031D01*
X839032Y-110000D02*
X842969D01*
X115000Y-292469D02*
Y-288531D01*
X113032Y-290500D02*
X116969D01*
X184500Y-292468D02*
Y-288531D01*
X182532Y-290500D02*
X186469D01*
X81000Y-292469D02*
Y-288531D01*
X79032Y-290500D02*
X82969D01*
X417532Y-197500D02*
X421469D01*
X419500Y-199468D02*
Y-195531D01*
X495032Y-199000D02*
X498969D01*
X497000Y-200968D02*
Y-197031D01*
X380500Y-194468D02*
Y-190531D01*
X378532Y-192500D02*
X382469D01*
X381000Y-223469D02*
Y-219531D01*
X379032Y-221500D02*
X382969D01*
X461500Y-196468D02*
Y-192531D01*
X459532Y-194500D02*
X463469D01*
X461500Y-223469D02*
Y-219531D01*
X459532Y-221500D02*
X463469D01*
X397032Y-197500D02*
X400969D01*
X399000Y-199468D02*
Y-195531D01*
X475032Y-199000D02*
X478969D01*
X477000Y-200968D02*
Y-197031D01*
X404532Y-245500D02*
X408469D01*
X406500Y-247468D02*
Y-243531D01*
X484032Y-247500D02*
X487969D01*
X486000Y-249468D02*
Y-245531D01*
X424532Y-277000D02*
X428469D01*
X426500Y-278968D02*
Y-275031D01*
X457500Y-300469D02*
Y-296531D01*
X455532Y-298500D02*
X459469D01*
X384000Y-277468D02*
Y-273531D01*
X382032Y-275500D02*
X385969D01*
X384000Y-301469D02*
Y-297531D01*
X382032Y-299500D02*
X385969D01*
X474532Y-274000D02*
X478469D01*
X476500Y-275968D02*
Y-272031D01*
X404032Y-277000D02*
X407969D01*
X406000Y-278968D02*
Y-275031D01*
X546000Y-229468D02*
Y-225531D01*
X544032Y-227500D02*
X547969D01*
X546000Y-204968D02*
Y-201031D01*
X544032Y-203000D02*
X547969D01*
X540500Y-308468D02*
Y-304531D01*
X538532Y-306500D02*
X542469D01*
X540500Y-283968D02*
Y-280031D01*
X538532Y-282000D02*
X542469D01*
X636500Y-231468D02*
Y-227531D01*
X634532Y-229500D02*
X638469D01*
X636500Y-207968D02*
Y-204031D01*
X634532Y-206000D02*
X638469D01*
X630500Y-311968D02*
Y-308031D01*
X628532Y-310000D02*
X632469D01*
X631000Y-286968D02*
Y-283031D01*
X629032Y-285000D02*
X632969D01*
X170000Y-167968D02*
Y-164031D01*
X168032Y-166000D02*
X171969D01*
X253000Y-169783D02*
Y-165846D01*
X251032Y-167815D02*
X254969D01*
X330000Y-162228D02*
Y-158291D01*
X328032Y-160260D02*
X331969D01*
X220500Y-263468D02*
Y-259531D01*
X218532Y-261500D02*
X222469D01*
X219500Y-158208D02*
Y-154271D01*
X217532Y-156240D02*
X221469D01*
X383000Y-147468D02*
Y-143531D01*
X381032Y-145500D02*
X384969D01*
X271000Y-244968D02*
Y-241031D01*
X269032Y-243000D02*
X272969D01*
D69*
X841531Y-170028D02*
X870469D01*
X841531Y-210972D02*
X870469D01*
X841531D02*
Y-170028D01*
X870469Y-210972D02*
Y-170028D01*
X787968Y-211222D02*
Y-170278D01*
X759031Y-211222D02*
Y-170278D01*
Y-211222D02*
X787968D01*
X759031Y-170278D02*
X787968D01*
X957469Y-210972D02*
Y-170028D01*
X928531Y-210972D02*
Y-170028D01*
Y-210972D02*
X957469D01*
X928531Y-170028D02*
X957469D01*
X475004Y-308957D02*
X487996D01*
X475004Y-316043D02*
X487996D01*
X475004D02*
Y-308957D01*
X487996Y-316043D02*
Y-308957D01*
X448126Y-141890D02*
X455606D01*
X448126Y-128504D02*
X455606D01*
X448126Y-141890D02*
Y-128504D01*
X455606Y-141890D02*
Y-128504D01*
X467626Y-115559D02*
X475106D01*
X467626Y-102173D02*
X475106D01*
X467626Y-115559D02*
Y-102173D01*
X475106Y-115559D02*
Y-102173D01*
X766626Y-108193D02*
X774106D01*
X766626Y-94807D02*
X774106D01*
X766626Y-108193D02*
Y-94807D01*
X774106Y-108193D02*
Y-94807D01*
X785871Y-108193D02*
X793351D01*
X785871Y-94807D02*
X793351D01*
X785871Y-108193D02*
Y-94807D01*
X793351Y-108193D02*
Y-94807D01*
X899292Y-104933D02*
X906772D01*
X899292Y-91547D02*
X906772D01*
X899292Y-104933D02*
Y-91547D01*
X906772Y-104933D02*
Y-91547D01*
X250760Y-146508D02*
X258240D01*
X250760Y-133122D02*
X258240D01*
X250760Y-146508D02*
Y-133122D01*
X258240Y-146508D02*
Y-133122D01*
X326883Y-141646D02*
X334364D01*
X326883Y-128260D02*
X334364D01*
X326883Y-141646D02*
Y-128260D01*
X334364Y-141646D02*
Y-128260D01*
X216136Y-239476D02*
X223616D01*
X216136Y-226091D02*
X223616D01*
X216136Y-239476D02*
Y-226091D01*
X223616Y-239476D02*
Y-226091D01*
X291260Y-242976D02*
X298740D01*
X291260Y-229591D02*
X298740D01*
X291260Y-242976D02*
Y-229591D01*
X298740Y-242976D02*
Y-229591D01*
X125000Y-129728D02*
X132480D01*
X125000Y-143114D02*
X132480D01*
Y-129728D01*
X125000Y-143114D02*
Y-129728D01*
X117433Y-117161D02*
Y-109681D01*
X104047Y-117161D02*
Y-109681D01*
Y-117161D02*
X117433D01*
X104047Y-109681D02*
X117433D01*
X598059Y-184740D02*
Y-177260D01*
X584673Y-184740D02*
Y-177260D01*
Y-184740D02*
X598059D01*
X584673Y-177260D02*
X598059D01*
X562760Y-234327D02*
X570240D01*
X562760Y-220941D02*
X570240D01*
X562760Y-234327D02*
Y-220941D01*
X570240Y-234327D02*
Y-220941D01*
X682193Y-267740D02*
Y-260260D01*
X668807Y-267740D02*
Y-260260D01*
Y-267740D02*
X682193D01*
X668807Y-260260D02*
X682193D01*
X646260Y-316193D02*
X653740D01*
X646260Y-302807D02*
X653740D01*
X646260Y-316193D02*
Y-302807D01*
X653740Y-316193D02*
Y-302807D01*
X645760Y-277807D02*
X653240D01*
X645760Y-291193D02*
X653240D01*
Y-277807D01*
X645760Y-291193D02*
Y-277807D01*
X239260Y-49307D02*
X246740D01*
X239260Y-62693D02*
X246740D01*
Y-49307D01*
X239260Y-62693D02*
Y-49307D01*
X627366Y-128311D02*
X642524D01*
X627366Y-112169D02*
X642524D01*
Y-128311D02*
Y-112169D01*
X627366Y-128311D02*
Y-112169D01*
X744287Y-124571D02*
X759445D01*
X744287Y-108429D02*
X759445D01*
Y-124571D02*
Y-108429D01*
X744287Y-124571D02*
Y-108429D01*
X855709Y-119311D02*
X870866D01*
X855709Y-103169D02*
X870866D01*
Y-119311D02*
Y-103169D01*
X855709Y-119311D02*
Y-103169D01*
X273370Y-178142D02*
X294630D01*
X273370Y-131488D02*
X294630D01*
X273370Y-178142D02*
Y-131488D01*
X294630Y-178142D02*
Y-131488D01*
X312870Y-277327D02*
X334130D01*
X312870Y-230673D02*
X334130D01*
X312870Y-277327D02*
Y-230673D01*
X334130Y-277327D02*
Y-230673D01*
X398000Y-229311D02*
X413157D01*
X398000Y-213169D02*
X413157D01*
Y-229311D02*
Y-213169D01*
X398000Y-229311D02*
Y-213169D01*
X576421Y-299437D02*
X591579D01*
X576421Y-283295D02*
X591579D01*
Y-299437D02*
Y-283295D01*
X576421Y-299437D02*
Y-283295D01*
X671421Y-216571D02*
X686579D01*
X671421Y-200429D02*
X686579D01*
Y-216571D02*
Y-200429D01*
X671421Y-216571D02*
Y-200429D01*
X667843Y-295071D02*
X683000D01*
X667843Y-278929D02*
X683000D01*
Y-295071D02*
Y-278929D01*
X667843Y-295071D02*
Y-278929D01*
X239260Y-34496D02*
Y-21504D01*
X246346Y-34496D02*
Y-21504D01*
X239260Y-34496D02*
X246346D01*
X239260Y-21504D02*
X246346D01*
X467578Y-128504D02*
X474665D01*
X467578Y-141496D02*
X474665D01*
Y-128504D01*
X467578Y-141496D02*
Y-128504D01*
X589528Y-135799D02*
X596614D01*
X589528Y-122807D02*
X596614D01*
X589528Y-135799D02*
Y-122807D01*
X596614Y-135799D02*
Y-122807D01*
X571578D02*
X578665D01*
X571578Y-135799D02*
X578665D01*
Y-122807D01*
X571578Y-135799D02*
Y-122807D01*
X804823Y-133299D02*
X811909D01*
X804823Y-120307D02*
X811909D01*
X804823Y-133299D02*
Y-120307D01*
X811909Y-133299D02*
Y-120307D01*
X785823D02*
X792909D01*
X785823Y-133299D02*
X792909D01*
Y-120307D01*
X785823Y-133299D02*
Y-120307D01*
X725323Y-122996D02*
X732409D01*
X725323Y-110004D02*
X732409D01*
X725323Y-122996D02*
Y-110004D01*
X732409Y-122996D02*
Y-110004D01*
X918244Y-130039D02*
X925331D01*
X918244Y-117047D02*
X925331D01*
X918244Y-130039D02*
Y-117047D01*
X925331Y-130039D02*
Y-117047D01*
X899244D02*
X906331D01*
X899244Y-130039D02*
X906331D01*
Y-117047D01*
X899244Y-130039D02*
Y-117047D01*
X505362Y-277043D02*
Y-269957D01*
X492370Y-277043D02*
Y-269957D01*
Y-277043D02*
X505362D01*
X492370Y-269957D02*
X505362D01*
X453957Y-265370D02*
X461043D01*
X453957Y-278362D02*
X461043D01*
Y-265370D01*
X453957Y-278362D02*
Y-265370D01*
X399004Y-309457D02*
X411996D01*
X399004Y-316543D02*
X411996D01*
X399004D02*
Y-309457D01*
X411996Y-316543D02*
Y-309457D01*
X102669Y-144000D02*
Y-128843D01*
X118811Y-144000D02*
Y-128843D01*
X102669Y-144000D02*
X118811D01*
X102669Y-128843D02*
X118811D01*
X295184Y-258189D02*
X302270D01*
X295184Y-271181D02*
X302270D01*
Y-258189D01*
X295184Y-271181D02*
Y-258189D01*
X301957Y-143579D02*
X309043D01*
X301957Y-156571D02*
X309043D01*
Y-143579D01*
X301957Y-156571D02*
Y-143579D01*
X344457Y-236949D02*
X351543D01*
X344457Y-249941D02*
X351543D01*
Y-236949D01*
X344457Y-249941D02*
Y-236949D01*
X215957Y-133496D02*
X223043D01*
X215957Y-120504D02*
X223043D01*
X215957Y-133496D02*
Y-120504D01*
X223043Y-133496D02*
Y-120504D01*
X146457Y-284004D02*
X153543D01*
X146457Y-296996D02*
X153543D01*
Y-284004D01*
X146457Y-296996D02*
Y-284004D01*
X748793Y-213940D02*
Y-206460D01*
X735407Y-213940D02*
Y-206460D01*
Y-213940D02*
X748793D01*
X735407Y-206460D02*
X748793D01*
X814759Y-196440D02*
Y-188960D01*
X801373Y-196440D02*
Y-188960D01*
Y-196440D02*
X814759D01*
X801373Y-188960D02*
X814759D01*
X913207Y-203660D02*
X926593D01*
X913207Y-211140D02*
X926593D01*
X913207D02*
Y-203660D01*
X926593Y-211140D02*
Y-203660D01*
X554126Y-136193D02*
X561606D01*
X554126Y-122807D02*
X561606D01*
X554126Y-136193D02*
Y-122807D01*
X561606Y-136193D02*
Y-122807D01*
X448126Y-115559D02*
X455606D01*
X448126Y-102173D02*
X455606D01*
X448126Y-115559D02*
Y-102173D01*
X455606Y-115559D02*
Y-102173D01*
X554126Y-111693D02*
X561606D01*
X554126Y-98307D02*
X561606D01*
X554126Y-111693D02*
Y-98307D01*
X561606Y-111693D02*
Y-98307D01*
X579106Y-111693D02*
Y-98307D01*
X571626Y-111693D02*
Y-98307D01*
X579106D01*
X571626Y-111693D02*
X579106D01*
X648626Y-137193D02*
X656106D01*
X648626Y-123807D02*
X656106D01*
X648626Y-137193D02*
Y-123807D01*
X656106Y-137193D02*
Y-123807D01*
X648626Y-112693D02*
X656106D01*
X648626Y-99307D02*
X656106D01*
X648626Y-112693D02*
Y-99307D01*
X656106Y-112693D02*
Y-99307D01*
X766626Y-133693D02*
X774106D01*
X766626Y-120307D02*
X774106D01*
X766626Y-133693D02*
Y-120307D01*
X774106Y-133693D02*
Y-120307D01*
X668371Y-112693D02*
X675851D01*
X668371Y-99307D02*
X675851D01*
X668371Y-112693D02*
Y-99307D01*
X675851Y-112693D02*
Y-99307D01*
X880047Y-130433D02*
X887528D01*
X880047Y-117047D02*
X887528D01*
X880047Y-130433D02*
Y-117047D01*
X887528Y-130433D02*
Y-117047D01*
X880047Y-104933D02*
X887528D01*
X880047Y-91547D02*
X887528D01*
X880047Y-104933D02*
Y-91547D01*
X887528Y-104933D02*
Y-91547D01*
X173740Y-144693D02*
Y-131307D01*
X166260Y-144693D02*
Y-131307D01*
X173740D01*
X166260Y-144693D02*
X173740D01*
X78260Y-252193D02*
X85740D01*
X78260Y-238807D02*
X85740D01*
X78260Y-252193D02*
Y-238807D01*
X85740Y-252193D02*
Y-238807D01*
X78260Y-227693D02*
X85740D01*
X78260Y-214307D02*
X85740D01*
X78260Y-227693D02*
Y-214307D01*
X85740Y-227693D02*
Y-214307D01*
X130260Y-233193D02*
X137740D01*
X130260Y-219807D02*
X137740D01*
X130260Y-233193D02*
Y-219807D01*
X137740Y-233193D02*
Y-219807D01*
X176693Y-199240D02*
Y-191760D01*
X163307Y-199240D02*
Y-191760D01*
Y-199240D02*
X176693D01*
X163307Y-191760D02*
X176693D01*
X421260Y-213307D02*
X428740D01*
X421260Y-226693D02*
X428740D01*
Y-213307D01*
X421260Y-226693D02*
Y-213307D01*
X497760Y-216307D02*
X505240D01*
X497760Y-229693D02*
X505240D01*
Y-216307D01*
X497760Y-229693D02*
Y-216307D01*
X498760Y-291807D02*
X506240D01*
X498760Y-305193D02*
X506240D01*
Y-291807D01*
X498760Y-305193D02*
Y-291807D01*
X422760Y-292807D02*
X430240D01*
X422760Y-306193D02*
X430240D01*
Y-292807D01*
X422760Y-306193D02*
Y-292807D01*
X591693Y-270740D02*
Y-263260D01*
X578307Y-270740D02*
Y-263260D01*
Y-270740D02*
X591693D01*
X578307Y-263260D02*
X591693D01*
X563760Y-196307D02*
X571240D01*
X563760Y-209693D02*
X571240D01*
Y-196307D01*
X563760Y-209693D02*
Y-196307D01*
X559260Y-313693D02*
X566740D01*
X559260Y-300307D02*
X566740D01*
X559260Y-313693D02*
Y-300307D01*
X566740Y-313693D02*
Y-300307D01*
X558760Y-275307D02*
X566240D01*
X558760Y-288693D02*
X566240D01*
Y-275307D01*
X558760Y-288693D02*
Y-275307D01*
X686193Y-188240D02*
Y-180760D01*
X672807Y-188240D02*
Y-180760D01*
Y-188240D02*
X686193D01*
X672807Y-180760D02*
X686193D01*
X654760Y-236693D02*
X662240D01*
X654760Y-223307D02*
X662240D01*
X654760Y-236693D02*
Y-223307D01*
X662240Y-236693D02*
Y-223307D01*
X654760Y-199307D02*
X662240D01*
X654760Y-212693D02*
X662240D01*
Y-199307D01*
X654760Y-212693D02*
Y-199307D01*
X56260Y-62693D02*
Y-49307D01*
X63740Y-62693D02*
Y-49307D01*
X56260Y-62693D02*
X63740D01*
X56260Y-49307D02*
X63740D01*
X92860D02*
X100340D01*
X92860Y-62693D02*
X100340D01*
Y-49307D01*
X92860Y-62693D02*
Y-49307D01*
X129460D02*
X136940D01*
X129460Y-62693D02*
X136940D01*
Y-49307D01*
X129460Y-62693D02*
Y-49307D01*
X166060D02*
X173540D01*
X166060Y-62693D02*
X173540D01*
Y-49307D01*
X166060Y-62693D02*
Y-49307D01*
X202660D02*
X210140D01*
X202660Y-62693D02*
X210140D01*
Y-49307D01*
X202660Y-62693D02*
Y-49307D01*
X427787Y-126071D02*
X442945D01*
X427787Y-109929D02*
X442945D01*
Y-126071D02*
Y-109929D01*
X427787Y-126071D02*
Y-109929D01*
X534787Y-126071D02*
X549945D01*
X534787Y-109929D02*
X549945D01*
Y-126071D02*
Y-109929D01*
X534787Y-126071D02*
Y-109929D01*
X188370Y-177827D02*
X209630D01*
X188370Y-131173D02*
X209630D01*
X188370Y-177827D02*
Y-131173D01*
X209630Y-177827D02*
Y-131173D01*
X349870Y-174827D02*
X371130D01*
X349870Y-128173D02*
X371130D01*
X349870Y-174827D02*
Y-128173D01*
X371130Y-174827D02*
Y-128173D01*
X237370Y-273827D02*
X258630D01*
X237370Y-227173D02*
X258630D01*
X237370Y-273827D02*
Y-227173D01*
X258630Y-273827D02*
Y-227173D01*
X477421Y-230571D02*
Y-214429D01*
X492579Y-230571D02*
Y-214429D01*
X477421D02*
X492579D01*
X477421Y-230571D02*
X492579D01*
X474421Y-306071D02*
X489579D01*
X474421Y-289929D02*
X489579D01*
Y-306071D02*
Y-289929D01*
X474421Y-306071D02*
Y-289929D01*
X397921Y-307571D02*
X413079D01*
X397921Y-291429D02*
X413079D01*
Y-307571D02*
Y-291429D01*
X397921Y-307571D02*
Y-291429D01*
X583421Y-212571D02*
X598579D01*
X583421Y-196429D02*
X598579D01*
Y-212571D02*
Y-196429D01*
X583421Y-212571D02*
Y-196429D01*
X743696Y-179643D02*
Y-172557D01*
X730704Y-179643D02*
Y-172557D01*
Y-179643D02*
X743696D01*
X730704Y-172557D02*
X743696D01*
X822496Y-176543D02*
Y-169457D01*
X809504Y-176543D02*
Y-169457D01*
Y-176543D02*
X822496D01*
X809504Y-169457D02*
X822496D01*
X909896Y-178043D02*
Y-170957D01*
X896904Y-178043D02*
Y-170957D01*
Y-178043D02*
X909896D01*
X896904Y-170957D02*
X909896D01*
X85543Y-77362D02*
Y-64370D01*
X78457Y-77362D02*
Y-64370D01*
X85543D01*
X78457Y-77362D02*
X85543D01*
X122043D02*
Y-64370D01*
X114957Y-77362D02*
Y-64370D01*
X122043D01*
X114957Y-77362D02*
X122043D01*
X160043D02*
Y-64370D01*
X152957Y-77362D02*
Y-64370D01*
X160043D01*
X152957Y-77362D02*
X160043D01*
X56957Y-34496D02*
Y-21504D01*
X64043Y-34496D02*
Y-21504D01*
X56957Y-34496D02*
X64043D01*
X56957Y-21504D02*
X64043D01*
X92860Y-34496D02*
Y-21504D01*
X99946Y-34496D02*
Y-21504D01*
X92860Y-34496D02*
X99946D01*
X92860Y-21504D02*
X99946D01*
X129460Y-34496D02*
Y-21504D01*
X136546Y-34496D02*
Y-21504D01*
X129460Y-34496D02*
X136546D01*
X129460Y-21504D02*
X136546D01*
X197043Y-77362D02*
Y-64370D01*
X189957Y-77362D02*
Y-64370D01*
X197043D01*
X189957Y-77362D02*
X197043D01*
X234043D02*
Y-64370D01*
X226957Y-77362D02*
Y-64370D01*
X234043D01*
X226957Y-77362D02*
X234043D01*
X263457D02*
X270543D01*
X263457Y-64370D02*
X270543D01*
X263457Y-77362D02*
Y-64370D01*
X270543Y-77362D02*
Y-64370D01*
X166060Y-34496D02*
Y-21504D01*
X173146Y-34496D02*
Y-21504D01*
X166060Y-34496D02*
X173146D01*
X166060Y-21504D02*
X173146D01*
X202660Y-34496D02*
Y-21504D01*
X209746Y-34496D02*
Y-21504D01*
X202660Y-34496D02*
X209746D01*
X202660Y-21504D02*
X209746D01*
X486323Y-141496D02*
X493409D01*
X486323Y-128504D02*
X493409D01*
X486323Y-141496D02*
Y-128504D01*
X493409Y-141496D02*
Y-128504D01*
X441362Y-144043D02*
Y-136957D01*
X428370Y-144043D02*
Y-136957D01*
Y-144043D02*
X441362D01*
X428370Y-136957D02*
X441362D01*
X549496Y-144543D02*
Y-137457D01*
X536504Y-144543D02*
Y-137457D01*
Y-144543D02*
X549496D01*
X536504Y-137457D02*
X549496D01*
X408957Y-124496D02*
X416043D01*
X408957Y-111504D02*
X416043D01*
X408957Y-124496D02*
Y-111504D01*
X416043Y-124496D02*
Y-111504D01*
X515957Y-123996D02*
X523043D01*
X515957Y-111004D02*
X523043D01*
X515957Y-123996D02*
Y-111004D01*
X523043Y-123996D02*
Y-111004D01*
X694543Y-135996D02*
Y-123004D01*
X687457Y-135996D02*
Y-123004D01*
X694543D01*
X687457Y-135996D02*
X694543D01*
X668457Y-123504D02*
X675543D01*
X668457Y-136496D02*
X675543D01*
Y-123504D01*
X668457Y-136496D02*
Y-123504D01*
X641996Y-148043D02*
Y-140957D01*
X629004Y-148043D02*
Y-140957D01*
Y-148043D02*
X641996D01*
X629004Y-140957D02*
X641996D01*
X610823Y-126496D02*
X617909D01*
X610823Y-113504D02*
X617909D01*
X610823Y-126496D02*
Y-113504D01*
X617909Y-126496D02*
Y-113504D01*
X759496Y-142043D02*
Y-134957D01*
X746504Y-142043D02*
Y-134957D01*
Y-142043D02*
X759496D01*
X746504Y-134957D02*
X759496D01*
X870996Y-139043D02*
Y-131957D01*
X858004Y-139043D02*
Y-131957D01*
Y-139043D02*
X870996D01*
X858004Y-131957D02*
X870996D01*
X837457Y-116496D02*
X844543D01*
X837457Y-103504D02*
X844543D01*
X837457Y-116496D02*
Y-103504D01*
X844543Y-116496D02*
Y-103504D01*
X111457Y-296996D02*
X118543D01*
X111457Y-284004D02*
X118543D01*
X111457Y-296996D02*
Y-284004D01*
X118543Y-296996D02*
Y-284004D01*
X180957D02*
X188043D01*
X180957Y-296996D02*
X188043D01*
Y-284004D01*
X180957Y-296996D02*
Y-284004D01*
X77457Y-296996D02*
X84543D01*
X77457Y-284004D02*
X84543D01*
X77457Y-296996D02*
Y-284004D01*
X84543Y-296996D02*
Y-284004D01*
X425996Y-201043D02*
Y-193957D01*
X413004Y-201043D02*
Y-193957D01*
Y-201043D02*
X425996D01*
X413004Y-193957D02*
X425996D01*
X503496Y-202543D02*
Y-195457D01*
X490504Y-202543D02*
Y-195457D01*
Y-202543D02*
X503496D01*
X490504Y-195457D02*
X503496D01*
X376957Y-186004D02*
X384043D01*
X376957Y-198996D02*
X384043D01*
Y-186004D01*
X376957Y-198996D02*
Y-186004D01*
X377457Y-227996D02*
X384543D01*
X377457Y-215004D02*
X384543D01*
X377457Y-227996D02*
Y-215004D01*
X384543Y-227996D02*
Y-215004D01*
X457957Y-188004D02*
X465043D01*
X457957Y-200996D02*
X465043D01*
Y-188004D01*
X457957Y-200996D02*
Y-188004D01*
Y-227996D02*
X465043D01*
X457957Y-215004D02*
X465043D01*
X457957Y-227996D02*
Y-215004D01*
X465043Y-227996D02*
Y-215004D01*
X405496Y-201043D02*
Y-193957D01*
X392504Y-201043D02*
Y-193957D01*
Y-201043D02*
X405496D01*
X392504Y-193957D02*
X405496D01*
X483496Y-202543D02*
Y-195457D01*
X470504Y-202543D02*
Y-195457D01*
Y-202543D02*
X483496D01*
X470504Y-195457D02*
X483496D01*
X412996Y-249043D02*
Y-241957D01*
X400004Y-249043D02*
Y-241957D01*
Y-249043D02*
X412996D01*
X400004Y-241957D02*
X412996D01*
X492496Y-251043D02*
Y-243957D01*
X479504Y-251043D02*
Y-243957D01*
Y-251043D02*
X492496D01*
X479504Y-243957D02*
X492496D01*
X432996Y-280543D02*
Y-273457D01*
X420004Y-280543D02*
Y-273457D01*
Y-280543D02*
X432996D01*
X420004Y-273457D02*
X432996D01*
X453957Y-304996D02*
X461043D01*
X453957Y-292004D02*
X461043D01*
X453957Y-304996D02*
Y-292004D01*
X461043Y-304996D02*
Y-292004D01*
X380457Y-269004D02*
X387543D01*
X380457Y-281996D02*
X387543D01*
Y-269004D01*
X380457Y-281996D02*
Y-269004D01*
Y-305996D02*
X387543D01*
X380457Y-293004D02*
X387543D01*
X380457Y-305996D02*
Y-293004D01*
X387543Y-305996D02*
Y-293004D01*
X482996Y-277543D02*
Y-270457D01*
X470004Y-277543D02*
Y-270457D01*
Y-277543D02*
X482996D01*
X470004Y-270457D02*
X482996D01*
X412496Y-280543D02*
Y-273457D01*
X399504Y-280543D02*
Y-273457D01*
Y-280543D02*
X412496D01*
X399504Y-273457D02*
X412496D01*
X542457Y-221004D02*
X549543D01*
X542457Y-233996D02*
X549543D01*
Y-221004D01*
X542457Y-233996D02*
Y-221004D01*
Y-196504D02*
X549543D01*
X542457Y-209496D02*
X549543D01*
Y-196504D01*
X542457Y-209496D02*
Y-196504D01*
X536957Y-300004D02*
X544043D01*
X536957Y-312996D02*
X544043D01*
Y-300004D01*
X536957Y-312996D02*
Y-300004D01*
Y-275504D02*
X544043D01*
X536957Y-288496D02*
X544043D01*
Y-275504D01*
X536957Y-288496D02*
Y-275504D01*
X632957Y-223004D02*
X640043D01*
X632957Y-235996D02*
X640043D01*
Y-223004D01*
X632957Y-235996D02*
Y-223004D01*
Y-199504D02*
X640043D01*
X632957Y-212496D02*
X640043D01*
Y-199504D01*
X632957Y-212496D02*
Y-199504D01*
X626957Y-303504D02*
X634043D01*
X626957Y-316496D02*
X634043D01*
Y-303504D01*
X626957Y-316496D02*
Y-303504D01*
X627457Y-278504D02*
X634543D01*
X627457Y-291496D02*
X634543D01*
Y-278504D01*
X627457Y-291496D02*
Y-278504D01*
X166457Y-159504D02*
X173543D01*
X166457Y-172496D02*
X173543D01*
Y-159504D01*
X166457Y-172496D02*
Y-159504D01*
X249457Y-161319D02*
X256543D01*
X249457Y-174311D02*
X256543D01*
Y-161319D01*
X249457Y-174311D02*
Y-161319D01*
X326457Y-153764D02*
X333543D01*
X326457Y-166756D02*
X333543D01*
Y-153764D01*
X326457Y-166756D02*
Y-153764D01*
X216957Y-255004D02*
X224043D01*
X216957Y-267996D02*
X224043D01*
Y-255004D01*
X216957Y-267996D02*
Y-255004D01*
X215957Y-149744D02*
X223043D01*
X215957Y-162736D02*
X223043D01*
Y-149744D01*
X215957Y-162736D02*
Y-149744D01*
X379457Y-139004D02*
X386543D01*
X379457Y-151996D02*
X386543D01*
Y-139004D01*
X379457Y-151996D02*
Y-139004D01*
X267457Y-236504D02*
X274543D01*
X267457Y-249496D02*
X274543D01*
Y-236504D01*
X267457Y-249496D02*
Y-236504D01*
M02*
