G04 EAGLE Gerber RS-274X export*
G75*
%MOMM*%
%FSLAX34Y34*%
%LPD*%
%INSoldermask Bottom*%
%IPPOS*%
%AMOC8*
5,1,8,0,0,1.08239X$1,22.5*%
G01*
%ADD10C,6.403200*%
%ADD11C,1.703200*%
%ADD12R,1.703200X1.703200*%
%ADD13R,1.403200X1.403200*%
%ADD14C,1.403200*%
%ADD15C,2.203200*%
%ADD16R,1.903200X1.903200*%
%ADD17C,1.903200*%
%ADD18R,1.016000X1.016000*%
%ADD19R,1.203200X1.203200*%
%ADD20C,1.203200*%
%ADD21C,1.853200*%
%ADD22C,0.803200*%


D10*
X2522474Y811462D03*
X2522474Y231462D03*
X3012474Y231462D03*
X3012474Y811462D03*
D11*
X2535174Y762762D03*
D12*
X2509774Y762762D03*
D11*
X2535174Y737362D03*
X2509774Y737362D03*
X2535174Y711962D03*
X2509774Y711962D03*
X2535174Y686562D03*
X2509774Y686562D03*
X2535174Y661162D03*
X2509774Y661162D03*
X2535174Y635762D03*
X2509774Y635762D03*
X2535174Y610362D03*
X2509774Y610362D03*
X2535174Y584962D03*
X2509774Y584962D03*
X2535174Y559562D03*
X2509774Y559562D03*
X2535174Y534162D03*
X2509774Y534162D03*
X2535174Y508762D03*
X2509774Y508762D03*
X2535174Y483362D03*
X2509774Y483362D03*
X2535174Y457962D03*
X2509774Y457962D03*
X2535174Y432562D03*
X2509774Y432562D03*
X2535174Y407162D03*
X2509774Y407162D03*
X2535174Y381762D03*
X2509774Y381762D03*
X2535174Y356362D03*
X2509774Y356362D03*
X2535174Y330962D03*
X2509774Y330962D03*
X2535174Y305562D03*
X2509774Y305562D03*
X2535174Y280162D03*
X2509774Y280162D03*
D12*
X1988820Y76200D03*
D11*
X2014220Y76200D03*
X2039620Y76200D03*
X2065020Y76200D03*
X2090420Y76200D03*
D12*
X1988820Y203200D03*
D11*
X2014220Y203200D03*
X2039620Y203200D03*
X2065020Y203200D03*
X2090420Y203200D03*
X2115820Y203200D03*
X2141220Y203200D03*
X2166620Y203200D03*
X2192020Y203200D03*
X2217420Y203200D03*
X2242820Y203200D03*
D13*
X765810Y325920D03*
D14*
X791210Y325920D03*
X816610Y325920D03*
D13*
X571500Y328930D03*
D14*
X596900Y328930D03*
X622300Y328930D03*
D13*
X847090Y577850D03*
D14*
X872490Y577850D03*
X897890Y577850D03*
D13*
X660400Y573240D03*
D14*
X685800Y573240D03*
X711200Y573240D03*
D15*
X63030Y272340D03*
X113030Y307340D03*
X63030Y342340D03*
X113030Y377340D03*
X771450Y789140D03*
X806450Y739140D03*
X841450Y789140D03*
X876450Y739140D03*
X66840Y475540D03*
X116840Y510540D03*
X66840Y545540D03*
X116840Y580540D03*
D16*
X273860Y290830D03*
D17*
X273860Y265430D03*
X273860Y240030D03*
D15*
X1919380Y790410D03*
X1954380Y740410D03*
X1989380Y790410D03*
X2024380Y740410D03*
D13*
X453390Y576580D03*
D14*
X478790Y576580D03*
X504190Y576580D03*
D15*
X949410Y789140D03*
X984410Y739140D03*
D16*
X662480Y781050D03*
D17*
X662480Y755650D03*
X662480Y730250D03*
D16*
X569262Y781050D03*
D17*
X569262Y755650D03*
X569262Y730250D03*
D16*
X476044Y781050D03*
D17*
X476044Y755650D03*
X476044Y730250D03*
D16*
X382826Y781050D03*
D17*
X382826Y755650D03*
X382826Y730250D03*
D16*
X289608Y781050D03*
D17*
X289608Y755650D03*
X289608Y730250D03*
D16*
X196390Y781050D03*
D17*
X196390Y755650D03*
X196390Y730250D03*
D15*
X1741420Y790410D03*
X1776420Y740410D03*
X1811420Y790410D03*
X1846420Y740410D03*
X1563460Y790410D03*
X1598460Y740410D03*
X1633460Y790410D03*
X1668460Y740410D03*
D12*
X855980Y44450D03*
D11*
X855980Y69850D03*
D18*
X182880Y41910D03*
X208280Y41910D03*
X447040Y41910D03*
X472440Y41910D03*
X358987Y41910D03*
X384387Y41910D03*
X270933Y41910D03*
X296333Y41910D03*
D19*
X2345900Y592729D03*
D20*
X2345900Y605429D03*
D19*
X2057810Y584449D03*
D20*
X2057810Y597149D03*
D19*
X1759880Y577850D03*
D20*
X1759880Y590550D03*
D19*
X1510960Y575310D03*
D20*
X1510960Y588010D03*
D19*
X1248410Y565150D03*
D20*
X1248410Y577850D03*
D19*
X919140Y57150D03*
D20*
X919140Y69850D03*
D19*
X679450Y38100D03*
D20*
X679450Y50800D03*
D15*
X1385500Y790410D03*
X1420500Y740410D03*
X1455500Y790410D03*
X1490500Y740410D03*
X1207540Y790410D03*
X1242540Y740410D03*
X1277540Y790410D03*
X1312540Y740410D03*
X1094030Y790410D03*
X1129030Y740410D03*
D19*
X609600Y36830D03*
D20*
X609600Y49530D03*
D21*
X191770Y406400D03*
X369570Y406400D03*
D15*
X2325930Y790410D03*
X2360930Y740410D03*
X2395930Y790410D03*
X2430930Y740410D03*
X2124000Y790410D03*
X2159000Y740410D03*
X2194000Y790410D03*
X2229000Y740410D03*
D22*
X1646936Y554736D03*
X1438570Y554736D03*
X1183132Y548386D03*
X1652778Y553720D03*
X1138682Y562610D03*
X1069594Y514096D03*
X1652778Y548894D03*
X1913636Y548894D03*
X1974088Y581320D03*
X2219600Y566420D03*
X766826Y339598D03*
X1488440Y306324D03*
X429816Y387398D03*
X386588Y423418D03*
X1841246Y161290D03*
X2136648Y483362D03*
X2389378Y313182D03*
X2414524Y397510D03*
X1021080Y804418D03*
X2366010Y432054D03*
X1299464Y593852D03*
X736854Y413766D03*
X731520Y497840D03*
X993648Y716026D03*
X627380Y158496D03*
X937768Y301244D03*
X652526Y209296D03*
X1036066Y300736D03*
X893572Y397978D03*
X2383790Y445516D03*
X2135886Y384556D03*
X1953006Y371475D03*
X2107692Y359410D03*
X1930146Y359410D03*
X2135886Y359410D03*
X2360676Y379222D03*
X2462276Y409448D03*
X1057910Y380492D03*
X1997964Y295910D03*
X2211832Y434594D03*
X2007362Y377746D03*
X2192528Y321310D03*
X1554226Y264160D03*
X1248210Y261280D03*
X1367442Y261280D03*
X2195830Y298450D03*
X1558544Y390906D03*
X2191258Y340868D03*
X1716786Y273558D03*
X2440178Y648462D03*
X2374900Y496062D03*
X2374900Y472948D03*
X2079498Y472948D03*
X1953006Y384175D03*
X771450Y698500D03*
X1728470Y323342D03*
X2190750Y355854D03*
X1909064Y314452D03*
X2066290Y314452D03*
X913638Y530098D03*
X2007362Y332232D03*
X1628480Y390058D03*
X2180590Y393192D03*
X1051560Y49276D03*
X1615948Y44196D03*
X2452878Y575564D03*
X557530Y402844D03*
X515620Y465328D03*
X538226Y574040D03*
X2185670Y615696D03*
X2281682Y615696D03*
X941070Y754380D03*
X2410956Y828548D03*
X1237320Y68834D03*
X1574292Y68834D03*
X2183638Y326898D03*
X2006092Y364490D03*
X1946148Y475828D03*
X1953006Y398780D03*
X2418334Y417322D03*
X2432558Y655828D03*
X2186329Y313079D03*
X1046820Y185928D03*
X1357376Y185928D03*
X1405382Y390652D03*
X1987550Y303784D03*
X2210562Y417068D03*
X2357120Y457962D03*
X792988Y810006D03*
X252390Y236560D03*
X317500Y241300D03*
X215900Y203200D03*
X1270000Y254000D03*
X1485900Y571500D03*
X1536700Y584200D03*
X2082800Y584200D03*
M02*
