M48
;GenerationSoftware,Autodesk,EAGLE,9.5.0*%
;CreationDate,2021-03-31T19:08:23Z*%
FMAT,2
ICI,OFF
METRIC,TZ,000.000
T8C0.300
T7C0.600
T6C0.700
T5C0.813
T4C0.900
T3C1.000
T2C1.100
T1C2.750
%
G90
M71
T1
X252247Y81146
X252247Y23146
X301247Y23146
X301247Y81146
T2
X19639Y73025
X19639Y75565
X19639Y78105
X28961Y73025
X28961Y75565
X28961Y78105
X38283Y73025
X38283Y75565
X38283Y78105
X47604Y73025
X47604Y75565
X47604Y78105
X56926Y73025
X56926Y75565
X56926Y78105
X66248Y73025
X66248Y75565
X66248Y78105
X27386Y24003
X27386Y26543
X27386Y29083
T3
X112903Y74041
X109403Y79041
X131254Y74041
X124254Y74041
X120754Y79041
X149050Y74041
X222900Y74041
X145550Y79041
X142050Y74041
X138550Y79041
X127754Y79041
X163346Y79041
X159846Y74041
X156346Y79041
X184642Y74041
X181142Y79041
X177642Y74041
X174142Y79041
X166846Y74041
X6684Y54554
X11684Y51054
X6684Y47554
X87645Y73914
X84145Y78914
X80645Y73914
X77145Y78914
X11303Y37734
X11303Y30734
X6303Y27234
X6303Y34234
X219400Y79041
X215900Y74041
X212400Y79041
X243093Y74041
X239593Y79041
X236093Y74041
X98441Y73914
X94941Y78914
X202438Y74041
X198938Y79041
X195438Y74041
X191938Y79041
X232593Y79041
X36957Y40640
X19177Y40640
X11684Y58054
T4
X209042Y7620
X198882Y20320
X201422Y20320
X203962Y20320
X206502Y20320
X209042Y20320
X211582Y20320
X214122Y20320
X216662Y20320
X219202Y20320
X221742Y20320
X224282Y20320
X250977Y28016
X85598Y4445
X85598Y6985
X253517Y76276
X250977Y76276
X253517Y73736
X250977Y73736
X253517Y71196
X250977Y71196
X253517Y68656
X250977Y68656
X250977Y66116
X253517Y63576
X250977Y63576
X253517Y61036
X250977Y61036
X253517Y58496
X250977Y58496
X253517Y55956
X250977Y55956
X253517Y53416
X250977Y53416
X253517Y50876
X250977Y50876
X253517Y48336
X250977Y48336
X253517Y45796
X250977Y45796
X253517Y43256
X250977Y43256
X253517Y40716
X250977Y40716
X253517Y38176
X250977Y38176
X253517Y35636
X250977Y35636
X253517Y33096
X250977Y33096
X253517Y30556
X250977Y30556
X253517Y28016
X253517Y66116
X198882Y7620
X201422Y7620
X203962Y7620
X206502Y7620
T5
X18288Y4191
X29633Y4191
X27093Y4191
X38439Y4191
X35899Y4191
X47244Y4191
X44704Y4191
X20828Y4191
T6
X57150Y32893
X71120Y57324
X79121Y32592
X76581Y32592
X45339Y57658
X47879Y57658
X50419Y57658
X81661Y32592
X59690Y32893
X62230Y32893
X84709Y57785
X87249Y57785
X89789Y57785
X66040Y57324
X68580Y57324
T7
X91914Y6985
X67945Y3810
X67945Y5080
X60960Y3683
X60960Y4953
X175988Y57785
X234590Y59273
X234590Y60543
X205781Y58445
X205781Y59715
X175988Y59055
X151096Y57531
X151096Y58801
X124841Y56515
X124841Y57785
X91914Y5715
T8
X192761Y57658
X132833Y57243
X119067Y54110
X217043Y29642
X221691Y38049
X222199Y72390
X221717Y40684
X239593Y34626
X241325Y40589
X70612Y50648
X58014Y50648
X75438Y12573
X88595Y50013
X70612Y50013
X103378Y8255
X180939Y13015
X83439Y55931
X198425Y37948
X221031Y48666
X173050Y20091
X219710Y34087
X198755Y30404
X195732Y33477
X192684Y38349
X240157Y32512
X242367Y41707
X48844Y71704
X217805Y33223
X173406Y34392
X54229Y67335
X216002Y52959
X246609Y52959
X195326Y41427
X237363Y52146
X213589Y38989
X97460Y81153
X91821Y60681
X216687Y57404
X229895Y60173
X244297Y54229
X78994Y28981
X83541Y25095
X127991Y60960
X51562Y41250
X45517Y43866
X122276Y24486
X139353Y41698
X200685Y28880
X101575Y55347
X98586Y35814
X221640Y34006
X151740Y55143
X135128Y18313
X105791Y22682
X242621Y81788
X243916Y80467
X103607Y32639
X158059Y55824
X151130Y35179
X218491Y34087
X158496Y16104
X220548Y31013
X157556Y58141
X198374Y35687
X162848Y43629
X167742Y56989
X213817Y36276
X213843Y37211
X195311Y37668
X235890Y62001
X199644Y27762
X235585Y37211
X68275Y21285
X62154Y20320
X54018Y44251
X224561Y59944
X215773Y56032
X57373Y26474
X65278Y20422
X211658Y83312
X195301Y35878
M30